%FSLAX45Y45*%
G04 Gerber Fmt 4.5, Leading zero omitted, Abs format (unit mm)*
G04 Created by KiCad (PCBNEW (6.0.5)) date 2022-09-29 20:04:49*
%MOMM*%
%LPD*%
G01*
G04 APERTURE LIST*
%TA.AperFunction,Profile*%
%ADD10C,0.100000*%
%TD*%
%ADD11C,0.200000*%
%ADD12C,0.110000*%
%ADD13C,0.300000*%
G04 APERTURE END LIST*
D10*
X16113125Y-10874375D02*
X16113125Y-6905625D01*
X9921875Y-11826875D02*
X15160625Y-11826875D01*
X9683750Y-11588750D02*
X9683750Y-7381875D01*
X11952749Y-6667499D02*
G75*
G03*
X11793999Y-6826250I1J-158751D01*
G01*
X11635249Y-7064375D02*
X10001250Y-7064375D01*
X16113130Y-6905625D02*
G75*
G03*
X15875000Y-6667500I-238130J-5D01*
G01*
X11952749Y-6667500D02*
X15875000Y-6667500D01*
X11635249Y-7064379D02*
G75*
G03*
X11793999Y-6905625I-9J158759D01*
G01*
X11793999Y-6905625D02*
X11793999Y-6826250D01*
X15160625Y-11826875D02*
G75*
G03*
X16113125Y-10874375I0J952500D01*
G01*
X10001250Y-7064375D02*
G75*
G03*
X9683750Y-7381875I0J-317500D01*
G01*
X9683755Y-11588750D02*
G75*
G03*
X9921875Y-11826875I238125J0D01*
G01*
D11*
D12*
X10057375Y-7168125D02*
X10167375Y-7278125D01*
X10167375Y-7168125D02*
X10057375Y-7278125D01*
X10057375Y-7422125D02*
X10167375Y-7532125D01*
X10167375Y-7422125D02*
X10057375Y-7532125D01*
X10057375Y-7676125D02*
X10167375Y-7786125D01*
X10167375Y-7676125D02*
X10057375Y-7786125D01*
X10057375Y-7930125D02*
X10167375Y-8040125D01*
X10167375Y-7930125D02*
X10057375Y-8040125D01*
X10057375Y-8184125D02*
X10167375Y-8294125D01*
X10167375Y-8184125D02*
X10057375Y-8294125D01*
X10057375Y-8438125D02*
X10167375Y-8548125D01*
X10167375Y-8438125D02*
X10057375Y-8548125D01*
X10057375Y-8692125D02*
X10167375Y-8802125D01*
X10167375Y-8692125D02*
X10057375Y-8802125D01*
X10057375Y-8946125D02*
X10167375Y-9056125D01*
X10167375Y-8946125D02*
X10057375Y-9056125D01*
X10057375Y-9200125D02*
X10167375Y-9310125D01*
X10167375Y-9200125D02*
X10057375Y-9310125D01*
X10057375Y-9454125D02*
X10167375Y-9564125D01*
X10167375Y-9454125D02*
X10057375Y-9564125D01*
X10057375Y-9708125D02*
X10167375Y-9818125D01*
X10167375Y-9708125D02*
X10057375Y-9818125D01*
X10057375Y-9962125D02*
X10167375Y-10072125D01*
X10167375Y-9962125D02*
X10057375Y-10072125D01*
X11581375Y-7168125D02*
X11691375Y-7278125D01*
X11691375Y-7168125D02*
X11581375Y-7278125D01*
X11581375Y-7422125D02*
X11691375Y-7532125D01*
X11691375Y-7422125D02*
X11581375Y-7532125D01*
X11581375Y-7676125D02*
X11691375Y-7786125D01*
X11691375Y-7676125D02*
X11581375Y-7786125D01*
X11581375Y-7930125D02*
X11691375Y-8040125D01*
X11691375Y-7930125D02*
X11581375Y-8040125D01*
X11581375Y-8184125D02*
X11691375Y-8294125D01*
X11691375Y-8184125D02*
X11581375Y-8294125D01*
X11581375Y-8438125D02*
X11691375Y-8548125D01*
X11691375Y-8438125D02*
X11581375Y-8548125D01*
X11581375Y-8692125D02*
X11691375Y-8802125D01*
X11691375Y-8692125D02*
X11581375Y-8802125D01*
X11581375Y-8946125D02*
X11691375Y-9056125D01*
X11691375Y-8946125D02*
X11581375Y-9056125D01*
X11581375Y-9200125D02*
X11691375Y-9310125D01*
X11691375Y-9200125D02*
X11581375Y-9310125D01*
X11581375Y-9454125D02*
X11691375Y-9564125D01*
X11691375Y-9454125D02*
X11581375Y-9564125D01*
X11581375Y-9708125D02*
X11691375Y-9818125D01*
X11691375Y-9708125D02*
X11581375Y-9818125D01*
X11581375Y-9962125D02*
X11691375Y-10072125D01*
X11691375Y-9962125D02*
X11581375Y-10072125D01*
D13*
X12588125Y-8230000D02*
G75*
G03*
X12588125Y-8230000I-150000J0D01*
G01*
X12588125Y-10217500D02*
G75*
G03*
X12588125Y-10217500I-150000J0D01*
G01*
X13088125Y-8450000D02*
G75*
G03*
X13088125Y-8450000I-150000J0D01*
G01*
X13088125Y-10437500D02*
G75*
G03*
X13088125Y-10437500I-150000J0D01*
G01*
X14566875Y-10217500D02*
G75*
G03*
X14566875Y-10217500I-150000J0D01*
G01*
X14572500Y-8230000D02*
G75*
G03*
X14572500Y-8230000I-150000J0D01*
G01*
X15066875Y-10437500D02*
G75*
G03*
X15066875Y-10437500I-150000J0D01*
G01*
X15072500Y-8450000D02*
G75*
G03*
X15072500Y-8450000I-150000J0D01*
G01*
D11*
X9936369Y-12142351D02*
X9936369Y-11942351D01*
X9983988Y-11942351D01*
X10012560Y-11951875D01*
X10031607Y-11970923D01*
X10041131Y-11989970D01*
X10050655Y-12028065D01*
X10050655Y-12056637D01*
X10041131Y-12094732D01*
X10031607Y-12113780D01*
X10012560Y-12132827D01*
X9983988Y-12142351D01*
X9936369Y-12142351D01*
X10136369Y-12142351D02*
X10136369Y-12009018D01*
X10136369Y-12047113D02*
X10145893Y-12028065D01*
X10155417Y-12018542D01*
X10174464Y-12009018D01*
X10193512Y-12009018D01*
X10260179Y-12142351D02*
X10260179Y-12009018D01*
X10260179Y-11942351D02*
X10250655Y-11951875D01*
X10260179Y-11961399D01*
X10269702Y-11951875D01*
X10260179Y-11942351D01*
X10260179Y-11961399D01*
X10383988Y-12142351D02*
X10364940Y-12132827D01*
X10355417Y-12113780D01*
X10355417Y-11942351D01*
X10488750Y-12142351D02*
X10469702Y-12132827D01*
X10460179Y-12113780D01*
X10460179Y-11942351D01*
X10717321Y-12142351D02*
X10717321Y-11942351D01*
X10783988Y-12085208D01*
X10850655Y-11942351D01*
X10850655Y-12142351D01*
X11031607Y-12142351D02*
X11031607Y-12037589D01*
X11022083Y-12018542D01*
X11003036Y-12009018D01*
X10964940Y-12009018D01*
X10945893Y-12018542D01*
X11031607Y-12132827D02*
X11012560Y-12142351D01*
X10964940Y-12142351D01*
X10945893Y-12132827D01*
X10936369Y-12113780D01*
X10936369Y-12094732D01*
X10945893Y-12075684D01*
X10964940Y-12066161D01*
X11012560Y-12066161D01*
X11031607Y-12056637D01*
X11126845Y-12009018D02*
X11126845Y-12209018D01*
X11126845Y-12018542D02*
X11145893Y-12009018D01*
X11183988Y-12009018D01*
X11203036Y-12018542D01*
X11212559Y-12028065D01*
X11222083Y-12047113D01*
X11222083Y-12104256D01*
X11212559Y-12123303D01*
X11203036Y-12132827D01*
X11183988Y-12142351D01*
X11145893Y-12142351D01*
X11126845Y-12132827D01*
X11307798Y-12123303D02*
X11317321Y-12132827D01*
X11307798Y-12142351D01*
X11298274Y-12132827D01*
X11307798Y-12123303D01*
X11307798Y-12142351D01*
X11307798Y-12018542D02*
X11317321Y-12028065D01*
X11307798Y-12037589D01*
X11298274Y-12028065D01*
X11307798Y-12018542D01*
X11307798Y-12037589D01*
D12*
X9568750Y-12416875D02*
X9678750Y-12526875D01*
X9678750Y-12416875D02*
X9568750Y-12526875D01*
D11*
X10041131Y-12562351D02*
X9926845Y-12562351D01*
X9983988Y-12562351D02*
X9983988Y-12362351D01*
X9964940Y-12390923D01*
X9945893Y-12409970D01*
X9926845Y-12419494D01*
X10126845Y-12543303D02*
X10136369Y-12552827D01*
X10126845Y-12562351D01*
X10117321Y-12552827D01*
X10126845Y-12543303D01*
X10126845Y-12562351D01*
X10326845Y-12562351D02*
X10212560Y-12562351D01*
X10269702Y-12562351D02*
X10269702Y-12362351D01*
X10250655Y-12390923D01*
X10231607Y-12409970D01*
X10212560Y-12419494D01*
X10450655Y-12362351D02*
X10469702Y-12362351D01*
X10488750Y-12371875D01*
X10498274Y-12381399D01*
X10507798Y-12400446D01*
X10517321Y-12438542D01*
X10517321Y-12486161D01*
X10507798Y-12524256D01*
X10498274Y-12543303D01*
X10488750Y-12552827D01*
X10469702Y-12562351D01*
X10450655Y-12562351D01*
X10431607Y-12552827D01*
X10422083Y-12543303D01*
X10412560Y-12524256D01*
X10403036Y-12486161D01*
X10403036Y-12438542D01*
X10412560Y-12400446D01*
X10422083Y-12381399D01*
X10431607Y-12371875D01*
X10450655Y-12362351D01*
X10641131Y-12362351D02*
X10660179Y-12362351D01*
X10679226Y-12371875D01*
X10688750Y-12381399D01*
X10698274Y-12400446D01*
X10707798Y-12438542D01*
X10707798Y-12486161D01*
X10698274Y-12524256D01*
X10688750Y-12543303D01*
X10679226Y-12552827D01*
X10660179Y-12562351D01*
X10641131Y-12562351D01*
X10622083Y-12552827D01*
X10612560Y-12543303D01*
X10603036Y-12524256D01*
X10593512Y-12486161D01*
X10593512Y-12438542D01*
X10603036Y-12400446D01*
X10612560Y-12381399D01*
X10622083Y-12371875D01*
X10641131Y-12362351D01*
X10793512Y-12562351D02*
X10793512Y-12429018D01*
X10793512Y-12448065D02*
X10803036Y-12438542D01*
X10822083Y-12429018D01*
X10850655Y-12429018D01*
X10869702Y-12438542D01*
X10879226Y-12457589D01*
X10879226Y-12562351D01*
X10879226Y-12457589D02*
X10888750Y-12438542D01*
X10907798Y-12429018D01*
X10936369Y-12429018D01*
X10955417Y-12438542D01*
X10964940Y-12457589D01*
X10964940Y-12562351D01*
X11060179Y-12562351D02*
X11060179Y-12429018D01*
X11060179Y-12448065D02*
X11069702Y-12438542D01*
X11088750Y-12429018D01*
X11117321Y-12429018D01*
X11136369Y-12438542D01*
X11145893Y-12457589D01*
X11145893Y-12562351D01*
X11145893Y-12457589D02*
X11155417Y-12438542D01*
X11174464Y-12429018D01*
X11203036Y-12429018D01*
X11222083Y-12438542D01*
X11231607Y-12457589D01*
X11231607Y-12562351D01*
X11622083Y-12352827D02*
X11450655Y-12609970D01*
X11879226Y-12362351D02*
X11898274Y-12362351D01*
X11917321Y-12371875D01*
X11926845Y-12381399D01*
X11936369Y-12400446D01*
X11945893Y-12438542D01*
X11945893Y-12486161D01*
X11936369Y-12524256D01*
X11926845Y-12543303D01*
X11917321Y-12552827D01*
X11898274Y-12562351D01*
X11879226Y-12562351D01*
X11860178Y-12552827D01*
X11850655Y-12543303D01*
X11841131Y-12524256D01*
X11831607Y-12486161D01*
X11831607Y-12438542D01*
X11841131Y-12400446D01*
X11850655Y-12381399D01*
X11860178Y-12371875D01*
X11879226Y-12362351D01*
X12031607Y-12543303D02*
X12041131Y-12552827D01*
X12031607Y-12562351D01*
X12022083Y-12552827D01*
X12031607Y-12543303D01*
X12031607Y-12562351D01*
X12164940Y-12362351D02*
X12183988Y-12362351D01*
X12203036Y-12371875D01*
X12212559Y-12381399D01*
X12222083Y-12400446D01*
X12231607Y-12438542D01*
X12231607Y-12486161D01*
X12222083Y-12524256D01*
X12212559Y-12543303D01*
X12203036Y-12552827D01*
X12183988Y-12562351D01*
X12164940Y-12562351D01*
X12145893Y-12552827D01*
X12136369Y-12543303D01*
X12126845Y-12524256D01*
X12117321Y-12486161D01*
X12117321Y-12438542D01*
X12126845Y-12400446D01*
X12136369Y-12381399D01*
X12145893Y-12371875D01*
X12164940Y-12362351D01*
X12403036Y-12429018D02*
X12403036Y-12562351D01*
X12355417Y-12352827D02*
X12307798Y-12495684D01*
X12431607Y-12495684D01*
X12488750Y-12362351D02*
X12612559Y-12362351D01*
X12545893Y-12438542D01*
X12574464Y-12438542D01*
X12593512Y-12448065D01*
X12603036Y-12457589D01*
X12612559Y-12476637D01*
X12612559Y-12524256D01*
X12603036Y-12543303D01*
X12593512Y-12552827D01*
X12574464Y-12562351D01*
X12517321Y-12562351D01*
X12498274Y-12552827D01*
X12488750Y-12543303D01*
X12679226Y-12362351D02*
X12803036Y-12362351D01*
X12736369Y-12438542D01*
X12764940Y-12438542D01*
X12783988Y-12448065D01*
X12793512Y-12457589D01*
X12803036Y-12476637D01*
X12803036Y-12524256D01*
X12793512Y-12543303D01*
X12783988Y-12552827D01*
X12764940Y-12562351D01*
X12707798Y-12562351D01*
X12688750Y-12552827D01*
X12679226Y-12543303D01*
X12879226Y-12362351D02*
X12879226Y-12400446D01*
X12955417Y-12362351D02*
X12955417Y-12400446D01*
X13250655Y-12638542D02*
X13241131Y-12629018D01*
X13222083Y-12600446D01*
X13212559Y-12581399D01*
X13203036Y-12552827D01*
X13193512Y-12505208D01*
X13193512Y-12467113D01*
X13203036Y-12419494D01*
X13212559Y-12390923D01*
X13222083Y-12371875D01*
X13241131Y-12343303D01*
X13250655Y-12333780D01*
X13317321Y-12381399D02*
X13326845Y-12371875D01*
X13345893Y-12362351D01*
X13393512Y-12362351D01*
X13412559Y-12371875D01*
X13422083Y-12381399D01*
X13431607Y-12400446D01*
X13431607Y-12419494D01*
X13422083Y-12448065D01*
X13307798Y-12562351D01*
X13431607Y-12562351D01*
X13603036Y-12429018D02*
X13603036Y-12562351D01*
X13555417Y-12352827D02*
X13507798Y-12495684D01*
X13631607Y-12495684D01*
X13860178Y-12562351D02*
X13860178Y-12362351D01*
X13945893Y-12562351D02*
X13945893Y-12457589D01*
X13936369Y-12438542D01*
X13917321Y-12429018D01*
X13888750Y-12429018D01*
X13869702Y-12438542D01*
X13860178Y-12448065D01*
X14069702Y-12562351D02*
X14050655Y-12552827D01*
X14041131Y-12543303D01*
X14031607Y-12524256D01*
X14031607Y-12467113D01*
X14041131Y-12448065D01*
X14050655Y-12438542D01*
X14069702Y-12429018D01*
X14098274Y-12429018D01*
X14117321Y-12438542D01*
X14126845Y-12448065D01*
X14136369Y-12467113D01*
X14136369Y-12524256D01*
X14126845Y-12543303D01*
X14117321Y-12552827D01*
X14098274Y-12562351D01*
X14069702Y-12562351D01*
X14250655Y-12562351D02*
X14231607Y-12552827D01*
X14222083Y-12533780D01*
X14222083Y-12362351D01*
X14403036Y-12552827D02*
X14383988Y-12562351D01*
X14345893Y-12562351D01*
X14326845Y-12552827D01*
X14317321Y-12533780D01*
X14317321Y-12457589D01*
X14326845Y-12438542D01*
X14345893Y-12429018D01*
X14383988Y-12429018D01*
X14403036Y-12438542D01*
X14412559Y-12457589D01*
X14412559Y-12476637D01*
X14317321Y-12495684D01*
X14488750Y-12552827D02*
X14507798Y-12562351D01*
X14545893Y-12562351D01*
X14564940Y-12552827D01*
X14574464Y-12533780D01*
X14574464Y-12524256D01*
X14564940Y-12505208D01*
X14545893Y-12495684D01*
X14517321Y-12495684D01*
X14498274Y-12486161D01*
X14488750Y-12467113D01*
X14488750Y-12457589D01*
X14498274Y-12438542D01*
X14517321Y-12429018D01*
X14545893Y-12429018D01*
X14564940Y-12438542D01*
X14641131Y-12638542D02*
X14650655Y-12629018D01*
X14669702Y-12600446D01*
X14679226Y-12581399D01*
X14688750Y-12552827D01*
X14698274Y-12505208D01*
X14698274Y-12467113D01*
X14688750Y-12419494D01*
X14679226Y-12390923D01*
X14669702Y-12371875D01*
X14650655Y-12343303D01*
X14641131Y-12333780D01*
X9678750Y-12735875D02*
G75*
G03*
X9678750Y-12735875I-100000J0D01*
G01*
X9917321Y-12626351D02*
X10041131Y-12626351D01*
X9974464Y-12702542D01*
X10003036Y-12702542D01*
X10022083Y-12712065D01*
X10031607Y-12721589D01*
X10041131Y-12740637D01*
X10041131Y-12788256D01*
X10031607Y-12807303D01*
X10022083Y-12816827D01*
X10003036Y-12826351D01*
X9945893Y-12826351D01*
X9926845Y-12816827D01*
X9917321Y-12807303D01*
X10126845Y-12807303D02*
X10136369Y-12816827D01*
X10126845Y-12826351D01*
X10117321Y-12816827D01*
X10126845Y-12807303D01*
X10126845Y-12826351D01*
X10260179Y-12626351D02*
X10279226Y-12626351D01*
X10298274Y-12635875D01*
X10307798Y-12645399D01*
X10317321Y-12664446D01*
X10326845Y-12702542D01*
X10326845Y-12750161D01*
X10317321Y-12788256D01*
X10307798Y-12807303D01*
X10298274Y-12816827D01*
X10279226Y-12826351D01*
X10260179Y-12826351D01*
X10241131Y-12816827D01*
X10231607Y-12807303D01*
X10222083Y-12788256D01*
X10212560Y-12750161D01*
X10212560Y-12702542D01*
X10222083Y-12664446D01*
X10231607Y-12645399D01*
X10241131Y-12635875D01*
X10260179Y-12626351D01*
X10450655Y-12626351D02*
X10469702Y-12626351D01*
X10488750Y-12635875D01*
X10498274Y-12645399D01*
X10507798Y-12664446D01*
X10517321Y-12702542D01*
X10517321Y-12750161D01*
X10507798Y-12788256D01*
X10498274Y-12807303D01*
X10488750Y-12816827D01*
X10469702Y-12826351D01*
X10450655Y-12826351D01*
X10431607Y-12816827D01*
X10422083Y-12807303D01*
X10412560Y-12788256D01*
X10403036Y-12750161D01*
X10403036Y-12702542D01*
X10412560Y-12664446D01*
X10422083Y-12645399D01*
X10431607Y-12635875D01*
X10450655Y-12626351D01*
X10641131Y-12626351D02*
X10660179Y-12626351D01*
X10679226Y-12635875D01*
X10688750Y-12645399D01*
X10698274Y-12664446D01*
X10707798Y-12702542D01*
X10707798Y-12750161D01*
X10698274Y-12788256D01*
X10688750Y-12807303D01*
X10679226Y-12816827D01*
X10660179Y-12826351D01*
X10641131Y-12826351D01*
X10622083Y-12816827D01*
X10612560Y-12807303D01*
X10603036Y-12788256D01*
X10593512Y-12750161D01*
X10593512Y-12702542D01*
X10603036Y-12664446D01*
X10612560Y-12645399D01*
X10622083Y-12635875D01*
X10641131Y-12626351D01*
X10793512Y-12826351D02*
X10793512Y-12693018D01*
X10793512Y-12712065D02*
X10803036Y-12702542D01*
X10822083Y-12693018D01*
X10850655Y-12693018D01*
X10869702Y-12702542D01*
X10879226Y-12721589D01*
X10879226Y-12826351D01*
X10879226Y-12721589D02*
X10888750Y-12702542D01*
X10907798Y-12693018D01*
X10936369Y-12693018D01*
X10955417Y-12702542D01*
X10964940Y-12721589D01*
X10964940Y-12826351D01*
X11060179Y-12826351D02*
X11060179Y-12693018D01*
X11060179Y-12712065D02*
X11069702Y-12702542D01*
X11088750Y-12693018D01*
X11117321Y-12693018D01*
X11136369Y-12702542D01*
X11145893Y-12721589D01*
X11145893Y-12826351D01*
X11145893Y-12721589D02*
X11155417Y-12702542D01*
X11174464Y-12693018D01*
X11203036Y-12693018D01*
X11222083Y-12702542D01*
X11231607Y-12721589D01*
X11231607Y-12826351D01*
X11622083Y-12616827D02*
X11450655Y-12873970D01*
X11879226Y-12626351D02*
X11898274Y-12626351D01*
X11917321Y-12635875D01*
X11926845Y-12645399D01*
X11936369Y-12664446D01*
X11945893Y-12702542D01*
X11945893Y-12750161D01*
X11936369Y-12788256D01*
X11926845Y-12807303D01*
X11917321Y-12816827D01*
X11898274Y-12826351D01*
X11879226Y-12826351D01*
X11860178Y-12816827D01*
X11850655Y-12807303D01*
X11841131Y-12788256D01*
X11831607Y-12750161D01*
X11831607Y-12702542D01*
X11841131Y-12664446D01*
X11850655Y-12645399D01*
X11860178Y-12635875D01*
X11879226Y-12626351D01*
X12031607Y-12807303D02*
X12041131Y-12816827D01*
X12031607Y-12826351D01*
X12022083Y-12816827D01*
X12031607Y-12807303D01*
X12031607Y-12826351D01*
X12231607Y-12826351D02*
X12117321Y-12826351D01*
X12174464Y-12826351D02*
X12174464Y-12626351D01*
X12155417Y-12654923D01*
X12136369Y-12673970D01*
X12117321Y-12683494D01*
X12422083Y-12826351D02*
X12307798Y-12826351D01*
X12364940Y-12826351D02*
X12364940Y-12626351D01*
X12345893Y-12654923D01*
X12326845Y-12673970D01*
X12307798Y-12683494D01*
X12536369Y-12712065D02*
X12517321Y-12702542D01*
X12507798Y-12693018D01*
X12498274Y-12673970D01*
X12498274Y-12664446D01*
X12507798Y-12645399D01*
X12517321Y-12635875D01*
X12536369Y-12626351D01*
X12574464Y-12626351D01*
X12593512Y-12635875D01*
X12603036Y-12645399D01*
X12612559Y-12664446D01*
X12612559Y-12673970D01*
X12603036Y-12693018D01*
X12593512Y-12702542D01*
X12574464Y-12712065D01*
X12536369Y-12712065D01*
X12517321Y-12721589D01*
X12507798Y-12731113D01*
X12498274Y-12750161D01*
X12498274Y-12788256D01*
X12507798Y-12807303D01*
X12517321Y-12816827D01*
X12536369Y-12826351D01*
X12574464Y-12826351D01*
X12593512Y-12816827D01*
X12603036Y-12807303D01*
X12612559Y-12788256D01*
X12612559Y-12750161D01*
X12603036Y-12731113D01*
X12593512Y-12721589D01*
X12574464Y-12712065D01*
X12803036Y-12826351D02*
X12688750Y-12826351D01*
X12745893Y-12826351D02*
X12745893Y-12626351D01*
X12726845Y-12654923D01*
X12707798Y-12673970D01*
X12688750Y-12683494D01*
X12879226Y-12626351D02*
X12879226Y-12664446D01*
X12955417Y-12626351D02*
X12955417Y-12664446D01*
X13250655Y-12902542D02*
X13241131Y-12893018D01*
X13222083Y-12864446D01*
X13212559Y-12845399D01*
X13203036Y-12816827D01*
X13193512Y-12769208D01*
X13193512Y-12731113D01*
X13203036Y-12683494D01*
X13212559Y-12654923D01*
X13222083Y-12635875D01*
X13241131Y-12607303D01*
X13250655Y-12597780D01*
X13355417Y-12712065D02*
X13336369Y-12702542D01*
X13326845Y-12693018D01*
X13317321Y-12673970D01*
X13317321Y-12664446D01*
X13326845Y-12645399D01*
X13336369Y-12635875D01*
X13355417Y-12626351D01*
X13393512Y-12626351D01*
X13412559Y-12635875D01*
X13422083Y-12645399D01*
X13431607Y-12664446D01*
X13431607Y-12673970D01*
X13422083Y-12693018D01*
X13412559Y-12702542D01*
X13393512Y-12712065D01*
X13355417Y-12712065D01*
X13336369Y-12721589D01*
X13326845Y-12731113D01*
X13317321Y-12750161D01*
X13317321Y-12788256D01*
X13326845Y-12807303D01*
X13336369Y-12816827D01*
X13355417Y-12826351D01*
X13393512Y-12826351D01*
X13412559Y-12816827D01*
X13422083Y-12807303D01*
X13431607Y-12788256D01*
X13431607Y-12750161D01*
X13422083Y-12731113D01*
X13412559Y-12721589D01*
X13393512Y-12712065D01*
X13669702Y-12826351D02*
X13669702Y-12626351D01*
X13755417Y-12826351D02*
X13755417Y-12721589D01*
X13745893Y-12702542D01*
X13726845Y-12693018D01*
X13698274Y-12693018D01*
X13679226Y-12702542D01*
X13669702Y-12712065D01*
X13879226Y-12826351D02*
X13860178Y-12816827D01*
X13850655Y-12807303D01*
X13841131Y-12788256D01*
X13841131Y-12731113D01*
X13850655Y-12712065D01*
X13860178Y-12702542D01*
X13879226Y-12693018D01*
X13907798Y-12693018D01*
X13926845Y-12702542D01*
X13936369Y-12712065D01*
X13945893Y-12731113D01*
X13945893Y-12788256D01*
X13936369Y-12807303D01*
X13926845Y-12816827D01*
X13907798Y-12826351D01*
X13879226Y-12826351D01*
X14060178Y-12826351D02*
X14041131Y-12816827D01*
X14031607Y-12797780D01*
X14031607Y-12626351D01*
X14212559Y-12816827D02*
X14193512Y-12826351D01*
X14155417Y-12826351D01*
X14136369Y-12816827D01*
X14126845Y-12797780D01*
X14126845Y-12721589D01*
X14136369Y-12702542D01*
X14155417Y-12693018D01*
X14193512Y-12693018D01*
X14212559Y-12702542D01*
X14222083Y-12721589D01*
X14222083Y-12740637D01*
X14126845Y-12759684D01*
X14298274Y-12816827D02*
X14317321Y-12826351D01*
X14355417Y-12826351D01*
X14374464Y-12816827D01*
X14383988Y-12797780D01*
X14383988Y-12788256D01*
X14374464Y-12769208D01*
X14355417Y-12759684D01*
X14326845Y-12759684D01*
X14307798Y-12750161D01*
X14298274Y-12731113D01*
X14298274Y-12721589D01*
X14307798Y-12702542D01*
X14326845Y-12693018D01*
X14355417Y-12693018D01*
X14374464Y-12702542D01*
X14450655Y-12902542D02*
X14460178Y-12893018D01*
X14479226Y-12864446D01*
X14488750Y-12845399D01*
X14498274Y-12816827D01*
X14507798Y-12769208D01*
X14507798Y-12731113D01*
X14498274Y-12683494D01*
X14488750Y-12654923D01*
X14479226Y-12635875D01*
X14460178Y-12607303D01*
X14450655Y-12597780D01*
M02*
