%FSLAX45Y45*%
G04 Gerber Fmt 4.5, Leading zero omitted, Abs format (unit mm)*
G04 Created by KiCad (PCBNEW (6.0.5)) date 2022-09-29 20:04:49*
%MOMM*%
%LPD*%
G01*
G04 APERTURE LIST*
%TA.AperFunction,Profile*%
%ADD10C,0.100000*%
%TD*%
%ADD11C,0.200000*%
%ADD12C,0.120000*%
%ADD13C,0.170000*%
%ADD14C,0.340000*%
G04 APERTURE END LIST*
D10*
X16113125Y-10874375D02*
X16113125Y-6905625D01*
X9921875Y-11826875D02*
X15160625Y-11826875D01*
X9683750Y-11588750D02*
X9683750Y-7381875D01*
X11952749Y-6667499D02*
G75*
G03*
X11793999Y-6826250I1J-158751D01*
G01*
X11635249Y-7064375D02*
X10001250Y-7064375D01*
X16113130Y-6905625D02*
G75*
G03*
X15875000Y-6667500I-238130J-5D01*
G01*
X11952749Y-6667500D02*
X15875000Y-6667500D01*
X11635249Y-7064379D02*
G75*
G03*
X11793999Y-6905625I-9J158759D01*
G01*
X11793999Y-6905625D02*
X11793999Y-6826250D01*
X15160625Y-11826875D02*
G75*
G03*
X16113125Y-10874375I0J952500D01*
G01*
X10001250Y-7064375D02*
G75*
G03*
X9683750Y-7381875I0J-317500D01*
G01*
X9683755Y-11588750D02*
G75*
G03*
X9921875Y-11826875I238125J0D01*
G01*
D11*
D12*
X13400125Y-7375000D02*
X13520125Y-7495000D01*
X13520125Y-7375000D02*
X13400125Y-7495000D01*
X13400125Y-9362500D02*
X13520125Y-9482500D01*
X13520125Y-9362500D02*
X13400125Y-9482500D01*
X15378875Y-9362500D02*
X15498875Y-9482500D01*
X15498875Y-9362500D02*
X15378875Y-9482500D01*
X15384500Y-7375000D02*
X15504500Y-7495000D01*
X15504500Y-7375000D02*
X15384500Y-7495000D01*
D13*
X12473125Y-7855000D02*
G75*
G03*
X12473125Y-7855000I-85000J0D01*
G01*
X12473125Y-9842500D02*
G75*
G03*
X12473125Y-9842500I-85000J0D01*
G01*
X13573125Y-7855000D02*
G75*
G03*
X13573125Y-7855000I-85000J0D01*
G01*
X13573125Y-9842500D02*
G75*
G03*
X13573125Y-9842500I-85000J0D01*
G01*
X14451875Y-9842500D02*
G75*
G03*
X14451875Y-9842500I-85000J0D01*
G01*
X14457500Y-7855000D02*
G75*
G03*
X14457500Y-7855000I-85000J0D01*
G01*
X15551875Y-9842500D02*
G75*
G03*
X15551875Y-9842500I-85000J0D01*
G01*
X15557500Y-7855000D02*
G75*
G03*
X15557500Y-7855000I-85000J0D01*
G01*
D14*
X12938125Y-7685000D02*
X12938125Y-8025000D01*
X12768125Y-7855000D02*
X13108125Y-7855000D01*
X12938125Y-9672500D02*
X12938125Y-10012500D01*
X12768125Y-9842500D02*
X13108125Y-9842500D01*
X14916875Y-9672500D02*
X14916875Y-10012500D01*
X14746875Y-9842500D02*
X15086875Y-9842500D01*
X14922500Y-7685000D02*
X14922500Y-8025000D01*
X14752500Y-7855000D02*
X15092500Y-7855000D01*
D11*
X9936369Y-12142351D02*
X9936369Y-11942351D01*
X9983988Y-11942351D01*
X10012560Y-11951875D01*
X10031607Y-11970923D01*
X10041131Y-11989970D01*
X10050655Y-12028065D01*
X10050655Y-12056637D01*
X10041131Y-12094732D01*
X10031607Y-12113780D01*
X10012560Y-12132827D01*
X9983988Y-12142351D01*
X9936369Y-12142351D01*
X10136369Y-12142351D02*
X10136369Y-12009018D01*
X10136369Y-12047113D02*
X10145893Y-12028065D01*
X10155417Y-12018542D01*
X10174464Y-12009018D01*
X10193512Y-12009018D01*
X10260179Y-12142351D02*
X10260179Y-12009018D01*
X10260179Y-11942351D02*
X10250655Y-11951875D01*
X10260179Y-11961399D01*
X10269702Y-11951875D01*
X10260179Y-11942351D01*
X10260179Y-11961399D01*
X10383988Y-12142351D02*
X10364940Y-12132827D01*
X10355417Y-12113780D01*
X10355417Y-11942351D01*
X10488750Y-12142351D02*
X10469702Y-12132827D01*
X10460179Y-12113780D01*
X10460179Y-11942351D01*
X10717321Y-12142351D02*
X10717321Y-11942351D01*
X10783988Y-12085208D01*
X10850655Y-11942351D01*
X10850655Y-12142351D01*
X11031607Y-12142351D02*
X11031607Y-12037589D01*
X11022083Y-12018542D01*
X11003036Y-12009018D01*
X10964940Y-12009018D01*
X10945893Y-12018542D01*
X11031607Y-12132827D02*
X11012560Y-12142351D01*
X10964940Y-12142351D01*
X10945893Y-12132827D01*
X10936369Y-12113780D01*
X10936369Y-12094732D01*
X10945893Y-12075684D01*
X10964940Y-12066161D01*
X11012560Y-12066161D01*
X11031607Y-12056637D01*
X11126845Y-12009018D02*
X11126845Y-12209018D01*
X11126845Y-12018542D02*
X11145893Y-12009018D01*
X11183988Y-12009018D01*
X11203036Y-12018542D01*
X11212559Y-12028065D01*
X11222083Y-12047113D01*
X11222083Y-12104256D01*
X11212559Y-12123303D01*
X11203036Y-12132827D01*
X11183988Y-12142351D01*
X11145893Y-12142351D01*
X11126845Y-12132827D01*
X11307798Y-12123303D02*
X11317321Y-12132827D01*
X11307798Y-12142351D01*
X11298274Y-12132827D01*
X11307798Y-12123303D01*
X11307798Y-12142351D01*
X11307798Y-12018542D02*
X11317321Y-12028065D01*
X11307798Y-12037589D01*
X11298274Y-12028065D01*
X11307798Y-12018542D01*
X11307798Y-12037589D01*
D12*
X9558750Y-12411875D02*
X9678750Y-12531875D01*
X9678750Y-12411875D02*
X9558750Y-12531875D01*
D11*
X10041131Y-12562351D02*
X9926845Y-12562351D01*
X9983988Y-12562351D02*
X9983988Y-12362351D01*
X9964940Y-12390923D01*
X9945893Y-12409970D01*
X9926845Y-12419494D01*
X10126845Y-12543303D02*
X10136369Y-12552827D01*
X10126845Y-12562351D01*
X10117321Y-12552827D01*
X10126845Y-12543303D01*
X10126845Y-12562351D01*
X10212560Y-12381399D02*
X10222083Y-12371875D01*
X10241131Y-12362351D01*
X10288750Y-12362351D01*
X10307798Y-12371875D01*
X10317321Y-12381399D01*
X10326845Y-12400446D01*
X10326845Y-12419494D01*
X10317321Y-12448065D01*
X10203036Y-12562351D01*
X10326845Y-12562351D01*
X10450655Y-12362351D02*
X10469702Y-12362351D01*
X10488750Y-12371875D01*
X10498274Y-12381399D01*
X10507798Y-12400446D01*
X10517321Y-12438542D01*
X10517321Y-12486161D01*
X10507798Y-12524256D01*
X10498274Y-12543303D01*
X10488750Y-12552827D01*
X10469702Y-12562351D01*
X10450655Y-12562351D01*
X10431607Y-12552827D01*
X10422083Y-12543303D01*
X10412560Y-12524256D01*
X10403036Y-12486161D01*
X10403036Y-12438542D01*
X10412560Y-12400446D01*
X10422083Y-12381399D01*
X10431607Y-12371875D01*
X10450655Y-12362351D01*
X10641131Y-12362351D02*
X10660179Y-12362351D01*
X10679226Y-12371875D01*
X10688750Y-12381399D01*
X10698274Y-12400446D01*
X10707798Y-12438542D01*
X10707798Y-12486161D01*
X10698274Y-12524256D01*
X10688750Y-12543303D01*
X10679226Y-12552827D01*
X10660179Y-12562351D01*
X10641131Y-12562351D01*
X10622083Y-12552827D01*
X10612560Y-12543303D01*
X10603036Y-12524256D01*
X10593512Y-12486161D01*
X10593512Y-12438542D01*
X10603036Y-12400446D01*
X10612560Y-12381399D01*
X10622083Y-12371875D01*
X10641131Y-12362351D01*
X10793512Y-12562351D02*
X10793512Y-12429018D01*
X10793512Y-12448065D02*
X10803036Y-12438542D01*
X10822083Y-12429018D01*
X10850655Y-12429018D01*
X10869702Y-12438542D01*
X10879226Y-12457589D01*
X10879226Y-12562351D01*
X10879226Y-12457589D02*
X10888750Y-12438542D01*
X10907798Y-12429018D01*
X10936369Y-12429018D01*
X10955417Y-12438542D01*
X10964940Y-12457589D01*
X10964940Y-12562351D01*
X11060179Y-12562351D02*
X11060179Y-12429018D01*
X11060179Y-12448065D02*
X11069702Y-12438542D01*
X11088750Y-12429018D01*
X11117321Y-12429018D01*
X11136369Y-12438542D01*
X11145893Y-12457589D01*
X11145893Y-12562351D01*
X11145893Y-12457589D02*
X11155417Y-12438542D01*
X11174464Y-12429018D01*
X11203036Y-12429018D01*
X11222083Y-12438542D01*
X11231607Y-12457589D01*
X11231607Y-12562351D01*
X11622083Y-12352827D02*
X11450655Y-12609970D01*
X11879226Y-12362351D02*
X11898274Y-12362351D01*
X11917321Y-12371875D01*
X11926845Y-12381399D01*
X11936369Y-12400446D01*
X11945893Y-12438542D01*
X11945893Y-12486161D01*
X11936369Y-12524256D01*
X11926845Y-12543303D01*
X11917321Y-12552827D01*
X11898274Y-12562351D01*
X11879226Y-12562351D01*
X11860178Y-12552827D01*
X11850655Y-12543303D01*
X11841131Y-12524256D01*
X11831607Y-12486161D01*
X11831607Y-12438542D01*
X11841131Y-12400446D01*
X11850655Y-12381399D01*
X11860178Y-12371875D01*
X11879226Y-12362351D01*
X12031607Y-12543303D02*
X12041131Y-12552827D01*
X12031607Y-12562351D01*
X12022083Y-12552827D01*
X12031607Y-12543303D01*
X12031607Y-12562351D01*
X12164940Y-12362351D02*
X12183988Y-12362351D01*
X12203036Y-12371875D01*
X12212559Y-12381399D01*
X12222083Y-12400446D01*
X12231607Y-12438542D01*
X12231607Y-12486161D01*
X12222083Y-12524256D01*
X12212559Y-12543303D01*
X12203036Y-12552827D01*
X12183988Y-12562351D01*
X12164940Y-12562351D01*
X12145893Y-12552827D01*
X12136369Y-12543303D01*
X12126845Y-12524256D01*
X12117321Y-12486161D01*
X12117321Y-12438542D01*
X12126845Y-12400446D01*
X12136369Y-12381399D01*
X12145893Y-12371875D01*
X12164940Y-12362351D01*
X12403036Y-12429018D02*
X12403036Y-12562351D01*
X12355417Y-12352827D02*
X12307798Y-12495684D01*
X12431607Y-12495684D01*
X12488750Y-12362351D02*
X12622083Y-12362351D01*
X12536369Y-12562351D01*
X12688750Y-12381399D02*
X12698274Y-12371875D01*
X12717321Y-12362351D01*
X12764940Y-12362351D01*
X12783988Y-12371875D01*
X12793512Y-12381399D01*
X12803036Y-12400446D01*
X12803036Y-12419494D01*
X12793512Y-12448065D01*
X12679226Y-12562351D01*
X12803036Y-12562351D01*
X12879226Y-12362351D02*
X12879226Y-12400446D01*
X12955417Y-12362351D02*
X12955417Y-12400446D01*
X13250655Y-12638542D02*
X13241131Y-12629018D01*
X13222083Y-12600446D01*
X13212559Y-12581399D01*
X13203036Y-12552827D01*
X13193512Y-12505208D01*
X13193512Y-12467113D01*
X13203036Y-12419494D01*
X13212559Y-12390923D01*
X13222083Y-12371875D01*
X13241131Y-12343303D01*
X13250655Y-12333780D01*
X13412559Y-12429018D02*
X13412559Y-12562351D01*
X13364940Y-12352827D02*
X13317321Y-12495684D01*
X13441131Y-12495684D01*
X13669702Y-12562351D02*
X13669702Y-12362351D01*
X13755417Y-12562351D02*
X13755417Y-12457589D01*
X13745893Y-12438542D01*
X13726845Y-12429018D01*
X13698274Y-12429018D01*
X13679226Y-12438542D01*
X13669702Y-12448065D01*
X13879226Y-12562351D02*
X13860178Y-12552827D01*
X13850655Y-12543303D01*
X13841131Y-12524256D01*
X13841131Y-12467113D01*
X13850655Y-12448065D01*
X13860178Y-12438542D01*
X13879226Y-12429018D01*
X13907798Y-12429018D01*
X13926845Y-12438542D01*
X13936369Y-12448065D01*
X13945893Y-12467113D01*
X13945893Y-12524256D01*
X13936369Y-12543303D01*
X13926845Y-12552827D01*
X13907798Y-12562351D01*
X13879226Y-12562351D01*
X14060178Y-12562351D02*
X14041131Y-12552827D01*
X14031607Y-12533780D01*
X14031607Y-12362351D01*
X14212559Y-12552827D02*
X14193512Y-12562351D01*
X14155417Y-12562351D01*
X14136369Y-12552827D01*
X14126845Y-12533780D01*
X14126845Y-12457589D01*
X14136369Y-12438542D01*
X14155417Y-12429018D01*
X14193512Y-12429018D01*
X14212559Y-12438542D01*
X14222083Y-12457589D01*
X14222083Y-12476637D01*
X14126845Y-12495684D01*
X14298274Y-12552827D02*
X14317321Y-12562351D01*
X14355417Y-12562351D01*
X14374464Y-12552827D01*
X14383988Y-12533780D01*
X14383988Y-12524256D01*
X14374464Y-12505208D01*
X14355417Y-12495684D01*
X14326845Y-12495684D01*
X14307798Y-12486161D01*
X14298274Y-12467113D01*
X14298274Y-12457589D01*
X14307798Y-12438542D01*
X14326845Y-12429018D01*
X14355417Y-12429018D01*
X14374464Y-12438542D01*
X14450655Y-12638542D02*
X14460178Y-12629018D01*
X14479226Y-12600446D01*
X14488750Y-12581399D01*
X14498274Y-12552827D01*
X14507798Y-12505208D01*
X14507798Y-12467113D01*
X14498274Y-12419494D01*
X14488750Y-12390923D01*
X14479226Y-12371875D01*
X14460178Y-12343303D01*
X14450655Y-12333780D01*
X14812559Y-12638542D02*
X14803036Y-12629018D01*
X14783988Y-12600446D01*
X14774464Y-12581399D01*
X14764940Y-12552827D01*
X14755417Y-12505208D01*
X14755417Y-12467113D01*
X14764940Y-12419494D01*
X14774464Y-12390923D01*
X14783988Y-12371875D01*
X14803036Y-12343303D01*
X14812559Y-12333780D01*
X14888750Y-12429018D02*
X14888750Y-12562351D01*
X14888750Y-12448065D02*
X14898274Y-12438542D01*
X14917321Y-12429018D01*
X14945893Y-12429018D01*
X14964940Y-12438542D01*
X14974464Y-12457589D01*
X14974464Y-12562351D01*
X15098274Y-12562351D02*
X15079226Y-12552827D01*
X15069702Y-12543303D01*
X15060178Y-12524256D01*
X15060178Y-12467113D01*
X15069702Y-12448065D01*
X15079226Y-12438542D01*
X15098274Y-12429018D01*
X15126845Y-12429018D01*
X15145893Y-12438542D01*
X15155417Y-12448065D01*
X15164940Y-12467113D01*
X15164940Y-12524256D01*
X15155417Y-12543303D01*
X15145893Y-12552827D01*
X15126845Y-12562351D01*
X15098274Y-12562351D01*
X15222083Y-12429018D02*
X15298274Y-12429018D01*
X15250655Y-12362351D02*
X15250655Y-12533780D01*
X15260178Y-12552827D01*
X15279226Y-12562351D01*
X15298274Y-12562351D01*
X15517321Y-12429018D02*
X15517321Y-12629018D01*
X15517321Y-12438542D02*
X15536369Y-12429018D01*
X15574464Y-12429018D01*
X15593512Y-12438542D01*
X15603036Y-12448065D01*
X15612559Y-12467113D01*
X15612559Y-12524256D01*
X15603036Y-12543303D01*
X15593512Y-12552827D01*
X15574464Y-12562351D01*
X15536369Y-12562351D01*
X15517321Y-12552827D01*
X15726845Y-12562351D02*
X15707798Y-12552827D01*
X15698274Y-12533780D01*
X15698274Y-12362351D01*
X15888750Y-12562351D02*
X15888750Y-12457589D01*
X15879226Y-12438542D01*
X15860178Y-12429018D01*
X15822083Y-12429018D01*
X15803036Y-12438542D01*
X15888750Y-12552827D02*
X15869702Y-12562351D01*
X15822083Y-12562351D01*
X15803036Y-12552827D01*
X15793512Y-12533780D01*
X15793512Y-12514732D01*
X15803036Y-12495684D01*
X15822083Y-12486161D01*
X15869702Y-12486161D01*
X15888750Y-12476637D01*
X15955417Y-12429018D02*
X16031607Y-12429018D01*
X15983988Y-12362351D02*
X15983988Y-12533780D01*
X15993512Y-12552827D01*
X16012559Y-12562351D01*
X16031607Y-12562351D01*
X16174464Y-12552827D02*
X16155417Y-12562351D01*
X16117321Y-12562351D01*
X16098274Y-12552827D01*
X16088750Y-12533780D01*
X16088750Y-12457589D01*
X16098274Y-12438542D01*
X16117321Y-12429018D01*
X16155417Y-12429018D01*
X16174464Y-12438542D01*
X16183988Y-12457589D01*
X16183988Y-12476637D01*
X16088750Y-12495684D01*
X16355417Y-12562351D02*
X16355417Y-12362351D01*
X16355417Y-12552827D02*
X16336369Y-12562351D01*
X16298274Y-12562351D01*
X16279226Y-12552827D01*
X16269702Y-12543303D01*
X16260178Y-12524256D01*
X16260178Y-12467113D01*
X16269702Y-12448065D01*
X16279226Y-12438542D01*
X16298274Y-12429018D01*
X16336369Y-12429018D01*
X16355417Y-12438542D01*
X16431607Y-12638542D02*
X16441131Y-12629018D01*
X16460178Y-12600446D01*
X16469702Y-12581399D01*
X16479226Y-12552827D01*
X16488750Y-12505208D01*
X16488750Y-12467113D01*
X16479226Y-12419494D01*
X16469702Y-12390923D01*
X16460178Y-12371875D01*
X16441131Y-12343303D01*
X16431607Y-12333780D01*
D13*
X9678750Y-12735875D02*
G75*
G03*
X9678750Y-12735875I-85000J0D01*
G01*
D11*
X10041131Y-12826351D02*
X9926845Y-12826351D01*
X9983988Y-12826351D02*
X9983988Y-12626351D01*
X9964940Y-12654923D01*
X9945893Y-12673970D01*
X9926845Y-12683494D01*
X10126845Y-12807303D02*
X10136369Y-12816827D01*
X10126845Y-12826351D01*
X10117321Y-12816827D01*
X10126845Y-12807303D01*
X10126845Y-12826351D01*
X10203036Y-12626351D02*
X10336369Y-12626351D01*
X10250655Y-12826351D01*
X10450655Y-12626351D02*
X10469702Y-12626351D01*
X10488750Y-12635875D01*
X10498274Y-12645399D01*
X10507798Y-12664446D01*
X10517321Y-12702542D01*
X10517321Y-12750161D01*
X10507798Y-12788256D01*
X10498274Y-12807303D01*
X10488750Y-12816827D01*
X10469702Y-12826351D01*
X10450655Y-12826351D01*
X10431607Y-12816827D01*
X10422083Y-12807303D01*
X10412560Y-12788256D01*
X10403036Y-12750161D01*
X10403036Y-12702542D01*
X10412560Y-12664446D01*
X10422083Y-12645399D01*
X10431607Y-12635875D01*
X10450655Y-12626351D01*
X10641131Y-12626351D02*
X10660179Y-12626351D01*
X10679226Y-12635875D01*
X10688750Y-12645399D01*
X10698274Y-12664446D01*
X10707798Y-12702542D01*
X10707798Y-12750161D01*
X10698274Y-12788256D01*
X10688750Y-12807303D01*
X10679226Y-12816827D01*
X10660179Y-12826351D01*
X10641131Y-12826351D01*
X10622083Y-12816827D01*
X10612560Y-12807303D01*
X10603036Y-12788256D01*
X10593512Y-12750161D01*
X10593512Y-12702542D01*
X10603036Y-12664446D01*
X10612560Y-12645399D01*
X10622083Y-12635875D01*
X10641131Y-12626351D01*
X10793512Y-12826351D02*
X10793512Y-12693018D01*
X10793512Y-12712065D02*
X10803036Y-12702542D01*
X10822083Y-12693018D01*
X10850655Y-12693018D01*
X10869702Y-12702542D01*
X10879226Y-12721589D01*
X10879226Y-12826351D01*
X10879226Y-12721589D02*
X10888750Y-12702542D01*
X10907798Y-12693018D01*
X10936369Y-12693018D01*
X10955417Y-12702542D01*
X10964940Y-12721589D01*
X10964940Y-12826351D01*
X11060179Y-12826351D02*
X11060179Y-12693018D01*
X11060179Y-12712065D02*
X11069702Y-12702542D01*
X11088750Y-12693018D01*
X11117321Y-12693018D01*
X11136369Y-12702542D01*
X11145893Y-12721589D01*
X11145893Y-12826351D01*
X11145893Y-12721589D02*
X11155417Y-12702542D01*
X11174464Y-12693018D01*
X11203036Y-12693018D01*
X11222083Y-12702542D01*
X11231607Y-12721589D01*
X11231607Y-12826351D01*
X11622083Y-12616827D02*
X11450655Y-12873970D01*
X11879226Y-12626351D02*
X11898274Y-12626351D01*
X11917321Y-12635875D01*
X11926845Y-12645399D01*
X11936369Y-12664446D01*
X11945893Y-12702542D01*
X11945893Y-12750161D01*
X11936369Y-12788256D01*
X11926845Y-12807303D01*
X11917321Y-12816827D01*
X11898274Y-12826351D01*
X11879226Y-12826351D01*
X11860178Y-12816827D01*
X11850655Y-12807303D01*
X11841131Y-12788256D01*
X11831607Y-12750161D01*
X11831607Y-12702542D01*
X11841131Y-12664446D01*
X11850655Y-12645399D01*
X11860178Y-12635875D01*
X11879226Y-12626351D01*
X12031607Y-12807303D02*
X12041131Y-12816827D01*
X12031607Y-12826351D01*
X12022083Y-12816827D01*
X12031607Y-12807303D01*
X12031607Y-12826351D01*
X12164940Y-12626351D02*
X12183988Y-12626351D01*
X12203036Y-12635875D01*
X12212559Y-12645399D01*
X12222083Y-12664446D01*
X12231607Y-12702542D01*
X12231607Y-12750161D01*
X12222083Y-12788256D01*
X12212559Y-12807303D01*
X12203036Y-12816827D01*
X12183988Y-12826351D01*
X12164940Y-12826351D01*
X12145893Y-12816827D01*
X12136369Y-12807303D01*
X12126845Y-12788256D01*
X12117321Y-12750161D01*
X12117321Y-12702542D01*
X12126845Y-12664446D01*
X12136369Y-12645399D01*
X12145893Y-12635875D01*
X12164940Y-12626351D01*
X12403036Y-12626351D02*
X12364940Y-12626351D01*
X12345893Y-12635875D01*
X12336369Y-12645399D01*
X12317321Y-12673970D01*
X12307798Y-12712065D01*
X12307798Y-12788256D01*
X12317321Y-12807303D01*
X12326845Y-12816827D01*
X12345893Y-12826351D01*
X12383988Y-12826351D01*
X12403036Y-12816827D01*
X12412559Y-12807303D01*
X12422083Y-12788256D01*
X12422083Y-12740637D01*
X12412559Y-12721589D01*
X12403036Y-12712065D01*
X12383988Y-12702542D01*
X12345893Y-12702542D01*
X12326845Y-12712065D01*
X12317321Y-12721589D01*
X12307798Y-12740637D01*
X12593512Y-12626351D02*
X12555417Y-12626351D01*
X12536369Y-12635875D01*
X12526845Y-12645399D01*
X12507798Y-12673970D01*
X12498274Y-12712065D01*
X12498274Y-12788256D01*
X12507798Y-12807303D01*
X12517321Y-12816827D01*
X12536369Y-12826351D01*
X12574464Y-12826351D01*
X12593512Y-12816827D01*
X12603036Y-12807303D01*
X12612559Y-12788256D01*
X12612559Y-12740637D01*
X12603036Y-12721589D01*
X12593512Y-12712065D01*
X12574464Y-12702542D01*
X12536369Y-12702542D01*
X12517321Y-12712065D01*
X12507798Y-12721589D01*
X12498274Y-12740637D01*
X12707798Y-12826351D02*
X12745893Y-12826351D01*
X12764940Y-12816827D01*
X12774464Y-12807303D01*
X12793512Y-12778732D01*
X12803036Y-12740637D01*
X12803036Y-12664446D01*
X12793512Y-12645399D01*
X12783988Y-12635875D01*
X12764940Y-12626351D01*
X12726845Y-12626351D01*
X12707798Y-12635875D01*
X12698274Y-12645399D01*
X12688750Y-12664446D01*
X12688750Y-12712065D01*
X12698274Y-12731113D01*
X12707798Y-12740637D01*
X12726845Y-12750161D01*
X12764940Y-12750161D01*
X12783988Y-12740637D01*
X12793512Y-12731113D01*
X12803036Y-12712065D01*
X12879226Y-12626351D02*
X12879226Y-12664446D01*
X12955417Y-12626351D02*
X12955417Y-12664446D01*
X13250655Y-12902542D02*
X13241131Y-12893018D01*
X13222083Y-12864446D01*
X13212559Y-12845399D01*
X13203036Y-12816827D01*
X13193512Y-12769208D01*
X13193512Y-12731113D01*
X13203036Y-12683494D01*
X13212559Y-12654923D01*
X13222083Y-12635875D01*
X13241131Y-12607303D01*
X13250655Y-12597780D01*
X13355417Y-12712065D02*
X13336369Y-12702542D01*
X13326845Y-12693018D01*
X13317321Y-12673970D01*
X13317321Y-12664446D01*
X13326845Y-12645399D01*
X13336369Y-12635875D01*
X13355417Y-12626351D01*
X13393512Y-12626351D01*
X13412559Y-12635875D01*
X13422083Y-12645399D01*
X13431607Y-12664446D01*
X13431607Y-12673970D01*
X13422083Y-12693018D01*
X13412559Y-12702542D01*
X13393512Y-12712065D01*
X13355417Y-12712065D01*
X13336369Y-12721589D01*
X13326845Y-12731113D01*
X13317321Y-12750161D01*
X13317321Y-12788256D01*
X13326845Y-12807303D01*
X13336369Y-12816827D01*
X13355417Y-12826351D01*
X13393512Y-12826351D01*
X13412559Y-12816827D01*
X13422083Y-12807303D01*
X13431607Y-12788256D01*
X13431607Y-12750161D01*
X13422083Y-12731113D01*
X13412559Y-12721589D01*
X13393512Y-12712065D01*
X13669702Y-12826351D02*
X13669702Y-12626351D01*
X13755417Y-12826351D02*
X13755417Y-12721589D01*
X13745893Y-12702542D01*
X13726845Y-12693018D01*
X13698274Y-12693018D01*
X13679226Y-12702542D01*
X13669702Y-12712065D01*
X13879226Y-12826351D02*
X13860178Y-12816827D01*
X13850655Y-12807303D01*
X13841131Y-12788256D01*
X13841131Y-12731113D01*
X13850655Y-12712065D01*
X13860178Y-12702542D01*
X13879226Y-12693018D01*
X13907798Y-12693018D01*
X13926845Y-12702542D01*
X13936369Y-12712065D01*
X13945893Y-12731113D01*
X13945893Y-12788256D01*
X13936369Y-12807303D01*
X13926845Y-12816827D01*
X13907798Y-12826351D01*
X13879226Y-12826351D01*
X14060178Y-12826351D02*
X14041131Y-12816827D01*
X14031607Y-12797780D01*
X14031607Y-12626351D01*
X14212559Y-12816827D02*
X14193512Y-12826351D01*
X14155417Y-12826351D01*
X14136369Y-12816827D01*
X14126845Y-12797780D01*
X14126845Y-12721589D01*
X14136369Y-12702542D01*
X14155417Y-12693018D01*
X14193512Y-12693018D01*
X14212559Y-12702542D01*
X14222083Y-12721589D01*
X14222083Y-12740637D01*
X14126845Y-12759684D01*
X14298274Y-12816827D02*
X14317321Y-12826351D01*
X14355417Y-12826351D01*
X14374464Y-12816827D01*
X14383988Y-12797780D01*
X14383988Y-12788256D01*
X14374464Y-12769208D01*
X14355417Y-12759684D01*
X14326845Y-12759684D01*
X14307798Y-12750161D01*
X14298274Y-12731113D01*
X14298274Y-12721589D01*
X14307798Y-12702542D01*
X14326845Y-12693018D01*
X14355417Y-12693018D01*
X14374464Y-12702542D01*
X14450655Y-12902542D02*
X14460178Y-12893018D01*
X14479226Y-12864446D01*
X14488750Y-12845399D01*
X14498274Y-12816827D01*
X14507798Y-12769208D01*
X14507798Y-12731113D01*
X14498274Y-12683494D01*
X14488750Y-12654923D01*
X14479226Y-12635875D01*
X14460178Y-12607303D01*
X14450655Y-12597780D01*
X14812559Y-12902542D02*
X14803036Y-12893018D01*
X14783988Y-12864446D01*
X14774464Y-12845399D01*
X14764940Y-12816827D01*
X14755417Y-12769208D01*
X14755417Y-12731113D01*
X14764940Y-12683494D01*
X14774464Y-12654923D01*
X14783988Y-12635875D01*
X14803036Y-12607303D01*
X14812559Y-12597780D01*
X14888750Y-12693018D02*
X14888750Y-12826351D01*
X14888750Y-12712065D02*
X14898274Y-12702542D01*
X14917321Y-12693018D01*
X14945893Y-12693018D01*
X14964940Y-12702542D01*
X14974464Y-12721589D01*
X14974464Y-12826351D01*
X15098274Y-12826351D02*
X15079226Y-12816827D01*
X15069702Y-12807303D01*
X15060178Y-12788256D01*
X15060178Y-12731113D01*
X15069702Y-12712065D01*
X15079226Y-12702542D01*
X15098274Y-12693018D01*
X15126845Y-12693018D01*
X15145893Y-12702542D01*
X15155417Y-12712065D01*
X15164940Y-12731113D01*
X15164940Y-12788256D01*
X15155417Y-12807303D01*
X15145893Y-12816827D01*
X15126845Y-12826351D01*
X15098274Y-12826351D01*
X15222083Y-12693018D02*
X15298274Y-12693018D01*
X15250655Y-12626351D02*
X15250655Y-12797780D01*
X15260178Y-12816827D01*
X15279226Y-12826351D01*
X15298274Y-12826351D01*
X15517321Y-12693018D02*
X15517321Y-12893018D01*
X15517321Y-12702542D02*
X15536369Y-12693018D01*
X15574464Y-12693018D01*
X15593512Y-12702542D01*
X15603036Y-12712065D01*
X15612559Y-12731113D01*
X15612559Y-12788256D01*
X15603036Y-12807303D01*
X15593512Y-12816827D01*
X15574464Y-12826351D01*
X15536369Y-12826351D01*
X15517321Y-12816827D01*
X15726845Y-12826351D02*
X15707798Y-12816827D01*
X15698274Y-12797780D01*
X15698274Y-12626351D01*
X15888750Y-12826351D02*
X15888750Y-12721589D01*
X15879226Y-12702542D01*
X15860178Y-12693018D01*
X15822083Y-12693018D01*
X15803036Y-12702542D01*
X15888750Y-12816827D02*
X15869702Y-12826351D01*
X15822083Y-12826351D01*
X15803036Y-12816827D01*
X15793512Y-12797780D01*
X15793512Y-12778732D01*
X15803036Y-12759684D01*
X15822083Y-12750161D01*
X15869702Y-12750161D01*
X15888750Y-12740637D01*
X15955417Y-12693018D02*
X16031607Y-12693018D01*
X15983988Y-12626351D02*
X15983988Y-12797780D01*
X15993512Y-12816827D01*
X16012559Y-12826351D01*
X16031607Y-12826351D01*
X16174464Y-12816827D02*
X16155417Y-12826351D01*
X16117321Y-12826351D01*
X16098274Y-12816827D01*
X16088750Y-12797780D01*
X16088750Y-12721589D01*
X16098274Y-12702542D01*
X16117321Y-12693018D01*
X16155417Y-12693018D01*
X16174464Y-12702542D01*
X16183988Y-12721589D01*
X16183988Y-12740637D01*
X16088750Y-12759684D01*
X16355417Y-12826351D02*
X16355417Y-12626351D01*
X16355417Y-12816827D02*
X16336369Y-12826351D01*
X16298274Y-12826351D01*
X16279226Y-12816827D01*
X16269702Y-12807303D01*
X16260178Y-12788256D01*
X16260178Y-12731113D01*
X16269702Y-12712065D01*
X16279226Y-12702542D01*
X16298274Y-12693018D01*
X16336369Y-12693018D01*
X16355417Y-12702542D01*
X16431607Y-12902542D02*
X16441131Y-12893018D01*
X16460178Y-12864446D01*
X16469702Y-12845399D01*
X16479226Y-12816827D01*
X16488750Y-12769208D01*
X16488750Y-12731113D01*
X16479226Y-12683494D01*
X16469702Y-12654923D01*
X16460178Y-12635875D01*
X16441131Y-12607303D01*
X16431607Y-12597780D01*
X9578750Y-12925875D02*
X9578750Y-13125875D01*
X9478750Y-13025875D02*
X9678750Y-13025875D01*
X9917321Y-12916351D02*
X10041131Y-12916351D01*
X9974464Y-12992542D01*
X10003036Y-12992542D01*
X10022083Y-13002065D01*
X10031607Y-13011589D01*
X10041131Y-13030637D01*
X10041131Y-13078256D01*
X10031607Y-13097303D01*
X10022083Y-13106827D01*
X10003036Y-13116351D01*
X9945893Y-13116351D01*
X9926845Y-13106827D01*
X9917321Y-13097303D01*
X10126845Y-13097303D02*
X10136369Y-13106827D01*
X10126845Y-13116351D01*
X10117321Y-13106827D01*
X10126845Y-13097303D01*
X10126845Y-13116351D01*
X10307798Y-12983018D02*
X10307798Y-13116351D01*
X10260179Y-12906827D02*
X10212560Y-13049684D01*
X10336369Y-13049684D01*
X10450655Y-12916351D02*
X10469702Y-12916351D01*
X10488750Y-12925875D01*
X10498274Y-12935399D01*
X10507798Y-12954446D01*
X10517321Y-12992542D01*
X10517321Y-13040161D01*
X10507798Y-13078256D01*
X10498274Y-13097303D01*
X10488750Y-13106827D01*
X10469702Y-13116351D01*
X10450655Y-13116351D01*
X10431607Y-13106827D01*
X10422083Y-13097303D01*
X10412560Y-13078256D01*
X10403036Y-13040161D01*
X10403036Y-12992542D01*
X10412560Y-12954446D01*
X10422083Y-12935399D01*
X10431607Y-12925875D01*
X10450655Y-12916351D01*
X10641131Y-12916351D02*
X10660179Y-12916351D01*
X10679226Y-12925875D01*
X10688750Y-12935399D01*
X10698274Y-12954446D01*
X10707798Y-12992542D01*
X10707798Y-13040161D01*
X10698274Y-13078256D01*
X10688750Y-13097303D01*
X10679226Y-13106827D01*
X10660179Y-13116351D01*
X10641131Y-13116351D01*
X10622083Y-13106827D01*
X10612560Y-13097303D01*
X10603036Y-13078256D01*
X10593512Y-13040161D01*
X10593512Y-12992542D01*
X10603036Y-12954446D01*
X10612560Y-12935399D01*
X10622083Y-12925875D01*
X10641131Y-12916351D01*
X10793512Y-13116351D02*
X10793512Y-12983018D01*
X10793512Y-13002065D02*
X10803036Y-12992542D01*
X10822083Y-12983018D01*
X10850655Y-12983018D01*
X10869702Y-12992542D01*
X10879226Y-13011589D01*
X10879226Y-13116351D01*
X10879226Y-13011589D02*
X10888750Y-12992542D01*
X10907798Y-12983018D01*
X10936369Y-12983018D01*
X10955417Y-12992542D01*
X10964940Y-13011589D01*
X10964940Y-13116351D01*
X11060179Y-13116351D02*
X11060179Y-12983018D01*
X11060179Y-13002065D02*
X11069702Y-12992542D01*
X11088750Y-12983018D01*
X11117321Y-12983018D01*
X11136369Y-12992542D01*
X11145893Y-13011589D01*
X11145893Y-13116351D01*
X11145893Y-13011589D02*
X11155417Y-12992542D01*
X11174464Y-12983018D01*
X11203036Y-12983018D01*
X11222083Y-12992542D01*
X11231607Y-13011589D01*
X11231607Y-13116351D01*
X11622083Y-12906827D02*
X11450655Y-13163970D01*
X11879226Y-12916351D02*
X11898274Y-12916351D01*
X11917321Y-12925875D01*
X11926845Y-12935399D01*
X11936369Y-12954446D01*
X11945893Y-12992542D01*
X11945893Y-13040161D01*
X11936369Y-13078256D01*
X11926845Y-13097303D01*
X11917321Y-13106827D01*
X11898274Y-13116351D01*
X11879226Y-13116351D01*
X11860178Y-13106827D01*
X11850655Y-13097303D01*
X11841131Y-13078256D01*
X11831607Y-13040161D01*
X11831607Y-12992542D01*
X11841131Y-12954446D01*
X11850655Y-12935399D01*
X11860178Y-12925875D01*
X11879226Y-12916351D01*
X12031607Y-13097303D02*
X12041131Y-13106827D01*
X12031607Y-13116351D01*
X12022083Y-13106827D01*
X12031607Y-13097303D01*
X12031607Y-13116351D01*
X12231607Y-13116351D02*
X12117321Y-13116351D01*
X12174464Y-13116351D02*
X12174464Y-12916351D01*
X12155417Y-12944923D01*
X12136369Y-12963970D01*
X12117321Y-12973494D01*
X12298274Y-12916351D02*
X12422083Y-12916351D01*
X12355417Y-12992542D01*
X12383988Y-12992542D01*
X12403036Y-13002065D01*
X12412559Y-13011589D01*
X12422083Y-13030637D01*
X12422083Y-13078256D01*
X12412559Y-13097303D01*
X12403036Y-13106827D01*
X12383988Y-13116351D01*
X12326845Y-13116351D01*
X12307798Y-13106827D01*
X12298274Y-13097303D01*
X12488750Y-12916351D02*
X12612559Y-12916351D01*
X12545893Y-12992542D01*
X12574464Y-12992542D01*
X12593512Y-13002065D01*
X12603036Y-13011589D01*
X12612559Y-13030637D01*
X12612559Y-13078256D01*
X12603036Y-13097303D01*
X12593512Y-13106827D01*
X12574464Y-13116351D01*
X12517321Y-13116351D01*
X12498274Y-13106827D01*
X12488750Y-13097303D01*
X12707798Y-13116351D02*
X12745893Y-13116351D01*
X12764940Y-13106827D01*
X12774464Y-13097303D01*
X12793512Y-13068732D01*
X12803036Y-13030637D01*
X12803036Y-12954446D01*
X12793512Y-12935399D01*
X12783988Y-12925875D01*
X12764940Y-12916351D01*
X12726845Y-12916351D01*
X12707798Y-12925875D01*
X12698274Y-12935399D01*
X12688750Y-12954446D01*
X12688750Y-13002065D01*
X12698274Y-13021113D01*
X12707798Y-13030637D01*
X12726845Y-13040161D01*
X12764940Y-13040161D01*
X12783988Y-13030637D01*
X12793512Y-13021113D01*
X12803036Y-13002065D01*
X12879226Y-12916351D02*
X12879226Y-12954446D01*
X12955417Y-12916351D02*
X12955417Y-12954446D01*
X13250655Y-13192542D02*
X13241131Y-13183018D01*
X13222083Y-13154446D01*
X13212559Y-13135399D01*
X13203036Y-13106827D01*
X13193512Y-13059208D01*
X13193512Y-13021113D01*
X13203036Y-12973494D01*
X13212559Y-12944923D01*
X13222083Y-12925875D01*
X13241131Y-12897303D01*
X13250655Y-12887780D01*
X13412559Y-12983018D02*
X13412559Y-13116351D01*
X13364940Y-12906827D02*
X13317321Y-13049684D01*
X13441131Y-13049684D01*
X13669702Y-13116351D02*
X13669702Y-12916351D01*
X13755417Y-13116351D02*
X13755417Y-13011589D01*
X13745893Y-12992542D01*
X13726845Y-12983018D01*
X13698274Y-12983018D01*
X13679226Y-12992542D01*
X13669702Y-13002065D01*
X13879226Y-13116351D02*
X13860178Y-13106827D01*
X13850655Y-13097303D01*
X13841131Y-13078256D01*
X13841131Y-13021113D01*
X13850655Y-13002065D01*
X13860178Y-12992542D01*
X13879226Y-12983018D01*
X13907798Y-12983018D01*
X13926845Y-12992542D01*
X13936369Y-13002065D01*
X13945893Y-13021113D01*
X13945893Y-13078256D01*
X13936369Y-13097303D01*
X13926845Y-13106827D01*
X13907798Y-13116351D01*
X13879226Y-13116351D01*
X14060178Y-13116351D02*
X14041131Y-13106827D01*
X14031607Y-13087780D01*
X14031607Y-12916351D01*
X14212559Y-13106827D02*
X14193512Y-13116351D01*
X14155417Y-13116351D01*
X14136369Y-13106827D01*
X14126845Y-13087780D01*
X14126845Y-13011589D01*
X14136369Y-12992542D01*
X14155417Y-12983018D01*
X14193512Y-12983018D01*
X14212559Y-12992542D01*
X14222083Y-13011589D01*
X14222083Y-13030637D01*
X14126845Y-13049684D01*
X14298274Y-13106827D02*
X14317321Y-13116351D01*
X14355417Y-13116351D01*
X14374464Y-13106827D01*
X14383988Y-13087780D01*
X14383988Y-13078256D01*
X14374464Y-13059208D01*
X14355417Y-13049684D01*
X14326845Y-13049684D01*
X14307798Y-13040161D01*
X14298274Y-13021113D01*
X14298274Y-13011589D01*
X14307798Y-12992542D01*
X14326845Y-12983018D01*
X14355417Y-12983018D01*
X14374464Y-12992542D01*
X14450655Y-13192542D02*
X14460178Y-13183018D01*
X14479226Y-13154446D01*
X14488750Y-13135399D01*
X14498274Y-13106827D01*
X14507798Y-13059208D01*
X14507798Y-13021113D01*
X14498274Y-12973494D01*
X14488750Y-12944923D01*
X14479226Y-12925875D01*
X14460178Y-12897303D01*
X14450655Y-12887780D01*
X14812559Y-13192542D02*
X14803036Y-13183018D01*
X14783988Y-13154446D01*
X14774464Y-13135399D01*
X14764940Y-13106827D01*
X14755417Y-13059208D01*
X14755417Y-13021113D01*
X14764940Y-12973494D01*
X14774464Y-12944923D01*
X14783988Y-12925875D01*
X14803036Y-12897303D01*
X14812559Y-12887780D01*
X14888750Y-12983018D02*
X14888750Y-13116351D01*
X14888750Y-13002065D02*
X14898274Y-12992542D01*
X14917321Y-12983018D01*
X14945893Y-12983018D01*
X14964940Y-12992542D01*
X14974464Y-13011589D01*
X14974464Y-13116351D01*
X15098274Y-13116351D02*
X15079226Y-13106827D01*
X15069702Y-13097303D01*
X15060178Y-13078256D01*
X15060178Y-13021113D01*
X15069702Y-13002065D01*
X15079226Y-12992542D01*
X15098274Y-12983018D01*
X15126845Y-12983018D01*
X15145893Y-12992542D01*
X15155417Y-13002065D01*
X15164940Y-13021113D01*
X15164940Y-13078256D01*
X15155417Y-13097303D01*
X15145893Y-13106827D01*
X15126845Y-13116351D01*
X15098274Y-13116351D01*
X15222083Y-12983018D02*
X15298274Y-12983018D01*
X15250655Y-12916351D02*
X15250655Y-13087780D01*
X15260178Y-13106827D01*
X15279226Y-13116351D01*
X15298274Y-13116351D01*
X15517321Y-12983018D02*
X15517321Y-13183018D01*
X15517321Y-12992542D02*
X15536369Y-12983018D01*
X15574464Y-12983018D01*
X15593512Y-12992542D01*
X15603036Y-13002065D01*
X15612559Y-13021113D01*
X15612559Y-13078256D01*
X15603036Y-13097303D01*
X15593512Y-13106827D01*
X15574464Y-13116351D01*
X15536369Y-13116351D01*
X15517321Y-13106827D01*
X15726845Y-13116351D02*
X15707798Y-13106827D01*
X15698274Y-13087780D01*
X15698274Y-12916351D01*
X15888750Y-13116351D02*
X15888750Y-13011589D01*
X15879226Y-12992542D01*
X15860178Y-12983018D01*
X15822083Y-12983018D01*
X15803036Y-12992542D01*
X15888750Y-13106827D02*
X15869702Y-13116351D01*
X15822083Y-13116351D01*
X15803036Y-13106827D01*
X15793512Y-13087780D01*
X15793512Y-13068732D01*
X15803036Y-13049684D01*
X15822083Y-13040161D01*
X15869702Y-13040161D01*
X15888750Y-13030637D01*
X15955417Y-12983018D02*
X16031607Y-12983018D01*
X15983988Y-12916351D02*
X15983988Y-13087780D01*
X15993512Y-13106827D01*
X16012559Y-13116351D01*
X16031607Y-13116351D01*
X16174464Y-13106827D02*
X16155417Y-13116351D01*
X16117321Y-13116351D01*
X16098274Y-13106827D01*
X16088750Y-13087780D01*
X16088750Y-13011589D01*
X16098274Y-12992542D01*
X16117321Y-12983018D01*
X16155417Y-12983018D01*
X16174464Y-12992542D01*
X16183988Y-13011589D01*
X16183988Y-13030637D01*
X16088750Y-13049684D01*
X16355417Y-13116351D02*
X16355417Y-12916351D01*
X16355417Y-13106827D02*
X16336369Y-13116351D01*
X16298274Y-13116351D01*
X16279226Y-13106827D01*
X16269702Y-13097303D01*
X16260178Y-13078256D01*
X16260178Y-13021113D01*
X16269702Y-13002065D01*
X16279226Y-12992542D01*
X16298274Y-12983018D01*
X16336369Y-12983018D01*
X16355417Y-12992542D01*
X16431607Y-13192542D02*
X16441131Y-13183018D01*
X16460178Y-13154446D01*
X16469702Y-13135399D01*
X16479226Y-13106827D01*
X16488750Y-13059208D01*
X16488750Y-13021113D01*
X16479226Y-12973494D01*
X16469702Y-12944923D01*
X16460178Y-12925875D01*
X16441131Y-12897303D01*
X16431607Y-12887780D01*
M02*
