G04 #@! TF.GenerationSoftware,KiCad,Pcbnew,(6.0.5)*
G04 #@! TF.CreationDate,2022-09-29T20:04:46+08:00*
G04 #@! TF.ProjectId,4k-keypad-pro-micro,346b2d6b-6579-4706-9164-2d70726f2d6d,rev?*
G04 #@! TF.SameCoordinates,Original*
G04 #@! TF.FileFunction,Copper,L1,Top*
G04 #@! TF.FilePolarity,Positive*
%FSLAX46Y46*%
G04 Gerber Fmt 4.6, Leading zero omitted, Abs format (unit mm)*
G04 Created by KiCad (PCBNEW (6.0.5)) date 2022-09-29 20:04:46*
%MOMM*%
%LPD*%
G01*
G04 APERTURE LIST*
G04 Aperture macros list*
%AMRoundRect*
0 Rectangle with rounded corners*
0 $1 Rounding radius*
0 $2 $3 $4 $5 $6 $7 $8 $9 X,Y pos of 4 corners*
0 Add a 4 corners polygon primitive as box body*
4,1,4,$2,$3,$4,$5,$6,$7,$8,$9,$2,$3,0*
0 Add four circle primitives for the rounded corners*
1,1,$1+$1,$2,$3*
1,1,$1+$1,$4,$5*
1,1,$1+$1,$6,$7*
1,1,$1+$1,$8,$9*
0 Add four rect primitives between the rounded corners*
20,1,$1+$1,$2,$3,$4,$5,0*
20,1,$1+$1,$4,$5,$6,$7,0*
20,1,$1+$1,$6,$7,$8,$9,0*
20,1,$1+$1,$8,$9,$2,$3,0*%
G04 Aperture macros list end*
G04 #@! TA.AperFunction,SMDPad,CuDef*
%ADD10R,1.100000X1.800000*%
G04 #@! TD*
G04 #@! TA.AperFunction,ComponentPad*
%ADD11R,1.600000X1.600000*%
G04 #@! TD*
G04 #@! TA.AperFunction,ComponentPad*
%ADD12C,1.600000*%
G04 #@! TD*
G04 #@! TA.AperFunction,SMDPad,CuDef*
%ADD13RoundRect,0.250000X-0.450000X0.262500X-0.450000X-0.262500X0.450000X-0.262500X0.450000X0.262500X0*%
G04 #@! TD*
G04 #@! TA.AperFunction,ComponentPad*
%ADD14C,3.300000*%
G04 #@! TD*
G04 #@! TA.AperFunction,Conductor*
%ADD15C,0.254000*%
G04 #@! TD*
G04 #@! TA.AperFunction,Conductor*
%ADD16C,0.381000*%
G04 #@! TD*
G04 APERTURE END LIST*
D10*
X104243750Y-103262500D03*
X100543750Y-109462500D03*
X100543750Y-103262500D03*
X104243750Y-109462500D03*
D11*
X101123750Y-72231250D03*
D12*
X101123750Y-74771250D03*
X101123750Y-77311250D03*
X101123750Y-79851250D03*
X101123750Y-82391250D03*
X101123750Y-84931250D03*
X101123750Y-87471250D03*
X101123750Y-90011250D03*
X101123750Y-92551250D03*
X101123750Y-95091250D03*
X101123750Y-97631250D03*
X101123750Y-100171250D03*
X116363750Y-100171250D03*
X116363750Y-97631250D03*
X116363750Y-95091250D03*
X116363750Y-92551250D03*
X116363750Y-90011250D03*
X116363750Y-87471250D03*
X116363750Y-84931250D03*
X116363750Y-82391250D03*
X116363750Y-79851250D03*
X116363750Y-77311250D03*
X116363750Y-74771250D03*
X116363750Y-72231250D03*
D13*
X111125000Y-103068750D03*
X111125000Y-104893750D03*
D14*
X144225000Y-82300000D03*
X149225000Y-84500000D03*
X144168750Y-102175000D03*
X149168750Y-104375000D03*
X124381250Y-102175000D03*
X129381250Y-104375000D03*
X124381250Y-82300000D03*
X129381250Y-84500000D03*
D15*
X115768750Y-104893750D02*
X119062500Y-101600000D01*
X119062500Y-101600000D02*
X119062500Y-80010000D01*
X111125000Y-104893750D02*
X115768750Y-104893750D01*
X119062500Y-80010000D02*
X116363750Y-77311250D01*
X107231250Y-103262500D02*
X108862500Y-104893750D01*
X108862500Y-104893750D02*
X111125000Y-104893750D01*
X104243750Y-103262500D02*
X107231250Y-103262500D01*
D16*
X111125000Y-103068750D02*
X113506250Y-100687500D01*
X113506250Y-100687500D02*
X113506250Y-82708750D01*
X113506250Y-82708750D02*
X116363750Y-79851250D01*
X99143750Y-109462500D02*
X98425000Y-108743750D01*
X98425000Y-108743750D02*
X98425000Y-82550000D01*
X100543750Y-109462500D02*
X99143750Y-109462500D01*
X98425000Y-82550000D02*
X101123750Y-79851250D01*
G04 #@! TA.AperFunction,Conductor*
G36*
X158720018Y-67185000D02*
G01*
X158734851Y-67187310D01*
X158734855Y-67187310D01*
X158743724Y-67188691D01*
X158752626Y-67187527D01*
X158752629Y-67187527D01*
X158760012Y-67186561D01*
X158784591Y-67185767D01*
X158811442Y-67187527D01*
X158986204Y-67198982D01*
X159002543Y-67201133D01*
X159226611Y-67245701D01*
X159242529Y-67249966D01*
X159458862Y-67323401D01*
X159474081Y-67329705D01*
X159648555Y-67415744D01*
X159678977Y-67430746D01*
X159693250Y-67438986D01*
X159883206Y-67565909D01*
X159896281Y-67575942D01*
X160068047Y-67726573D01*
X160079702Y-67738227D01*
X160230336Y-67909988D01*
X160240369Y-67923064D01*
X160367290Y-68113009D01*
X160375530Y-68127281D01*
X160468477Y-68315750D01*
X160476576Y-68332173D01*
X160482884Y-68347400D01*
X160556324Y-68563738D01*
X160560589Y-68579657D01*
X160605161Y-68803712D01*
X160607313Y-68820053D01*
X160620047Y-69014279D01*
X160618974Y-69038405D01*
X160618941Y-69041107D01*
X160617559Y-69049985D01*
X160618724Y-69058889D01*
X160621686Y-69081541D01*
X160622750Y-69097881D01*
X160622750Y-108694383D01*
X160621250Y-108713768D01*
X160618940Y-108728601D01*
X160618940Y-108728605D01*
X160617559Y-108737474D01*
X160618723Y-108746376D01*
X160618723Y-108746378D01*
X160620581Y-108760584D01*
X160621583Y-108780879D01*
X160605082Y-109305943D01*
X160604585Y-109313843D01*
X160565969Y-109722365D01*
X160552025Y-109869874D01*
X160551034Y-109877718D01*
X160466091Y-110414031D01*
X160463663Y-110429361D01*
X160462179Y-110437136D01*
X160340341Y-110982204D01*
X160338373Y-110989871D01*
X160182556Y-111526200D01*
X160180114Y-111533715D01*
X159990916Y-112059235D01*
X159988014Y-112066563D01*
X159766190Y-112579168D01*
X159762834Y-112586300D01*
X159621590Y-112863507D01*
X159509267Y-113083953D01*
X159505454Y-113090889D01*
X159221143Y-113571633D01*
X159216901Y-113578316D01*
X158902976Y-114040243D01*
X158898334Y-114046634D01*
X158555999Y-114487969D01*
X158550969Y-114494048D01*
X158181610Y-114913004D01*
X158176191Y-114918774D01*
X157781274Y-115313691D01*
X157775504Y-115319110D01*
X157356548Y-115688469D01*
X157350469Y-115693499D01*
X156909134Y-116035834D01*
X156902743Y-116040476D01*
X156440816Y-116354401D01*
X156434133Y-116358643D01*
X155953389Y-116642954D01*
X155946453Y-116646767D01*
X155448800Y-116900334D01*
X155441668Y-116903690D01*
X154929063Y-117125514D01*
X154921735Y-117128416D01*
X154396215Y-117317614D01*
X154388712Y-117320052D01*
X154189839Y-117377830D01*
X153852371Y-117475873D01*
X153844704Y-117477841D01*
X153299636Y-117599679D01*
X153291869Y-117601162D01*
X152740218Y-117688534D01*
X152732383Y-117689524D01*
X152495126Y-117711951D01*
X152176343Y-117742085D01*
X152168443Y-117742582D01*
X151650950Y-117758845D01*
X151627608Y-117757407D01*
X151621400Y-117756440D01*
X151621395Y-117756440D01*
X151612526Y-117755059D01*
X151603624Y-117756223D01*
X151603622Y-117756223D01*
X151590173Y-117757982D01*
X151580964Y-117759186D01*
X151564629Y-117760250D01*
X99268120Y-117760250D01*
X99248732Y-117758749D01*
X99233912Y-117756441D01*
X99233911Y-117756441D01*
X99225037Y-117755059D01*
X99208743Y-117757189D01*
X99184171Y-117757982D01*
X99038323Y-117748420D01*
X98982559Y-117744764D01*
X98966218Y-117742612D01*
X98742170Y-117698041D01*
X98726251Y-117693776D01*
X98615277Y-117656104D01*
X98509914Y-117620336D01*
X98494696Y-117614032D01*
X98289806Y-117512987D01*
X98275534Y-117504747D01*
X98085595Y-117377830D01*
X98072519Y-117367797D01*
X97900762Y-117217166D01*
X97889108Y-117205512D01*
X97738477Y-117033747D01*
X97728450Y-117020679D01*
X97601526Y-116830721D01*
X97593299Y-116816473D01*
X97492247Y-116611555D01*
X97485947Y-116596343D01*
X97412516Y-116380019D01*
X97408250Y-116364099D01*
X97363682Y-116140038D01*
X97361531Y-116123698D01*
X97349012Y-115932693D01*
X97350175Y-115909734D01*
X97349834Y-115909703D01*
X97350270Y-115904845D01*
X97351076Y-115900052D01*
X97351229Y-115887500D01*
X97347273Y-115859876D01*
X97346000Y-115842014D01*
X97346000Y-110407169D01*
X99485751Y-110407169D01*
X99486121Y-110413990D01*
X99491645Y-110464852D01*
X99495271Y-110480104D01*
X99540426Y-110600554D01*
X99548964Y-110616149D01*
X99625465Y-110718224D01*
X99638026Y-110730785D01*
X99740101Y-110807286D01*
X99755696Y-110815824D01*
X99876144Y-110860978D01*
X99891399Y-110864605D01*
X99942264Y-110870131D01*
X99949078Y-110870500D01*
X100271635Y-110870500D01*
X100286874Y-110866025D01*
X100288079Y-110864635D01*
X100289750Y-110856952D01*
X100289750Y-110852384D01*
X100797750Y-110852384D01*
X100802225Y-110867623D01*
X100803615Y-110868828D01*
X100811298Y-110870499D01*
X101138419Y-110870499D01*
X101145240Y-110870129D01*
X101196102Y-110864605D01*
X101211354Y-110860979D01*
X101331804Y-110815824D01*
X101347399Y-110807286D01*
X101449474Y-110730785D01*
X101462035Y-110718224D01*
X101538536Y-110616149D01*
X101547074Y-110600554D01*
X101592228Y-110480106D01*
X101595855Y-110464851D01*
X101601381Y-110413986D01*
X101601563Y-110410634D01*
X103185250Y-110410634D01*
X103192005Y-110472816D01*
X103243135Y-110609205D01*
X103330489Y-110725761D01*
X103447045Y-110813115D01*
X103583434Y-110864245D01*
X103645616Y-110871000D01*
X104841884Y-110871000D01*
X104904066Y-110864245D01*
X105040455Y-110813115D01*
X105157011Y-110725761D01*
X105244365Y-110609205D01*
X105295495Y-110472816D01*
X105302250Y-110410634D01*
X105302250Y-108514366D01*
X105295495Y-108452184D01*
X105244365Y-108315795D01*
X105157011Y-108199239D01*
X105040455Y-108111885D01*
X104904066Y-108060755D01*
X104841884Y-108054000D01*
X103645616Y-108054000D01*
X103583434Y-108060755D01*
X103447045Y-108111885D01*
X103330489Y-108199239D01*
X103243135Y-108315795D01*
X103192005Y-108452184D01*
X103185250Y-108514366D01*
X103185250Y-110410634D01*
X101601563Y-110410634D01*
X101601750Y-110407172D01*
X101601750Y-109734615D01*
X101597275Y-109719376D01*
X101595885Y-109718171D01*
X101588202Y-109716500D01*
X100815865Y-109716500D01*
X100800626Y-109720975D01*
X100799421Y-109722365D01*
X100797750Y-109730048D01*
X100797750Y-110852384D01*
X100289750Y-110852384D01*
X100289750Y-109734615D01*
X100285275Y-109719376D01*
X100283885Y-109718171D01*
X100276202Y-109716500D01*
X99503866Y-109716500D01*
X99488627Y-109720975D01*
X99487422Y-109722365D01*
X99485751Y-109730048D01*
X99485751Y-110407169D01*
X97346000Y-110407169D01*
X97346000Y-109190385D01*
X99485750Y-109190385D01*
X99490225Y-109205624D01*
X99491615Y-109206829D01*
X99499298Y-109208500D01*
X100271635Y-109208500D01*
X100286874Y-109204025D01*
X100288079Y-109202635D01*
X100289750Y-109194952D01*
X100289750Y-109190385D01*
X100797750Y-109190385D01*
X100802225Y-109205624D01*
X100803615Y-109206829D01*
X100811298Y-109208500D01*
X101583634Y-109208500D01*
X101598873Y-109204025D01*
X101600078Y-109202635D01*
X101601749Y-109194952D01*
X101601749Y-108517831D01*
X101601379Y-108511010D01*
X101595855Y-108460148D01*
X101592229Y-108444896D01*
X101547074Y-108324446D01*
X101538536Y-108308851D01*
X101462035Y-108206776D01*
X101449474Y-108194215D01*
X101347399Y-108117714D01*
X101331804Y-108109176D01*
X101211356Y-108064022D01*
X101196101Y-108060395D01*
X101145236Y-108054869D01*
X101138422Y-108054500D01*
X100815865Y-108054500D01*
X100800626Y-108058975D01*
X100799421Y-108060365D01*
X100797750Y-108068048D01*
X100797750Y-109190385D01*
X100289750Y-109190385D01*
X100289750Y-108072616D01*
X100285275Y-108057377D01*
X100283885Y-108056172D01*
X100276202Y-108054501D01*
X99949081Y-108054501D01*
X99942260Y-108054871D01*
X99891398Y-108060395D01*
X99876146Y-108064021D01*
X99755696Y-108109176D01*
X99740101Y-108117714D01*
X99638026Y-108194215D01*
X99625465Y-108206776D01*
X99548964Y-108308851D01*
X99540426Y-108324446D01*
X99495272Y-108444894D01*
X99491645Y-108460149D01*
X99486119Y-108511014D01*
X99485750Y-108517828D01*
X99485750Y-109190385D01*
X97346000Y-109190385D01*
X97346000Y-104210634D01*
X99485250Y-104210634D01*
X99492005Y-104272816D01*
X99543135Y-104409205D01*
X99630489Y-104525761D01*
X99747045Y-104613115D01*
X99883434Y-104664245D01*
X99945616Y-104671000D01*
X101141884Y-104671000D01*
X101204066Y-104664245D01*
X101340455Y-104613115D01*
X101457011Y-104525761D01*
X101544365Y-104409205D01*
X101595495Y-104272816D01*
X101602250Y-104210634D01*
X103185250Y-104210634D01*
X103192005Y-104272816D01*
X103243135Y-104409205D01*
X103330489Y-104525761D01*
X103447045Y-104613115D01*
X103583434Y-104664245D01*
X103645616Y-104671000D01*
X104841884Y-104671000D01*
X104904066Y-104664245D01*
X105040455Y-104613115D01*
X105157011Y-104525761D01*
X105244365Y-104409205D01*
X105295495Y-104272816D01*
X105302250Y-104210634D01*
X105302250Y-104024000D01*
X105322252Y-103955879D01*
X105375908Y-103909386D01*
X105428250Y-103898000D01*
X106915828Y-103898000D01*
X106983949Y-103918002D01*
X107004923Y-103934905D01*
X107683132Y-104613115D01*
X108357250Y-105287233D01*
X108364826Y-105295559D01*
X108368947Y-105302053D01*
X108374722Y-105307476D01*
X108418765Y-105348835D01*
X108421607Y-105351590D01*
X108441406Y-105371389D01*
X108444531Y-105373813D01*
X108444540Y-105373821D01*
X108444626Y-105373887D01*
X108453651Y-105381595D01*
X108485994Y-105411967D01*
X108492938Y-105415785D01*
X108492940Y-105415786D01*
X108503829Y-105421772D01*
X108520347Y-105432623D01*
X108536433Y-105445100D01*
X108577166Y-105462726D01*
X108587814Y-105467943D01*
X108596109Y-105472503D01*
X108626697Y-105489319D01*
X108634372Y-105491290D01*
X108634378Y-105491292D01*
X108646411Y-105494381D01*
X108665113Y-105500784D01*
X108683792Y-105508867D01*
X108717318Y-105514177D01*
X108727627Y-105515810D01*
X108739240Y-105518215D01*
X108782218Y-105529250D01*
X108802565Y-105529250D01*
X108822277Y-105530801D01*
X108842379Y-105533985D01*
X108850271Y-105533239D01*
X108886556Y-105529809D01*
X108898414Y-105529250D01*
X109943604Y-105529250D01*
X110011725Y-105549252D01*
X110050747Y-105588946D01*
X110076522Y-105630598D01*
X110201697Y-105755555D01*
X110207927Y-105759395D01*
X110207928Y-105759396D01*
X110345090Y-105843944D01*
X110352262Y-105848365D01*
X110432005Y-105874814D01*
X110513611Y-105901882D01*
X110513613Y-105901882D01*
X110520139Y-105904047D01*
X110526975Y-105904747D01*
X110526978Y-105904748D01*
X110570031Y-105909159D01*
X110624600Y-105914750D01*
X111625400Y-105914750D01*
X111628646Y-105914413D01*
X111628650Y-105914413D01*
X111724308Y-105904488D01*
X111724312Y-105904487D01*
X111731166Y-105903776D01*
X111737702Y-105901595D01*
X111737704Y-105901595D01*
X111869806Y-105857522D01*
X111898946Y-105847800D01*
X112049348Y-105754728D01*
X112174305Y-105629553D01*
X112178148Y-105623319D01*
X112199221Y-105589133D01*
X112251993Y-105541640D01*
X112306480Y-105529250D01*
X115689730Y-105529250D01*
X115700964Y-105529780D01*
X115708469Y-105531458D01*
X115776762Y-105529312D01*
X115780719Y-105529250D01*
X115808733Y-105529250D01*
X115812658Y-105528754D01*
X115812659Y-105528754D01*
X115812754Y-105528742D01*
X115824599Y-105527809D01*
X115854420Y-105526872D01*
X115861032Y-105526664D01*
X115861033Y-105526664D01*
X115868955Y-105526415D01*
X115888499Y-105520737D01*
X115907862Y-105516727D01*
X115920190Y-105515170D01*
X115920192Y-105515170D01*
X115928049Y-105514177D01*
X115935413Y-105511261D01*
X115935418Y-105511260D01*
X115969306Y-105497843D01*
X115980535Y-105493998D01*
X115997215Y-105489152D01*
X116023143Y-105481619D01*
X116029970Y-105477581D01*
X116029973Y-105477580D01*
X116040656Y-105471262D01*
X116058414Y-105462562D01*
X116069965Y-105457989D01*
X116069971Y-105457985D01*
X116077338Y-105455069D01*
X116086727Y-105448248D01*
X116113238Y-105428986D01*
X116123160Y-105422469D01*
X116154518Y-105403924D01*
X116154522Y-105403921D01*
X116161348Y-105399884D01*
X116175732Y-105385500D01*
X116190766Y-105372659D01*
X116200823Y-105365352D01*
X116207237Y-105360692D01*
X116235528Y-105326494D01*
X116243517Y-105317715D01*
X117208888Y-104352344D01*
X127217825Y-104352344D01*
X127234766Y-104646164D01*
X127235591Y-104650371D01*
X127235592Y-104650376D01*
X127262400Y-104787014D01*
X127291427Y-104934966D01*
X127386759Y-105213407D01*
X127428306Y-105296014D01*
X127513906Y-105466211D01*
X127518997Y-105476334D01*
X127521423Y-105479863D01*
X127521426Y-105479869D01*
X127625020Y-105630598D01*
X127685695Y-105718881D01*
X127688582Y-105722054D01*
X127688583Y-105722055D01*
X127718313Y-105754728D01*
X127883768Y-105936560D01*
X127887057Y-105939310D01*
X128106259Y-106122592D01*
X128106264Y-106122596D01*
X128109551Y-106125344D01*
X128175301Y-106166589D01*
X128355226Y-106279456D01*
X128355230Y-106279458D01*
X128358866Y-106281739D01*
X128431543Y-106314554D01*
X128623187Y-106401085D01*
X128623191Y-106401087D01*
X128627099Y-106402851D01*
X128631218Y-106404071D01*
X128905174Y-106485221D01*
X128905179Y-106485222D01*
X128909287Y-106486439D01*
X128913521Y-106487087D01*
X128913526Y-106487088D01*
X129195967Y-106530307D01*
X129195969Y-106530307D01*
X129200209Y-106530956D01*
X129350022Y-106533310D01*
X129490190Y-106535512D01*
X129490196Y-106535512D01*
X129494481Y-106535579D01*
X129786658Y-106500222D01*
X130071332Y-106425539D01*
X130343238Y-106312912D01*
X130597342Y-106164425D01*
X130828944Y-105982827D01*
X130876855Y-105933387D01*
X131030773Y-105774554D01*
X131033756Y-105771476D01*
X131207991Y-105534285D01*
X131218909Y-105514177D01*
X131346372Y-105279418D01*
X131346373Y-105279416D01*
X131348422Y-105275642D01*
X131452453Y-105000333D01*
X131518157Y-104713453D01*
X131522797Y-104661471D01*
X131544099Y-104422776D01*
X131544099Y-104422774D01*
X131544319Y-104420310D01*
X131544794Y-104375000D01*
X131543250Y-104352344D01*
X147005325Y-104352344D01*
X147022266Y-104646164D01*
X147023091Y-104650371D01*
X147023092Y-104650376D01*
X147049900Y-104787014D01*
X147078927Y-104934966D01*
X147174259Y-105213407D01*
X147215806Y-105296014D01*
X147301406Y-105466211D01*
X147306497Y-105476334D01*
X147308923Y-105479863D01*
X147308926Y-105479869D01*
X147412520Y-105630598D01*
X147473195Y-105718881D01*
X147476082Y-105722054D01*
X147476083Y-105722055D01*
X147505813Y-105754728D01*
X147671268Y-105936560D01*
X147674557Y-105939310D01*
X147893759Y-106122592D01*
X147893764Y-106122596D01*
X147897051Y-106125344D01*
X147962801Y-106166589D01*
X148142726Y-106279456D01*
X148142730Y-106279458D01*
X148146366Y-106281739D01*
X148219043Y-106314554D01*
X148410687Y-106401085D01*
X148410691Y-106401087D01*
X148414599Y-106402851D01*
X148418718Y-106404071D01*
X148692674Y-106485221D01*
X148692679Y-106485222D01*
X148696787Y-106486439D01*
X148701021Y-106487087D01*
X148701026Y-106487088D01*
X148983467Y-106530307D01*
X148983469Y-106530307D01*
X148987709Y-106530956D01*
X149137522Y-106533310D01*
X149277690Y-106535512D01*
X149277696Y-106535512D01*
X149281981Y-106535579D01*
X149574158Y-106500222D01*
X149858832Y-106425539D01*
X150130738Y-106312912D01*
X150384842Y-106164425D01*
X150616444Y-105982827D01*
X150664355Y-105933387D01*
X150818273Y-105774554D01*
X150821256Y-105771476D01*
X150995491Y-105534285D01*
X151006409Y-105514177D01*
X151133872Y-105279418D01*
X151133873Y-105279416D01*
X151135922Y-105275642D01*
X151239953Y-105000333D01*
X151305657Y-104713453D01*
X151310297Y-104661471D01*
X151331599Y-104422776D01*
X151331599Y-104422774D01*
X151331819Y-104420310D01*
X151332294Y-104375000D01*
X151330750Y-104352344D01*
X151312569Y-104085650D01*
X151312568Y-104085644D01*
X151312277Y-104081373D01*
X151309969Y-104070225D01*
X151256023Y-103809733D01*
X151252595Y-103793180D01*
X151154353Y-103515753D01*
X151019368Y-103254226D01*
X151003339Y-103231418D01*
X150852606Y-103016948D01*
X150852605Y-103016947D01*
X150850139Y-103013438D01*
X150649798Y-102797844D01*
X150630965Y-102782429D01*
X150519464Y-102691167D01*
X150422050Y-102611435D01*
X150171111Y-102457660D01*
X150152456Y-102449471D01*
X149905552Y-102341087D01*
X149905548Y-102341086D01*
X149901624Y-102339363D01*
X149618576Y-102258735D01*
X149614334Y-102258131D01*
X149614328Y-102258130D01*
X149331455Y-102217871D01*
X149327204Y-102217266D01*
X149172056Y-102216454D01*
X149037186Y-102215747D01*
X149037180Y-102215747D01*
X149032900Y-102215725D01*
X149028656Y-102216284D01*
X149028652Y-102216284D01*
X148900091Y-102233210D01*
X148741110Y-102254140D01*
X148736970Y-102255273D01*
X148736968Y-102255273D01*
X148720011Y-102259912D01*
X148457233Y-102331800D01*
X148453283Y-102333485D01*
X148190464Y-102445586D01*
X148190457Y-102445590D01*
X148186522Y-102447268D01*
X148096743Y-102501000D01*
X147937668Y-102596204D01*
X147937664Y-102596207D01*
X147933986Y-102598408D01*
X147704299Y-102782422D01*
X147701355Y-102785524D01*
X147701351Y-102785528D01*
X147636187Y-102854197D01*
X147501711Y-102995905D01*
X147329970Y-103234908D01*
X147192254Y-103495007D01*
X147091112Y-103771390D01*
X147028416Y-104058943D01*
X147028080Y-104063213D01*
X147009387Y-104300737D01*
X147005325Y-104352344D01*
X131543250Y-104352344D01*
X131525069Y-104085650D01*
X131525068Y-104085644D01*
X131524777Y-104081373D01*
X131522469Y-104070225D01*
X131468523Y-103809733D01*
X131465095Y-103793180D01*
X131366853Y-103515753D01*
X131231868Y-103254226D01*
X131215839Y-103231418D01*
X131065106Y-103016948D01*
X131065105Y-103016947D01*
X131062639Y-103013438D01*
X130862298Y-102797844D01*
X130843465Y-102782429D01*
X130731964Y-102691167D01*
X130634550Y-102611435D01*
X130383611Y-102457660D01*
X130364956Y-102449471D01*
X130118052Y-102341087D01*
X130118048Y-102341086D01*
X130114124Y-102339363D01*
X129831076Y-102258735D01*
X129826834Y-102258131D01*
X129826828Y-102258130D01*
X129543955Y-102217871D01*
X129539704Y-102217266D01*
X129384556Y-102216454D01*
X129249686Y-102215747D01*
X129249680Y-102215747D01*
X129245400Y-102215725D01*
X129241156Y-102216284D01*
X129241152Y-102216284D01*
X129112591Y-102233210D01*
X128953610Y-102254140D01*
X128949470Y-102255273D01*
X128949468Y-102255273D01*
X128932511Y-102259912D01*
X128669733Y-102331800D01*
X128665783Y-102333485D01*
X128402964Y-102445586D01*
X128402957Y-102445590D01*
X128399022Y-102447268D01*
X128309243Y-102501000D01*
X128150168Y-102596204D01*
X128150164Y-102596207D01*
X128146486Y-102598408D01*
X127916799Y-102782422D01*
X127913855Y-102785524D01*
X127913851Y-102785528D01*
X127848687Y-102854197D01*
X127714211Y-102995905D01*
X127542470Y-103234908D01*
X127404754Y-103495007D01*
X127303612Y-103771390D01*
X127240916Y-104058943D01*
X127240580Y-104063213D01*
X127221887Y-104300737D01*
X127217825Y-104352344D01*
X117208888Y-104352344D01*
X119408889Y-102152344D01*
X122217825Y-102152344D01*
X122234766Y-102446164D01*
X122235591Y-102450371D01*
X122235592Y-102450376D01*
X122255794Y-102553342D01*
X122291427Y-102734966D01*
X122292814Y-102739016D01*
X122292815Y-102739021D01*
X122381958Y-102999385D01*
X122386759Y-103013407D01*
X122388686Y-103017238D01*
X122509793Y-103258033D01*
X122518997Y-103276334D01*
X122521423Y-103279863D01*
X122521426Y-103279869D01*
X122593612Y-103384900D01*
X122685695Y-103518881D01*
X122883768Y-103736560D01*
X122887057Y-103739310D01*
X123106259Y-103922592D01*
X123106264Y-103922596D01*
X123109551Y-103925344D01*
X123198687Y-103981259D01*
X123355226Y-104079456D01*
X123355230Y-104079458D01*
X123358866Y-104081739D01*
X123431543Y-104114554D01*
X123623187Y-104201085D01*
X123623191Y-104201087D01*
X123627099Y-104202851D01*
X123653374Y-104210634D01*
X123905174Y-104285221D01*
X123905179Y-104285222D01*
X123909287Y-104286439D01*
X123913521Y-104287087D01*
X123913526Y-104287088D01*
X124195967Y-104330307D01*
X124195969Y-104330307D01*
X124200209Y-104330956D01*
X124350022Y-104333310D01*
X124490190Y-104335512D01*
X124490196Y-104335512D01*
X124494481Y-104335579D01*
X124786658Y-104300222D01*
X124946645Y-104258250D01*
X125067189Y-104226626D01*
X125067190Y-104226626D01*
X125071332Y-104225539D01*
X125343238Y-104112912D01*
X125597342Y-103964425D01*
X125828944Y-103782827D01*
X125840028Y-103771390D01*
X126030773Y-103574554D01*
X126033756Y-103571476D01*
X126207991Y-103334285D01*
X126348422Y-103075642D01*
X126414423Y-102900975D01*
X126450935Y-102804351D01*
X126450936Y-102804347D01*
X126452453Y-102800333D01*
X126489286Y-102639512D01*
X126517199Y-102517637D01*
X126517200Y-102517633D01*
X126518157Y-102513453D01*
X126519269Y-102501000D01*
X126544099Y-102222776D01*
X126544099Y-102222774D01*
X126544319Y-102220310D01*
X126544794Y-102175000D01*
X126543250Y-102152344D01*
X142005325Y-102152344D01*
X142022266Y-102446164D01*
X142023091Y-102450371D01*
X142023092Y-102450376D01*
X142043294Y-102553342D01*
X142078927Y-102734966D01*
X142080314Y-102739016D01*
X142080315Y-102739021D01*
X142169458Y-102999385D01*
X142174259Y-103013407D01*
X142176186Y-103017238D01*
X142297293Y-103258033D01*
X142306497Y-103276334D01*
X142308923Y-103279863D01*
X142308926Y-103279869D01*
X142381112Y-103384900D01*
X142473195Y-103518881D01*
X142671268Y-103736560D01*
X142674557Y-103739310D01*
X142893759Y-103922592D01*
X142893764Y-103922596D01*
X142897051Y-103925344D01*
X142986187Y-103981259D01*
X143142726Y-104079456D01*
X143142730Y-104079458D01*
X143146366Y-104081739D01*
X143219043Y-104114554D01*
X143410687Y-104201085D01*
X143410691Y-104201087D01*
X143414599Y-104202851D01*
X143440874Y-104210634D01*
X143692674Y-104285221D01*
X143692679Y-104285222D01*
X143696787Y-104286439D01*
X143701021Y-104287087D01*
X143701026Y-104287088D01*
X143983467Y-104330307D01*
X143983469Y-104330307D01*
X143987709Y-104330956D01*
X144137522Y-104333310D01*
X144277690Y-104335512D01*
X144277696Y-104335512D01*
X144281981Y-104335579D01*
X144574158Y-104300222D01*
X144734145Y-104258250D01*
X144854689Y-104226626D01*
X144854690Y-104226626D01*
X144858832Y-104225539D01*
X145130738Y-104112912D01*
X145384842Y-103964425D01*
X145616444Y-103782827D01*
X145627528Y-103771390D01*
X145818273Y-103574554D01*
X145821256Y-103571476D01*
X145995491Y-103334285D01*
X146135922Y-103075642D01*
X146201923Y-102900975D01*
X146238435Y-102804351D01*
X146238436Y-102804347D01*
X146239953Y-102800333D01*
X146276786Y-102639512D01*
X146304699Y-102517637D01*
X146304700Y-102517633D01*
X146305657Y-102513453D01*
X146306769Y-102501000D01*
X146331599Y-102222776D01*
X146331599Y-102222774D01*
X146331819Y-102220310D01*
X146332294Y-102175000D01*
X146330750Y-102152344D01*
X146312569Y-101885650D01*
X146312568Y-101885644D01*
X146312277Y-101881373D01*
X146294883Y-101797378D01*
X146262337Y-101640224D01*
X146252595Y-101593180D01*
X146154353Y-101315753D01*
X146019368Y-101054226D01*
X146006127Y-101035385D01*
X145852606Y-100816948D01*
X145852605Y-100816947D01*
X145850139Y-100813438D01*
X145649798Y-100597844D01*
X145632198Y-100583438D01*
X145425368Y-100414151D01*
X145422050Y-100411435D01*
X145171111Y-100257660D01*
X145152456Y-100249471D01*
X144905552Y-100141087D01*
X144905548Y-100141086D01*
X144901624Y-100139363D01*
X144618576Y-100058735D01*
X144614334Y-100058131D01*
X144614328Y-100058130D01*
X144331455Y-100017871D01*
X144327204Y-100017266D01*
X144172056Y-100016454D01*
X144037186Y-100015747D01*
X144037180Y-100015747D01*
X144032900Y-100015725D01*
X144028656Y-100016284D01*
X144028652Y-100016284D01*
X143900091Y-100033210D01*
X143741110Y-100054140D01*
X143736970Y-100055273D01*
X143736968Y-100055273D01*
X143720011Y-100059912D01*
X143457233Y-100131800D01*
X143453283Y-100133485D01*
X143190464Y-100245586D01*
X143190457Y-100245590D01*
X143186522Y-100247268D01*
X143045330Y-100331770D01*
X142937668Y-100396204D01*
X142937664Y-100396207D01*
X142933986Y-100398408D01*
X142704299Y-100582422D01*
X142701355Y-100585524D01*
X142701351Y-100585528D01*
X142627705Y-100663135D01*
X142501711Y-100795905D01*
X142329970Y-101034908D01*
X142192254Y-101295007D01*
X142190779Y-101299038D01*
X142122819Y-101484748D01*
X142091112Y-101571390D01*
X142028416Y-101858943D01*
X142028080Y-101863213D01*
X142015655Y-102021094D01*
X142005325Y-102152344D01*
X126543250Y-102152344D01*
X126525069Y-101885650D01*
X126525068Y-101885644D01*
X126524777Y-101881373D01*
X126507383Y-101797378D01*
X126474837Y-101640224D01*
X126465095Y-101593180D01*
X126366853Y-101315753D01*
X126231868Y-101054226D01*
X126218627Y-101035385D01*
X126065106Y-100816948D01*
X126065105Y-100816947D01*
X126062639Y-100813438D01*
X125862298Y-100597844D01*
X125844698Y-100583438D01*
X125637868Y-100414151D01*
X125634550Y-100411435D01*
X125383611Y-100257660D01*
X125364956Y-100249471D01*
X125118052Y-100141087D01*
X125118048Y-100141086D01*
X125114124Y-100139363D01*
X124831076Y-100058735D01*
X124826834Y-100058131D01*
X124826828Y-100058130D01*
X124543955Y-100017871D01*
X124539704Y-100017266D01*
X124384556Y-100016454D01*
X124249686Y-100015747D01*
X124249680Y-100015747D01*
X124245400Y-100015725D01*
X124241156Y-100016284D01*
X124241152Y-100016284D01*
X124112591Y-100033210D01*
X123953610Y-100054140D01*
X123949470Y-100055273D01*
X123949468Y-100055273D01*
X123932511Y-100059912D01*
X123669733Y-100131800D01*
X123665783Y-100133485D01*
X123402964Y-100245586D01*
X123402957Y-100245590D01*
X123399022Y-100247268D01*
X123257830Y-100331770D01*
X123150168Y-100396204D01*
X123150164Y-100396207D01*
X123146486Y-100398408D01*
X122916799Y-100582422D01*
X122913855Y-100585524D01*
X122913851Y-100585528D01*
X122840205Y-100663135D01*
X122714211Y-100795905D01*
X122542470Y-101034908D01*
X122404754Y-101295007D01*
X122403279Y-101299038D01*
X122335319Y-101484748D01*
X122303612Y-101571390D01*
X122240916Y-101858943D01*
X122240580Y-101863213D01*
X122228155Y-102021094D01*
X122217825Y-102152344D01*
X119408889Y-102152344D01*
X119455983Y-102105250D01*
X119464309Y-102097674D01*
X119470803Y-102093553D01*
X119517586Y-102043734D01*
X119520340Y-102040893D01*
X119540139Y-102021094D01*
X119542563Y-102017969D01*
X119542571Y-102017960D01*
X119542637Y-102017874D01*
X119550345Y-102008849D01*
X119575290Y-101982285D01*
X119580717Y-101976506D01*
X119590523Y-101958669D01*
X119601373Y-101942153D01*
X119613850Y-101926067D01*
X119631476Y-101885334D01*
X119636693Y-101874686D01*
X119654249Y-101842751D01*
X119658069Y-101835803D01*
X119660040Y-101828128D01*
X119660042Y-101828122D01*
X119663131Y-101816089D01*
X119669534Y-101797387D01*
X119677617Y-101778708D01*
X119684560Y-101734873D01*
X119686967Y-101723251D01*
X119698000Y-101680282D01*
X119698000Y-101659935D01*
X119699551Y-101640224D01*
X119701495Y-101627950D01*
X119702735Y-101620121D01*
X119698559Y-101575944D01*
X119698000Y-101564086D01*
X119698000Y-98360774D01*
X122519352Y-98360774D01*
X122528001Y-98591158D01*
X122529096Y-98596377D01*
X122545768Y-98675835D01*
X122575343Y-98816791D01*
X122577301Y-98821750D01*
X122577302Y-98821752D01*
X122633661Y-98964460D01*
X122660026Y-99031221D01*
X122662793Y-99035780D01*
X122662794Y-99035783D01*
X122671389Y-99049947D01*
X122779627Y-99228317D01*
X122783124Y-99232347D01*
X122869688Y-99332103D01*
X122930727Y-99402445D01*
X122934858Y-99405832D01*
X123104877Y-99545240D01*
X123104883Y-99545244D01*
X123109005Y-99548624D01*
X123113641Y-99551263D01*
X123113644Y-99551265D01*
X123166073Y-99581109D01*
X123309364Y-99662675D01*
X123526075Y-99741337D01*
X123531324Y-99742286D01*
X123531327Y-99742287D01*
X123748858Y-99781623D01*
X123748865Y-99781624D01*
X123752942Y-99782361D01*
X123770664Y-99783197D01*
X123775606Y-99783430D01*
X123775613Y-99783430D01*
X123777094Y-99783500D01*
X123939140Y-99783500D01*
X124006059Y-99777822D01*
X124105659Y-99769371D01*
X124105663Y-99769370D01*
X124110970Y-99768920D01*
X124116125Y-99767582D01*
X124116131Y-99767581D01*
X124328953Y-99712343D01*
X124328957Y-99712342D01*
X124334122Y-99711001D01*
X124338988Y-99708809D01*
X124338991Y-99708808D01*
X124539452Y-99618507D01*
X124544325Y-99616312D01*
X124735569Y-99487559D01*
X124902385Y-99328424D01*
X125040004Y-99143458D01*
X125144490Y-98937949D01*
X125155576Y-98902249D01*
X125211274Y-98722871D01*
X125212857Y-98717773D01*
X125218415Y-98675835D01*
X125242448Y-98494511D01*
X125242448Y-98494506D01*
X125243148Y-98489226D01*
X125242477Y-98471355D01*
X127168292Y-98471355D01*
X127168655Y-98475503D01*
X127168655Y-98475507D01*
X127170318Y-98494511D01*
X127193863Y-98763625D01*
X127194773Y-98767697D01*
X127194774Y-98767702D01*
X127253718Y-99031401D01*
X127257863Y-99049947D01*
X127359169Y-99325288D01*
X127361116Y-99328981D01*
X127361117Y-99328983D01*
X127476921Y-99548624D01*
X127496001Y-99584813D01*
X127665955Y-99823961D01*
X127866044Y-100038531D01*
X128092754Y-100224752D01*
X128342101Y-100379354D01*
X128345918Y-100381070D01*
X128345921Y-100381071D01*
X128384498Y-100398408D01*
X128609706Y-100499620D01*
X128697656Y-100525839D01*
X128886868Y-100582247D01*
X128886876Y-100582249D01*
X128890865Y-100583438D01*
X128894981Y-100584090D01*
X128894986Y-100584091D01*
X129177172Y-100628784D01*
X129177177Y-100628784D01*
X129180640Y-100629333D01*
X129229736Y-100631563D01*
X129270982Y-100633436D01*
X129271001Y-100633436D01*
X129272401Y-100633500D01*
X129455670Y-100633500D01*
X129673992Y-100618999D01*
X129961591Y-100561009D01*
X130238994Y-100465492D01*
X130242736Y-100463618D01*
X130242741Y-100463616D01*
X130497583Y-100336000D01*
X130497585Y-100335999D01*
X130501327Y-100334125D01*
X130666163Y-100222103D01*
X130740523Y-100171568D01*
X130740526Y-100171566D01*
X130743982Y-100169217D01*
X130915629Y-100015747D01*
X130959578Y-99976452D01*
X130959579Y-99976451D01*
X130962695Y-99973665D01*
X131153623Y-99750905D01*
X131259269Y-99588225D01*
X131311134Y-99508360D01*
X131311137Y-99508355D01*
X131313413Y-99504850D01*
X131439257Y-99239823D01*
X131441658Y-99232347D01*
X131527666Y-98964460D01*
X131528944Y-98960480D01*
X131580899Y-98671730D01*
X131589808Y-98475550D01*
X131594019Y-98382815D01*
X131594019Y-98382810D01*
X131594208Y-98378645D01*
X131592645Y-98360774D01*
X133519352Y-98360774D01*
X133528001Y-98591158D01*
X133529096Y-98596377D01*
X133545768Y-98675835D01*
X133575343Y-98816791D01*
X133577301Y-98821750D01*
X133577302Y-98821752D01*
X133633661Y-98964460D01*
X133660026Y-99031221D01*
X133662793Y-99035780D01*
X133662794Y-99035783D01*
X133671389Y-99049947D01*
X133779627Y-99228317D01*
X133783124Y-99232347D01*
X133869688Y-99332103D01*
X133930727Y-99402445D01*
X133934858Y-99405832D01*
X134104877Y-99545240D01*
X134104883Y-99545244D01*
X134109005Y-99548624D01*
X134113641Y-99551263D01*
X134113644Y-99551265D01*
X134166073Y-99581109D01*
X134309364Y-99662675D01*
X134526075Y-99741337D01*
X134531324Y-99742286D01*
X134531327Y-99742287D01*
X134748858Y-99781623D01*
X134748865Y-99781624D01*
X134752942Y-99782361D01*
X134770664Y-99783197D01*
X134775606Y-99783430D01*
X134775613Y-99783430D01*
X134777094Y-99783500D01*
X134939140Y-99783500D01*
X135006059Y-99777822D01*
X135105659Y-99769371D01*
X135105663Y-99769370D01*
X135110970Y-99768920D01*
X135116125Y-99767582D01*
X135116131Y-99767581D01*
X135328953Y-99712343D01*
X135328957Y-99712342D01*
X135334122Y-99711001D01*
X135338988Y-99708809D01*
X135338991Y-99708808D01*
X135539452Y-99618507D01*
X135544325Y-99616312D01*
X135735569Y-99487559D01*
X135902385Y-99328424D01*
X136040004Y-99143458D01*
X136144490Y-98937949D01*
X136155576Y-98902249D01*
X136211274Y-98722871D01*
X136212857Y-98717773D01*
X136218415Y-98675835D01*
X136242448Y-98494511D01*
X136242448Y-98494506D01*
X136243148Y-98489226D01*
X136238326Y-98360774D01*
X142306852Y-98360774D01*
X142315501Y-98591158D01*
X142316596Y-98596377D01*
X142333268Y-98675835D01*
X142362843Y-98816791D01*
X142364801Y-98821750D01*
X142364802Y-98821752D01*
X142421161Y-98964460D01*
X142447526Y-99031221D01*
X142450293Y-99035780D01*
X142450294Y-99035783D01*
X142458889Y-99049947D01*
X142567127Y-99228317D01*
X142570624Y-99232347D01*
X142657188Y-99332103D01*
X142718227Y-99402445D01*
X142722358Y-99405832D01*
X142892377Y-99545240D01*
X142892383Y-99545244D01*
X142896505Y-99548624D01*
X142901141Y-99551263D01*
X142901144Y-99551265D01*
X142953573Y-99581109D01*
X143096864Y-99662675D01*
X143313575Y-99741337D01*
X143318824Y-99742286D01*
X143318827Y-99742287D01*
X143536358Y-99781623D01*
X143536365Y-99781624D01*
X143540442Y-99782361D01*
X143558164Y-99783197D01*
X143563106Y-99783430D01*
X143563113Y-99783430D01*
X143564594Y-99783500D01*
X143726640Y-99783500D01*
X143793559Y-99777822D01*
X143893159Y-99769371D01*
X143893163Y-99769370D01*
X143898470Y-99768920D01*
X143903625Y-99767582D01*
X143903631Y-99767581D01*
X144116453Y-99712343D01*
X144116457Y-99712342D01*
X144121622Y-99711001D01*
X144126488Y-99708809D01*
X144126491Y-99708808D01*
X144326952Y-99618507D01*
X144331825Y-99616312D01*
X144523069Y-99487559D01*
X144689885Y-99328424D01*
X144827504Y-99143458D01*
X144931990Y-98937949D01*
X144943076Y-98902249D01*
X144998774Y-98722871D01*
X145000357Y-98717773D01*
X145005915Y-98675835D01*
X145029948Y-98494511D01*
X145029948Y-98494506D01*
X145030648Y-98489226D01*
X145029977Y-98471355D01*
X146955792Y-98471355D01*
X146956155Y-98475503D01*
X146956155Y-98475507D01*
X146957818Y-98494511D01*
X146981363Y-98763625D01*
X146982273Y-98767697D01*
X146982274Y-98767702D01*
X147041218Y-99031401D01*
X147045363Y-99049947D01*
X147146669Y-99325288D01*
X147148616Y-99328981D01*
X147148617Y-99328983D01*
X147264421Y-99548624D01*
X147283501Y-99584813D01*
X147453455Y-99823961D01*
X147653544Y-100038531D01*
X147880254Y-100224752D01*
X148129601Y-100379354D01*
X148133418Y-100381070D01*
X148133421Y-100381071D01*
X148171998Y-100398408D01*
X148397206Y-100499620D01*
X148485156Y-100525839D01*
X148674368Y-100582247D01*
X148674376Y-100582249D01*
X148678365Y-100583438D01*
X148682481Y-100584090D01*
X148682486Y-100584091D01*
X148964672Y-100628784D01*
X148964677Y-100628784D01*
X148968140Y-100629333D01*
X149017236Y-100631563D01*
X149058482Y-100633436D01*
X149058501Y-100633436D01*
X149059901Y-100633500D01*
X149243170Y-100633500D01*
X149461492Y-100618999D01*
X149749091Y-100561009D01*
X150026494Y-100465492D01*
X150030236Y-100463618D01*
X150030241Y-100463616D01*
X150285083Y-100336000D01*
X150285085Y-100335999D01*
X150288827Y-100334125D01*
X150453663Y-100222103D01*
X150528023Y-100171568D01*
X150528026Y-100171566D01*
X150531482Y-100169217D01*
X150703129Y-100015747D01*
X150747078Y-99976452D01*
X150747079Y-99976451D01*
X150750195Y-99973665D01*
X150941123Y-99750905D01*
X151046769Y-99588225D01*
X151098634Y-99508360D01*
X151098637Y-99508355D01*
X151100913Y-99504850D01*
X151226757Y-99239823D01*
X151229158Y-99232347D01*
X151315166Y-98964460D01*
X151316444Y-98960480D01*
X151368399Y-98671730D01*
X151377308Y-98475550D01*
X151381519Y-98382815D01*
X151381519Y-98382810D01*
X151381708Y-98378645D01*
X151380145Y-98360774D01*
X153306852Y-98360774D01*
X153315501Y-98591158D01*
X153316596Y-98596377D01*
X153333268Y-98675835D01*
X153362843Y-98816791D01*
X153364801Y-98821750D01*
X153364802Y-98821752D01*
X153421161Y-98964460D01*
X153447526Y-99031221D01*
X153450293Y-99035780D01*
X153450294Y-99035783D01*
X153458889Y-99049947D01*
X153567127Y-99228317D01*
X153570624Y-99232347D01*
X153657188Y-99332103D01*
X153718227Y-99402445D01*
X153722358Y-99405832D01*
X153892377Y-99545240D01*
X153892383Y-99545244D01*
X153896505Y-99548624D01*
X153901141Y-99551263D01*
X153901144Y-99551265D01*
X153953573Y-99581109D01*
X154096864Y-99662675D01*
X154313575Y-99741337D01*
X154318824Y-99742286D01*
X154318827Y-99742287D01*
X154536358Y-99781623D01*
X154536365Y-99781624D01*
X154540442Y-99782361D01*
X154558164Y-99783197D01*
X154563106Y-99783430D01*
X154563113Y-99783430D01*
X154564594Y-99783500D01*
X154726640Y-99783500D01*
X154793559Y-99777822D01*
X154893159Y-99769371D01*
X154893163Y-99769370D01*
X154898470Y-99768920D01*
X154903625Y-99767582D01*
X154903631Y-99767581D01*
X155116453Y-99712343D01*
X155116457Y-99712342D01*
X155121622Y-99711001D01*
X155126488Y-99708809D01*
X155126491Y-99708808D01*
X155326952Y-99618507D01*
X155331825Y-99616312D01*
X155523069Y-99487559D01*
X155689885Y-99328424D01*
X155827504Y-99143458D01*
X155931990Y-98937949D01*
X155943076Y-98902249D01*
X155998774Y-98722871D01*
X156000357Y-98717773D01*
X156005915Y-98675835D01*
X156029948Y-98494511D01*
X156029948Y-98494506D01*
X156030648Y-98489226D01*
X156021999Y-98258842D01*
X156005094Y-98178270D01*
X155975752Y-98038428D01*
X155974657Y-98033209D01*
X155917911Y-97889520D01*
X155891935Y-97823744D01*
X155891934Y-97823742D01*
X155889974Y-97818779D01*
X155881086Y-97804131D01*
X155773140Y-97626243D01*
X155770373Y-97621683D01*
X155683020Y-97521017D01*
X155622773Y-97451588D01*
X155622771Y-97451586D01*
X155619273Y-97447555D01*
X155558651Y-97397848D01*
X155445123Y-97304760D01*
X155445117Y-97304756D01*
X155440995Y-97301376D01*
X155436359Y-97298737D01*
X155436356Y-97298735D01*
X155245279Y-97189968D01*
X155240636Y-97187325D01*
X155023925Y-97108663D01*
X155018676Y-97107714D01*
X155018673Y-97107713D01*
X154801142Y-97068377D01*
X154801135Y-97068376D01*
X154797058Y-97067639D01*
X154779336Y-97066803D01*
X154774394Y-97066570D01*
X154774387Y-97066570D01*
X154772906Y-97066500D01*
X154610860Y-97066500D01*
X154543941Y-97072178D01*
X154444341Y-97080629D01*
X154444337Y-97080630D01*
X154439030Y-97081080D01*
X154433875Y-97082418D01*
X154433869Y-97082419D01*
X154221047Y-97137657D01*
X154221043Y-97137658D01*
X154215878Y-97138999D01*
X154211012Y-97141191D01*
X154211009Y-97141192D01*
X154102730Y-97189968D01*
X154005675Y-97233688D01*
X153814431Y-97362441D01*
X153647615Y-97521576D01*
X153509996Y-97706542D01*
X153405510Y-97912051D01*
X153403928Y-97917145D01*
X153403927Y-97917148D01*
X153350088Y-98090537D01*
X153337143Y-98132227D01*
X153336442Y-98137516D01*
X153321054Y-98253623D01*
X153306852Y-98360774D01*
X151380145Y-98360774D01*
X151356501Y-98090537D01*
X151356137Y-98086375D01*
X151355226Y-98082298D01*
X151293049Y-97804131D01*
X151293047Y-97804124D01*
X151292137Y-97800053D01*
X151190831Y-97524712D01*
X151126746Y-97403163D01*
X151055952Y-97268891D01*
X151055951Y-97268890D01*
X151053999Y-97265187D01*
X150884045Y-97026039D01*
X150683956Y-96811469D01*
X150457246Y-96625248D01*
X150207899Y-96470646D01*
X150204082Y-96468930D01*
X150204079Y-96468929D01*
X150114182Y-96428528D01*
X149940294Y-96350380D01*
X149852344Y-96324161D01*
X149663132Y-96267753D01*
X149663124Y-96267751D01*
X149659135Y-96266562D01*
X149655019Y-96265910D01*
X149655014Y-96265909D01*
X149372828Y-96221216D01*
X149372823Y-96221216D01*
X149369360Y-96220667D01*
X149320264Y-96218437D01*
X149279018Y-96216564D01*
X149278999Y-96216564D01*
X149277599Y-96216500D01*
X149094330Y-96216500D01*
X148876008Y-96231001D01*
X148588409Y-96288991D01*
X148311006Y-96384508D01*
X148307264Y-96386382D01*
X148307259Y-96386384D01*
X148097546Y-96491401D01*
X148048673Y-96515875D01*
X147806018Y-96680783D01*
X147587305Y-96876335D01*
X147396377Y-97099095D01*
X147388981Y-97110484D01*
X147262817Y-97304760D01*
X147236587Y-97345150D01*
X147110743Y-97610177D01*
X147109464Y-97614160D01*
X147109463Y-97614163D01*
X147107049Y-97621683D01*
X147021056Y-97889520D01*
X146969101Y-98178270D01*
X146961722Y-98340767D01*
X146959813Y-98382815D01*
X146955792Y-98471355D01*
X145029977Y-98471355D01*
X145021999Y-98258842D01*
X145005094Y-98178270D01*
X144975752Y-98038428D01*
X144974657Y-98033209D01*
X144917911Y-97889520D01*
X144891935Y-97823744D01*
X144891934Y-97823742D01*
X144889974Y-97818779D01*
X144881086Y-97804131D01*
X144773140Y-97626243D01*
X144770373Y-97621683D01*
X144683020Y-97521017D01*
X144622773Y-97451588D01*
X144622771Y-97451586D01*
X144619273Y-97447555D01*
X144558651Y-97397848D01*
X144445123Y-97304760D01*
X144445117Y-97304756D01*
X144440995Y-97301376D01*
X144436359Y-97298737D01*
X144436356Y-97298735D01*
X144245279Y-97189968D01*
X144240636Y-97187325D01*
X144023925Y-97108663D01*
X144018676Y-97107714D01*
X144018673Y-97107713D01*
X143801142Y-97068377D01*
X143801135Y-97068376D01*
X143797058Y-97067639D01*
X143779336Y-97066803D01*
X143774394Y-97066570D01*
X143774387Y-97066570D01*
X143772906Y-97066500D01*
X143610860Y-97066500D01*
X143543941Y-97072178D01*
X143444341Y-97080629D01*
X143444337Y-97080630D01*
X143439030Y-97081080D01*
X143433875Y-97082418D01*
X143433869Y-97082419D01*
X143221047Y-97137657D01*
X143221043Y-97137658D01*
X143215878Y-97138999D01*
X143211012Y-97141191D01*
X143211009Y-97141192D01*
X143102730Y-97189968D01*
X143005675Y-97233688D01*
X142814431Y-97362441D01*
X142647615Y-97521576D01*
X142509996Y-97706542D01*
X142405510Y-97912051D01*
X142403928Y-97917145D01*
X142403927Y-97917148D01*
X142350088Y-98090537D01*
X142337143Y-98132227D01*
X142336442Y-98137516D01*
X142321054Y-98253623D01*
X142306852Y-98360774D01*
X136238326Y-98360774D01*
X136234499Y-98258842D01*
X136217594Y-98178270D01*
X136188252Y-98038428D01*
X136187157Y-98033209D01*
X136130411Y-97889520D01*
X136104435Y-97823744D01*
X136104434Y-97823742D01*
X136102474Y-97818779D01*
X136093586Y-97804131D01*
X135985640Y-97626243D01*
X135982873Y-97621683D01*
X135895520Y-97521017D01*
X135835273Y-97451588D01*
X135835271Y-97451586D01*
X135831773Y-97447555D01*
X135771151Y-97397848D01*
X135657623Y-97304760D01*
X135657617Y-97304756D01*
X135653495Y-97301376D01*
X135648859Y-97298737D01*
X135648856Y-97298735D01*
X135457779Y-97189968D01*
X135453136Y-97187325D01*
X135236425Y-97108663D01*
X135231176Y-97107714D01*
X135231173Y-97107713D01*
X135013642Y-97068377D01*
X135013635Y-97068376D01*
X135009558Y-97067639D01*
X134991836Y-97066803D01*
X134986894Y-97066570D01*
X134986887Y-97066570D01*
X134985406Y-97066500D01*
X134823360Y-97066500D01*
X134756441Y-97072178D01*
X134656841Y-97080629D01*
X134656837Y-97080630D01*
X134651530Y-97081080D01*
X134646375Y-97082418D01*
X134646369Y-97082419D01*
X134433547Y-97137657D01*
X134433543Y-97137658D01*
X134428378Y-97138999D01*
X134423512Y-97141191D01*
X134423509Y-97141192D01*
X134315230Y-97189968D01*
X134218175Y-97233688D01*
X134026931Y-97362441D01*
X133860115Y-97521576D01*
X133722496Y-97706542D01*
X133618010Y-97912051D01*
X133616428Y-97917145D01*
X133616427Y-97917148D01*
X133562588Y-98090537D01*
X133549643Y-98132227D01*
X133548942Y-98137516D01*
X133533554Y-98253623D01*
X133519352Y-98360774D01*
X131592645Y-98360774D01*
X131569001Y-98090537D01*
X131568637Y-98086375D01*
X131567726Y-98082298D01*
X131505549Y-97804131D01*
X131505547Y-97804124D01*
X131504637Y-97800053D01*
X131403331Y-97524712D01*
X131339246Y-97403163D01*
X131268452Y-97268891D01*
X131268451Y-97268890D01*
X131266499Y-97265187D01*
X131096545Y-97026039D01*
X130896456Y-96811469D01*
X130669746Y-96625248D01*
X130420399Y-96470646D01*
X130416582Y-96468930D01*
X130416579Y-96468929D01*
X130326682Y-96428528D01*
X130152794Y-96350380D01*
X130064844Y-96324161D01*
X129875632Y-96267753D01*
X129875624Y-96267751D01*
X129871635Y-96266562D01*
X129867519Y-96265910D01*
X129867514Y-96265909D01*
X129585328Y-96221216D01*
X129585323Y-96221216D01*
X129581860Y-96220667D01*
X129532764Y-96218437D01*
X129491518Y-96216564D01*
X129491499Y-96216564D01*
X129490099Y-96216500D01*
X129306830Y-96216500D01*
X129088508Y-96231001D01*
X128800909Y-96288991D01*
X128523506Y-96384508D01*
X128519764Y-96386382D01*
X128519759Y-96386384D01*
X128310046Y-96491401D01*
X128261173Y-96515875D01*
X128018518Y-96680783D01*
X127799805Y-96876335D01*
X127608877Y-97099095D01*
X127601481Y-97110484D01*
X127475317Y-97304760D01*
X127449087Y-97345150D01*
X127323243Y-97610177D01*
X127321964Y-97614160D01*
X127321963Y-97614163D01*
X127319549Y-97621683D01*
X127233556Y-97889520D01*
X127181601Y-98178270D01*
X127174222Y-98340767D01*
X127172313Y-98382815D01*
X127168292Y-98471355D01*
X125242477Y-98471355D01*
X125234499Y-98258842D01*
X125217594Y-98178270D01*
X125188252Y-98038428D01*
X125187157Y-98033209D01*
X125130411Y-97889520D01*
X125104435Y-97823744D01*
X125104434Y-97823742D01*
X125102474Y-97818779D01*
X125093586Y-97804131D01*
X124985640Y-97626243D01*
X124982873Y-97621683D01*
X124895520Y-97521017D01*
X124835273Y-97451588D01*
X124835271Y-97451586D01*
X124831773Y-97447555D01*
X124771151Y-97397848D01*
X124657623Y-97304760D01*
X124657617Y-97304756D01*
X124653495Y-97301376D01*
X124648859Y-97298737D01*
X124648856Y-97298735D01*
X124457779Y-97189968D01*
X124453136Y-97187325D01*
X124236425Y-97108663D01*
X124231176Y-97107714D01*
X124231173Y-97107713D01*
X124013642Y-97068377D01*
X124013635Y-97068376D01*
X124009558Y-97067639D01*
X123991836Y-97066803D01*
X123986894Y-97066570D01*
X123986887Y-97066570D01*
X123985406Y-97066500D01*
X123823360Y-97066500D01*
X123756441Y-97072178D01*
X123656841Y-97080629D01*
X123656837Y-97080630D01*
X123651530Y-97081080D01*
X123646375Y-97082418D01*
X123646369Y-97082419D01*
X123433547Y-97137657D01*
X123433543Y-97137658D01*
X123428378Y-97138999D01*
X123423512Y-97141191D01*
X123423509Y-97141192D01*
X123315230Y-97189968D01*
X123218175Y-97233688D01*
X123026931Y-97362441D01*
X122860115Y-97521576D01*
X122722496Y-97706542D01*
X122618010Y-97912051D01*
X122616428Y-97917145D01*
X122616427Y-97917148D01*
X122562588Y-98090537D01*
X122549643Y-98132227D01*
X122548942Y-98137516D01*
X122533554Y-98253623D01*
X122519352Y-98360774D01*
X119698000Y-98360774D01*
X119698000Y-94170604D01*
X133489037Y-94170604D01*
X133498817Y-94381899D01*
X133548375Y-94587534D01*
X133550857Y-94592992D01*
X133550858Y-94592996D01*
X133594303Y-94688546D01*
X133635924Y-94780087D01*
X133758304Y-94952611D01*
X133762631Y-94956753D01*
X133903129Y-95091250D01*
X133911100Y-95098881D01*
X134088798Y-95213620D01*
X134094364Y-95215863D01*
X134279418Y-95290442D01*
X134279421Y-95290443D01*
X134284987Y-95292686D01*
X134492587Y-95333228D01*
X134498149Y-95333500D01*
X134654096Y-95333500D01*
X134811816Y-95318452D01*
X135014784Y-95258908D01*
X135098361Y-95215863D01*
X135197499Y-95164804D01*
X135197502Y-95164802D01*
X135202830Y-95162058D01*
X135369170Y-95031396D01*
X135373102Y-95026865D01*
X135373105Y-95026862D01*
X135503871Y-94876167D01*
X135507802Y-94871637D01*
X135510802Y-94866451D01*
X135510805Y-94866447D01*
X135610717Y-94693742D01*
X135613723Y-94688546D01*
X135683111Y-94488729D01*
X135690974Y-94434501D01*
X135712602Y-94285336D01*
X135712602Y-94285333D01*
X135713463Y-94279396D01*
X135708427Y-94170604D01*
X153276537Y-94170604D01*
X153286317Y-94381899D01*
X153335875Y-94587534D01*
X153338357Y-94592992D01*
X153338358Y-94592996D01*
X153381803Y-94688546D01*
X153423424Y-94780087D01*
X153545804Y-94952611D01*
X153550131Y-94956753D01*
X153690629Y-95091250D01*
X153698600Y-95098881D01*
X153876298Y-95213620D01*
X153881864Y-95215863D01*
X154066918Y-95290442D01*
X154066921Y-95290443D01*
X154072487Y-95292686D01*
X154280087Y-95333228D01*
X154285649Y-95333500D01*
X154441596Y-95333500D01*
X154599316Y-95318452D01*
X154802284Y-95258908D01*
X154885861Y-95215863D01*
X154984999Y-95164804D01*
X154985002Y-95164802D01*
X154990330Y-95162058D01*
X155156670Y-95031396D01*
X155160602Y-95026865D01*
X155160605Y-95026862D01*
X155291371Y-94876167D01*
X155295302Y-94871637D01*
X155298302Y-94866451D01*
X155298305Y-94866447D01*
X155398217Y-94693742D01*
X155401223Y-94688546D01*
X155470611Y-94488729D01*
X155478474Y-94434501D01*
X155500102Y-94285336D01*
X155500102Y-94285333D01*
X155500963Y-94279396D01*
X155491183Y-94068101D01*
X155441625Y-93862466D01*
X155439125Y-93856966D01*
X155386834Y-93741959D01*
X155354076Y-93669913D01*
X155231696Y-93497389D01*
X155078900Y-93351119D01*
X154901202Y-93236380D01*
X154818405Y-93203012D01*
X154710582Y-93159558D01*
X154710579Y-93159557D01*
X154705013Y-93157314D01*
X154497413Y-93116772D01*
X154491851Y-93116500D01*
X154335904Y-93116500D01*
X154178184Y-93131548D01*
X153975216Y-93191092D01*
X153969889Y-93193836D01*
X153969888Y-93193836D01*
X153792501Y-93285196D01*
X153792498Y-93285198D01*
X153787170Y-93287942D01*
X153620830Y-93418604D01*
X153616898Y-93423135D01*
X153616895Y-93423138D01*
X153548224Y-93502275D01*
X153482198Y-93578363D01*
X153479198Y-93583549D01*
X153479195Y-93583553D01*
X153432062Y-93665026D01*
X153376277Y-93761454D01*
X153306889Y-93961271D01*
X153306028Y-93967206D01*
X153306028Y-93967208D01*
X153288942Y-94085052D01*
X153276537Y-94170604D01*
X135708427Y-94170604D01*
X135703683Y-94068101D01*
X135654125Y-93862466D01*
X135651625Y-93856966D01*
X135599334Y-93741959D01*
X135566576Y-93669913D01*
X135444196Y-93497389D01*
X135291400Y-93351119D01*
X135113702Y-93236380D01*
X135030905Y-93203012D01*
X134923082Y-93159558D01*
X134923079Y-93159557D01*
X134917513Y-93157314D01*
X134709913Y-93116772D01*
X134704351Y-93116500D01*
X134548404Y-93116500D01*
X134390684Y-93131548D01*
X134187716Y-93191092D01*
X134182389Y-93193836D01*
X134182388Y-93193836D01*
X134005001Y-93285196D01*
X134004998Y-93285198D01*
X133999670Y-93287942D01*
X133833330Y-93418604D01*
X133829398Y-93423135D01*
X133829395Y-93423138D01*
X133760724Y-93502275D01*
X133694698Y-93578363D01*
X133691698Y-93583549D01*
X133691695Y-93583553D01*
X133644562Y-93665026D01*
X133588777Y-93761454D01*
X133519389Y-93961271D01*
X133518528Y-93967206D01*
X133518528Y-93967208D01*
X133501442Y-94085052D01*
X133489037Y-94170604D01*
X119698000Y-94170604D01*
X119698000Y-84477344D01*
X127217825Y-84477344D01*
X127234766Y-84771164D01*
X127235591Y-84775371D01*
X127235592Y-84775376D01*
X127262400Y-84912014D01*
X127291427Y-85059966D01*
X127386759Y-85338407D01*
X127518997Y-85601334D01*
X127521423Y-85604863D01*
X127521426Y-85604869D01*
X127561200Y-85662740D01*
X127685695Y-85843881D01*
X127883768Y-86061560D01*
X127887057Y-86064310D01*
X128106259Y-86247592D01*
X128106264Y-86247596D01*
X128109551Y-86250344D01*
X128175301Y-86291589D01*
X128355226Y-86404456D01*
X128355230Y-86404458D01*
X128358866Y-86406739D01*
X128431543Y-86439554D01*
X128623187Y-86526085D01*
X128623191Y-86526087D01*
X128627099Y-86527851D01*
X128631218Y-86529071D01*
X128905174Y-86610221D01*
X128905179Y-86610222D01*
X128909287Y-86611439D01*
X128913521Y-86612087D01*
X128913526Y-86612088D01*
X129195967Y-86655307D01*
X129195969Y-86655307D01*
X129200209Y-86655956D01*
X129350022Y-86658310D01*
X129490190Y-86660512D01*
X129490196Y-86660512D01*
X129494481Y-86660579D01*
X129786658Y-86625222D01*
X130071332Y-86550539D01*
X130343238Y-86437912D01*
X130597342Y-86289425D01*
X130828944Y-86107827D01*
X130849074Y-86087055D01*
X131030773Y-85899554D01*
X131033756Y-85896476D01*
X131207991Y-85659285D01*
X131348422Y-85400642D01*
X131452453Y-85125333D01*
X131518157Y-84838453D01*
X131523787Y-84775376D01*
X131544099Y-84547776D01*
X131544099Y-84547774D01*
X131544319Y-84545310D01*
X131544794Y-84500000D01*
X131544625Y-84497519D01*
X131543250Y-84477344D01*
X147061575Y-84477344D01*
X147078516Y-84771164D01*
X147079341Y-84775371D01*
X147079342Y-84775376D01*
X147106150Y-84912014D01*
X147135177Y-85059966D01*
X147230509Y-85338407D01*
X147362747Y-85601334D01*
X147365173Y-85604863D01*
X147365176Y-85604869D01*
X147404950Y-85662740D01*
X147529445Y-85843881D01*
X147727518Y-86061560D01*
X147730807Y-86064310D01*
X147950009Y-86247592D01*
X147950014Y-86247596D01*
X147953301Y-86250344D01*
X148019051Y-86291589D01*
X148198976Y-86404456D01*
X148198980Y-86404458D01*
X148202616Y-86406739D01*
X148275293Y-86439554D01*
X148466937Y-86526085D01*
X148466941Y-86526087D01*
X148470849Y-86527851D01*
X148474968Y-86529071D01*
X148748924Y-86610221D01*
X148748929Y-86610222D01*
X148753037Y-86611439D01*
X148757271Y-86612087D01*
X148757276Y-86612088D01*
X149039717Y-86655307D01*
X149039719Y-86655307D01*
X149043959Y-86655956D01*
X149193772Y-86658310D01*
X149333940Y-86660512D01*
X149333946Y-86660512D01*
X149338231Y-86660579D01*
X149630408Y-86625222D01*
X149915082Y-86550539D01*
X150186988Y-86437912D01*
X150441092Y-86289425D01*
X150672694Y-86107827D01*
X150692824Y-86087055D01*
X150874523Y-85899554D01*
X150877506Y-85896476D01*
X151051741Y-85659285D01*
X151192172Y-85400642D01*
X151296203Y-85125333D01*
X151361907Y-84838453D01*
X151367537Y-84775376D01*
X151387849Y-84547776D01*
X151387849Y-84547774D01*
X151388069Y-84545310D01*
X151388544Y-84500000D01*
X151388375Y-84497519D01*
X151368819Y-84210650D01*
X151368818Y-84210644D01*
X151368527Y-84206373D01*
X151308845Y-83918180D01*
X151210603Y-83640753D01*
X151075618Y-83379226D01*
X151059589Y-83356418D01*
X150908856Y-83141948D01*
X150908855Y-83141947D01*
X150906389Y-83138438D01*
X150706048Y-82922844D01*
X150683936Y-82904745D01*
X150481618Y-82739151D01*
X150478300Y-82736435D01*
X150259889Y-82602593D01*
X150231023Y-82584904D01*
X150231022Y-82584904D01*
X150227361Y-82582660D01*
X150208706Y-82574471D01*
X149961802Y-82466087D01*
X149961798Y-82466086D01*
X149957874Y-82464363D01*
X149674826Y-82383735D01*
X149670584Y-82383131D01*
X149670578Y-82383130D01*
X149387705Y-82342871D01*
X149383454Y-82342266D01*
X149228306Y-82341454D01*
X149093436Y-82340747D01*
X149093430Y-82340747D01*
X149089150Y-82340725D01*
X149084906Y-82341284D01*
X149084902Y-82341284D01*
X148988704Y-82353949D01*
X148797360Y-82379140D01*
X148793220Y-82380273D01*
X148793218Y-82380273D01*
X148572075Y-82440771D01*
X148513483Y-82456800D01*
X148509533Y-82458485D01*
X148246714Y-82570586D01*
X148246707Y-82570590D01*
X148242772Y-82572268D01*
X148164126Y-82619337D01*
X147993918Y-82721204D01*
X147993914Y-82721207D01*
X147990236Y-82723408D01*
X147760549Y-82907422D01*
X147757605Y-82910524D01*
X147757601Y-82910528D01*
X147622868Y-83052507D01*
X147557961Y-83120905D01*
X147386220Y-83359908D01*
X147248504Y-83620007D01*
X147147362Y-83896390D01*
X147084666Y-84183943D01*
X147084330Y-84188213D01*
X147065637Y-84425737D01*
X147061575Y-84477344D01*
X131543250Y-84477344D01*
X131525069Y-84210650D01*
X131525068Y-84210644D01*
X131524777Y-84206373D01*
X131465095Y-83918180D01*
X131366853Y-83640753D01*
X131231868Y-83379226D01*
X131215839Y-83356418D01*
X131065106Y-83141948D01*
X131065105Y-83141947D01*
X131062639Y-83138438D01*
X130862298Y-82922844D01*
X130840186Y-82904745D01*
X130637868Y-82739151D01*
X130634550Y-82736435D01*
X130416139Y-82602593D01*
X130387273Y-82584904D01*
X130387272Y-82584904D01*
X130383611Y-82582660D01*
X130364956Y-82574471D01*
X130118052Y-82466087D01*
X130118048Y-82466086D01*
X130114124Y-82464363D01*
X129831076Y-82383735D01*
X129826834Y-82383131D01*
X129826828Y-82383130D01*
X129543955Y-82342871D01*
X129539704Y-82342266D01*
X129384556Y-82341454D01*
X129249686Y-82340747D01*
X129249680Y-82340747D01*
X129245400Y-82340725D01*
X129241156Y-82341284D01*
X129241152Y-82341284D01*
X129144954Y-82353949D01*
X128953610Y-82379140D01*
X128949470Y-82380273D01*
X128949468Y-82380273D01*
X128728325Y-82440771D01*
X128669733Y-82456800D01*
X128665783Y-82458485D01*
X128402964Y-82570586D01*
X128402957Y-82570590D01*
X128399022Y-82572268D01*
X128320376Y-82619337D01*
X128150168Y-82721204D01*
X128150164Y-82721207D01*
X128146486Y-82723408D01*
X127916799Y-82907422D01*
X127913855Y-82910524D01*
X127913851Y-82910528D01*
X127779118Y-83052507D01*
X127714211Y-83120905D01*
X127542470Y-83359908D01*
X127404754Y-83620007D01*
X127303612Y-83896390D01*
X127240916Y-84183943D01*
X127240580Y-84188213D01*
X127221887Y-84425737D01*
X127217825Y-84477344D01*
X119698000Y-84477344D01*
X119698000Y-82277344D01*
X122217825Y-82277344D01*
X122234766Y-82571164D01*
X122235591Y-82575371D01*
X122235592Y-82575376D01*
X122251620Y-82657068D01*
X122291427Y-82859966D01*
X122292814Y-82864016D01*
X122292815Y-82864021D01*
X122381958Y-83124385D01*
X122386759Y-83138407D01*
X122388686Y-83142238D01*
X122517043Y-83397448D01*
X122518997Y-83401334D01*
X122521423Y-83404863D01*
X122521426Y-83404869D01*
X122561200Y-83462740D01*
X122685695Y-83643881D01*
X122688582Y-83647054D01*
X122688583Y-83647055D01*
X122701500Y-83661250D01*
X122883768Y-83861560D01*
X122887057Y-83864310D01*
X123106259Y-84047592D01*
X123106264Y-84047596D01*
X123109551Y-84050344D01*
X123175097Y-84091461D01*
X123355226Y-84204456D01*
X123355230Y-84204458D01*
X123358866Y-84206739D01*
X123431543Y-84239554D01*
X123623187Y-84326085D01*
X123623191Y-84326087D01*
X123627099Y-84327851D01*
X123631218Y-84329071D01*
X123905174Y-84410221D01*
X123905179Y-84410222D01*
X123909287Y-84411439D01*
X123913521Y-84412087D01*
X123913526Y-84412088D01*
X124195967Y-84455307D01*
X124195969Y-84455307D01*
X124200209Y-84455956D01*
X124350022Y-84458310D01*
X124490190Y-84460512D01*
X124490196Y-84460512D01*
X124494481Y-84460579D01*
X124786658Y-84425222D01*
X125071332Y-84350539D01*
X125343238Y-84237912D01*
X125597342Y-84089425D01*
X125828944Y-83907827D01*
X125840028Y-83896390D01*
X126030773Y-83699554D01*
X126033756Y-83696476D01*
X126207991Y-83459285D01*
X126239456Y-83401334D01*
X126346372Y-83204418D01*
X126346373Y-83204416D01*
X126348422Y-83200642D01*
X126424887Y-82998285D01*
X126450935Y-82929351D01*
X126450936Y-82929347D01*
X126452453Y-82925333D01*
X126518157Y-82638453D01*
X126520353Y-82613856D01*
X126544099Y-82347776D01*
X126544099Y-82347774D01*
X126544319Y-82345310D01*
X126544396Y-82338013D01*
X126544768Y-82302484D01*
X126544768Y-82302483D01*
X126544794Y-82300000D01*
X126543250Y-82277344D01*
X142061575Y-82277344D01*
X142078516Y-82571164D01*
X142079341Y-82575371D01*
X142079342Y-82575376D01*
X142095370Y-82657068D01*
X142135177Y-82859966D01*
X142136564Y-82864016D01*
X142136565Y-82864021D01*
X142225708Y-83124385D01*
X142230509Y-83138407D01*
X142232436Y-83142238D01*
X142360793Y-83397448D01*
X142362747Y-83401334D01*
X142365173Y-83404863D01*
X142365176Y-83404869D01*
X142404950Y-83462740D01*
X142529445Y-83643881D01*
X142532332Y-83647054D01*
X142532333Y-83647055D01*
X142545250Y-83661250D01*
X142727518Y-83861560D01*
X142730807Y-83864310D01*
X142950009Y-84047592D01*
X142950014Y-84047596D01*
X142953301Y-84050344D01*
X143018847Y-84091461D01*
X143198976Y-84204456D01*
X143198980Y-84204458D01*
X143202616Y-84206739D01*
X143275293Y-84239554D01*
X143466937Y-84326085D01*
X143466941Y-84326087D01*
X143470849Y-84327851D01*
X143474968Y-84329071D01*
X143748924Y-84410221D01*
X143748929Y-84410222D01*
X143753037Y-84411439D01*
X143757271Y-84412087D01*
X143757276Y-84412088D01*
X144039717Y-84455307D01*
X144039719Y-84455307D01*
X144043959Y-84455956D01*
X144193772Y-84458310D01*
X144333940Y-84460512D01*
X144333946Y-84460512D01*
X144338231Y-84460579D01*
X144630408Y-84425222D01*
X144915082Y-84350539D01*
X145186988Y-84237912D01*
X145441092Y-84089425D01*
X145672694Y-83907827D01*
X145683778Y-83896390D01*
X145874523Y-83699554D01*
X145877506Y-83696476D01*
X146051741Y-83459285D01*
X146083206Y-83401334D01*
X146190122Y-83204418D01*
X146190123Y-83204416D01*
X146192172Y-83200642D01*
X146268637Y-82998285D01*
X146294685Y-82929351D01*
X146294686Y-82929347D01*
X146296203Y-82925333D01*
X146361907Y-82638453D01*
X146364103Y-82613856D01*
X146387849Y-82347776D01*
X146387849Y-82347774D01*
X146388069Y-82345310D01*
X146388146Y-82338013D01*
X146388518Y-82302484D01*
X146388518Y-82302483D01*
X146388544Y-82300000D01*
X146387000Y-82277344D01*
X146368819Y-82010650D01*
X146368818Y-82010644D01*
X146368527Y-82006373D01*
X146355198Y-81942007D01*
X146309714Y-81722377D01*
X146308845Y-81718180D01*
X146210603Y-81440753D01*
X146075618Y-81179226D01*
X146059974Y-81156966D01*
X145908856Y-80941948D01*
X145908855Y-80941947D01*
X145906389Y-80938438D01*
X145706048Y-80722844D01*
X145688448Y-80708438D01*
X145522677Y-80572757D01*
X145478300Y-80536435D01*
X145227361Y-80382660D01*
X145208706Y-80374471D01*
X144961802Y-80266087D01*
X144961798Y-80266086D01*
X144957874Y-80264363D01*
X144674826Y-80183735D01*
X144670584Y-80183131D01*
X144670578Y-80183130D01*
X144387705Y-80142871D01*
X144383454Y-80142266D01*
X144228306Y-80141454D01*
X144093436Y-80140747D01*
X144093430Y-80140747D01*
X144089150Y-80140725D01*
X144084906Y-80141284D01*
X144084902Y-80141284D01*
X143956341Y-80158210D01*
X143797360Y-80179140D01*
X143793220Y-80180273D01*
X143793218Y-80180273D01*
X143588316Y-80236328D01*
X143513483Y-80256800D01*
X143447806Y-80284814D01*
X143246714Y-80370586D01*
X143246707Y-80370590D01*
X143242772Y-80372268D01*
X143101580Y-80456770D01*
X142993918Y-80521204D01*
X142993914Y-80521207D01*
X142990236Y-80523408D01*
X142760549Y-80707422D01*
X142757605Y-80710524D01*
X142757601Y-80710528D01*
X142560911Y-80917796D01*
X142557961Y-80920905D01*
X142386220Y-81159908D01*
X142248504Y-81420007D01*
X142147362Y-81696390D01*
X142084666Y-81983943D01*
X142084330Y-81988213D01*
X142064704Y-82237592D01*
X142061575Y-82277344D01*
X126543250Y-82277344D01*
X126525069Y-82010650D01*
X126525068Y-82010644D01*
X126524777Y-82006373D01*
X126511448Y-81942007D01*
X126465964Y-81722377D01*
X126465095Y-81718180D01*
X126366853Y-81440753D01*
X126231868Y-81179226D01*
X126216224Y-81156966D01*
X126065106Y-80941948D01*
X126065105Y-80941947D01*
X126062639Y-80938438D01*
X125862298Y-80722844D01*
X125844698Y-80708438D01*
X125678927Y-80572757D01*
X125634550Y-80536435D01*
X125383611Y-80382660D01*
X125364956Y-80374471D01*
X125118052Y-80266087D01*
X125118048Y-80266086D01*
X125114124Y-80264363D01*
X124831076Y-80183735D01*
X124826834Y-80183131D01*
X124826828Y-80183130D01*
X124543955Y-80142871D01*
X124539704Y-80142266D01*
X124384556Y-80141454D01*
X124249686Y-80140747D01*
X124249680Y-80140747D01*
X124245400Y-80140725D01*
X124241156Y-80141284D01*
X124241152Y-80141284D01*
X124112591Y-80158210D01*
X123953610Y-80179140D01*
X123949470Y-80180273D01*
X123949468Y-80180273D01*
X123744566Y-80236328D01*
X123669733Y-80256800D01*
X123604056Y-80284814D01*
X123402964Y-80370586D01*
X123402957Y-80370590D01*
X123399022Y-80372268D01*
X123257830Y-80456770D01*
X123150168Y-80521204D01*
X123150164Y-80521207D01*
X123146486Y-80523408D01*
X122916799Y-80707422D01*
X122913855Y-80710524D01*
X122913851Y-80710528D01*
X122717161Y-80917796D01*
X122714211Y-80920905D01*
X122542470Y-81159908D01*
X122404754Y-81420007D01*
X122303612Y-81696390D01*
X122240916Y-81983943D01*
X122240580Y-81988213D01*
X122220954Y-82237592D01*
X122217825Y-82277344D01*
X119698000Y-82277344D01*
X119698000Y-80089032D01*
X119698530Y-80077793D01*
X119700209Y-80070281D01*
X119698062Y-80001969D01*
X119698000Y-79998012D01*
X119698000Y-79970017D01*
X119697492Y-79965994D01*
X119696559Y-79954152D01*
X119695414Y-79917720D01*
X119695165Y-79909795D01*
X119689487Y-79890251D01*
X119685477Y-79870888D01*
X119683920Y-79858560D01*
X119683920Y-79858558D01*
X119682927Y-79850701D01*
X119680011Y-79843337D01*
X119680010Y-79843332D01*
X119666593Y-79809444D01*
X119662748Y-79798215D01*
X119652581Y-79763222D01*
X119650369Y-79755607D01*
X119643213Y-79743507D01*
X119640012Y-79738094D01*
X119631312Y-79720336D01*
X119626739Y-79708785D01*
X119626735Y-79708779D01*
X119623819Y-79701412D01*
X119597734Y-79665509D01*
X119591219Y-79655590D01*
X119572674Y-79624232D01*
X119572671Y-79624228D01*
X119568634Y-79617402D01*
X119554250Y-79603018D01*
X119541409Y-79587984D01*
X119534102Y-79577927D01*
X119529442Y-79571513D01*
X119495244Y-79543222D01*
X119486465Y-79535233D01*
X118437007Y-78485774D01*
X122519352Y-78485774D01*
X122519552Y-78491103D01*
X122519552Y-78491105D01*
X122521595Y-78545534D01*
X122528001Y-78716158D01*
X122529096Y-78721377D01*
X122545768Y-78800835D01*
X122575343Y-78941791D01*
X122577301Y-78946750D01*
X122577302Y-78946752D01*
X122652109Y-79136173D01*
X122660026Y-79156221D01*
X122662793Y-79160780D01*
X122662794Y-79160783D01*
X122683255Y-79194501D01*
X122779627Y-79353317D01*
X122783124Y-79357347D01*
X122895494Y-79486842D01*
X122930727Y-79527445D01*
X122934858Y-79530832D01*
X123104877Y-79670240D01*
X123104883Y-79670244D01*
X123109005Y-79673624D01*
X123113641Y-79676263D01*
X123113644Y-79676265D01*
X123266406Y-79763222D01*
X123309364Y-79787675D01*
X123526075Y-79866337D01*
X123531324Y-79867286D01*
X123531327Y-79867287D01*
X123748858Y-79906623D01*
X123748865Y-79906624D01*
X123752942Y-79907361D01*
X123770664Y-79908197D01*
X123775606Y-79908430D01*
X123775613Y-79908430D01*
X123777094Y-79908500D01*
X123939140Y-79908500D01*
X124006059Y-79902822D01*
X124105659Y-79894371D01*
X124105663Y-79894370D01*
X124110970Y-79893920D01*
X124116125Y-79892582D01*
X124116131Y-79892581D01*
X124328953Y-79837343D01*
X124328957Y-79837342D01*
X124334122Y-79836001D01*
X124338988Y-79833809D01*
X124338991Y-79833808D01*
X124539452Y-79743507D01*
X124544325Y-79741312D01*
X124735569Y-79612559D01*
X124902385Y-79453424D01*
X125040004Y-79268458D01*
X125074943Y-79199739D01*
X125131011Y-79089460D01*
X125144490Y-79062949D01*
X125161879Y-79006950D01*
X125211274Y-78847871D01*
X125212857Y-78842773D01*
X125218415Y-78800835D01*
X125242448Y-78619511D01*
X125242448Y-78619506D01*
X125243148Y-78614226D01*
X125242477Y-78596355D01*
X127168292Y-78596355D01*
X127168655Y-78600503D01*
X127168655Y-78600507D01*
X127178561Y-78713727D01*
X127193863Y-78888625D01*
X127194773Y-78892697D01*
X127194774Y-78892702D01*
X127249837Y-79139039D01*
X127257863Y-79174947D01*
X127359169Y-79450288D01*
X127361116Y-79453981D01*
X127361117Y-79453983D01*
X127476921Y-79673624D01*
X127496001Y-79709813D01*
X127665955Y-79948961D01*
X127866044Y-80163531D01*
X128092754Y-80349752D01*
X128342101Y-80504354D01*
X128345918Y-80506070D01*
X128345921Y-80506071D01*
X128360242Y-80512507D01*
X128609706Y-80624620D01*
X128697656Y-80650839D01*
X128886868Y-80707247D01*
X128886876Y-80707249D01*
X128890865Y-80708438D01*
X128894981Y-80709090D01*
X128894986Y-80709091D01*
X129177172Y-80753784D01*
X129177177Y-80753784D01*
X129180640Y-80754333D01*
X129229736Y-80756563D01*
X129270982Y-80758436D01*
X129271001Y-80758436D01*
X129272401Y-80758500D01*
X129455670Y-80758500D01*
X129673992Y-80743999D01*
X129961591Y-80686009D01*
X130238994Y-80590492D01*
X130242736Y-80588618D01*
X130242741Y-80588616D01*
X130497583Y-80461000D01*
X130497585Y-80460999D01*
X130501327Y-80459125D01*
X130698064Y-80325423D01*
X130740523Y-80296568D01*
X130740526Y-80296566D01*
X130743982Y-80294217D01*
X130823330Y-80223272D01*
X130959578Y-80101452D01*
X130959579Y-80101451D01*
X130962695Y-80098665D01*
X131153623Y-79875905D01*
X131226800Y-79763222D01*
X131311134Y-79633360D01*
X131311137Y-79633355D01*
X131313413Y-79629850D01*
X131333293Y-79587984D01*
X131383399Y-79482460D01*
X131439257Y-79364823D01*
X131441658Y-79357347D01*
X131527666Y-79089460D01*
X131528944Y-79085480D01*
X131580899Y-78796730D01*
X131589429Y-78608895D01*
X131594019Y-78507815D01*
X131594019Y-78507810D01*
X131594208Y-78503645D01*
X131592645Y-78485774D01*
X133519352Y-78485774D01*
X133519552Y-78491103D01*
X133519552Y-78491105D01*
X133521595Y-78545534D01*
X133528001Y-78716158D01*
X133529096Y-78721377D01*
X133545768Y-78800835D01*
X133575343Y-78941791D01*
X133577301Y-78946750D01*
X133577302Y-78946752D01*
X133652109Y-79136173D01*
X133660026Y-79156221D01*
X133662793Y-79160780D01*
X133662794Y-79160783D01*
X133683255Y-79194501D01*
X133779627Y-79353317D01*
X133783124Y-79357347D01*
X133895494Y-79486842D01*
X133930727Y-79527445D01*
X133934858Y-79530832D01*
X134104877Y-79670240D01*
X134104883Y-79670244D01*
X134109005Y-79673624D01*
X134113641Y-79676263D01*
X134113644Y-79676265D01*
X134266406Y-79763222D01*
X134309364Y-79787675D01*
X134526075Y-79866337D01*
X134531324Y-79867286D01*
X134531327Y-79867287D01*
X134748858Y-79906623D01*
X134748865Y-79906624D01*
X134752942Y-79907361D01*
X134770664Y-79908197D01*
X134775606Y-79908430D01*
X134775613Y-79908430D01*
X134777094Y-79908500D01*
X134939140Y-79908500D01*
X135006059Y-79902822D01*
X135105659Y-79894371D01*
X135105663Y-79894370D01*
X135110970Y-79893920D01*
X135116125Y-79892582D01*
X135116131Y-79892581D01*
X135328953Y-79837343D01*
X135328957Y-79837342D01*
X135334122Y-79836001D01*
X135338988Y-79833809D01*
X135338991Y-79833808D01*
X135539452Y-79743507D01*
X135544325Y-79741312D01*
X135735569Y-79612559D01*
X135902385Y-79453424D01*
X136040004Y-79268458D01*
X136074943Y-79199739D01*
X136131011Y-79089460D01*
X136144490Y-79062949D01*
X136161879Y-79006950D01*
X136211274Y-78847871D01*
X136212857Y-78842773D01*
X136218415Y-78800835D01*
X136242448Y-78619511D01*
X136242448Y-78619506D01*
X136243148Y-78614226D01*
X136238326Y-78485774D01*
X142363102Y-78485774D01*
X142363302Y-78491103D01*
X142363302Y-78491105D01*
X142365345Y-78545534D01*
X142371751Y-78716158D01*
X142372846Y-78721377D01*
X142389518Y-78800835D01*
X142419093Y-78941791D01*
X142421051Y-78946750D01*
X142421052Y-78946752D01*
X142495859Y-79136173D01*
X142503776Y-79156221D01*
X142506543Y-79160780D01*
X142506544Y-79160783D01*
X142527005Y-79194501D01*
X142623377Y-79353317D01*
X142626874Y-79357347D01*
X142739244Y-79486842D01*
X142774477Y-79527445D01*
X142778608Y-79530832D01*
X142948627Y-79670240D01*
X142948633Y-79670244D01*
X142952755Y-79673624D01*
X142957391Y-79676263D01*
X142957394Y-79676265D01*
X143110156Y-79763222D01*
X143153114Y-79787675D01*
X143369825Y-79866337D01*
X143375074Y-79867286D01*
X143375077Y-79867287D01*
X143592608Y-79906623D01*
X143592615Y-79906624D01*
X143596692Y-79907361D01*
X143614414Y-79908197D01*
X143619356Y-79908430D01*
X143619363Y-79908430D01*
X143620844Y-79908500D01*
X143782890Y-79908500D01*
X143849809Y-79902822D01*
X143949409Y-79894371D01*
X143949413Y-79894370D01*
X143954720Y-79893920D01*
X143959875Y-79892582D01*
X143959881Y-79892581D01*
X144172703Y-79837343D01*
X144172707Y-79837342D01*
X144177872Y-79836001D01*
X144182738Y-79833809D01*
X144182741Y-79833808D01*
X144383202Y-79743507D01*
X144388075Y-79741312D01*
X144579319Y-79612559D01*
X144746135Y-79453424D01*
X144883754Y-79268458D01*
X144918693Y-79199739D01*
X144974761Y-79089460D01*
X144988240Y-79062949D01*
X145005629Y-79006950D01*
X145055024Y-78847871D01*
X145056607Y-78842773D01*
X145062165Y-78800835D01*
X145086198Y-78619511D01*
X145086198Y-78619506D01*
X145086898Y-78614226D01*
X145086227Y-78596355D01*
X147012042Y-78596355D01*
X147012405Y-78600503D01*
X147012405Y-78600507D01*
X147022311Y-78713727D01*
X147037613Y-78888625D01*
X147038523Y-78892697D01*
X147038524Y-78892702D01*
X147093587Y-79139039D01*
X147101613Y-79174947D01*
X147202919Y-79450288D01*
X147204866Y-79453981D01*
X147204867Y-79453983D01*
X147320671Y-79673624D01*
X147339751Y-79709813D01*
X147509705Y-79948961D01*
X147709794Y-80163531D01*
X147936504Y-80349752D01*
X148185851Y-80504354D01*
X148189668Y-80506070D01*
X148189671Y-80506071D01*
X148203992Y-80512507D01*
X148453456Y-80624620D01*
X148541406Y-80650839D01*
X148730618Y-80707247D01*
X148730626Y-80707249D01*
X148734615Y-80708438D01*
X148738731Y-80709090D01*
X148738736Y-80709091D01*
X149020922Y-80753784D01*
X149020927Y-80753784D01*
X149024390Y-80754333D01*
X149073486Y-80756563D01*
X149114732Y-80758436D01*
X149114751Y-80758436D01*
X149116151Y-80758500D01*
X149299420Y-80758500D01*
X149517742Y-80743999D01*
X149805341Y-80686009D01*
X150082744Y-80590492D01*
X150086486Y-80588618D01*
X150086491Y-80588616D01*
X150341333Y-80461000D01*
X150341335Y-80460999D01*
X150345077Y-80459125D01*
X150541814Y-80325423D01*
X150584273Y-80296568D01*
X150584276Y-80296566D01*
X150587732Y-80294217D01*
X150667080Y-80223272D01*
X150803328Y-80101452D01*
X150803329Y-80101451D01*
X150806445Y-80098665D01*
X150997373Y-79875905D01*
X151070550Y-79763222D01*
X151154884Y-79633360D01*
X151154887Y-79633355D01*
X151157163Y-79629850D01*
X151177043Y-79587984D01*
X151227149Y-79482460D01*
X151283007Y-79364823D01*
X151285408Y-79357347D01*
X151371416Y-79089460D01*
X151372694Y-79085480D01*
X151424649Y-78796730D01*
X151433179Y-78608895D01*
X151437769Y-78507815D01*
X151437769Y-78507810D01*
X151437958Y-78503645D01*
X151436395Y-78485774D01*
X153363102Y-78485774D01*
X153363302Y-78491103D01*
X153363302Y-78491105D01*
X153365345Y-78545534D01*
X153371751Y-78716158D01*
X153372846Y-78721377D01*
X153389518Y-78800835D01*
X153419093Y-78941791D01*
X153421051Y-78946750D01*
X153421052Y-78946752D01*
X153495859Y-79136173D01*
X153503776Y-79156221D01*
X153506543Y-79160780D01*
X153506544Y-79160783D01*
X153527005Y-79194501D01*
X153623377Y-79353317D01*
X153626874Y-79357347D01*
X153739244Y-79486842D01*
X153774477Y-79527445D01*
X153778608Y-79530832D01*
X153948627Y-79670240D01*
X153948633Y-79670244D01*
X153952755Y-79673624D01*
X153957391Y-79676263D01*
X153957394Y-79676265D01*
X154110156Y-79763222D01*
X154153114Y-79787675D01*
X154369825Y-79866337D01*
X154375074Y-79867286D01*
X154375077Y-79867287D01*
X154592608Y-79906623D01*
X154592615Y-79906624D01*
X154596692Y-79907361D01*
X154614414Y-79908197D01*
X154619356Y-79908430D01*
X154619363Y-79908430D01*
X154620844Y-79908500D01*
X154782890Y-79908500D01*
X154849809Y-79902822D01*
X154949409Y-79894371D01*
X154949413Y-79894370D01*
X154954720Y-79893920D01*
X154959875Y-79892582D01*
X154959881Y-79892581D01*
X155172703Y-79837343D01*
X155172707Y-79837342D01*
X155177872Y-79836001D01*
X155182738Y-79833809D01*
X155182741Y-79833808D01*
X155383202Y-79743507D01*
X155388075Y-79741312D01*
X155579319Y-79612559D01*
X155746135Y-79453424D01*
X155883754Y-79268458D01*
X155918693Y-79199739D01*
X155974761Y-79089460D01*
X155988240Y-79062949D01*
X156005629Y-79006950D01*
X156055024Y-78847871D01*
X156056607Y-78842773D01*
X156062165Y-78800835D01*
X156086198Y-78619511D01*
X156086198Y-78619506D01*
X156086898Y-78614226D01*
X156078249Y-78383842D01*
X156061344Y-78303270D01*
X156032002Y-78163428D01*
X156030907Y-78158209D01*
X156028948Y-78153248D01*
X155948185Y-77948744D01*
X155948184Y-77948742D01*
X155946224Y-77943779D01*
X155937336Y-77929131D01*
X155831781Y-77755183D01*
X155826623Y-77746683D01*
X155771598Y-77683272D01*
X155679023Y-77576588D01*
X155679021Y-77576586D01*
X155675523Y-77572555D01*
X155628220Y-77533769D01*
X155501373Y-77429760D01*
X155501367Y-77429756D01*
X155497245Y-77426376D01*
X155492609Y-77423737D01*
X155492606Y-77423735D01*
X155301529Y-77314968D01*
X155296886Y-77312325D01*
X155080175Y-77233663D01*
X155074926Y-77232714D01*
X155074923Y-77232713D01*
X154857392Y-77193377D01*
X154857385Y-77193376D01*
X154853308Y-77192639D01*
X154835586Y-77191803D01*
X154830644Y-77191570D01*
X154830637Y-77191570D01*
X154829156Y-77191500D01*
X154667110Y-77191500D01*
X154600191Y-77197178D01*
X154500591Y-77205629D01*
X154500587Y-77205630D01*
X154495280Y-77206080D01*
X154490125Y-77207418D01*
X154490119Y-77207419D01*
X154277297Y-77262657D01*
X154277293Y-77262658D01*
X154272128Y-77263999D01*
X154267262Y-77266191D01*
X154267259Y-77266192D01*
X154164721Y-77312382D01*
X154061925Y-77358688D01*
X153870681Y-77487441D01*
X153866824Y-77491120D01*
X153866822Y-77491122D01*
X153816280Y-77539337D01*
X153703865Y-77646576D01*
X153566246Y-77831542D01*
X153461760Y-78037051D01*
X153460178Y-78042145D01*
X153460177Y-78042148D01*
X153406338Y-78215537D01*
X153393393Y-78257227D01*
X153392692Y-78262516D01*
X153367698Y-78451099D01*
X153363102Y-78485774D01*
X151436395Y-78485774D01*
X151412751Y-78215537D01*
X151412387Y-78211375D01*
X151399909Y-78155550D01*
X151349299Y-77929131D01*
X151349297Y-77929124D01*
X151348387Y-77925053D01*
X151247081Y-77649712D01*
X151131114Y-77429760D01*
X151112202Y-77393891D01*
X151112201Y-77393890D01*
X151110249Y-77390187D01*
X150940295Y-77151039D01*
X150740206Y-76936469D01*
X150513496Y-76750248D01*
X150264149Y-76595646D01*
X150260332Y-76593930D01*
X150260329Y-76593929D01*
X150186291Y-76560655D01*
X149996544Y-76475380D01*
X149908594Y-76449161D01*
X149719382Y-76392753D01*
X149719374Y-76392751D01*
X149715385Y-76391562D01*
X149711269Y-76390910D01*
X149711264Y-76390909D01*
X149429078Y-76346216D01*
X149429073Y-76346216D01*
X149425610Y-76345667D01*
X149376514Y-76343437D01*
X149335268Y-76341564D01*
X149335249Y-76341564D01*
X149333849Y-76341500D01*
X149150580Y-76341500D01*
X148932258Y-76356001D01*
X148644659Y-76413991D01*
X148367256Y-76509508D01*
X148363514Y-76511382D01*
X148363509Y-76511384D01*
X148188467Y-76599039D01*
X148104923Y-76640875D01*
X147862268Y-76805783D01*
X147643555Y-77001335D01*
X147452627Y-77224095D01*
X147445231Y-77235484D01*
X147319067Y-77429760D01*
X147292837Y-77470150D01*
X147166993Y-77735177D01*
X147165714Y-77739160D01*
X147165713Y-77739163D01*
X147157265Y-77765475D01*
X147077306Y-78014520D01*
X147025351Y-78303270D01*
X147020562Y-78408741D01*
X147012683Y-78582249D01*
X147012042Y-78596355D01*
X145086227Y-78596355D01*
X145078249Y-78383842D01*
X145061344Y-78303270D01*
X145032002Y-78163428D01*
X145030907Y-78158209D01*
X145028948Y-78153248D01*
X144948185Y-77948744D01*
X144948184Y-77948742D01*
X144946224Y-77943779D01*
X144937336Y-77929131D01*
X144831781Y-77755183D01*
X144826623Y-77746683D01*
X144771598Y-77683272D01*
X144679023Y-77576588D01*
X144679021Y-77576586D01*
X144675523Y-77572555D01*
X144628220Y-77533769D01*
X144501373Y-77429760D01*
X144501367Y-77429756D01*
X144497245Y-77426376D01*
X144492609Y-77423737D01*
X144492606Y-77423735D01*
X144301529Y-77314968D01*
X144296886Y-77312325D01*
X144080175Y-77233663D01*
X144074926Y-77232714D01*
X144074923Y-77232713D01*
X143857392Y-77193377D01*
X143857385Y-77193376D01*
X143853308Y-77192639D01*
X143835586Y-77191803D01*
X143830644Y-77191570D01*
X143830637Y-77191570D01*
X143829156Y-77191500D01*
X143667110Y-77191500D01*
X143600191Y-77197178D01*
X143500591Y-77205629D01*
X143500587Y-77205630D01*
X143495280Y-77206080D01*
X143490125Y-77207418D01*
X143490119Y-77207419D01*
X143277297Y-77262657D01*
X143277293Y-77262658D01*
X143272128Y-77263999D01*
X143267262Y-77266191D01*
X143267259Y-77266192D01*
X143164721Y-77312382D01*
X143061925Y-77358688D01*
X142870681Y-77487441D01*
X142866824Y-77491120D01*
X142866822Y-77491122D01*
X142816280Y-77539337D01*
X142703865Y-77646576D01*
X142566246Y-77831542D01*
X142461760Y-78037051D01*
X142460178Y-78042145D01*
X142460177Y-78042148D01*
X142406338Y-78215537D01*
X142393393Y-78257227D01*
X142392692Y-78262516D01*
X142367698Y-78451099D01*
X142363102Y-78485774D01*
X136238326Y-78485774D01*
X136234499Y-78383842D01*
X136217594Y-78303270D01*
X136188252Y-78163428D01*
X136187157Y-78158209D01*
X136185198Y-78153248D01*
X136104435Y-77948744D01*
X136104434Y-77948742D01*
X136102474Y-77943779D01*
X136093586Y-77929131D01*
X135988031Y-77755183D01*
X135982873Y-77746683D01*
X135927848Y-77683272D01*
X135835273Y-77576588D01*
X135835271Y-77576586D01*
X135831773Y-77572555D01*
X135784470Y-77533769D01*
X135657623Y-77429760D01*
X135657617Y-77429756D01*
X135653495Y-77426376D01*
X135648859Y-77423737D01*
X135648856Y-77423735D01*
X135457779Y-77314968D01*
X135453136Y-77312325D01*
X135236425Y-77233663D01*
X135231176Y-77232714D01*
X135231173Y-77232713D01*
X135013642Y-77193377D01*
X135013635Y-77193376D01*
X135009558Y-77192639D01*
X134991836Y-77191803D01*
X134986894Y-77191570D01*
X134986887Y-77191570D01*
X134985406Y-77191500D01*
X134823360Y-77191500D01*
X134756441Y-77197178D01*
X134656841Y-77205629D01*
X134656837Y-77205630D01*
X134651530Y-77206080D01*
X134646375Y-77207418D01*
X134646369Y-77207419D01*
X134433547Y-77262657D01*
X134433543Y-77262658D01*
X134428378Y-77263999D01*
X134423512Y-77266191D01*
X134423509Y-77266192D01*
X134320971Y-77312382D01*
X134218175Y-77358688D01*
X134026931Y-77487441D01*
X134023074Y-77491120D01*
X134023072Y-77491122D01*
X133972530Y-77539337D01*
X133860115Y-77646576D01*
X133722496Y-77831542D01*
X133618010Y-78037051D01*
X133616428Y-78042145D01*
X133616427Y-78042148D01*
X133562588Y-78215537D01*
X133549643Y-78257227D01*
X133548942Y-78262516D01*
X133523948Y-78451099D01*
X133519352Y-78485774D01*
X131592645Y-78485774D01*
X131569001Y-78215537D01*
X131568637Y-78211375D01*
X131556159Y-78155550D01*
X131505549Y-77929131D01*
X131505547Y-77929124D01*
X131504637Y-77925053D01*
X131403331Y-77649712D01*
X131287364Y-77429760D01*
X131268452Y-77393891D01*
X131268451Y-77393890D01*
X131266499Y-77390187D01*
X131096545Y-77151039D01*
X130896456Y-76936469D01*
X130669746Y-76750248D01*
X130420399Y-76595646D01*
X130416582Y-76593930D01*
X130416579Y-76593929D01*
X130342541Y-76560655D01*
X130152794Y-76475380D01*
X130064844Y-76449161D01*
X129875632Y-76392753D01*
X129875624Y-76392751D01*
X129871635Y-76391562D01*
X129867519Y-76390910D01*
X129867514Y-76390909D01*
X129585328Y-76346216D01*
X129585323Y-76346216D01*
X129581860Y-76345667D01*
X129532764Y-76343437D01*
X129491518Y-76341564D01*
X129491499Y-76341564D01*
X129490099Y-76341500D01*
X129306830Y-76341500D01*
X129088508Y-76356001D01*
X128800909Y-76413991D01*
X128523506Y-76509508D01*
X128519764Y-76511382D01*
X128519759Y-76511384D01*
X128344717Y-76599039D01*
X128261173Y-76640875D01*
X128018518Y-76805783D01*
X127799805Y-77001335D01*
X127608877Y-77224095D01*
X127601481Y-77235484D01*
X127475317Y-77429760D01*
X127449087Y-77470150D01*
X127323243Y-77735177D01*
X127321964Y-77739160D01*
X127321963Y-77739163D01*
X127313515Y-77765475D01*
X127233556Y-78014520D01*
X127181601Y-78303270D01*
X127176812Y-78408741D01*
X127168933Y-78582249D01*
X127168292Y-78596355D01*
X125242477Y-78596355D01*
X125234499Y-78383842D01*
X125217594Y-78303270D01*
X125188252Y-78163428D01*
X125187157Y-78158209D01*
X125185198Y-78153248D01*
X125104435Y-77948744D01*
X125104434Y-77948742D01*
X125102474Y-77943779D01*
X125093586Y-77929131D01*
X124988031Y-77755183D01*
X124982873Y-77746683D01*
X124927848Y-77683272D01*
X124835273Y-77576588D01*
X124835271Y-77576586D01*
X124831773Y-77572555D01*
X124784470Y-77533769D01*
X124657623Y-77429760D01*
X124657617Y-77429756D01*
X124653495Y-77426376D01*
X124648859Y-77423737D01*
X124648856Y-77423735D01*
X124457779Y-77314968D01*
X124453136Y-77312325D01*
X124236425Y-77233663D01*
X124231176Y-77232714D01*
X124231173Y-77232713D01*
X124013642Y-77193377D01*
X124013635Y-77193376D01*
X124009558Y-77192639D01*
X123991836Y-77191803D01*
X123986894Y-77191570D01*
X123986887Y-77191570D01*
X123985406Y-77191500D01*
X123823360Y-77191500D01*
X123756441Y-77197178D01*
X123656841Y-77205629D01*
X123656837Y-77205630D01*
X123651530Y-77206080D01*
X123646375Y-77207418D01*
X123646369Y-77207419D01*
X123433547Y-77262657D01*
X123433543Y-77262658D01*
X123428378Y-77263999D01*
X123423512Y-77266191D01*
X123423509Y-77266192D01*
X123320971Y-77312382D01*
X123218175Y-77358688D01*
X123026931Y-77487441D01*
X123023074Y-77491120D01*
X123023072Y-77491122D01*
X122972530Y-77539337D01*
X122860115Y-77646576D01*
X122722496Y-77831542D01*
X122618010Y-78037051D01*
X122616428Y-78042145D01*
X122616427Y-78042148D01*
X122562588Y-78215537D01*
X122549643Y-78257227D01*
X122548942Y-78262516D01*
X122523948Y-78451099D01*
X122519352Y-78485774D01*
X118437007Y-78485774D01*
X117673500Y-77722267D01*
X117639474Y-77659955D01*
X117640889Y-77600560D01*
X117655868Y-77544659D01*
X117655870Y-77544648D01*
X117657293Y-77539337D01*
X117677248Y-77311250D01*
X117657293Y-77083163D01*
X117655869Y-77077848D01*
X117599457Y-76867317D01*
X117599456Y-76867315D01*
X117598034Y-76862007D01*
X117573116Y-76808569D01*
X117503599Y-76659488D01*
X117503596Y-76659483D01*
X117501273Y-76654501D01*
X117398792Y-76508143D01*
X117373107Y-76471461D01*
X117373105Y-76471458D01*
X117369948Y-76466950D01*
X117208050Y-76305052D01*
X117203542Y-76301895D01*
X117203539Y-76301893D01*
X117077670Y-76213759D01*
X117020499Y-76173727D01*
X117015517Y-76171404D01*
X117015512Y-76171401D01*
X116980701Y-76155169D01*
X116927416Y-76108252D01*
X116907955Y-76039975D01*
X116928497Y-75972015D01*
X116980701Y-75926779D01*
X117015261Y-75910664D01*
X117024756Y-75905181D01*
X117076798Y-75868741D01*
X117085174Y-75858262D01*
X117078106Y-75844816D01*
X116376562Y-75143272D01*
X116362618Y-75135658D01*
X116360785Y-75135789D01*
X116354170Y-75140040D01*
X115648673Y-75845537D01*
X115642243Y-75857312D01*
X115651539Y-75869327D01*
X115702744Y-75905181D01*
X115712239Y-75910664D01*
X115746799Y-75926779D01*
X115800084Y-75973696D01*
X115819545Y-76041973D01*
X115799003Y-76109933D01*
X115746799Y-76155169D01*
X115711988Y-76171401D01*
X115711983Y-76171404D01*
X115707001Y-76173727D01*
X115649830Y-76213759D01*
X115523961Y-76301893D01*
X115523958Y-76301895D01*
X115519450Y-76305052D01*
X115357552Y-76466950D01*
X115354395Y-76471458D01*
X115354393Y-76471461D01*
X115328708Y-76508143D01*
X115226227Y-76654501D01*
X115223904Y-76659483D01*
X115223901Y-76659488D01*
X115154384Y-76808569D01*
X115129466Y-76862007D01*
X115128044Y-76867315D01*
X115128043Y-76867317D01*
X115071631Y-77077848D01*
X115070207Y-77083163D01*
X115050252Y-77311250D01*
X115070207Y-77539337D01*
X115071631Y-77544650D01*
X115071631Y-77544652D01*
X115125766Y-77746683D01*
X115129466Y-77760493D01*
X115131789Y-77765474D01*
X115131789Y-77765475D01*
X115223901Y-77963012D01*
X115223904Y-77963017D01*
X115226227Y-77967999D01*
X115357552Y-78155550D01*
X115519450Y-78317448D01*
X115523958Y-78320605D01*
X115523961Y-78320607D01*
X115602139Y-78375348D01*
X115707001Y-78448773D01*
X115711983Y-78451096D01*
X115711988Y-78451099D01*
X115746207Y-78467055D01*
X115799492Y-78513972D01*
X115818953Y-78582249D01*
X115798411Y-78650209D01*
X115746207Y-78695445D01*
X115711988Y-78711401D01*
X115711983Y-78711404D01*
X115707001Y-78713727D01*
X115649830Y-78753759D01*
X115523961Y-78841893D01*
X115523958Y-78841895D01*
X115519450Y-78845052D01*
X115357552Y-79006950D01*
X115226227Y-79194501D01*
X115223904Y-79199483D01*
X115223901Y-79199488D01*
X115131789Y-79397025D01*
X115129466Y-79402007D01*
X115128044Y-79407315D01*
X115128043Y-79407317D01*
X115075605Y-79603018D01*
X115070207Y-79623163D01*
X115050252Y-79851250D01*
X115070207Y-80079337D01*
X115070628Y-80080909D01*
X115062892Y-80150278D01*
X115035770Y-80190694D01*
X113032212Y-82194253D01*
X113025947Y-82200106D01*
X112982976Y-82237592D01*
X112978609Y-82243806D01*
X112946756Y-82289128D01*
X112942823Y-82294424D01*
X112908644Y-82338013D01*
X112908642Y-82338016D01*
X112903958Y-82343990D01*
X112900832Y-82350914D01*
X112898994Y-82353949D01*
X112891750Y-82366648D01*
X112890062Y-82369796D01*
X112885694Y-82376011D01*
X112882934Y-82383090D01*
X112862817Y-82434689D01*
X112860272Y-82440745D01*
X112834337Y-82498185D01*
X112832952Y-82505658D01*
X112831881Y-82509076D01*
X112827896Y-82523065D01*
X112826999Y-82526557D01*
X112824238Y-82533639D01*
X112823246Y-82541172D01*
X112823246Y-82541173D01*
X112816017Y-82596080D01*
X112814985Y-82602593D01*
X112808339Y-82638453D01*
X112803505Y-82664537D01*
X112803942Y-82672117D01*
X112803942Y-82672118D01*
X112807041Y-82725862D01*
X112807250Y-82733115D01*
X112807250Y-100345775D01*
X112787248Y-100413896D01*
X112770345Y-100434870D01*
X111194370Y-102010845D01*
X111132058Y-102044871D01*
X111105275Y-102047750D01*
X110624600Y-102047750D01*
X110621354Y-102048087D01*
X110621350Y-102048087D01*
X110525692Y-102058012D01*
X110525688Y-102058013D01*
X110518834Y-102058724D01*
X110512298Y-102060905D01*
X110512296Y-102060905D01*
X110431749Y-102087778D01*
X110351054Y-102114700D01*
X110200652Y-102207772D01*
X110075695Y-102332947D01*
X110071855Y-102339177D01*
X110071854Y-102339178D01*
X109999886Y-102455932D01*
X109982885Y-102483512D01*
X109980581Y-102490459D01*
X109930835Y-102640440D01*
X109927203Y-102651389D01*
X109926503Y-102658225D01*
X109926502Y-102658228D01*
X109925219Y-102670751D01*
X109916500Y-102755850D01*
X109916500Y-103381650D01*
X109927474Y-103487416D01*
X109929655Y-103493952D01*
X109929655Y-103493954D01*
X109954366Y-103568022D01*
X109983450Y-103655196D01*
X110076522Y-103805598D01*
X110081704Y-103810771D01*
X110163109Y-103892034D01*
X110197188Y-103954316D01*
X110192185Y-104025136D01*
X110163264Y-104070225D01*
X110119012Y-104114554D01*
X110075695Y-104157947D01*
X110071853Y-104164179D01*
X110071852Y-104164181D01*
X110050779Y-104198367D01*
X109998007Y-104245860D01*
X109943520Y-104258250D01*
X109177922Y-104258250D01*
X109109801Y-104238248D01*
X109088827Y-104221345D01*
X107736500Y-102869017D01*
X107728924Y-102860691D01*
X107724803Y-102854197D01*
X107674984Y-102807414D01*
X107672143Y-102804660D01*
X107652344Y-102784861D01*
X107649219Y-102782437D01*
X107649210Y-102782429D01*
X107649124Y-102782363D01*
X107640099Y-102774655D01*
X107613535Y-102749710D01*
X107607756Y-102744283D01*
X107589919Y-102734477D01*
X107573403Y-102723627D01*
X107557317Y-102711150D01*
X107516584Y-102693524D01*
X107505936Y-102688307D01*
X107494308Y-102681915D01*
X107467053Y-102666931D01*
X107459378Y-102664960D01*
X107459372Y-102664958D01*
X107447339Y-102661869D01*
X107428637Y-102655466D01*
X107409958Y-102647383D01*
X107376122Y-102642024D01*
X107366123Y-102640440D01*
X107354510Y-102638035D01*
X107311532Y-102627000D01*
X107291185Y-102627000D01*
X107271474Y-102625449D01*
X107259200Y-102623505D01*
X107251371Y-102622265D01*
X107243479Y-102623011D01*
X107207194Y-102626441D01*
X107195336Y-102627000D01*
X105428250Y-102627000D01*
X105360129Y-102606998D01*
X105313636Y-102553342D01*
X105302250Y-102501000D01*
X105302250Y-102314366D01*
X105295495Y-102252184D01*
X105244365Y-102115795D01*
X105157011Y-101999239D01*
X105040455Y-101911885D01*
X104904066Y-101860755D01*
X104841884Y-101854000D01*
X103645616Y-101854000D01*
X103583434Y-101860755D01*
X103447045Y-101911885D01*
X103330489Y-101999239D01*
X103243135Y-102115795D01*
X103192005Y-102252184D01*
X103185250Y-102314366D01*
X103185250Y-104210634D01*
X101602250Y-104210634D01*
X101602250Y-102314366D01*
X101595495Y-102252184D01*
X101544365Y-102115795D01*
X101457011Y-101999239D01*
X101340455Y-101911885D01*
X101204066Y-101860755D01*
X101141884Y-101854000D01*
X99945616Y-101854000D01*
X99883434Y-101860755D01*
X99747045Y-101911885D01*
X99630489Y-101999239D01*
X99543135Y-102115795D01*
X99492005Y-102252184D01*
X99485250Y-102314366D01*
X99485250Y-104210634D01*
X97346000Y-104210634D01*
X97346000Y-100171250D01*
X99810252Y-100171250D01*
X99830207Y-100399337D01*
X99831631Y-100404650D01*
X99831631Y-100404652D01*
X99878548Y-100579745D01*
X99889466Y-100620493D01*
X99891789Y-100625474D01*
X99891789Y-100625475D01*
X99983901Y-100823012D01*
X99983904Y-100823017D01*
X99986227Y-100827999D01*
X100117552Y-101015550D01*
X100279450Y-101177448D01*
X100283958Y-101180605D01*
X100283961Y-101180607D01*
X100362139Y-101235348D01*
X100467001Y-101308773D01*
X100471983Y-101311096D01*
X100471988Y-101311099D01*
X100606180Y-101373673D01*
X100674507Y-101405534D01*
X100679815Y-101406956D01*
X100679817Y-101406957D01*
X100890348Y-101463369D01*
X100890350Y-101463369D01*
X100895663Y-101464793D01*
X101123750Y-101484748D01*
X101351837Y-101464793D01*
X101357150Y-101463369D01*
X101357152Y-101463369D01*
X101567683Y-101406957D01*
X101567685Y-101406956D01*
X101572993Y-101405534D01*
X101641320Y-101373673D01*
X101775512Y-101311099D01*
X101775517Y-101311096D01*
X101780499Y-101308773D01*
X101885361Y-101235348D01*
X101963539Y-101180607D01*
X101963542Y-101180605D01*
X101968050Y-101177448D01*
X102129948Y-101015550D01*
X102261273Y-100827999D01*
X102263596Y-100823017D01*
X102263599Y-100823012D01*
X102355711Y-100625475D01*
X102355711Y-100625474D01*
X102358034Y-100620493D01*
X102368953Y-100579745D01*
X102415869Y-100404652D01*
X102415869Y-100404650D01*
X102417293Y-100399337D01*
X102437248Y-100171250D01*
X102417293Y-99943163D01*
X102374511Y-99783500D01*
X102359457Y-99727317D01*
X102359456Y-99727315D01*
X102358034Y-99722007D01*
X102329135Y-99660032D01*
X102263599Y-99519488D01*
X102263596Y-99519483D01*
X102261273Y-99514501D01*
X102179986Y-99398412D01*
X102133107Y-99331461D01*
X102133105Y-99331458D01*
X102129948Y-99326950D01*
X101968050Y-99165052D01*
X101963542Y-99161895D01*
X101963539Y-99161893D01*
X101885361Y-99107152D01*
X101780499Y-99033727D01*
X101775517Y-99031404D01*
X101775512Y-99031401D01*
X101741293Y-99015445D01*
X101688008Y-98968528D01*
X101668547Y-98900251D01*
X101689089Y-98832291D01*
X101741293Y-98787055D01*
X101775512Y-98771099D01*
X101775517Y-98771096D01*
X101780499Y-98768773D01*
X101913228Y-98675835D01*
X101963539Y-98640607D01*
X101963542Y-98640605D01*
X101968050Y-98637448D01*
X102129948Y-98475550D01*
X102135806Y-98467185D01*
X102258116Y-98292507D01*
X102261273Y-98287999D01*
X102263596Y-98283017D01*
X102263599Y-98283012D01*
X102355711Y-98085475D01*
X102355711Y-98085474D01*
X102358034Y-98080493D01*
X102369306Y-98038428D01*
X102415869Y-97864652D01*
X102415869Y-97864650D01*
X102417293Y-97859337D01*
X102437248Y-97631250D01*
X102417293Y-97403163D01*
X102407368Y-97366122D01*
X102359457Y-97187317D01*
X102359456Y-97187315D01*
X102358034Y-97182007D01*
X102337979Y-97138999D01*
X102263599Y-96979488D01*
X102263596Y-96979483D01*
X102261273Y-96974501D01*
X102187848Y-96869639D01*
X102133107Y-96791461D01*
X102133105Y-96791458D01*
X102129948Y-96786950D01*
X101968050Y-96625052D01*
X101963542Y-96621895D01*
X101963539Y-96621893D01*
X101885361Y-96567152D01*
X101780499Y-96493727D01*
X101775517Y-96491404D01*
X101775512Y-96491401D01*
X101741293Y-96475445D01*
X101688008Y-96428528D01*
X101668547Y-96360251D01*
X101689089Y-96292291D01*
X101741293Y-96247055D01*
X101775512Y-96231099D01*
X101775517Y-96231096D01*
X101780499Y-96228773D01*
X101885361Y-96155348D01*
X101963539Y-96100607D01*
X101963542Y-96100605D01*
X101968050Y-96097448D01*
X102129948Y-95935550D01*
X102261273Y-95747999D01*
X102263596Y-95743017D01*
X102263599Y-95743012D01*
X102355711Y-95545475D01*
X102355711Y-95545474D01*
X102358034Y-95540493D01*
X102413575Y-95333215D01*
X102415869Y-95324652D01*
X102415869Y-95324650D01*
X102417293Y-95319337D01*
X102437248Y-95091250D01*
X102417293Y-94863163D01*
X102393571Y-94774632D01*
X102359457Y-94647317D01*
X102359456Y-94647315D01*
X102358034Y-94642007D01*
X102286560Y-94488729D01*
X102263599Y-94439488D01*
X102263596Y-94439483D01*
X102261273Y-94434501D01*
X102129948Y-94246950D01*
X101968050Y-94085052D01*
X101963542Y-94081895D01*
X101963539Y-94081893D01*
X101885361Y-94027152D01*
X101780499Y-93953727D01*
X101775517Y-93951404D01*
X101775512Y-93951401D01*
X101741293Y-93935445D01*
X101688008Y-93888528D01*
X101668547Y-93820251D01*
X101689089Y-93752291D01*
X101741293Y-93707055D01*
X101775512Y-93691099D01*
X101775517Y-93691096D01*
X101780499Y-93688773D01*
X101885361Y-93615348D01*
X101963539Y-93560607D01*
X101963542Y-93560605D01*
X101968050Y-93557448D01*
X102129948Y-93395550D01*
X102163336Y-93347868D01*
X102187848Y-93312861D01*
X102261273Y-93207999D01*
X102263596Y-93203017D01*
X102263599Y-93203012D01*
X102355711Y-93005475D01*
X102355711Y-93005474D01*
X102358034Y-93000493D01*
X102417293Y-92779337D01*
X102437248Y-92551250D01*
X102417293Y-92323163D01*
X102358034Y-92102007D01*
X102355711Y-92097025D01*
X102263599Y-91899488D01*
X102263596Y-91899483D01*
X102261273Y-91894501D01*
X102129948Y-91706950D01*
X101968050Y-91545052D01*
X101963542Y-91541895D01*
X101963539Y-91541893D01*
X101885361Y-91487152D01*
X101780499Y-91413727D01*
X101775517Y-91411404D01*
X101775512Y-91411401D01*
X101741293Y-91395445D01*
X101688008Y-91348528D01*
X101668547Y-91280251D01*
X101689089Y-91212291D01*
X101741293Y-91167055D01*
X101775512Y-91151099D01*
X101775517Y-91151096D01*
X101780499Y-91148773D01*
X101885361Y-91075348D01*
X101963539Y-91020607D01*
X101963542Y-91020605D01*
X101968050Y-91017448D01*
X102129948Y-90855550D01*
X102261273Y-90667999D01*
X102263596Y-90663017D01*
X102263599Y-90663012D01*
X102355711Y-90465475D01*
X102355711Y-90465474D01*
X102358034Y-90460493D01*
X102417293Y-90239337D01*
X102437248Y-90011250D01*
X102417293Y-89783163D01*
X102358034Y-89562007D01*
X102355711Y-89557025D01*
X102263599Y-89359488D01*
X102263596Y-89359483D01*
X102261273Y-89354501D01*
X102129948Y-89166950D01*
X101968050Y-89005052D01*
X101963542Y-89001895D01*
X101963539Y-89001893D01*
X101885361Y-88947152D01*
X101780499Y-88873727D01*
X101775517Y-88871404D01*
X101775512Y-88871401D01*
X101741293Y-88855445D01*
X101688008Y-88808528D01*
X101668547Y-88740251D01*
X101689089Y-88672291D01*
X101741293Y-88627055D01*
X101775512Y-88611099D01*
X101775517Y-88611096D01*
X101780499Y-88608773D01*
X101885361Y-88535348D01*
X101963539Y-88480607D01*
X101963542Y-88480605D01*
X101968050Y-88477448D01*
X102129948Y-88315550D01*
X102261273Y-88127999D01*
X102263596Y-88123017D01*
X102263599Y-88123012D01*
X102355711Y-87925475D01*
X102355711Y-87925474D01*
X102358034Y-87920493D01*
X102417293Y-87699337D01*
X102437248Y-87471250D01*
X102417293Y-87243163D01*
X102358034Y-87022007D01*
X102355711Y-87017025D01*
X102263599Y-86819488D01*
X102263596Y-86819483D01*
X102261273Y-86814501D01*
X102187848Y-86709639D01*
X102133107Y-86631461D01*
X102133105Y-86631458D01*
X102129948Y-86626950D01*
X101968050Y-86465052D01*
X101963542Y-86461895D01*
X101963539Y-86461893D01*
X101881510Y-86404456D01*
X101780499Y-86333727D01*
X101775517Y-86331404D01*
X101775512Y-86331401D01*
X101741293Y-86315445D01*
X101688008Y-86268528D01*
X101668547Y-86200251D01*
X101689089Y-86132291D01*
X101741293Y-86087055D01*
X101775512Y-86071099D01*
X101775517Y-86071096D01*
X101780499Y-86068773D01*
X101885361Y-85995348D01*
X101963539Y-85940607D01*
X101963542Y-85940605D01*
X101968050Y-85937448D01*
X102129948Y-85775550D01*
X102261273Y-85587999D01*
X102263596Y-85583017D01*
X102263599Y-85583012D01*
X102355711Y-85385475D01*
X102355711Y-85385474D01*
X102358034Y-85380493D01*
X102368285Y-85342238D01*
X102415869Y-85164652D01*
X102415869Y-85164650D01*
X102417293Y-85159337D01*
X102437248Y-84931250D01*
X102417293Y-84703163D01*
X102362855Y-84500000D01*
X102359457Y-84487317D01*
X102359456Y-84487315D01*
X102358034Y-84482007D01*
X102348011Y-84460512D01*
X102263599Y-84279488D01*
X102263596Y-84279483D01*
X102261273Y-84274501D01*
X102187848Y-84169639D01*
X102133107Y-84091461D01*
X102133105Y-84091458D01*
X102129948Y-84086950D01*
X101968050Y-83925052D01*
X101963542Y-83921895D01*
X101963539Y-83921893D01*
X101872843Y-83858387D01*
X101780499Y-83793727D01*
X101775517Y-83791404D01*
X101775512Y-83791401D01*
X101741293Y-83775445D01*
X101688008Y-83728528D01*
X101668547Y-83660251D01*
X101689089Y-83592291D01*
X101741293Y-83547055D01*
X101775512Y-83531099D01*
X101775517Y-83531096D01*
X101780499Y-83528773D01*
X101957452Y-83404869D01*
X101963539Y-83400607D01*
X101963542Y-83400605D01*
X101968050Y-83397448D01*
X102129948Y-83235550D01*
X102157205Y-83196624D01*
X102200146Y-83135297D01*
X102261273Y-83047999D01*
X102263596Y-83043017D01*
X102263599Y-83043012D01*
X102355711Y-82845475D01*
X102355711Y-82845474D01*
X102358034Y-82840493D01*
X102385917Y-82736435D01*
X102415869Y-82624652D01*
X102415869Y-82624650D01*
X102417293Y-82619337D01*
X102437248Y-82391250D01*
X102417293Y-82163163D01*
X102375281Y-82006373D01*
X102359457Y-81947317D01*
X102359456Y-81947315D01*
X102358034Y-81942007D01*
X102355711Y-81937025D01*
X102263599Y-81739488D01*
X102263596Y-81739483D01*
X102261273Y-81734501D01*
X102129948Y-81546950D01*
X101968050Y-81385052D01*
X101963542Y-81381895D01*
X101963539Y-81381893D01*
X101885361Y-81327152D01*
X101780499Y-81253727D01*
X101775517Y-81251404D01*
X101775512Y-81251401D01*
X101740701Y-81235169D01*
X101687416Y-81188252D01*
X101667955Y-81119975D01*
X101688497Y-81052015D01*
X101740701Y-81006779D01*
X101775261Y-80990664D01*
X101784756Y-80985181D01*
X101836798Y-80948741D01*
X101845174Y-80938262D01*
X101838106Y-80924816D01*
X101136562Y-80223272D01*
X101122618Y-80215658D01*
X101120785Y-80215789D01*
X101114170Y-80220040D01*
X100408673Y-80925537D01*
X100402243Y-80937312D01*
X100411539Y-80949327D01*
X100462744Y-80985181D01*
X100472239Y-80990664D01*
X100506799Y-81006779D01*
X100560084Y-81053696D01*
X100579545Y-81121973D01*
X100559003Y-81189933D01*
X100506799Y-81235169D01*
X100471988Y-81251401D01*
X100471983Y-81251404D01*
X100467001Y-81253727D01*
X100362139Y-81327152D01*
X100283961Y-81381893D01*
X100283958Y-81381895D01*
X100279450Y-81385052D01*
X100117552Y-81546950D01*
X99986227Y-81734501D01*
X99983904Y-81739483D01*
X99983901Y-81739488D01*
X99891789Y-81937025D01*
X99889466Y-81942007D01*
X99888044Y-81947315D01*
X99888043Y-81947317D01*
X99872219Y-82006373D01*
X99830207Y-82163163D01*
X99810252Y-82391250D01*
X99830207Y-82619337D01*
X99831631Y-82624650D01*
X99831631Y-82624652D01*
X99861584Y-82736435D01*
X99889466Y-82840493D01*
X99891789Y-82845474D01*
X99891789Y-82845475D01*
X99983901Y-83043012D01*
X99983904Y-83043017D01*
X99986227Y-83047999D01*
X100047354Y-83135297D01*
X100090296Y-83196624D01*
X100117552Y-83235550D01*
X100279450Y-83397448D01*
X100283958Y-83400605D01*
X100283961Y-83400607D01*
X100290048Y-83404869D01*
X100467001Y-83528773D01*
X100471983Y-83531096D01*
X100471988Y-83531099D01*
X100506207Y-83547055D01*
X100559492Y-83593972D01*
X100578953Y-83662249D01*
X100558411Y-83730209D01*
X100506207Y-83775445D01*
X100471988Y-83791401D01*
X100471983Y-83791404D01*
X100467001Y-83793727D01*
X100374657Y-83858387D01*
X100283961Y-83921893D01*
X100283958Y-83921895D01*
X100279450Y-83925052D01*
X100117552Y-84086950D01*
X100114395Y-84091458D01*
X100114393Y-84091461D01*
X100059652Y-84169639D01*
X99986227Y-84274501D01*
X99983904Y-84279483D01*
X99983901Y-84279488D01*
X99899489Y-84460512D01*
X99889466Y-84482007D01*
X99888044Y-84487315D01*
X99888043Y-84487317D01*
X99884645Y-84500000D01*
X99830207Y-84703163D01*
X99810252Y-84931250D01*
X99830207Y-85159337D01*
X99831631Y-85164650D01*
X99831631Y-85164652D01*
X99879216Y-85342238D01*
X99889466Y-85380493D01*
X99891789Y-85385474D01*
X99891789Y-85385475D01*
X99983901Y-85583012D01*
X99983904Y-85583017D01*
X99986227Y-85587999D01*
X100117552Y-85775550D01*
X100279450Y-85937448D01*
X100283958Y-85940605D01*
X100283961Y-85940607D01*
X100362139Y-85995348D01*
X100467001Y-86068773D01*
X100471983Y-86071096D01*
X100471988Y-86071099D01*
X100506207Y-86087055D01*
X100559492Y-86133972D01*
X100578953Y-86202249D01*
X100558411Y-86270209D01*
X100506207Y-86315445D01*
X100471988Y-86331401D01*
X100471983Y-86331404D01*
X100467001Y-86333727D01*
X100365990Y-86404456D01*
X100283961Y-86461893D01*
X100283958Y-86461895D01*
X100279450Y-86465052D01*
X100117552Y-86626950D01*
X100114395Y-86631458D01*
X100114393Y-86631461D01*
X100059652Y-86709639D01*
X99986227Y-86814501D01*
X99983904Y-86819483D01*
X99983901Y-86819488D01*
X99891789Y-87017025D01*
X99889466Y-87022007D01*
X99830207Y-87243163D01*
X99810252Y-87471250D01*
X99830207Y-87699337D01*
X99889466Y-87920493D01*
X99891789Y-87925474D01*
X99891789Y-87925475D01*
X99983901Y-88123012D01*
X99983904Y-88123017D01*
X99986227Y-88127999D01*
X100117552Y-88315550D01*
X100279450Y-88477448D01*
X100283958Y-88480605D01*
X100283961Y-88480607D01*
X100362139Y-88535348D01*
X100467001Y-88608773D01*
X100471983Y-88611096D01*
X100471988Y-88611099D01*
X100506207Y-88627055D01*
X100559492Y-88673972D01*
X100578953Y-88742249D01*
X100558411Y-88810209D01*
X100506207Y-88855445D01*
X100471988Y-88871401D01*
X100471983Y-88871404D01*
X100467001Y-88873727D01*
X100362139Y-88947152D01*
X100283961Y-89001893D01*
X100283958Y-89001895D01*
X100279450Y-89005052D01*
X100117552Y-89166950D01*
X99986227Y-89354501D01*
X99983904Y-89359483D01*
X99983901Y-89359488D01*
X99891789Y-89557025D01*
X99889466Y-89562007D01*
X99830207Y-89783163D01*
X99810252Y-90011250D01*
X99830207Y-90239337D01*
X99889466Y-90460493D01*
X99891789Y-90465474D01*
X99891789Y-90465475D01*
X99983901Y-90663012D01*
X99983904Y-90663017D01*
X99986227Y-90667999D01*
X100117552Y-90855550D01*
X100279450Y-91017448D01*
X100283958Y-91020605D01*
X100283961Y-91020607D01*
X100362139Y-91075348D01*
X100467001Y-91148773D01*
X100471983Y-91151096D01*
X100471988Y-91151099D01*
X100506207Y-91167055D01*
X100559492Y-91213972D01*
X100578953Y-91282249D01*
X100558411Y-91350209D01*
X100506207Y-91395445D01*
X100471988Y-91411401D01*
X100471983Y-91411404D01*
X100467001Y-91413727D01*
X100362139Y-91487152D01*
X100283961Y-91541893D01*
X100283958Y-91541895D01*
X100279450Y-91545052D01*
X100117552Y-91706950D01*
X99986227Y-91894501D01*
X99983904Y-91899483D01*
X99983901Y-91899488D01*
X99891789Y-92097025D01*
X99889466Y-92102007D01*
X99830207Y-92323163D01*
X99810252Y-92551250D01*
X99830207Y-92779337D01*
X99889466Y-93000493D01*
X99891789Y-93005474D01*
X99891789Y-93005475D01*
X99983901Y-93203012D01*
X99983904Y-93203017D01*
X99986227Y-93207999D01*
X100059652Y-93312861D01*
X100084165Y-93347868D01*
X100117552Y-93395550D01*
X100279450Y-93557448D01*
X100283958Y-93560605D01*
X100283961Y-93560607D01*
X100362139Y-93615348D01*
X100467001Y-93688773D01*
X100471983Y-93691096D01*
X100471988Y-93691099D01*
X100506207Y-93707055D01*
X100559492Y-93753972D01*
X100578953Y-93822249D01*
X100558411Y-93890209D01*
X100506207Y-93935445D01*
X100471988Y-93951401D01*
X100471983Y-93951404D01*
X100467001Y-93953727D01*
X100362139Y-94027152D01*
X100283961Y-94081893D01*
X100283958Y-94081895D01*
X100279450Y-94085052D01*
X100117552Y-94246950D01*
X99986227Y-94434501D01*
X99983904Y-94439483D01*
X99983901Y-94439488D01*
X99960940Y-94488729D01*
X99889466Y-94642007D01*
X99888044Y-94647315D01*
X99888043Y-94647317D01*
X99853929Y-94774632D01*
X99830207Y-94863163D01*
X99810252Y-95091250D01*
X99830207Y-95319337D01*
X99831631Y-95324650D01*
X99831631Y-95324652D01*
X99833926Y-95333215D01*
X99889466Y-95540493D01*
X99891789Y-95545474D01*
X99891789Y-95545475D01*
X99983901Y-95743012D01*
X99983904Y-95743017D01*
X99986227Y-95747999D01*
X100117552Y-95935550D01*
X100279450Y-96097448D01*
X100283958Y-96100605D01*
X100283961Y-96100607D01*
X100362139Y-96155348D01*
X100467001Y-96228773D01*
X100471983Y-96231096D01*
X100471988Y-96231099D01*
X100506207Y-96247055D01*
X100559492Y-96293972D01*
X100578953Y-96362249D01*
X100558411Y-96430209D01*
X100506207Y-96475445D01*
X100471988Y-96491401D01*
X100471983Y-96491404D01*
X100467001Y-96493727D01*
X100362139Y-96567152D01*
X100283961Y-96621893D01*
X100283958Y-96621895D01*
X100279450Y-96625052D01*
X100117552Y-96786950D01*
X100114395Y-96791458D01*
X100114393Y-96791461D01*
X100059652Y-96869639D01*
X99986227Y-96974501D01*
X99983904Y-96979483D01*
X99983901Y-96979488D01*
X99909521Y-97138999D01*
X99889466Y-97182007D01*
X99888044Y-97187315D01*
X99888043Y-97187317D01*
X99840132Y-97366122D01*
X99830207Y-97403163D01*
X99810252Y-97631250D01*
X99830207Y-97859337D01*
X99831631Y-97864650D01*
X99831631Y-97864652D01*
X99878195Y-98038428D01*
X99889466Y-98080493D01*
X99891789Y-98085474D01*
X99891789Y-98085475D01*
X99983901Y-98283012D01*
X99983904Y-98283017D01*
X99986227Y-98287999D01*
X99989384Y-98292507D01*
X100111695Y-98467185D01*
X100117552Y-98475550D01*
X100279450Y-98637448D01*
X100283958Y-98640605D01*
X100283961Y-98640607D01*
X100334272Y-98675835D01*
X100467001Y-98768773D01*
X100471983Y-98771096D01*
X100471988Y-98771099D01*
X100506207Y-98787055D01*
X100559492Y-98833972D01*
X100578953Y-98902249D01*
X100558411Y-98970209D01*
X100506207Y-99015445D01*
X100471988Y-99031401D01*
X100471983Y-99031404D01*
X100467001Y-99033727D01*
X100362139Y-99107152D01*
X100283961Y-99161893D01*
X100283958Y-99161895D01*
X100279450Y-99165052D01*
X100117552Y-99326950D01*
X100114395Y-99331458D01*
X100114393Y-99331461D01*
X100067514Y-99398412D01*
X99986227Y-99514501D01*
X99983904Y-99519483D01*
X99983901Y-99519488D01*
X99918365Y-99660032D01*
X99889466Y-99722007D01*
X99888044Y-99727315D01*
X99888043Y-99727317D01*
X99872989Y-99783500D01*
X99830207Y-99943163D01*
X99810252Y-100171250D01*
X97346000Y-100171250D01*
X97346000Y-79856725D01*
X99811233Y-79856725D01*
X99830222Y-80073769D01*
X99832125Y-80084562D01*
X99888514Y-80295011D01*
X99892260Y-80305303D01*
X99984336Y-80502761D01*
X99989819Y-80512256D01*
X100026259Y-80564298D01*
X100036738Y-80572674D01*
X100050184Y-80565606D01*
X100751728Y-79864062D01*
X100758106Y-79852382D01*
X101488158Y-79852382D01*
X101488289Y-79854215D01*
X101492540Y-79860830D01*
X102198037Y-80566327D01*
X102209812Y-80572757D01*
X102221827Y-80563461D01*
X102257681Y-80512256D01*
X102263164Y-80502761D01*
X102355240Y-80305303D01*
X102358986Y-80295011D01*
X102415375Y-80084562D01*
X102417278Y-80073769D01*
X102436267Y-79856725D01*
X102436267Y-79845775D01*
X102417278Y-79628731D01*
X102415375Y-79617938D01*
X102358986Y-79407489D01*
X102355240Y-79397197D01*
X102263164Y-79199739D01*
X102257681Y-79190244D01*
X102221241Y-79138202D01*
X102210762Y-79129826D01*
X102197316Y-79136894D01*
X101495772Y-79838438D01*
X101488158Y-79852382D01*
X100758106Y-79852382D01*
X100759342Y-79850118D01*
X100759211Y-79848285D01*
X100754960Y-79841670D01*
X100049463Y-79136173D01*
X100037688Y-79129743D01*
X100025673Y-79139039D01*
X99989819Y-79190244D01*
X99984336Y-79199739D01*
X99892260Y-79397197D01*
X99888514Y-79407489D01*
X99832125Y-79617938D01*
X99830222Y-79628731D01*
X99811233Y-79845775D01*
X99811233Y-79856725D01*
X97346000Y-79856725D01*
X97346000Y-78397312D01*
X100402243Y-78397312D01*
X100411539Y-78409327D01*
X100462744Y-78445181D01*
X100472239Y-78450664D01*
X100507391Y-78467055D01*
X100560676Y-78513972D01*
X100580137Y-78582249D01*
X100559595Y-78650209D01*
X100507391Y-78695445D01*
X100472239Y-78711836D01*
X100462744Y-78717319D01*
X100410702Y-78753759D01*
X100402326Y-78764238D01*
X100409394Y-78777684D01*
X101110938Y-79479228D01*
X101124882Y-79486842D01*
X101126715Y-79486711D01*
X101133330Y-79482460D01*
X101838827Y-78776963D01*
X101845257Y-78765188D01*
X101835961Y-78753173D01*
X101784756Y-78717319D01*
X101775261Y-78711836D01*
X101740109Y-78695445D01*
X101686824Y-78648528D01*
X101667363Y-78580251D01*
X101687905Y-78512291D01*
X101740109Y-78467055D01*
X101775261Y-78450664D01*
X101784756Y-78445181D01*
X101836798Y-78408741D01*
X101845174Y-78398262D01*
X101838106Y-78384816D01*
X101136562Y-77683272D01*
X101122618Y-77675658D01*
X101120785Y-77675789D01*
X101114170Y-77680040D01*
X100408673Y-78385537D01*
X100402243Y-78397312D01*
X97346000Y-78397312D01*
X97346000Y-77316725D01*
X99811233Y-77316725D01*
X99830222Y-77533769D01*
X99832125Y-77544562D01*
X99888514Y-77755011D01*
X99892260Y-77765303D01*
X99984336Y-77962761D01*
X99989819Y-77972256D01*
X100026259Y-78024298D01*
X100036738Y-78032674D01*
X100050184Y-78025606D01*
X100751728Y-77324062D01*
X100758106Y-77312382D01*
X101488158Y-77312382D01*
X101488289Y-77314215D01*
X101492540Y-77320830D01*
X102198037Y-78026327D01*
X102209812Y-78032757D01*
X102221827Y-78023461D01*
X102257681Y-77972256D01*
X102263164Y-77962761D01*
X102355240Y-77765303D01*
X102358986Y-77755011D01*
X102415375Y-77544562D01*
X102417278Y-77533769D01*
X102436267Y-77316725D01*
X102436267Y-77305775D01*
X102417278Y-77088731D01*
X102415375Y-77077938D01*
X102358986Y-76867489D01*
X102355240Y-76857197D01*
X102263164Y-76659739D01*
X102257681Y-76650244D01*
X102221241Y-76598202D01*
X102210762Y-76589826D01*
X102197316Y-76596894D01*
X101495772Y-77298438D01*
X101488158Y-77312382D01*
X100758106Y-77312382D01*
X100759342Y-77310118D01*
X100759211Y-77308285D01*
X100754960Y-77301670D01*
X100049463Y-76596173D01*
X100037688Y-76589743D01*
X100025673Y-76599039D01*
X99989819Y-76650244D01*
X99984336Y-76659739D01*
X99892260Y-76857197D01*
X99888514Y-76867489D01*
X99832125Y-77077938D01*
X99830222Y-77088731D01*
X99811233Y-77305775D01*
X99811233Y-77316725D01*
X97346000Y-77316725D01*
X97346000Y-73872000D01*
X97347746Y-73851095D01*
X97350270Y-73836094D01*
X97350270Y-73836091D01*
X97351076Y-73831302D01*
X97351229Y-73818750D01*
X97350540Y-73813940D01*
X97350539Y-73813922D01*
X97349251Y-73804931D01*
X97348176Y-73780004D01*
X97353190Y-73690721D01*
X97362369Y-73527258D01*
X97363951Y-73513221D01*
X97365769Y-73502525D01*
X97402803Y-73284558D01*
X97411670Y-73232374D01*
X97414814Y-73218599D01*
X97493677Y-72944859D01*
X97498344Y-72931522D01*
X97607361Y-72668332D01*
X97613492Y-72655602D01*
X97751286Y-72406282D01*
X97758803Y-72394318D01*
X97923649Y-72161988D01*
X97932459Y-72150940D01*
X98064522Y-72003163D01*
X98122285Y-71938526D01*
X98132276Y-71928535D01*
X98344690Y-71738709D01*
X98355738Y-71729899D01*
X98588068Y-71565053D01*
X98600032Y-71557536D01*
X98849352Y-71419742D01*
X98862082Y-71413611D01*
X99125272Y-71304594D01*
X99138609Y-71299927D01*
X99412349Y-71221064D01*
X99426124Y-71217920D01*
X99549848Y-71196898D01*
X99677515Y-71175206D01*
X99748022Y-71183515D01*
X99802846Y-71228624D01*
X99824579Y-71296213D01*
X99822000Y-71320933D01*
X99822005Y-71320934D01*
X99815250Y-71383116D01*
X99815250Y-73079384D01*
X99822005Y-73141566D01*
X99873135Y-73277955D01*
X99960489Y-73394511D01*
X100077045Y-73481865D01*
X100213434Y-73532995D01*
X100224224Y-73534167D01*
X100226356Y-73535053D01*
X100228972Y-73535675D01*
X100228871Y-73536098D01*
X100289785Y-73561405D01*
X100330213Y-73619767D01*
X100332672Y-73690721D01*
X100296379Y-73751740D01*
X100287719Y-73758739D01*
X100283957Y-73761896D01*
X100279450Y-73765052D01*
X100117552Y-73926950D01*
X99986227Y-74114501D01*
X99983904Y-74119483D01*
X99983901Y-74119488D01*
X99983784Y-74119739D01*
X99889466Y-74322007D01*
X99888044Y-74327315D01*
X99888043Y-74327317D01*
X99867390Y-74404396D01*
X99830207Y-74543163D01*
X99810252Y-74771250D01*
X99830207Y-74999337D01*
X99831631Y-75004650D01*
X99831631Y-75004652D01*
X99868775Y-75143272D01*
X99889466Y-75220493D01*
X99891789Y-75225474D01*
X99891789Y-75225475D01*
X99983901Y-75423012D01*
X99983904Y-75423017D01*
X99986227Y-75427999D01*
X100117552Y-75615550D01*
X100279450Y-75777448D01*
X100283958Y-75780605D01*
X100283961Y-75780607D01*
X100362139Y-75835348D01*
X100467001Y-75908773D01*
X100471983Y-75911096D01*
X100471988Y-75911099D01*
X100506799Y-75927331D01*
X100560084Y-75974248D01*
X100579545Y-76042525D01*
X100559003Y-76110485D01*
X100506799Y-76155721D01*
X100472239Y-76171836D01*
X100462744Y-76177319D01*
X100410702Y-76213759D01*
X100402326Y-76224238D01*
X100409394Y-76237684D01*
X101110938Y-76939228D01*
X101124882Y-76946842D01*
X101126715Y-76946711D01*
X101133330Y-76942460D01*
X101838827Y-76236963D01*
X101845257Y-76225188D01*
X101835961Y-76213173D01*
X101784756Y-76177319D01*
X101775261Y-76171836D01*
X101740701Y-76155721D01*
X101687416Y-76108804D01*
X101667955Y-76040527D01*
X101688497Y-75972567D01*
X101740701Y-75927331D01*
X101775512Y-75911099D01*
X101775517Y-75911096D01*
X101780499Y-75908773D01*
X101885361Y-75835348D01*
X101963539Y-75780607D01*
X101963542Y-75780605D01*
X101968050Y-75777448D01*
X102129948Y-75615550D01*
X102261273Y-75427999D01*
X102263596Y-75423017D01*
X102263599Y-75423012D01*
X102355711Y-75225475D01*
X102355711Y-75225474D01*
X102358034Y-75220493D01*
X102378726Y-75143272D01*
X102415869Y-75004652D01*
X102415869Y-75004650D01*
X102417293Y-74999337D01*
X102436769Y-74776725D01*
X115051233Y-74776725D01*
X115070222Y-74993769D01*
X115072125Y-75004562D01*
X115128514Y-75215011D01*
X115132260Y-75225303D01*
X115224336Y-75422761D01*
X115229819Y-75432256D01*
X115266259Y-75484298D01*
X115276738Y-75492674D01*
X115290184Y-75485606D01*
X115991728Y-74784062D01*
X115998106Y-74772382D01*
X116728158Y-74772382D01*
X116728289Y-74774215D01*
X116732540Y-74780830D01*
X117438037Y-75486327D01*
X117449812Y-75492757D01*
X117461827Y-75483461D01*
X117497681Y-75432256D01*
X117503164Y-75422761D01*
X117595240Y-75225303D01*
X117598986Y-75215011D01*
X117655375Y-75004562D01*
X117657278Y-74993769D01*
X117676267Y-74776725D01*
X117676267Y-74765775D01*
X117657278Y-74548731D01*
X117655375Y-74537938D01*
X117598986Y-74327489D01*
X117595240Y-74317197D01*
X117585171Y-74295604D01*
X133489037Y-74295604D01*
X133498817Y-74506899D01*
X133500221Y-74512724D01*
X133500221Y-74512725D01*
X133508899Y-74548731D01*
X133548375Y-74712534D01*
X133550857Y-74717992D01*
X133550858Y-74717996D01*
X133594303Y-74813546D01*
X133635924Y-74905087D01*
X133758304Y-75077611D01*
X133911100Y-75223881D01*
X134088798Y-75338620D01*
X134094364Y-75340863D01*
X134279418Y-75415442D01*
X134279421Y-75415443D01*
X134284987Y-75417686D01*
X134492587Y-75458228D01*
X134498149Y-75458500D01*
X134654096Y-75458500D01*
X134811816Y-75443452D01*
X135014784Y-75383908D01*
X135098361Y-75340863D01*
X135197499Y-75289804D01*
X135197502Y-75289802D01*
X135202830Y-75287058D01*
X135369170Y-75156396D01*
X135373102Y-75151865D01*
X135373105Y-75151862D01*
X135503871Y-75001167D01*
X135507802Y-74996637D01*
X135510802Y-74991451D01*
X135510805Y-74991447D01*
X135610717Y-74818742D01*
X135613723Y-74813546D01*
X135683111Y-74613729D01*
X135683972Y-74607792D01*
X135712602Y-74410336D01*
X135712602Y-74410333D01*
X135713463Y-74404396D01*
X135708427Y-74295604D01*
X153332787Y-74295604D01*
X153342567Y-74506899D01*
X153343971Y-74512724D01*
X153343971Y-74512725D01*
X153352649Y-74548731D01*
X153392125Y-74712534D01*
X153394607Y-74717992D01*
X153394608Y-74717996D01*
X153438053Y-74813546D01*
X153479674Y-74905087D01*
X153602054Y-75077611D01*
X153754850Y-75223881D01*
X153932548Y-75338620D01*
X153938114Y-75340863D01*
X154123168Y-75415442D01*
X154123171Y-75415443D01*
X154128737Y-75417686D01*
X154336337Y-75458228D01*
X154341899Y-75458500D01*
X154497846Y-75458500D01*
X154655566Y-75443452D01*
X154858534Y-75383908D01*
X154942111Y-75340863D01*
X155041249Y-75289804D01*
X155041252Y-75289802D01*
X155046580Y-75287058D01*
X155212920Y-75156396D01*
X155216852Y-75151865D01*
X155216855Y-75151862D01*
X155347621Y-75001167D01*
X155351552Y-74996637D01*
X155354552Y-74991451D01*
X155354555Y-74991447D01*
X155454467Y-74818742D01*
X155457473Y-74813546D01*
X155526861Y-74613729D01*
X155527722Y-74607792D01*
X155556352Y-74410336D01*
X155556352Y-74410333D01*
X155557213Y-74404396D01*
X155547433Y-74193101D01*
X155497875Y-73987466D01*
X155454525Y-73892122D01*
X155436359Y-73852170D01*
X155410326Y-73794913D01*
X155287946Y-73622389D01*
X155135150Y-73476119D01*
X154957452Y-73361380D01*
X154897354Y-73337160D01*
X154766832Y-73284558D01*
X154766829Y-73284557D01*
X154761263Y-73282314D01*
X154553663Y-73241772D01*
X154548101Y-73241500D01*
X154392154Y-73241500D01*
X154234434Y-73256548D01*
X154031466Y-73316092D01*
X154026139Y-73318836D01*
X154026138Y-73318836D01*
X153848751Y-73410196D01*
X153848748Y-73410198D01*
X153843420Y-73412942D01*
X153677080Y-73543604D01*
X153673148Y-73548135D01*
X153673145Y-73548138D01*
X153604474Y-73627275D01*
X153538448Y-73703363D01*
X153535448Y-73708549D01*
X153535445Y-73708553D01*
X153474488Y-73813922D01*
X153432527Y-73886454D01*
X153363139Y-74086271D01*
X153332787Y-74295604D01*
X135708427Y-74295604D01*
X135703683Y-74193101D01*
X135654125Y-73987466D01*
X135610775Y-73892122D01*
X135592609Y-73852170D01*
X135566576Y-73794913D01*
X135444196Y-73622389D01*
X135291400Y-73476119D01*
X135113702Y-73361380D01*
X135053604Y-73337160D01*
X134923082Y-73284558D01*
X134923079Y-73284557D01*
X134917513Y-73282314D01*
X134709913Y-73241772D01*
X134704351Y-73241500D01*
X134548404Y-73241500D01*
X134390684Y-73256548D01*
X134187716Y-73316092D01*
X134182389Y-73318836D01*
X134182388Y-73318836D01*
X134005001Y-73410196D01*
X134004998Y-73410198D01*
X133999670Y-73412942D01*
X133833330Y-73543604D01*
X133829398Y-73548135D01*
X133829395Y-73548138D01*
X133760724Y-73627275D01*
X133694698Y-73703363D01*
X133691698Y-73708549D01*
X133691695Y-73708553D01*
X133630738Y-73813922D01*
X133588777Y-73886454D01*
X133519389Y-74086271D01*
X133489037Y-74295604D01*
X117585171Y-74295604D01*
X117503164Y-74119739D01*
X117497681Y-74110244D01*
X117461241Y-74058202D01*
X117450762Y-74049826D01*
X117437316Y-74056894D01*
X116735772Y-74758438D01*
X116728158Y-74772382D01*
X115998106Y-74772382D01*
X115999342Y-74770118D01*
X115999211Y-74768285D01*
X115994960Y-74761670D01*
X115289463Y-74056173D01*
X115277688Y-74049743D01*
X115265673Y-74059039D01*
X115229819Y-74110244D01*
X115224336Y-74119739D01*
X115132260Y-74317197D01*
X115128514Y-74327489D01*
X115072125Y-74537938D01*
X115070222Y-74548731D01*
X115051233Y-74765775D01*
X115051233Y-74776725D01*
X102436769Y-74776725D01*
X102437248Y-74771250D01*
X102417293Y-74543163D01*
X102380110Y-74404396D01*
X102359457Y-74327317D01*
X102359456Y-74327315D01*
X102358034Y-74322007D01*
X102263716Y-74119739D01*
X102263599Y-74119488D01*
X102263596Y-74119483D01*
X102261273Y-74114501D01*
X102129948Y-73926950D01*
X101968050Y-73765052D01*
X101963539Y-73761893D01*
X101959326Y-73758358D01*
X101960277Y-73757224D01*
X101920279Y-73707179D01*
X101912974Y-73636560D01*
X101945008Y-73573201D01*
X102006212Y-73537220D01*
X102023267Y-73534168D01*
X102034066Y-73532995D01*
X102170455Y-73481865D01*
X102287011Y-73394511D01*
X102374365Y-73277955D01*
X102425495Y-73141566D01*
X102432250Y-73079384D01*
X102432250Y-71383116D01*
X102425495Y-71320934D01*
X102422723Y-71313539D01*
X102421262Y-71307395D01*
X102424965Y-71236495D01*
X102466411Y-71178852D01*
X102532442Y-71152767D01*
X102543845Y-71152250D01*
X115288062Y-71152250D01*
X115356183Y-71172252D01*
X115402676Y-71225908D01*
X115412780Y-71296182D01*
X115383286Y-71360762D01*
X115377157Y-71367345D01*
X115357552Y-71386950D01*
X115354395Y-71391458D01*
X115354393Y-71391461D01*
X115336989Y-71416317D01*
X115226227Y-71574501D01*
X115223904Y-71579483D01*
X115223901Y-71579488D01*
X115153764Y-71729899D01*
X115129466Y-71782007D01*
X115128044Y-71787315D01*
X115128043Y-71787317D01*
X115071631Y-71997848D01*
X115070207Y-72003163D01*
X115050252Y-72231250D01*
X115070207Y-72459337D01*
X115129466Y-72680493D01*
X115131789Y-72685474D01*
X115131789Y-72685475D01*
X115223901Y-72883012D01*
X115223904Y-72883017D01*
X115226227Y-72887999D01*
X115357552Y-73075550D01*
X115519450Y-73237448D01*
X115523958Y-73240605D01*
X115523961Y-73240607D01*
X115565292Y-73269547D01*
X115707001Y-73368773D01*
X115711983Y-73371096D01*
X115711988Y-73371099D01*
X115746799Y-73387331D01*
X115800084Y-73434248D01*
X115819545Y-73502525D01*
X115799003Y-73570485D01*
X115746799Y-73615721D01*
X115712239Y-73631836D01*
X115702744Y-73637319D01*
X115650702Y-73673759D01*
X115642326Y-73684238D01*
X115649394Y-73697684D01*
X116350938Y-74399228D01*
X116364882Y-74406842D01*
X116366715Y-74406711D01*
X116373330Y-74402460D01*
X117078827Y-73696963D01*
X117085257Y-73685188D01*
X117075961Y-73673173D01*
X117024756Y-73637319D01*
X117015261Y-73631836D01*
X116980701Y-73615721D01*
X116927416Y-73568804D01*
X116907955Y-73500527D01*
X116928497Y-73432567D01*
X116980701Y-73387331D01*
X117015512Y-73371099D01*
X117015517Y-73371096D01*
X117020499Y-73368773D01*
X117162208Y-73269547D01*
X117203539Y-73240607D01*
X117203542Y-73240605D01*
X117208050Y-73237448D01*
X117369948Y-73075550D01*
X117501273Y-72887999D01*
X117503596Y-72883017D01*
X117503599Y-72883012D01*
X117595711Y-72685475D01*
X117595711Y-72685474D01*
X117598034Y-72680493D01*
X117657293Y-72459337D01*
X117677248Y-72231250D01*
X117657293Y-72003163D01*
X117655869Y-71997848D01*
X117599457Y-71787317D01*
X117599456Y-71787315D01*
X117598034Y-71782007D01*
X117573736Y-71729899D01*
X117503599Y-71579488D01*
X117503596Y-71579483D01*
X117501273Y-71574501D01*
X117390511Y-71416317D01*
X117373107Y-71391461D01*
X117373105Y-71391458D01*
X117369948Y-71386950D01*
X117208050Y-71225052D01*
X117199557Y-71219105D01*
X117169803Y-71198270D01*
X117125475Y-71142812D01*
X117118167Y-71072193D01*
X117150199Y-71008833D01*
X117186344Y-70982054D01*
X117399036Y-70877159D01*
X117399045Y-70877154D01*
X117402739Y-70875332D01*
X117631185Y-70722682D01*
X117837754Y-70541520D01*
X118018911Y-70334948D01*
X118153812Y-70133053D01*
X118169261Y-70109932D01*
X118169262Y-70109930D01*
X118171556Y-70106497D01*
X118293078Y-69860078D01*
X118381399Y-69599906D01*
X118435007Y-69330432D01*
X118440701Y-69243605D01*
X118443929Y-69194371D01*
X118450850Y-69088825D01*
X118452326Y-69076165D01*
X118452756Y-69073612D01*
X118452757Y-69073605D01*
X118453562Y-69068818D01*
X118453715Y-69056266D01*
X118449758Y-69028628D01*
X118448486Y-69010770D01*
X118448486Y-68315750D01*
X118450232Y-68294845D01*
X118452756Y-68279844D01*
X118452756Y-68279841D01*
X118453562Y-68275052D01*
X118453715Y-68262500D01*
X118452528Y-68254209D01*
X118451734Y-68225371D01*
X118463918Y-68086109D01*
X118467732Y-68064482D01*
X118510706Y-67904104D01*
X118518217Y-67883466D01*
X118588388Y-67732983D01*
X118599365Y-67713970D01*
X118694606Y-67577951D01*
X118708717Y-67561134D01*
X118826124Y-67443726D01*
X118842949Y-67429608D01*
X118978960Y-67334372D01*
X118997980Y-67323391D01*
X119148459Y-67253220D01*
X119169097Y-67245708D01*
X119218648Y-67232430D01*
X119329479Y-67202732D01*
X119351102Y-67198919D01*
X119486823Y-67187044D01*
X119503363Y-67187601D01*
X119503368Y-67187200D01*
X119512344Y-67187310D01*
X119521215Y-67188691D01*
X119530116Y-67187527D01*
X119530120Y-67187527D01*
X119552774Y-67184564D01*
X119569112Y-67183500D01*
X158700633Y-67183500D01*
X158720018Y-67185000D01*
G37*
G04 #@! TD.AperFunction*
M02*
