M48
; DRILL file {KiCad (6.0.5)} date Thu Sep 29 20:04:49 2022
; FORMAT={-:-/ absolute / metric / decimal}
; #@! TF.CreationDate,2022-09-29T20:04:49+08:00
; #@! TF.GenerationSoftware,Kicad,Pcbnew,(6.0.5)
; #@! TF.FileFunction,Plated,1,2,PTH
FMAT,2
METRIC
; #@! TA.AperFunction,Plated,PTH,ComponentDrill
T1C1.100
; #@! TA.AperFunction,Plated,PTH,ComponentDrill
T2C3.000
%
G90
G05
T1
X101.124Y-72.231
X101.124Y-74.771
X101.124Y-77.311
X101.124Y-79.851
X101.124Y-82.391
X101.124Y-84.931
X101.124Y-87.471
X101.124Y-90.011
X101.124Y-92.551
X101.124Y-95.091
X101.124Y-97.631
X101.124Y-100.171
X116.364Y-72.231
X116.364Y-74.771
X116.364Y-77.311
X116.364Y-79.851
X116.364Y-82.391
X116.364Y-84.931
X116.364Y-87.471
X116.364Y-90.011
X116.364Y-92.551
X116.364Y-95.091
X116.364Y-97.631
X116.364Y-100.171
T2
X124.381Y-82.3
X124.381Y-102.175
X129.381Y-84.5
X129.381Y-104.375
X144.169Y-102.175
X144.225Y-82.3
X149.169Y-104.375
X149.225Y-84.5
T0
M30
