G04 #@! TF.GenerationSoftware,KiCad,Pcbnew,(6.0.5)*
G04 #@! TF.CreationDate,2022-09-29T20:04:46+08:00*
G04 #@! TF.ProjectId,4k-keypad-pro-micro,346b2d6b-6579-4706-9164-2d70726f2d6d,rev?*
G04 #@! TF.SameCoordinates,Original*
G04 #@! TF.FileFunction,Legend,Top*
G04 #@! TF.FilePolarity,Positive*
%FSLAX46Y46*%
G04 Gerber Fmt 4.6, Leading zero omitted, Abs format (unit mm)*
G04 Created by KiCad (PCBNEW (6.0.5)) date 2022-09-29 20:04:46*
%MOMM*%
%LPD*%
G01*
G04 APERTURE LIST*
G04 Aperture macros list*
%AMRoundRect*
0 Rectangle with rounded corners*
0 $1 Rounding radius*
0 $2 $3 $4 $5 $6 $7 $8 $9 X,Y pos of 4 corners*
0 Add a 4 corners polygon primitive as box body*
4,1,4,$2,$3,$4,$5,$6,$7,$8,$9,$2,$3,0*
0 Add four circle primitives for the rounded corners*
1,1,$1+$1,$2,$3*
1,1,$1+$1,$4,$5*
1,1,$1+$1,$6,$7*
1,1,$1+$1,$8,$9*
0 Add four rect primitives between the rounded corners*
20,1,$1+$1,$2,$3,$4,$5,0*
20,1,$1+$1,$4,$5,$6,$7,0*
20,1,$1+$1,$6,$7,$8,$9,0*
20,1,$1+$1,$8,$9,$2,$3,0*%
G04 Aperture macros list end*
%ADD10C,0.150000*%
%ADD11C,0.120000*%
%ADD12R,1.600000X1.600000*%
%ADD13C,1.600000*%
%ADD14R,1.100000X1.800000*%
%ADD15RoundRect,0.250000X-0.450000X0.262500X-0.450000X-0.262500X0.450000X-0.262500X0.450000X0.262500X0*%
%ADD16C,1.700000*%
%ADD17C,1.200000*%
%ADD18C,3.400000*%
G04 APERTURE END LIST*
D10*
X106862511Y-107695833D02*
X106910130Y-107552976D01*
X106910130Y-107314880D01*
X106862511Y-107219642D01*
X106814892Y-107172023D01*
X106719654Y-107124404D01*
X106624416Y-107124404D01*
X106529178Y-107172023D01*
X106481559Y-107219642D01*
X106433940Y-107314880D01*
X106386321Y-107505357D01*
X106338702Y-107600595D01*
X106291083Y-107648214D01*
X106195845Y-107695833D01*
X106100607Y-107695833D01*
X106005369Y-107648214D01*
X105957750Y-107600595D01*
X105910130Y-107505357D01*
X105910130Y-107267261D01*
X105957750Y-107124404D01*
X105910130Y-106791071D02*
X106910130Y-106552976D01*
X106195845Y-106362500D01*
X106910130Y-106172023D01*
X105910130Y-105933928D01*
X106910130Y-105029166D02*
X106910130Y-105600595D01*
X106910130Y-105314880D02*
X105910130Y-105314880D01*
X106052988Y-105410119D01*
X106148226Y-105505357D01*
X106195845Y-105600595D01*
X113227380Y-104147916D02*
X112751190Y-104481250D01*
X113227380Y-104719345D02*
X112227380Y-104719345D01*
X112227380Y-104338392D01*
X112275000Y-104243154D01*
X112322619Y-104195535D01*
X112417857Y-104147916D01*
X112560714Y-104147916D01*
X112655952Y-104195535D01*
X112703571Y-104243154D01*
X112751190Y-104338392D01*
X112751190Y-104719345D01*
X113227380Y-103195535D02*
X113227380Y-103766964D01*
X113227380Y-103481250D02*
X112227380Y-103481250D01*
X112370238Y-103576488D01*
X112465476Y-103671726D01*
X112513095Y-103766964D01*
X99793750Y-103762500D02*
X104993750Y-103762500D01*
X99793750Y-108962500D02*
X99793750Y-103762500D01*
X104993750Y-108962500D02*
X99793750Y-108962500D01*
X104993750Y-103762500D02*
X104993750Y-108962500D01*
X103393750Y-106362500D02*
G75*
G03*
X103393750Y-106362500I-1000000J0D01*
G01*
X112553750Y-68421250D02*
X112553750Y-70961250D01*
X104933750Y-70961250D02*
X104933750Y-68421250D01*
X99853750Y-70961250D02*
X99853750Y-101441250D01*
X117633750Y-101441250D02*
X99853750Y-101441250D01*
X117633750Y-70961250D02*
X117633750Y-101441250D01*
X99853750Y-70961250D02*
X104933750Y-70961250D01*
X112553750Y-70961250D02*
X117633750Y-70961250D01*
X104933750Y-68421250D02*
X112553750Y-68421250D01*
D11*
X111860000Y-103754186D02*
X111860000Y-104208314D01*
X110390000Y-103754186D02*
X110390000Y-104208314D01*
D12*
X101123750Y-72231250D03*
D13*
X101123750Y-74771250D03*
X101123750Y-77311250D03*
X101123750Y-79851250D03*
X101123750Y-82391250D03*
X101123750Y-84931250D03*
X101123750Y-87471250D03*
X101123750Y-90011250D03*
X101123750Y-92551250D03*
X101123750Y-95091250D03*
X101123750Y-97631250D03*
X101123750Y-100171250D03*
X116363750Y-100171250D03*
X116363750Y-97631250D03*
X116363750Y-95091250D03*
X116363750Y-92551250D03*
X116363750Y-90011250D03*
X116363750Y-87471250D03*
X116363750Y-84931250D03*
X116363750Y-82391250D03*
X116363750Y-79851250D03*
X116363750Y-77311250D03*
X116363750Y-74771250D03*
X116363750Y-72231250D03*
%LPC*%
D14*
X104243750Y-103262500D03*
X100543750Y-109462500D03*
X100543750Y-103262500D03*
X104243750Y-109462500D03*
D12*
X101123750Y-72231250D03*
D13*
X101123750Y-74771250D03*
X101123750Y-77311250D03*
X101123750Y-79851250D03*
X101123750Y-82391250D03*
X101123750Y-84931250D03*
X101123750Y-87471250D03*
X101123750Y-90011250D03*
X101123750Y-92551250D03*
X101123750Y-95091250D03*
X101123750Y-97631250D03*
X101123750Y-100171250D03*
X116363750Y-100171250D03*
X116363750Y-97631250D03*
X116363750Y-95091250D03*
X116363750Y-92551250D03*
X116363750Y-90011250D03*
X116363750Y-87471250D03*
X116363750Y-84931250D03*
X116363750Y-82391250D03*
X116363750Y-79851250D03*
X116363750Y-77311250D03*
X116363750Y-74771250D03*
X116363750Y-72231250D03*
D15*
X111125000Y-103068750D03*
X111125000Y-104893750D03*
D16*
X143725000Y-78550000D03*
D17*
X154445000Y-74350000D03*
D18*
X149225000Y-78550000D03*
D16*
X154725000Y-78550000D03*
D17*
X154388750Y-94225000D03*
D18*
X149168750Y-98425000D03*
D16*
X154668750Y-98425000D03*
X143668750Y-98425000D03*
X123881250Y-98425000D03*
X134881250Y-98425000D03*
D17*
X134601250Y-94225000D03*
D18*
X129381250Y-98425000D03*
D16*
X134881250Y-78550000D03*
D17*
X134601250Y-74350000D03*
D18*
X129381250Y-78550000D03*
D16*
X123881250Y-78550000D03*
M02*
