G04 #@! TF.GenerationSoftware,KiCad,Pcbnew,(6.0.5)*
G04 #@! TF.CreationDate,2022-09-29T20:04:46+08:00*
G04 #@! TF.ProjectId,4k-keypad-pro-micro,346b2d6b-6579-4706-9164-2d70726f2d6d,rev?*
G04 #@! TF.SameCoordinates,Original*
G04 #@! TF.FileFunction,Soldermask,Top*
G04 #@! TF.FilePolarity,Negative*
%FSLAX46Y46*%
G04 Gerber Fmt 4.6, Leading zero omitted, Abs format (unit mm)*
G04 Created by KiCad (PCBNEW (6.0.5)) date 2022-09-29 20:04:46*
%MOMM*%
%LPD*%
G01*
G04 APERTURE LIST*
G04 Aperture macros list*
%AMRoundRect*
0 Rectangle with rounded corners*
0 $1 Rounding radius*
0 $2 $3 $4 $5 $6 $7 $8 $9 X,Y pos of 4 corners*
0 Add a 4 corners polygon primitive as box body*
4,1,4,$2,$3,$4,$5,$6,$7,$8,$9,$2,$3,0*
0 Add four circle primitives for the rounded corners*
1,1,$1+$1,$2,$3*
1,1,$1+$1,$4,$5*
1,1,$1+$1,$6,$7*
1,1,$1+$1,$8,$9*
0 Add four rect primitives between the rounded corners*
20,1,$1+$1,$2,$3,$4,$5,0*
20,1,$1+$1,$4,$5,$6,$7,0*
20,1,$1+$1,$6,$7,$8,$9,0*
20,1,$1+$1,$8,$9,$2,$3,0*%
G04 Aperture macros list end*
%ADD10R,1.100000X1.800000*%
%ADD11R,1.600000X1.600000*%
%ADD12C,1.600000*%
%ADD13RoundRect,0.250000X-0.450000X0.262500X-0.450000X-0.262500X0.450000X-0.262500X0.450000X0.262500X0*%
%ADD14C,1.700000*%
%ADD15C,1.200000*%
%ADD16C,3.400000*%
G04 APERTURE END LIST*
D10*
X104243750Y-103262500D03*
X100543750Y-109462500D03*
X100543750Y-103262500D03*
X104243750Y-109462500D03*
D11*
X101123750Y-72231250D03*
D12*
X101123750Y-74771250D03*
X101123750Y-77311250D03*
X101123750Y-79851250D03*
X101123750Y-82391250D03*
X101123750Y-84931250D03*
X101123750Y-87471250D03*
X101123750Y-90011250D03*
X101123750Y-92551250D03*
X101123750Y-95091250D03*
X101123750Y-97631250D03*
X101123750Y-100171250D03*
X116363750Y-100171250D03*
X116363750Y-97631250D03*
X116363750Y-95091250D03*
X116363750Y-92551250D03*
X116363750Y-90011250D03*
X116363750Y-87471250D03*
X116363750Y-84931250D03*
X116363750Y-82391250D03*
X116363750Y-79851250D03*
X116363750Y-77311250D03*
X116363750Y-74771250D03*
X116363750Y-72231250D03*
D13*
X111125000Y-103068750D03*
X111125000Y-104893750D03*
D14*
X143725000Y-78550000D03*
D15*
X154445000Y-74350000D03*
D16*
X149225000Y-78550000D03*
D14*
X154725000Y-78550000D03*
D15*
X154388750Y-94225000D03*
D16*
X149168750Y-98425000D03*
D14*
X154668750Y-98425000D03*
X143668750Y-98425000D03*
X123881250Y-98425000D03*
X134881250Y-98425000D03*
D15*
X134601250Y-94225000D03*
D16*
X129381250Y-98425000D03*
D14*
X134881250Y-78550000D03*
D15*
X134601250Y-74350000D03*
D16*
X129381250Y-78550000D03*
D14*
X123881250Y-78550000D03*
M02*
