G04 #@! TF.GenerationSoftware,KiCad,Pcbnew,(6.0.5)*
G04 #@! TF.CreationDate,2022-09-29T20:04:46+08:00*
G04 #@! TF.ProjectId,4k-keypad-pro-micro,346b2d6b-6579-4706-9164-2d70726f2d6d,rev?*
G04 #@! TF.SameCoordinates,Original*
G04 #@! TF.FileFunction,Copper,L2,Bot*
G04 #@! TF.FilePolarity,Positive*
%FSLAX46Y46*%
G04 Gerber Fmt 4.6, Leading zero omitted, Abs format (unit mm)*
G04 Created by KiCad (PCBNEW (6.0.5)) date 2022-09-29 20:04:46*
%MOMM*%
%LPD*%
G01*
G04 APERTURE LIST*
G04 Aperture macros list*
%AMRoundRect*
0 Rectangle with rounded corners*
0 $1 Rounding radius*
0 $2 $3 $4 $5 $6 $7 $8 $9 X,Y pos of 4 corners*
0 Add a 4 corners polygon primitive as box body*
4,1,4,$2,$3,$4,$5,$6,$7,$8,$9,$2,$3,0*
0 Add four circle primitives for the rounded corners*
1,1,$1+$1,$2,$3*
1,1,$1+$1,$4,$5*
1,1,$1+$1,$6,$7*
1,1,$1+$1,$8,$9*
0 Add four rect primitives between the rounded corners*
20,1,$1+$1,$2,$3,$4,$5,0*
20,1,$1+$1,$4,$5,$6,$7,0*
20,1,$1+$1,$6,$7,$8,$9,0*
20,1,$1+$1,$8,$9,$2,$3,0*%
G04 Aperture macros list end*
G04 #@! TA.AperFunction,ComponentPad*
%ADD10R,1.600000X1.600000*%
G04 #@! TD*
G04 #@! TA.AperFunction,ComponentPad*
%ADD11C,1.600000*%
G04 #@! TD*
G04 #@! TA.AperFunction,SMDPad,CuDef*
%ADD12R,1.200000X2.600000*%
G04 #@! TD*
G04 #@! TA.AperFunction,ComponentPad*
%ADD13C,3.300000*%
G04 #@! TD*
G04 #@! TA.AperFunction,SMDPad,CuDef*
%ADD14RoundRect,0.260000X1.065000X1.040000X-1.065000X1.040000X-1.065000X-1.040000X1.065000X-1.040000X0*%
G04 #@! TD*
G04 #@! TA.AperFunction,SMDPad,CuDef*
%ADD15R,1.200000X0.900000*%
G04 #@! TD*
G04 #@! TA.AperFunction,Conductor*
%ADD16C,0.254000*%
G04 #@! TD*
G04 APERTURE END LIST*
D10*
X101123750Y-72231250D03*
D11*
X101123750Y-74771250D03*
X101123750Y-77311250D03*
X101123750Y-79851250D03*
X101123750Y-82391250D03*
X101123750Y-84931250D03*
X101123750Y-87471250D03*
X101123750Y-90011250D03*
X101123750Y-92551250D03*
X101123750Y-95091250D03*
X101123750Y-97631250D03*
X101123750Y-100171250D03*
X116363750Y-100171250D03*
X116363750Y-97631250D03*
X116363750Y-95091250D03*
X116363750Y-92551250D03*
X116363750Y-90011250D03*
X116363750Y-87471250D03*
X116363750Y-84931250D03*
X116363750Y-82391250D03*
X116363750Y-79851250D03*
X116363750Y-77311250D03*
X116363750Y-74771250D03*
X116363750Y-72231250D03*
D12*
X142675000Y-82300000D03*
D13*
X144225000Y-82300000D03*
D14*
X140980000Y-82300000D03*
X152470000Y-84500000D03*
D13*
X149225000Y-84500000D03*
D12*
X150775000Y-84500000D03*
D15*
X137318750Y-103062500D03*
X137318750Y-106362500D03*
X157162500Y-83218750D03*
X157162500Y-86518750D03*
D12*
X142618750Y-102175000D03*
D14*
X140923750Y-102175000D03*
D13*
X144168750Y-102175000D03*
D12*
X150718750Y-104375000D03*
D14*
X152413750Y-104375000D03*
D13*
X149168750Y-104375000D03*
X124381250Y-102175000D03*
D12*
X122831250Y-102175000D03*
D14*
X121136250Y-102175000D03*
D13*
X129381250Y-104375000D03*
D14*
X132626250Y-104375000D03*
D12*
X130931250Y-104375000D03*
D15*
X157162500Y-103062500D03*
X157162500Y-106362500D03*
D12*
X122831250Y-82300000D03*
D13*
X124381250Y-82300000D03*
D14*
X121136250Y-82300000D03*
D12*
X130931250Y-84500000D03*
D14*
X132626250Y-84500000D03*
D13*
X129381250Y-84500000D03*
D15*
X137318750Y-83218750D03*
X137318750Y-86518750D03*
D16*
X128587500Y-100806250D02*
X125242239Y-104151511D01*
X140923750Y-102175000D02*
X139555000Y-100806250D01*
X120026511Y-104151511D02*
X118722270Y-102847270D01*
X118722270Y-102847270D02*
X118722270Y-89829770D01*
X125242239Y-104151511D02*
X120026511Y-104151511D01*
X140980000Y-82300000D02*
X140980000Y-102118750D01*
X139555000Y-100806250D02*
X128587500Y-100806250D01*
X118722270Y-89829770D02*
X116363750Y-87471250D01*
X120106250Y-82300000D02*
X117475000Y-84931250D01*
X117475000Y-84931250D02*
X116363750Y-84931250D01*
X121136250Y-82300000D02*
X121136250Y-102175000D01*
X145879739Y-104151511D02*
X148431250Y-101600000D01*
X118268750Y-91916250D02*
X118268750Y-103035124D01*
X138407761Y-104151511D02*
X145879739Y-104151511D01*
X125582469Y-104605031D02*
X128927730Y-101259770D01*
X119838657Y-104605031D02*
X125582469Y-104605031D01*
X148431250Y-101600000D02*
X154781250Y-101600000D01*
X116363750Y-90011250D02*
X118268750Y-91916250D01*
X156243750Y-103062500D02*
X157162500Y-103062500D01*
X137318750Y-103062500D02*
X138407761Y-104151511D01*
X118268750Y-103035124D02*
X119838657Y-104605031D01*
X135516020Y-101259770D02*
X137318750Y-103062500D01*
X128927730Y-101259770D02*
X135516020Y-101259770D01*
X154781250Y-101600000D02*
X156243750Y-103062500D01*
X118110536Y-82391250D02*
X116363750Y-82391250D01*
X130444605Y-82550000D02*
X128218094Y-80323489D01*
X149494605Y-81756250D02*
X154781250Y-81756250D01*
X120178297Y-80323489D02*
X118110536Y-82391250D01*
X137318750Y-83218750D02*
X137318750Y-82514750D01*
X137318750Y-83218750D02*
X136650000Y-82550000D01*
X136650000Y-82550000D02*
X130444605Y-82550000D01*
X147907105Y-80168750D02*
X149494605Y-81756250D01*
X128218094Y-80323489D02*
X120178297Y-80323489D01*
X154781250Y-81756250D02*
X156243750Y-83218750D01*
X139664750Y-80168750D02*
X147907105Y-80168750D01*
X137318750Y-82514750D02*
X139664750Y-80168750D01*
X156243750Y-83218750D02*
X157162500Y-83218750D01*
X132626250Y-84500000D02*
X134645000Y-86518750D01*
X134645000Y-86518750D02*
X137318750Y-86518750D01*
X154488750Y-86518750D02*
X157162500Y-86518750D01*
X152470000Y-84500000D02*
X154488750Y-86518750D01*
X132626250Y-104375000D02*
X134613750Y-106362500D01*
X134613750Y-106362500D02*
X137318750Y-106362500D01*
X152413750Y-104375000D02*
X154401250Y-106362500D01*
X154401250Y-106362500D02*
X157162500Y-106362500D01*
G04 #@! TA.AperFunction,Conductor*
G36*
X158720018Y-67185000D02*
G01*
X158734851Y-67187310D01*
X158734855Y-67187310D01*
X158743724Y-67188691D01*
X158752626Y-67187527D01*
X158752629Y-67187527D01*
X158760012Y-67186561D01*
X158784591Y-67185767D01*
X158811442Y-67187527D01*
X158986204Y-67198982D01*
X159002543Y-67201133D01*
X159226611Y-67245701D01*
X159242529Y-67249966D01*
X159458862Y-67323401D01*
X159474081Y-67329705D01*
X159648555Y-67415744D01*
X159678977Y-67430746D01*
X159693250Y-67438986D01*
X159883206Y-67565909D01*
X159896281Y-67575942D01*
X160068047Y-67726573D01*
X160079702Y-67738227D01*
X160230336Y-67909988D01*
X160240369Y-67923064D01*
X160367290Y-68113009D01*
X160375530Y-68127281D01*
X160468477Y-68315750D01*
X160476576Y-68332173D01*
X160482884Y-68347400D01*
X160556324Y-68563738D01*
X160560589Y-68579657D01*
X160605161Y-68803712D01*
X160607313Y-68820053D01*
X160620047Y-69014279D01*
X160618974Y-69038405D01*
X160618941Y-69041107D01*
X160617559Y-69049985D01*
X160618724Y-69058889D01*
X160621686Y-69081541D01*
X160622750Y-69097881D01*
X160622750Y-108694383D01*
X160621250Y-108713768D01*
X160618940Y-108728601D01*
X160618940Y-108728605D01*
X160617559Y-108737474D01*
X160618723Y-108746376D01*
X160618723Y-108746378D01*
X160620581Y-108760584D01*
X160621583Y-108780879D01*
X160605082Y-109305943D01*
X160604585Y-109313843D01*
X160552025Y-109869874D01*
X160551033Y-109877727D01*
X160463663Y-110429361D01*
X160462179Y-110437136D01*
X160340341Y-110982204D01*
X160338373Y-110989871D01*
X160182556Y-111526200D01*
X160180114Y-111533715D01*
X159990916Y-112059235D01*
X159988014Y-112066563D01*
X159766190Y-112579168D01*
X159762834Y-112586300D01*
X159621590Y-112863507D01*
X159509267Y-113083953D01*
X159505454Y-113090889D01*
X159221143Y-113571633D01*
X159216901Y-113578316D01*
X158902976Y-114040243D01*
X158898334Y-114046634D01*
X158555999Y-114487969D01*
X158550969Y-114494048D01*
X158181610Y-114913004D01*
X158176191Y-114918774D01*
X157781274Y-115313691D01*
X157775504Y-115319110D01*
X157356548Y-115688469D01*
X157350469Y-115693499D01*
X156909134Y-116035834D01*
X156902743Y-116040476D01*
X156440816Y-116354401D01*
X156434133Y-116358643D01*
X155953389Y-116642954D01*
X155946453Y-116646767D01*
X155448800Y-116900334D01*
X155441668Y-116903690D01*
X154929063Y-117125514D01*
X154921735Y-117128416D01*
X154396215Y-117317614D01*
X154388712Y-117320052D01*
X154189839Y-117377830D01*
X153852371Y-117475873D01*
X153844704Y-117477841D01*
X153299636Y-117599679D01*
X153291869Y-117601162D01*
X152740218Y-117688534D01*
X152732383Y-117689524D01*
X152495126Y-117711951D01*
X152176343Y-117742085D01*
X152168443Y-117742582D01*
X151650950Y-117758845D01*
X151627608Y-117757407D01*
X151621400Y-117756440D01*
X151621395Y-117756440D01*
X151612526Y-117755059D01*
X151603624Y-117756223D01*
X151603622Y-117756223D01*
X151590173Y-117757982D01*
X151580964Y-117759186D01*
X151564629Y-117760250D01*
X99268120Y-117760250D01*
X99248732Y-117758749D01*
X99233912Y-117756441D01*
X99233911Y-117756441D01*
X99225037Y-117755059D01*
X99208743Y-117757189D01*
X99184171Y-117757982D01*
X99038323Y-117748420D01*
X98982559Y-117744764D01*
X98966218Y-117742612D01*
X98742170Y-117698041D01*
X98726251Y-117693776D01*
X98615277Y-117656104D01*
X98509914Y-117620336D01*
X98494696Y-117614032D01*
X98289806Y-117512987D01*
X98275534Y-117504747D01*
X98085595Y-117377830D01*
X98072519Y-117367797D01*
X97900762Y-117217166D01*
X97889108Y-117205512D01*
X97738477Y-117033747D01*
X97728450Y-117020679D01*
X97601526Y-116830721D01*
X97593299Y-116816473D01*
X97492247Y-116611555D01*
X97485947Y-116596343D01*
X97412516Y-116380019D01*
X97408250Y-116364099D01*
X97363682Y-116140038D01*
X97361531Y-116123698D01*
X97349012Y-115932693D01*
X97350175Y-115909734D01*
X97349834Y-115909703D01*
X97350270Y-115904845D01*
X97351076Y-115900052D01*
X97351229Y-115887500D01*
X97347273Y-115859876D01*
X97346000Y-115842014D01*
X97346000Y-100171250D01*
X99810252Y-100171250D01*
X99830207Y-100399337D01*
X99831631Y-100404650D01*
X99831631Y-100404652D01*
X99880800Y-100588150D01*
X99889466Y-100620493D01*
X99891789Y-100625474D01*
X99891789Y-100625475D01*
X99983901Y-100823012D01*
X99983904Y-100823017D01*
X99986227Y-100827999D01*
X100047306Y-100915229D01*
X100098282Y-100988029D01*
X100117552Y-101015550D01*
X100279450Y-101177448D01*
X100283958Y-101180605D01*
X100283961Y-101180607D01*
X100362139Y-101235348D01*
X100467001Y-101308773D01*
X100471983Y-101311096D01*
X100471988Y-101311099D01*
X100669525Y-101403211D01*
X100674507Y-101405534D01*
X100679815Y-101406956D01*
X100679817Y-101406957D01*
X100890348Y-101463369D01*
X100890350Y-101463369D01*
X100895663Y-101464793D01*
X101123750Y-101484748D01*
X101351837Y-101464793D01*
X101357150Y-101463369D01*
X101357152Y-101463369D01*
X101567683Y-101406957D01*
X101567685Y-101406956D01*
X101572993Y-101405534D01*
X101577975Y-101403211D01*
X101775512Y-101311099D01*
X101775517Y-101311096D01*
X101780499Y-101308773D01*
X101885361Y-101235348D01*
X101963539Y-101180607D01*
X101963542Y-101180605D01*
X101968050Y-101177448D01*
X102129948Y-101015550D01*
X102149219Y-100988029D01*
X102200194Y-100915229D01*
X102261273Y-100827999D01*
X102263596Y-100823017D01*
X102263599Y-100823012D01*
X102355711Y-100625475D01*
X102355711Y-100625474D01*
X102358034Y-100620493D01*
X102366701Y-100588150D01*
X102415869Y-100404652D01*
X102415869Y-100404650D01*
X102417293Y-100399337D01*
X102437248Y-100171250D01*
X115050252Y-100171250D01*
X115070207Y-100399337D01*
X115071631Y-100404650D01*
X115071631Y-100404652D01*
X115120800Y-100588150D01*
X115129466Y-100620493D01*
X115131789Y-100625474D01*
X115131789Y-100625475D01*
X115223901Y-100823012D01*
X115223904Y-100823017D01*
X115226227Y-100827999D01*
X115287306Y-100915229D01*
X115338282Y-100988029D01*
X115357552Y-101015550D01*
X115519450Y-101177448D01*
X115523958Y-101180605D01*
X115523961Y-101180607D01*
X115602139Y-101235348D01*
X115707001Y-101308773D01*
X115711983Y-101311096D01*
X115711988Y-101311099D01*
X115909525Y-101403211D01*
X115914507Y-101405534D01*
X115919815Y-101406956D01*
X115919817Y-101406957D01*
X116130348Y-101463369D01*
X116130350Y-101463369D01*
X116135663Y-101464793D01*
X116363750Y-101484748D01*
X116591837Y-101464793D01*
X116597150Y-101463369D01*
X116597152Y-101463369D01*
X116807683Y-101406957D01*
X116807685Y-101406956D01*
X116812993Y-101405534D01*
X116817975Y-101403211D01*
X117015512Y-101311099D01*
X117015517Y-101311096D01*
X117020499Y-101308773D01*
X117125361Y-101235348D01*
X117203539Y-101180607D01*
X117203542Y-101180605D01*
X117208050Y-101177448D01*
X117369948Y-101015550D01*
X117389219Y-100988029D01*
X117404037Y-100966866D01*
X117459494Y-100922538D01*
X117530114Y-100915229D01*
X117593474Y-100947260D01*
X117629459Y-101008461D01*
X117633250Y-101039137D01*
X117633250Y-102956104D01*
X117632720Y-102967338D01*
X117631042Y-102974843D01*
X117631291Y-102982762D01*
X117633188Y-103043136D01*
X117633250Y-103047093D01*
X117633250Y-103075107D01*
X117633746Y-103079032D01*
X117633746Y-103079033D01*
X117633758Y-103079128D01*
X117634691Y-103090973D01*
X117636085Y-103135329D01*
X117638297Y-103142941D01*
X117641763Y-103154872D01*
X117645773Y-103174236D01*
X117648323Y-103194423D01*
X117651239Y-103201787D01*
X117651240Y-103201792D01*
X117664657Y-103235680D01*
X117668502Y-103246909D01*
X117680881Y-103289517D01*
X117684919Y-103296344D01*
X117684920Y-103296347D01*
X117691238Y-103307030D01*
X117699938Y-103324788D01*
X117704511Y-103336339D01*
X117704515Y-103336345D01*
X117707431Y-103343712D01*
X117712089Y-103350123D01*
X117712090Y-103350125D01*
X117733514Y-103379612D01*
X117740031Y-103389534D01*
X117758576Y-103420892D01*
X117758579Y-103420896D01*
X117762616Y-103427722D01*
X117777000Y-103442106D01*
X117789841Y-103457140D01*
X117801808Y-103473611D01*
X117807916Y-103478664D01*
X117836005Y-103501901D01*
X117844785Y-103509891D01*
X119333407Y-104998514D01*
X119340983Y-105006840D01*
X119345104Y-105013334D01*
X119350879Y-105018757D01*
X119394922Y-105060116D01*
X119397764Y-105062871D01*
X119417563Y-105082670D01*
X119420688Y-105085094D01*
X119420697Y-105085102D01*
X119420783Y-105085168D01*
X119429808Y-105092876D01*
X119462151Y-105123248D01*
X119469095Y-105127066D01*
X119469097Y-105127067D01*
X119479986Y-105133053D01*
X119496504Y-105143904D01*
X119512590Y-105156381D01*
X119553323Y-105174007D01*
X119563971Y-105179224D01*
X119575599Y-105185616D01*
X119602854Y-105200600D01*
X119610529Y-105202571D01*
X119610535Y-105202573D01*
X119622568Y-105205662D01*
X119641270Y-105212065D01*
X119659949Y-105220148D01*
X119693475Y-105225458D01*
X119703784Y-105227091D01*
X119715397Y-105229496D01*
X119758375Y-105240531D01*
X119778722Y-105240531D01*
X119798434Y-105242082D01*
X119818536Y-105245266D01*
X119826428Y-105244520D01*
X119862713Y-105241090D01*
X119874571Y-105240531D01*
X125503449Y-105240531D01*
X125514683Y-105241061D01*
X125522188Y-105242739D01*
X125590481Y-105240593D01*
X125594438Y-105240531D01*
X125622452Y-105240531D01*
X125626377Y-105240035D01*
X125626378Y-105240035D01*
X125626473Y-105240023D01*
X125638318Y-105239090D01*
X125668139Y-105238153D01*
X125674751Y-105237945D01*
X125674752Y-105237945D01*
X125682674Y-105237696D01*
X125702218Y-105232018D01*
X125721581Y-105228008D01*
X125733909Y-105226451D01*
X125733911Y-105226451D01*
X125741768Y-105225458D01*
X125749132Y-105222542D01*
X125749137Y-105222541D01*
X125783025Y-105209124D01*
X125794254Y-105205279D01*
X125810934Y-105200433D01*
X125836862Y-105192900D01*
X125843689Y-105188862D01*
X125843692Y-105188861D01*
X125854375Y-105182543D01*
X125872133Y-105173843D01*
X125883684Y-105169270D01*
X125883690Y-105169266D01*
X125891057Y-105166350D01*
X125900446Y-105159529D01*
X125926957Y-105140267D01*
X125936879Y-105133750D01*
X125968237Y-105115205D01*
X125968241Y-105115202D01*
X125975067Y-105111165D01*
X125989451Y-105096781D01*
X126004485Y-105083940D01*
X126014542Y-105076633D01*
X126020956Y-105071973D01*
X126049247Y-105037775D01*
X126057236Y-105028996D01*
X127017661Y-104068571D01*
X127079973Y-104034545D01*
X127150788Y-104039610D01*
X127207624Y-104082157D01*
X127232435Y-104148677D01*
X127232368Y-104167552D01*
X127227563Y-104228607D01*
X127217825Y-104352344D01*
X127234766Y-104646164D01*
X127235591Y-104650371D01*
X127235592Y-104650376D01*
X127258870Y-104769021D01*
X127291427Y-104934966D01*
X127292814Y-104939016D01*
X127292815Y-104939021D01*
X127385370Y-105209351D01*
X127386759Y-105213407D01*
X127408974Y-105257577D01*
X127510145Y-105458733D01*
X127518997Y-105476334D01*
X127521423Y-105479863D01*
X127521426Y-105479869D01*
X127565405Y-105543858D01*
X127685695Y-105718881D01*
X127883768Y-105936560D01*
X127887057Y-105939310D01*
X128106259Y-106122592D01*
X128106264Y-106122596D01*
X128109551Y-106125344D01*
X128202260Y-106183500D01*
X128355226Y-106279456D01*
X128355230Y-106279458D01*
X128358866Y-106281739D01*
X128431543Y-106314554D01*
X128623187Y-106401085D01*
X128623191Y-106401087D01*
X128627099Y-106402851D01*
X128631218Y-106404071D01*
X128905174Y-106485221D01*
X128905179Y-106485222D01*
X128909287Y-106486439D01*
X128913521Y-106487087D01*
X128913526Y-106487088D01*
X129195967Y-106530307D01*
X129195969Y-106530307D01*
X129200209Y-106530956D01*
X129350022Y-106533310D01*
X129490190Y-106535512D01*
X129490196Y-106535512D01*
X129494481Y-106535579D01*
X129786658Y-106500222D01*
X130071332Y-106425539D01*
X130343238Y-106312912D01*
X130535245Y-106200712D01*
X130598815Y-106183500D01*
X133483828Y-106183500D01*
X133551949Y-106203502D01*
X133572923Y-106220405D01*
X134108495Y-106755977D01*
X134116072Y-106764303D01*
X134120197Y-106770803D01*
X134125975Y-106776229D01*
X134125976Y-106776230D01*
X134170031Y-106817600D01*
X134172873Y-106820355D01*
X134192656Y-106840138D01*
X134195864Y-106842626D01*
X134204893Y-106850337D01*
X134237244Y-106880717D01*
X134244193Y-106884537D01*
X134255079Y-106890522D01*
X134271603Y-106901376D01*
X134287683Y-106913849D01*
X134294960Y-106916998D01*
X134328400Y-106931469D01*
X134339061Y-106936692D01*
X134370997Y-106954249D01*
X134371002Y-106954251D01*
X134377947Y-106958069D01*
X134385621Y-106960039D01*
X134385628Y-106960042D01*
X134397663Y-106963132D01*
X134416368Y-106969536D01*
X134427763Y-106974467D01*
X134435042Y-106977617D01*
X134462092Y-106981901D01*
X134478877Y-106984560D01*
X134490490Y-106986965D01*
X134533468Y-106998000D01*
X134553815Y-106998000D01*
X134573527Y-106999551D01*
X134593629Y-107002735D01*
X134601521Y-107001989D01*
X134637806Y-106998559D01*
X134649664Y-106998000D01*
X136161412Y-106998000D01*
X136229533Y-107018002D01*
X136268019Y-107059292D01*
X136268135Y-107059205D01*
X136268940Y-107060280D01*
X136268943Y-107060284D01*
X136355489Y-107175761D01*
X136472045Y-107263115D01*
X136608434Y-107314245D01*
X136670616Y-107321000D01*
X137966884Y-107321000D01*
X138029066Y-107314245D01*
X138165455Y-107263115D01*
X138282011Y-107175761D01*
X138369365Y-107059205D01*
X138420495Y-106922816D01*
X138427250Y-106860634D01*
X138427250Y-105864366D01*
X138420495Y-105802184D01*
X138369365Y-105665795D01*
X138282011Y-105549239D01*
X138165455Y-105461885D01*
X138029066Y-105410755D01*
X137966884Y-105404000D01*
X136670616Y-105404000D01*
X136608434Y-105410755D01*
X136472045Y-105461885D01*
X136355489Y-105549239D01*
X136268135Y-105665795D01*
X136267851Y-105665582D01*
X136221670Y-105711657D01*
X136161412Y-105727000D01*
X134929173Y-105727000D01*
X134861052Y-105706998D01*
X134840078Y-105690095D01*
X134496655Y-105346672D01*
X134462629Y-105284360D01*
X134459750Y-105257577D01*
X134459750Y-103250656D01*
X134459488Y-103246112D01*
X134453478Y-103220077D01*
X134423673Y-103090980D01*
X134420704Y-103078119D01*
X134345664Y-102922893D01*
X134341272Y-102917391D01*
X134341270Y-102917388D01*
X134242489Y-102793648D01*
X134238100Y-102788150D01*
X134232602Y-102783761D01*
X134108862Y-102684980D01*
X134108859Y-102684978D01*
X134103357Y-102680586D01*
X133948131Y-102605546D01*
X133874349Y-102588512D01*
X133785337Y-102567962D01*
X133785334Y-102567962D01*
X133780138Y-102566762D01*
X133775594Y-102566500D01*
X130596758Y-102566500D01*
X130530923Y-102547933D01*
X130504943Y-102532012D01*
X130383611Y-102457660D01*
X130379675Y-102455932D01*
X130118052Y-102341087D01*
X130118048Y-102341086D01*
X130114124Y-102339363D01*
X129831076Y-102258735D01*
X129826834Y-102258131D01*
X129826828Y-102258130D01*
X129543955Y-102217871D01*
X129539704Y-102217266D01*
X129384556Y-102216454D01*
X129249686Y-102215747D01*
X129249680Y-102215747D01*
X129245400Y-102215725D01*
X129181674Y-102224115D01*
X129111527Y-102213176D01*
X129058428Y-102166048D01*
X129039238Y-102097695D01*
X129060049Y-102029816D01*
X129076134Y-102010098D01*
X129154057Y-101932175D01*
X129216369Y-101898149D01*
X129243152Y-101895270D01*
X135200598Y-101895270D01*
X135268719Y-101915272D01*
X135289693Y-101932175D01*
X136173345Y-102815827D01*
X136207371Y-102878139D01*
X136210250Y-102904922D01*
X136210250Y-103560634D01*
X136217005Y-103622816D01*
X136268135Y-103759205D01*
X136355489Y-103875761D01*
X136472045Y-103963115D01*
X136608434Y-104014245D01*
X136670616Y-104021000D01*
X137326327Y-104021000D01*
X137394448Y-104041002D01*
X137415423Y-104057905D01*
X137902516Y-104544999D01*
X137910086Y-104553318D01*
X137914208Y-104559814D01*
X137919986Y-104565240D01*
X137919987Y-104565241D01*
X137964026Y-104606596D01*
X137966868Y-104609351D01*
X137986667Y-104629150D01*
X137989798Y-104631579D01*
X137989803Y-104631583D01*
X137989889Y-104631650D01*
X137998914Y-104639358D01*
X138025476Y-104664302D01*
X138025480Y-104664305D01*
X138031255Y-104669728D01*
X138038201Y-104673547D01*
X138038206Y-104673550D01*
X138049089Y-104679533D01*
X138065617Y-104690389D01*
X138075432Y-104698003D01*
X138075435Y-104698005D01*
X138081694Y-104702860D01*
X138088964Y-104706006D01*
X138088969Y-104706009D01*
X138122411Y-104720480D01*
X138133072Y-104725703D01*
X138165008Y-104743260D01*
X138165013Y-104743262D01*
X138171958Y-104747080D01*
X138179632Y-104749050D01*
X138179639Y-104749053D01*
X138191674Y-104752143D01*
X138210379Y-104758547D01*
X138221774Y-104763478D01*
X138229053Y-104766628D01*
X138244162Y-104769021D01*
X138272888Y-104773571D01*
X138284501Y-104775976D01*
X138327479Y-104787011D01*
X138347826Y-104787011D01*
X138367538Y-104788562D01*
X138387640Y-104791746D01*
X138395532Y-104791000D01*
X138431817Y-104787570D01*
X138443675Y-104787011D01*
X145800719Y-104787011D01*
X145811953Y-104787541D01*
X145819458Y-104789219D01*
X145887751Y-104787073D01*
X145891708Y-104787011D01*
X145919722Y-104787011D01*
X145923647Y-104786515D01*
X145923648Y-104786515D01*
X145923743Y-104786503D01*
X145935588Y-104785570D01*
X145965409Y-104784633D01*
X145972021Y-104784425D01*
X145972022Y-104784425D01*
X145979944Y-104784176D01*
X145999488Y-104778498D01*
X146018851Y-104774488D01*
X146031179Y-104772931D01*
X146031181Y-104772931D01*
X146039038Y-104771938D01*
X146046402Y-104769022D01*
X146046407Y-104769021D01*
X146080295Y-104755604D01*
X146091524Y-104751759D01*
X146108204Y-104746913D01*
X146134132Y-104739380D01*
X146140959Y-104735342D01*
X146140962Y-104735341D01*
X146151645Y-104729023D01*
X146169403Y-104720323D01*
X146180954Y-104715750D01*
X146180960Y-104715746D01*
X146188327Y-104712830D01*
X146197716Y-104706009D01*
X146224227Y-104686747D01*
X146234149Y-104680230D01*
X146265507Y-104661685D01*
X146265511Y-104661682D01*
X146272337Y-104657645D01*
X146286721Y-104643261D01*
X146301755Y-104630420D01*
X146311812Y-104623113D01*
X146318226Y-104618453D01*
X146346517Y-104584255D01*
X146354506Y-104575476D01*
X146800356Y-104129626D01*
X146862668Y-104095600D01*
X146933483Y-104100665D01*
X146990319Y-104143212D01*
X147015130Y-104209732D01*
X147015063Y-104228607D01*
X147005325Y-104352344D01*
X147022266Y-104646164D01*
X147023091Y-104650371D01*
X147023092Y-104650376D01*
X147046370Y-104769021D01*
X147078927Y-104934966D01*
X147080314Y-104939016D01*
X147080315Y-104939021D01*
X147172870Y-105209351D01*
X147174259Y-105213407D01*
X147196474Y-105257577D01*
X147297645Y-105458733D01*
X147306497Y-105476334D01*
X147308923Y-105479863D01*
X147308926Y-105479869D01*
X147352905Y-105543858D01*
X147473195Y-105718881D01*
X147671268Y-105936560D01*
X147674557Y-105939310D01*
X147893759Y-106122592D01*
X147893764Y-106122596D01*
X147897051Y-106125344D01*
X147989760Y-106183500D01*
X148142726Y-106279456D01*
X148142730Y-106279458D01*
X148146366Y-106281739D01*
X148219043Y-106314554D01*
X148410687Y-106401085D01*
X148410691Y-106401087D01*
X148414599Y-106402851D01*
X148418718Y-106404071D01*
X148692674Y-106485221D01*
X148692679Y-106485222D01*
X148696787Y-106486439D01*
X148701021Y-106487087D01*
X148701026Y-106487088D01*
X148983467Y-106530307D01*
X148983469Y-106530307D01*
X148987709Y-106530956D01*
X149137522Y-106533310D01*
X149277690Y-106535512D01*
X149277696Y-106535512D01*
X149281981Y-106535579D01*
X149574158Y-106500222D01*
X149858832Y-106425539D01*
X150130738Y-106312912D01*
X150322745Y-106200712D01*
X150386315Y-106183500D01*
X153271328Y-106183500D01*
X153339449Y-106203502D01*
X153360423Y-106220405D01*
X153895995Y-106755977D01*
X153903572Y-106764303D01*
X153907697Y-106770803D01*
X153913475Y-106776229D01*
X153913476Y-106776230D01*
X153957531Y-106817600D01*
X153960373Y-106820355D01*
X153980156Y-106840138D01*
X153983364Y-106842626D01*
X153992393Y-106850337D01*
X154024744Y-106880717D01*
X154031693Y-106884537D01*
X154042579Y-106890522D01*
X154059103Y-106901376D01*
X154075183Y-106913849D01*
X154082460Y-106916998D01*
X154115900Y-106931469D01*
X154126561Y-106936692D01*
X154158497Y-106954249D01*
X154158502Y-106954251D01*
X154165447Y-106958069D01*
X154173121Y-106960039D01*
X154173128Y-106960042D01*
X154185163Y-106963132D01*
X154203868Y-106969536D01*
X154215263Y-106974467D01*
X154222542Y-106977617D01*
X154249592Y-106981901D01*
X154266377Y-106984560D01*
X154277990Y-106986965D01*
X154320968Y-106998000D01*
X154341315Y-106998000D01*
X154361027Y-106999551D01*
X154381129Y-107002735D01*
X154389021Y-107001989D01*
X154425306Y-106998559D01*
X154437164Y-106998000D01*
X156005162Y-106998000D01*
X156073283Y-107018002D01*
X156111769Y-107059292D01*
X156111885Y-107059205D01*
X156112690Y-107060280D01*
X156112693Y-107060284D01*
X156199239Y-107175761D01*
X156315795Y-107263115D01*
X156452184Y-107314245D01*
X156514366Y-107321000D01*
X157810634Y-107321000D01*
X157872816Y-107314245D01*
X158009205Y-107263115D01*
X158125761Y-107175761D01*
X158213115Y-107059205D01*
X158264245Y-106922816D01*
X158271000Y-106860634D01*
X158271000Y-105864366D01*
X158264245Y-105802184D01*
X158213115Y-105665795D01*
X158125761Y-105549239D01*
X158009205Y-105461885D01*
X157872816Y-105410755D01*
X157810634Y-105404000D01*
X156514366Y-105404000D01*
X156452184Y-105410755D01*
X156315795Y-105461885D01*
X156199239Y-105549239D01*
X156111885Y-105665795D01*
X156111601Y-105665582D01*
X156065420Y-105711657D01*
X156005162Y-105727000D01*
X154716673Y-105727000D01*
X154648552Y-105706998D01*
X154627578Y-105690095D01*
X154284155Y-105346672D01*
X154250129Y-105284360D01*
X154247250Y-105257577D01*
X154247250Y-103250656D01*
X154246988Y-103246112D01*
X154240978Y-103220077D01*
X154211173Y-103090980D01*
X154208204Y-103078119D01*
X154133164Y-102922893D01*
X154128772Y-102917391D01*
X154128770Y-102917388D01*
X154029989Y-102793648D01*
X154025600Y-102788150D01*
X154020102Y-102783761D01*
X153896362Y-102684980D01*
X153896359Y-102684978D01*
X153890857Y-102680586D01*
X153735631Y-102605546D01*
X153661849Y-102588512D01*
X153572837Y-102567962D01*
X153572834Y-102567962D01*
X153567638Y-102566762D01*
X153563094Y-102566500D01*
X150384258Y-102566500D01*
X150318423Y-102547933D01*
X150292443Y-102532012D01*
X150189507Y-102468933D01*
X150141876Y-102416285D01*
X150130269Y-102346244D01*
X150158372Y-102281046D01*
X150217263Y-102241392D01*
X150255342Y-102235500D01*
X154465828Y-102235500D01*
X154533949Y-102255502D01*
X154554923Y-102272405D01*
X155738495Y-103455977D01*
X155746072Y-103464303D01*
X155750197Y-103470803D01*
X155755975Y-103476229D01*
X155755976Y-103476230D01*
X155800031Y-103517600D01*
X155802873Y-103520355D01*
X155822656Y-103540138D01*
X155825864Y-103542626D01*
X155834893Y-103550337D01*
X155867244Y-103580717D01*
X155874193Y-103584537D01*
X155885079Y-103590522D01*
X155901603Y-103601376D01*
X155917683Y-103613849D01*
X155924960Y-103616998D01*
X155958400Y-103631469D01*
X155969061Y-103636692D01*
X156000997Y-103654249D01*
X156001002Y-103654251D01*
X156007947Y-103658069D01*
X156015626Y-103660040D01*
X156015627Y-103660041D01*
X156017405Y-103660498D01*
X156018646Y-103661237D01*
X156022996Y-103662959D01*
X156022718Y-103663661D01*
X156078411Y-103696813D01*
X156104050Y-103738307D01*
X156108732Y-103750795D01*
X156111885Y-103759205D01*
X156199239Y-103875761D01*
X156315795Y-103963115D01*
X156452184Y-104014245D01*
X156514366Y-104021000D01*
X157810634Y-104021000D01*
X157872816Y-104014245D01*
X158009205Y-103963115D01*
X158125761Y-103875761D01*
X158213115Y-103759205D01*
X158264245Y-103622816D01*
X158271000Y-103560634D01*
X158271000Y-102564366D01*
X158264245Y-102502184D01*
X158213115Y-102365795D01*
X158125761Y-102249239D01*
X158009205Y-102161885D01*
X157872816Y-102110755D01*
X157810634Y-102104000D01*
X156514366Y-102104000D01*
X156452184Y-102110755D01*
X156337986Y-102153566D01*
X156267180Y-102158749D01*
X156204662Y-102124679D01*
X155286500Y-101206517D01*
X155278924Y-101198191D01*
X155274803Y-101191697D01*
X155224984Y-101144914D01*
X155222143Y-101142160D01*
X155202344Y-101122361D01*
X155199219Y-101119937D01*
X155199210Y-101119929D01*
X155199124Y-101119863D01*
X155190099Y-101112155D01*
X155163535Y-101087210D01*
X155157756Y-101081783D01*
X155139919Y-101071977D01*
X155123403Y-101061127D01*
X155107317Y-101048650D01*
X155066584Y-101031024D01*
X155055936Y-101025807D01*
X155031061Y-101012132D01*
X155017053Y-101004431D01*
X155009378Y-101002460D01*
X155009372Y-101002458D01*
X154997339Y-100999369D01*
X154978637Y-100992966D01*
X154959958Y-100984883D01*
X154920163Y-100978580D01*
X154916123Y-100977940D01*
X154904510Y-100975535D01*
X154861532Y-100964500D01*
X154841185Y-100964500D01*
X154821474Y-100962949D01*
X154809200Y-100961005D01*
X154801371Y-100959765D01*
X154793479Y-100960511D01*
X154757194Y-100963941D01*
X154745336Y-100964500D01*
X148510270Y-100964500D01*
X148499041Y-100963971D01*
X148491531Y-100962292D01*
X148483605Y-100962541D01*
X148483604Y-100962541D01*
X148423252Y-100964438D01*
X148419294Y-100964500D01*
X148391267Y-100964500D01*
X148387221Y-100965011D01*
X148375393Y-100965942D01*
X148331045Y-100967336D01*
X148323428Y-100969549D01*
X148311503Y-100973013D01*
X148292144Y-100977022D01*
X148290883Y-100977181D01*
X148271951Y-100979573D01*
X148264587Y-100982489D01*
X148264582Y-100982490D01*
X148242671Y-100991166D01*
X148230678Y-100995914D01*
X148219474Y-100999751D01*
X148176857Y-101012132D01*
X148164488Y-101019447D01*
X148159344Y-101022489D01*
X148141593Y-101031185D01*
X148130035Y-101035761D01*
X148130030Y-101035764D01*
X148122662Y-101038681D01*
X148116247Y-101043342D01*
X148086757Y-101064767D01*
X148076835Y-101071284D01*
X148045478Y-101089828D01*
X148045475Y-101089830D01*
X148038651Y-101093866D01*
X148024264Y-101108253D01*
X148009230Y-101121094D01*
X147992763Y-101133058D01*
X147987710Y-101139166D01*
X147964478Y-101167249D01*
X147956488Y-101176029D01*
X146520399Y-102612118D01*
X146458087Y-102646144D01*
X146387272Y-102641079D01*
X146330436Y-102598532D01*
X146305625Y-102532012D01*
X146305803Y-102511823D01*
X146331599Y-102222779D01*
X146331599Y-102222770D01*
X146331819Y-102220310D01*
X146332100Y-102193555D01*
X146332268Y-102177484D01*
X146332268Y-102177483D01*
X146332294Y-102175000D01*
X146328864Y-102124679D01*
X146312569Y-101885650D01*
X146312568Y-101885644D01*
X146312277Y-101881373D01*
X146252595Y-101593180D01*
X146154353Y-101315753D01*
X146063209Y-101139166D01*
X146021333Y-101058033D01*
X146021333Y-101058032D01*
X146019368Y-101054226D01*
X146008764Y-101039137D01*
X145852606Y-100816948D01*
X145852605Y-100816947D01*
X145850139Y-100813438D01*
X145649798Y-100597844D01*
X145632198Y-100583438D01*
X145425368Y-100414151D01*
X145422050Y-100411435D01*
X145171111Y-100257660D01*
X145164824Y-100254900D01*
X144905552Y-100141087D01*
X144905548Y-100141086D01*
X144901624Y-100139363D01*
X144618576Y-100058735D01*
X144614334Y-100058131D01*
X144614328Y-100058130D01*
X144331455Y-100017871D01*
X144327204Y-100017266D01*
X144172056Y-100016454D01*
X144037186Y-100015747D01*
X144037180Y-100015747D01*
X144032900Y-100015725D01*
X144028656Y-100016284D01*
X144028652Y-100016284D01*
X143900091Y-100033210D01*
X143741110Y-100054140D01*
X143736970Y-100055273D01*
X143736968Y-100055273D01*
X143720011Y-100059912D01*
X143457233Y-100131800D01*
X143453283Y-100133485D01*
X143190464Y-100245586D01*
X143190457Y-100245590D01*
X143186522Y-100247268D01*
X143021100Y-100346271D01*
X143017182Y-100348616D01*
X142952476Y-100366500D01*
X141741500Y-100366500D01*
X141673379Y-100346498D01*
X141626886Y-100292842D01*
X141615500Y-100240500D01*
X141615500Y-98360774D01*
X142306852Y-98360774D01*
X142315501Y-98591158D01*
X142316596Y-98596377D01*
X142333268Y-98675835D01*
X142362843Y-98816791D01*
X142364801Y-98821750D01*
X142364802Y-98821752D01*
X142421161Y-98964460D01*
X142447526Y-99031221D01*
X142450293Y-99035780D01*
X142450294Y-99035783D01*
X142458889Y-99049947D01*
X142567127Y-99228317D01*
X142570624Y-99232347D01*
X142694962Y-99375634D01*
X142718227Y-99402445D01*
X142722358Y-99405832D01*
X142892377Y-99545240D01*
X142892383Y-99545244D01*
X142896505Y-99548624D01*
X142901141Y-99551263D01*
X142901144Y-99551265D01*
X142953573Y-99581109D01*
X143096864Y-99662675D01*
X143313575Y-99741337D01*
X143318824Y-99742286D01*
X143318827Y-99742287D01*
X143536358Y-99781623D01*
X143536365Y-99781624D01*
X143540442Y-99782361D01*
X143558164Y-99783197D01*
X143563106Y-99783430D01*
X143563113Y-99783430D01*
X143564594Y-99783500D01*
X143726640Y-99783500D01*
X143793559Y-99777822D01*
X143893159Y-99769371D01*
X143893163Y-99769370D01*
X143898470Y-99768920D01*
X143903625Y-99767582D01*
X143903631Y-99767581D01*
X144116453Y-99712343D01*
X144116457Y-99712342D01*
X144121622Y-99711001D01*
X144126488Y-99708809D01*
X144126491Y-99708808D01*
X144326952Y-99618507D01*
X144331825Y-99616312D01*
X144523069Y-99487559D01*
X144689885Y-99328424D01*
X144827504Y-99143458D01*
X144931990Y-98937949D01*
X144943076Y-98902249D01*
X144998774Y-98722871D01*
X145000357Y-98717773D01*
X145005915Y-98675835D01*
X145029948Y-98494511D01*
X145029948Y-98494506D01*
X145030648Y-98489226D01*
X145029978Y-98471355D01*
X146955792Y-98471355D01*
X146956155Y-98475503D01*
X146956155Y-98475507D01*
X146965807Y-98585827D01*
X146981363Y-98763625D01*
X146982273Y-98767697D01*
X146982274Y-98767702D01*
X147041218Y-99031401D01*
X147045363Y-99049947D01*
X147146669Y-99325288D01*
X147148616Y-99328981D01*
X147148617Y-99328983D01*
X147264421Y-99548624D01*
X147283501Y-99584813D01*
X147453455Y-99823961D01*
X147653544Y-100038531D01*
X147880254Y-100224752D01*
X148129601Y-100379354D01*
X148133418Y-100381070D01*
X148133421Y-100381071D01*
X148174065Y-100399337D01*
X148397206Y-100499620D01*
X148476152Y-100523155D01*
X148674368Y-100582247D01*
X148674376Y-100582249D01*
X148678365Y-100583438D01*
X148682481Y-100584090D01*
X148682486Y-100584091D01*
X148964672Y-100628784D01*
X148964677Y-100628784D01*
X148968140Y-100629333D01*
X149017236Y-100631563D01*
X149058482Y-100633436D01*
X149058501Y-100633436D01*
X149059901Y-100633500D01*
X149243170Y-100633500D01*
X149461492Y-100618999D01*
X149749091Y-100561009D01*
X150026494Y-100465492D01*
X150030236Y-100463618D01*
X150030241Y-100463616D01*
X150285083Y-100336000D01*
X150285085Y-100335999D01*
X150288827Y-100334125D01*
X150487344Y-100199213D01*
X150528023Y-100171568D01*
X150528026Y-100171566D01*
X150531482Y-100169217D01*
X150703129Y-100015747D01*
X150747078Y-99976452D01*
X150747079Y-99976451D01*
X150750195Y-99973665D01*
X150941123Y-99750905D01*
X151046769Y-99588225D01*
X151098634Y-99508360D01*
X151098637Y-99508355D01*
X151100913Y-99504850D01*
X151226757Y-99239823D01*
X151229158Y-99232347D01*
X151315166Y-98964460D01*
X151316444Y-98960480D01*
X151368399Y-98671730D01*
X151377308Y-98475550D01*
X151381519Y-98382815D01*
X151381519Y-98382810D01*
X151381708Y-98378645D01*
X151380145Y-98360774D01*
X153306852Y-98360774D01*
X153315501Y-98591158D01*
X153316596Y-98596377D01*
X153333268Y-98675835D01*
X153362843Y-98816791D01*
X153364801Y-98821750D01*
X153364802Y-98821752D01*
X153421161Y-98964460D01*
X153447526Y-99031221D01*
X153450293Y-99035780D01*
X153450294Y-99035783D01*
X153458889Y-99049947D01*
X153567127Y-99228317D01*
X153570624Y-99232347D01*
X153694962Y-99375634D01*
X153718227Y-99402445D01*
X153722358Y-99405832D01*
X153892377Y-99545240D01*
X153892383Y-99545244D01*
X153896505Y-99548624D01*
X153901141Y-99551263D01*
X153901144Y-99551265D01*
X153953573Y-99581109D01*
X154096864Y-99662675D01*
X154313575Y-99741337D01*
X154318824Y-99742286D01*
X154318827Y-99742287D01*
X154536358Y-99781623D01*
X154536365Y-99781624D01*
X154540442Y-99782361D01*
X154558164Y-99783197D01*
X154563106Y-99783430D01*
X154563113Y-99783430D01*
X154564594Y-99783500D01*
X154726640Y-99783500D01*
X154793559Y-99777822D01*
X154893159Y-99769371D01*
X154893163Y-99769370D01*
X154898470Y-99768920D01*
X154903625Y-99767582D01*
X154903631Y-99767581D01*
X155116453Y-99712343D01*
X155116457Y-99712342D01*
X155121622Y-99711001D01*
X155126488Y-99708809D01*
X155126491Y-99708808D01*
X155326952Y-99618507D01*
X155331825Y-99616312D01*
X155523069Y-99487559D01*
X155689885Y-99328424D01*
X155827504Y-99143458D01*
X155931990Y-98937949D01*
X155943076Y-98902249D01*
X155998774Y-98722871D01*
X156000357Y-98717773D01*
X156005915Y-98675835D01*
X156029948Y-98494511D01*
X156029948Y-98494506D01*
X156030648Y-98489226D01*
X156029869Y-98468461D01*
X156023263Y-98292507D01*
X156021999Y-98258842D01*
X156005094Y-98178270D01*
X155975752Y-98038428D01*
X155974657Y-98033209D01*
X155917911Y-97889520D01*
X155891935Y-97823744D01*
X155891934Y-97823742D01*
X155889974Y-97818779D01*
X155881086Y-97804131D01*
X155773140Y-97626243D01*
X155770373Y-97621683D01*
X155683020Y-97521017D01*
X155622773Y-97451588D01*
X155622771Y-97451586D01*
X155619273Y-97447555D01*
X155558651Y-97397848D01*
X155445123Y-97304760D01*
X155445117Y-97304756D01*
X155440995Y-97301376D01*
X155436359Y-97298737D01*
X155436356Y-97298735D01*
X155245279Y-97189968D01*
X155240636Y-97187325D01*
X155023925Y-97108663D01*
X155018676Y-97107714D01*
X155018673Y-97107713D01*
X154801142Y-97068377D01*
X154801135Y-97068376D01*
X154797058Y-97067639D01*
X154779336Y-97066803D01*
X154774394Y-97066570D01*
X154774387Y-97066570D01*
X154772906Y-97066500D01*
X154610860Y-97066500D01*
X154543941Y-97072178D01*
X154444341Y-97080629D01*
X154444337Y-97080630D01*
X154439030Y-97081080D01*
X154433875Y-97082418D01*
X154433869Y-97082419D01*
X154221047Y-97137657D01*
X154221043Y-97137658D01*
X154215878Y-97138999D01*
X154211012Y-97141191D01*
X154211009Y-97141192D01*
X154102730Y-97189968D01*
X154005675Y-97233688D01*
X153814431Y-97362441D01*
X153647615Y-97521576D01*
X153509996Y-97706542D01*
X153405510Y-97912051D01*
X153403928Y-97917145D01*
X153403927Y-97917148D01*
X153350088Y-98090537D01*
X153337143Y-98132227D01*
X153336442Y-98137516D01*
X153321054Y-98253623D01*
X153306852Y-98360774D01*
X151380145Y-98360774D01*
X151356501Y-98090537D01*
X151356137Y-98086375D01*
X151355226Y-98082298D01*
X151293049Y-97804131D01*
X151293047Y-97804124D01*
X151292137Y-97800053D01*
X151190831Y-97524712D01*
X151126746Y-97403163D01*
X151055952Y-97268891D01*
X151055951Y-97268890D01*
X151053999Y-97265187D01*
X150884045Y-97026039D01*
X150683956Y-96811469D01*
X150457246Y-96625248D01*
X150207899Y-96470646D01*
X150204082Y-96468930D01*
X150204079Y-96468929D01*
X150114182Y-96428528D01*
X149940294Y-96350380D01*
X149852344Y-96324161D01*
X149663132Y-96267753D01*
X149663124Y-96267751D01*
X149659135Y-96266562D01*
X149655019Y-96265910D01*
X149655014Y-96265909D01*
X149372828Y-96221216D01*
X149372823Y-96221216D01*
X149369360Y-96220667D01*
X149320264Y-96218437D01*
X149279018Y-96216564D01*
X149278999Y-96216564D01*
X149277599Y-96216500D01*
X149094330Y-96216500D01*
X148876008Y-96231001D01*
X148588409Y-96288991D01*
X148311006Y-96384508D01*
X148307264Y-96386382D01*
X148307259Y-96386384D01*
X148097546Y-96491401D01*
X148048673Y-96515875D01*
X147806018Y-96680783D01*
X147587305Y-96876335D01*
X147396377Y-97099095D01*
X147388981Y-97110484D01*
X147257184Y-97313434D01*
X147236587Y-97345150D01*
X147110743Y-97610177D01*
X147109464Y-97614160D01*
X147109463Y-97614163D01*
X147107049Y-97621683D01*
X147021056Y-97889520D01*
X146969101Y-98178270D01*
X146961722Y-98340767D01*
X146958703Y-98407260D01*
X146955792Y-98471355D01*
X145029978Y-98471355D01*
X145029869Y-98468461D01*
X145023263Y-98292507D01*
X145021999Y-98258842D01*
X145005094Y-98178270D01*
X144975752Y-98038428D01*
X144974657Y-98033209D01*
X144917911Y-97889520D01*
X144891935Y-97823744D01*
X144891934Y-97823742D01*
X144889974Y-97818779D01*
X144881086Y-97804131D01*
X144773140Y-97626243D01*
X144770373Y-97621683D01*
X144683020Y-97521017D01*
X144622773Y-97451588D01*
X144622771Y-97451586D01*
X144619273Y-97447555D01*
X144558651Y-97397848D01*
X144445123Y-97304760D01*
X144445117Y-97304756D01*
X144440995Y-97301376D01*
X144436359Y-97298737D01*
X144436356Y-97298735D01*
X144245279Y-97189968D01*
X144240636Y-97187325D01*
X144023925Y-97108663D01*
X144018676Y-97107714D01*
X144018673Y-97107713D01*
X143801142Y-97068377D01*
X143801135Y-97068376D01*
X143797058Y-97067639D01*
X143779336Y-97066803D01*
X143774394Y-97066570D01*
X143774387Y-97066570D01*
X143772906Y-97066500D01*
X143610860Y-97066500D01*
X143543941Y-97072178D01*
X143444341Y-97080629D01*
X143444337Y-97080630D01*
X143439030Y-97081080D01*
X143433875Y-97082418D01*
X143433869Y-97082419D01*
X143221047Y-97137657D01*
X143221043Y-97137658D01*
X143215878Y-97138999D01*
X143211012Y-97141191D01*
X143211009Y-97141192D01*
X143102730Y-97189968D01*
X143005675Y-97233688D01*
X142814431Y-97362441D01*
X142647615Y-97521576D01*
X142509996Y-97706542D01*
X142405510Y-97912051D01*
X142403928Y-97917145D01*
X142403927Y-97917148D01*
X142350088Y-98090537D01*
X142337143Y-98132227D01*
X142336442Y-98137516D01*
X142321054Y-98253623D01*
X142306852Y-98360774D01*
X141615500Y-98360774D01*
X141615500Y-94170604D01*
X153276537Y-94170604D01*
X153286317Y-94381899D01*
X153335875Y-94587534D01*
X153338357Y-94592992D01*
X153338358Y-94592996D01*
X153381803Y-94688546D01*
X153423424Y-94780087D01*
X153545804Y-94952611D01*
X153550131Y-94956753D01*
X153690629Y-95091250D01*
X153698600Y-95098881D01*
X153876298Y-95213620D01*
X153881864Y-95215863D01*
X154066918Y-95290442D01*
X154066921Y-95290443D01*
X154072487Y-95292686D01*
X154280087Y-95333228D01*
X154285649Y-95333500D01*
X154441596Y-95333500D01*
X154599316Y-95318452D01*
X154802284Y-95258908D01*
X154885861Y-95215863D01*
X154984999Y-95164804D01*
X154985002Y-95164802D01*
X154990330Y-95162058D01*
X155156670Y-95031396D01*
X155160602Y-95026865D01*
X155160605Y-95026862D01*
X155291371Y-94876167D01*
X155295302Y-94871637D01*
X155298302Y-94866451D01*
X155298305Y-94866447D01*
X155398217Y-94693742D01*
X155401223Y-94688546D01*
X155470611Y-94488729D01*
X155478474Y-94434501D01*
X155500102Y-94285336D01*
X155500102Y-94285333D01*
X155500963Y-94279396D01*
X155491183Y-94068101D01*
X155441625Y-93862466D01*
X155439125Y-93856966D01*
X155386834Y-93741959D01*
X155354076Y-93669913D01*
X155231696Y-93497389D01*
X155078900Y-93351119D01*
X154901202Y-93236380D01*
X154818405Y-93203012D01*
X154710582Y-93159558D01*
X154710579Y-93159557D01*
X154705013Y-93157314D01*
X154497413Y-93116772D01*
X154491851Y-93116500D01*
X154335904Y-93116500D01*
X154178184Y-93131548D01*
X153975216Y-93191092D01*
X153969889Y-93193836D01*
X153969888Y-93193836D01*
X153792501Y-93285196D01*
X153792498Y-93285198D01*
X153787170Y-93287942D01*
X153620830Y-93418604D01*
X153616898Y-93423135D01*
X153616895Y-93423138D01*
X153548224Y-93502275D01*
X153482198Y-93578363D01*
X153479198Y-93583549D01*
X153479195Y-93583553D01*
X153432062Y-93665026D01*
X153376277Y-93761454D01*
X153306889Y-93961271D01*
X153306028Y-93967206D01*
X153306028Y-93967208D01*
X153288942Y-94085052D01*
X153276537Y-94170604D01*
X141615500Y-94170604D01*
X141615500Y-84234500D01*
X141635502Y-84166379D01*
X141689158Y-84119886D01*
X141741500Y-84108500D01*
X143009762Y-84108500D01*
X143076718Y-84127763D01*
X143198976Y-84204456D01*
X143198980Y-84204458D01*
X143202616Y-84206739D01*
X143275293Y-84239554D01*
X143466937Y-84326085D01*
X143466941Y-84326087D01*
X143470849Y-84327851D01*
X143474968Y-84329071D01*
X143748924Y-84410221D01*
X143748929Y-84410222D01*
X143753037Y-84411439D01*
X143757271Y-84412087D01*
X143757276Y-84412088D01*
X144039717Y-84455307D01*
X144039719Y-84455307D01*
X144043959Y-84455956D01*
X144193772Y-84458310D01*
X144333940Y-84460512D01*
X144333946Y-84460512D01*
X144338231Y-84460579D01*
X144630408Y-84425222D01*
X144915082Y-84350539D01*
X145186988Y-84237912D01*
X145384462Y-84122517D01*
X145437389Y-84091589D01*
X145437390Y-84091588D01*
X145441092Y-84089425D01*
X145672694Y-83907827D01*
X145683778Y-83896390D01*
X145846446Y-83728528D01*
X145877506Y-83696476D01*
X146051741Y-83459285D01*
X146071703Y-83422520D01*
X146190122Y-83204418D01*
X146190123Y-83204416D01*
X146192172Y-83200642D01*
X146258355Y-83025495D01*
X146294685Y-82929351D01*
X146294686Y-82929347D01*
X146296203Y-82925333D01*
X146349698Y-82691762D01*
X146360949Y-82642637D01*
X146360950Y-82642633D01*
X146361907Y-82638453D01*
X146363092Y-82625183D01*
X146387849Y-82347776D01*
X146387849Y-82347774D01*
X146388069Y-82345310D01*
X146388544Y-82300000D01*
X146387244Y-82280929D01*
X146368819Y-82010650D01*
X146368818Y-82010644D01*
X146368527Y-82006373D01*
X146355198Y-81942007D01*
X146309714Y-81722377D01*
X146308845Y-81718180D01*
X146210603Y-81440753D01*
X146126915Y-81278611D01*
X146077583Y-81183033D01*
X146077583Y-81183032D01*
X146075618Y-81179226D01*
X146062585Y-81160681D01*
X145951554Y-81002701D01*
X145928749Y-80935466D01*
X145945914Y-80866576D01*
X145997599Y-80817902D01*
X146054641Y-80804250D01*
X147591683Y-80804250D01*
X147659804Y-80824252D01*
X147680778Y-80841155D01*
X148989070Y-82149448D01*
X149023096Y-82211760D01*
X149018031Y-82282576D01*
X148975484Y-82339411D01*
X148916422Y-82363465D01*
X148866216Y-82370075D01*
X148797360Y-82379140D01*
X148793220Y-82380273D01*
X148793218Y-82380273D01*
X148531091Y-82451983D01*
X148513483Y-82456800D01*
X148509533Y-82458485D01*
X148246714Y-82570586D01*
X148246707Y-82570590D01*
X148242772Y-82572268D01*
X148164126Y-82619337D01*
X147993918Y-82721204D01*
X147993914Y-82721207D01*
X147990236Y-82723408D01*
X147760549Y-82907422D01*
X147757605Y-82910524D01*
X147757601Y-82910528D01*
X147560911Y-83117796D01*
X147557961Y-83120905D01*
X147386220Y-83359908D01*
X147248504Y-83620007D01*
X147219642Y-83698876D01*
X147172479Y-83827756D01*
X147147362Y-83896390D01*
X147084666Y-84183943D01*
X147084330Y-84188213D01*
X147065637Y-84425737D01*
X147061575Y-84477344D01*
X147078516Y-84771164D01*
X147135177Y-85059966D01*
X147230509Y-85338407D01*
X147249005Y-85375183D01*
X147346877Y-85569779D01*
X147362747Y-85601334D01*
X147365173Y-85604863D01*
X147365176Y-85604869D01*
X147434331Y-85705489D01*
X147529445Y-85843881D01*
X147727518Y-86061560D01*
X147730807Y-86064310D01*
X147950009Y-86247592D01*
X147950014Y-86247596D01*
X147953301Y-86250344D01*
X147982289Y-86268528D01*
X148198976Y-86404456D01*
X148198980Y-86404458D01*
X148202616Y-86406739D01*
X148275293Y-86439554D01*
X148466937Y-86526085D01*
X148466941Y-86526087D01*
X148470849Y-86527851D01*
X148474968Y-86529071D01*
X148748924Y-86610221D01*
X148748929Y-86610222D01*
X148753037Y-86611439D01*
X148757271Y-86612087D01*
X148757276Y-86612088D01*
X149039717Y-86655307D01*
X149039719Y-86655307D01*
X149043959Y-86655956D01*
X149193772Y-86658310D01*
X149333940Y-86660512D01*
X149333946Y-86660512D01*
X149338231Y-86660579D01*
X149630408Y-86625222D01*
X149915082Y-86550539D01*
X150186988Y-86437912D01*
X150378995Y-86325712D01*
X150442565Y-86308500D01*
X153327577Y-86308500D01*
X153395698Y-86328502D01*
X153416672Y-86345405D01*
X153983500Y-86912233D01*
X153991076Y-86920559D01*
X153995197Y-86927053D01*
X154000972Y-86932476D01*
X154045015Y-86973835D01*
X154047857Y-86976590D01*
X154067656Y-86996389D01*
X154070787Y-86998818D01*
X154070792Y-86998822D01*
X154070878Y-86998889D01*
X154079903Y-87006597D01*
X154112244Y-87036967D01*
X154119189Y-87040785D01*
X154119193Y-87040788D01*
X154130084Y-87046776D01*
X154146605Y-87057628D01*
X154162684Y-87070100D01*
X154203405Y-87087721D01*
X154214061Y-87092942D01*
X154245995Y-87110498D01*
X154246001Y-87110500D01*
X154252947Y-87114319D01*
X154260622Y-87116290D01*
X154260628Y-87116292D01*
X154272661Y-87119381D01*
X154291363Y-87125784D01*
X154310042Y-87133867D01*
X154317868Y-87135107D01*
X154317873Y-87135108D01*
X154353870Y-87140810D01*
X154365490Y-87143216D01*
X154400787Y-87152278D01*
X154408468Y-87154250D01*
X154428816Y-87154250D01*
X154448528Y-87155801D01*
X154468630Y-87158985D01*
X154512805Y-87154809D01*
X154524664Y-87154250D01*
X156005162Y-87154250D01*
X156073283Y-87174252D01*
X156111769Y-87215542D01*
X156111885Y-87215455D01*
X156112690Y-87216530D01*
X156112693Y-87216534D01*
X156199239Y-87332011D01*
X156315795Y-87419365D01*
X156452184Y-87470495D01*
X156514366Y-87477250D01*
X157810634Y-87477250D01*
X157872816Y-87470495D01*
X158009205Y-87419365D01*
X158125761Y-87332011D01*
X158213115Y-87215455D01*
X158264245Y-87079066D01*
X158271000Y-87016884D01*
X158271000Y-86020616D01*
X158264245Y-85958434D01*
X158213115Y-85822045D01*
X158125761Y-85705489D01*
X158009205Y-85618135D01*
X157872816Y-85567005D01*
X157810634Y-85560250D01*
X156514366Y-85560250D01*
X156452184Y-85567005D01*
X156315795Y-85618135D01*
X156199239Y-85705489D01*
X156111885Y-85822045D01*
X156111601Y-85821832D01*
X156065420Y-85867907D01*
X156005162Y-85883250D01*
X154804173Y-85883250D01*
X154736052Y-85863248D01*
X154715078Y-85846345D01*
X154340405Y-85471672D01*
X154306379Y-85409360D01*
X154303500Y-85382577D01*
X154303500Y-83375656D01*
X154303238Y-83371112D01*
X154300652Y-83359908D01*
X154279657Y-83268970D01*
X154264454Y-83203119D01*
X154189414Y-83047893D01*
X154185022Y-83042391D01*
X154185020Y-83042388D01*
X154086239Y-82918648D01*
X154081850Y-82913150D01*
X154035294Y-82875985D01*
X153952612Y-82809980D01*
X153952609Y-82809978D01*
X153947107Y-82805586D01*
X153791881Y-82730546D01*
X153718099Y-82713512D01*
X153629087Y-82692962D01*
X153629084Y-82692962D01*
X153623888Y-82691762D01*
X153619344Y-82691500D01*
X150440508Y-82691500D01*
X150374673Y-82672933D01*
X150325235Y-82642637D01*
X150296752Y-82625183D01*
X150249121Y-82572535D01*
X150237514Y-82502494D01*
X150265617Y-82437296D01*
X150324507Y-82397642D01*
X150362587Y-82391750D01*
X154465828Y-82391750D01*
X154533949Y-82411752D01*
X154554923Y-82428655D01*
X155738495Y-83612227D01*
X155746072Y-83620553D01*
X155750197Y-83627053D01*
X155755975Y-83632479D01*
X155755976Y-83632480D01*
X155800031Y-83673850D01*
X155802873Y-83676605D01*
X155822656Y-83696388D01*
X155825864Y-83698876D01*
X155834893Y-83706587D01*
X155867244Y-83736967D01*
X155874193Y-83740787D01*
X155885079Y-83746772D01*
X155901603Y-83757626D01*
X155917683Y-83770099D01*
X155924960Y-83773248D01*
X155958400Y-83787719D01*
X155969061Y-83792942D01*
X156000997Y-83810499D01*
X156001002Y-83810501D01*
X156007947Y-83814319D01*
X156015626Y-83816290D01*
X156015627Y-83816291D01*
X156017405Y-83816748D01*
X156018646Y-83817487D01*
X156022996Y-83819209D01*
X156022718Y-83819911D01*
X156078411Y-83853063D01*
X156104050Y-83894557D01*
X156106309Y-83900582D01*
X156111885Y-83915455D01*
X156199239Y-84032011D01*
X156315795Y-84119365D01*
X156452184Y-84170495D01*
X156514366Y-84177250D01*
X157810634Y-84177250D01*
X157872816Y-84170495D01*
X158009205Y-84119365D01*
X158125761Y-84032011D01*
X158213115Y-83915455D01*
X158264245Y-83779066D01*
X158271000Y-83716884D01*
X158271000Y-82720616D01*
X158264245Y-82658434D01*
X158213115Y-82522045D01*
X158125761Y-82405489D01*
X158009205Y-82318135D01*
X157872816Y-82267005D01*
X157810634Y-82260250D01*
X156514366Y-82260250D01*
X156452184Y-82267005D01*
X156337986Y-82309816D01*
X156267180Y-82314999D01*
X156204662Y-82280929D01*
X155286500Y-81362767D01*
X155278924Y-81354441D01*
X155274803Y-81347947D01*
X155224984Y-81301164D01*
X155222143Y-81298410D01*
X155202344Y-81278611D01*
X155199219Y-81276187D01*
X155199210Y-81276179D01*
X155199124Y-81276113D01*
X155190099Y-81268405D01*
X155174468Y-81253727D01*
X155157756Y-81238033D01*
X155139919Y-81228227D01*
X155123403Y-81217377D01*
X155107317Y-81204900D01*
X155066584Y-81187274D01*
X155055936Y-81182057D01*
X155044308Y-81175665D01*
X155017053Y-81160681D01*
X155009378Y-81158710D01*
X155009372Y-81158708D01*
X154997339Y-81155619D01*
X154978637Y-81149216D01*
X154959958Y-81141133D01*
X154926122Y-81135774D01*
X154916123Y-81134190D01*
X154904510Y-81131785D01*
X154861532Y-81120750D01*
X154841185Y-81120750D01*
X154821474Y-81119199D01*
X154809200Y-81117255D01*
X154801371Y-81116015D01*
X154793479Y-81116761D01*
X154757194Y-81120191D01*
X154745336Y-81120750D01*
X149810028Y-81120750D01*
X149741907Y-81100748D01*
X149720933Y-81083845D01*
X149570180Y-80933092D01*
X149536154Y-80870780D01*
X149541219Y-80799965D01*
X149583766Y-80743129D01*
X149634370Y-80720483D01*
X149801244Y-80686835D01*
X149801243Y-80686835D01*
X149805341Y-80686009D01*
X150082744Y-80590492D01*
X150086486Y-80588618D01*
X150086491Y-80588616D01*
X150341333Y-80461000D01*
X150341335Y-80460999D01*
X150345077Y-80459125D01*
X150446494Y-80390202D01*
X150584273Y-80296568D01*
X150584276Y-80296566D01*
X150587732Y-80294217D01*
X150667080Y-80223272D01*
X150803328Y-80101452D01*
X150803329Y-80101451D01*
X150806445Y-80098665D01*
X150997373Y-79875905D01*
X151073127Y-79759254D01*
X151154884Y-79633360D01*
X151154887Y-79633355D01*
X151157163Y-79629850D01*
X151197901Y-79544057D01*
X151228598Y-79479409D01*
X151283007Y-79364823D01*
X151285408Y-79357347D01*
X151371416Y-79089460D01*
X151372694Y-79085480D01*
X151424649Y-78796730D01*
X151433179Y-78608895D01*
X151437769Y-78507815D01*
X151437769Y-78507810D01*
X151437958Y-78503645D01*
X151436395Y-78485774D01*
X153363102Y-78485774D01*
X153363302Y-78491103D01*
X153363302Y-78491105D01*
X153365345Y-78545534D01*
X153371751Y-78716158D01*
X153372846Y-78721377D01*
X153389518Y-78800835D01*
X153419093Y-78941791D01*
X153421051Y-78946750D01*
X153421052Y-78946752D01*
X153495859Y-79136173D01*
X153503776Y-79156221D01*
X153506543Y-79160780D01*
X153506544Y-79160783D01*
X153527005Y-79194501D01*
X153623377Y-79353317D01*
X153626874Y-79357347D01*
X153770772Y-79523175D01*
X153774477Y-79527445D01*
X153799940Y-79548323D01*
X153948627Y-79670240D01*
X153948633Y-79670244D01*
X153952755Y-79673624D01*
X153957391Y-79676263D01*
X153957394Y-79676265D01*
X154088734Y-79751028D01*
X154153114Y-79787675D01*
X154369825Y-79866337D01*
X154375074Y-79867286D01*
X154375077Y-79867287D01*
X154592608Y-79906623D01*
X154592615Y-79906624D01*
X154596692Y-79907361D01*
X154614414Y-79908197D01*
X154619356Y-79908430D01*
X154619363Y-79908430D01*
X154620844Y-79908500D01*
X154782890Y-79908500D01*
X154849809Y-79902822D01*
X154949409Y-79894371D01*
X154949413Y-79894370D01*
X154954720Y-79893920D01*
X154959875Y-79892582D01*
X154959881Y-79892581D01*
X155172703Y-79837343D01*
X155172707Y-79837342D01*
X155177872Y-79836001D01*
X155182738Y-79833809D01*
X155182741Y-79833808D01*
X155366506Y-79751028D01*
X155388075Y-79741312D01*
X155579319Y-79612559D01*
X155587756Y-79604511D01*
X155661140Y-79534505D01*
X155746135Y-79453424D01*
X155883754Y-79268458D01*
X155918693Y-79199739D01*
X155974761Y-79089460D01*
X155988240Y-79062949D01*
X156005629Y-79006950D01*
X156055024Y-78847871D01*
X156056607Y-78842773D01*
X156062165Y-78800835D01*
X156086198Y-78619511D01*
X156086198Y-78619506D01*
X156086898Y-78614226D01*
X156078249Y-78383842D01*
X156061344Y-78303270D01*
X156032002Y-78163428D01*
X156030907Y-78158209D01*
X156028948Y-78153248D01*
X155948185Y-77948744D01*
X155948184Y-77948742D01*
X155946224Y-77943779D01*
X155937336Y-77929131D01*
X155831781Y-77755183D01*
X155826623Y-77746683D01*
X155771598Y-77683272D01*
X155679023Y-77576588D01*
X155679021Y-77576586D01*
X155675523Y-77572555D01*
X155628220Y-77533769D01*
X155501373Y-77429760D01*
X155501367Y-77429756D01*
X155497245Y-77426376D01*
X155492609Y-77423737D01*
X155492606Y-77423735D01*
X155301529Y-77314968D01*
X155296886Y-77312325D01*
X155080175Y-77233663D01*
X155074926Y-77232714D01*
X155074923Y-77232713D01*
X154857392Y-77193377D01*
X154857385Y-77193376D01*
X154853308Y-77192639D01*
X154835586Y-77191803D01*
X154830644Y-77191570D01*
X154830637Y-77191570D01*
X154829156Y-77191500D01*
X154667110Y-77191500D01*
X154600191Y-77197178D01*
X154500591Y-77205629D01*
X154500587Y-77205630D01*
X154495280Y-77206080D01*
X154490125Y-77207418D01*
X154490119Y-77207419D01*
X154277297Y-77262657D01*
X154277293Y-77262658D01*
X154272128Y-77263999D01*
X154267262Y-77266191D01*
X154267259Y-77266192D01*
X154164721Y-77312382D01*
X154061925Y-77358688D01*
X153870681Y-77487441D01*
X153703865Y-77646576D01*
X153566246Y-77831542D01*
X153461760Y-78037051D01*
X153460178Y-78042145D01*
X153460177Y-78042148D01*
X153406338Y-78215537D01*
X153393393Y-78257227D01*
X153392692Y-78262516D01*
X153367698Y-78451099D01*
X153363102Y-78485774D01*
X151436395Y-78485774D01*
X151412751Y-78215537D01*
X151412387Y-78211375D01*
X151399909Y-78155550D01*
X151349299Y-77929131D01*
X151349297Y-77929124D01*
X151348387Y-77925053D01*
X151247081Y-77649712D01*
X151131114Y-77429760D01*
X151112202Y-77393891D01*
X151112201Y-77393890D01*
X151110249Y-77390187D01*
X150940295Y-77151039D01*
X150740206Y-76936469D01*
X150513496Y-76750248D01*
X150264149Y-76595646D01*
X150260332Y-76593930D01*
X150260329Y-76593929D01*
X150186291Y-76560655D01*
X149996544Y-76475380D01*
X149908594Y-76449161D01*
X149719382Y-76392753D01*
X149719374Y-76392751D01*
X149715385Y-76391562D01*
X149711269Y-76390910D01*
X149711264Y-76390909D01*
X149429078Y-76346216D01*
X149429073Y-76346216D01*
X149425610Y-76345667D01*
X149376514Y-76343437D01*
X149335268Y-76341564D01*
X149335249Y-76341564D01*
X149333849Y-76341500D01*
X149150580Y-76341500D01*
X148932258Y-76356001D01*
X148644659Y-76413991D01*
X148367256Y-76509508D01*
X148363514Y-76511382D01*
X148363509Y-76511384D01*
X148188467Y-76599039D01*
X148104923Y-76640875D01*
X147862268Y-76805783D01*
X147643555Y-77001335D01*
X147452627Y-77224095D01*
X147445231Y-77235484D01*
X147319067Y-77429760D01*
X147292837Y-77470150D01*
X147166993Y-77735177D01*
X147165714Y-77739160D01*
X147165713Y-77739163D01*
X147157265Y-77765475D01*
X147077306Y-78014520D01*
X147025351Y-78303270D01*
X147020562Y-78408741D01*
X147012683Y-78582249D01*
X147012042Y-78596355D01*
X147012405Y-78600503D01*
X147012405Y-78600507D01*
X147022311Y-78713727D01*
X147037613Y-78888625D01*
X147038523Y-78892697D01*
X147038524Y-78892702D01*
X147093587Y-79139039D01*
X147101613Y-79174947D01*
X147103057Y-79178870D01*
X147103057Y-79178872D01*
X147171076Y-79363742D01*
X147175826Y-79434580D01*
X147141525Y-79496740D01*
X147079062Y-79530488D01*
X147052826Y-79533250D01*
X144937539Y-79533250D01*
X144869418Y-79513248D01*
X144822925Y-79459592D01*
X144812821Y-79389318D01*
X144836450Y-79332037D01*
X144880568Y-79272740D01*
X144883754Y-79268458D01*
X144918693Y-79199739D01*
X144974761Y-79089460D01*
X144988240Y-79062949D01*
X145005629Y-79006950D01*
X145055024Y-78847871D01*
X145056607Y-78842773D01*
X145062165Y-78800835D01*
X145086198Y-78619511D01*
X145086198Y-78619506D01*
X145086898Y-78614226D01*
X145078249Y-78383842D01*
X145061344Y-78303270D01*
X145032002Y-78163428D01*
X145030907Y-78158209D01*
X145028948Y-78153248D01*
X144948185Y-77948744D01*
X144948184Y-77948742D01*
X144946224Y-77943779D01*
X144937336Y-77929131D01*
X144831781Y-77755183D01*
X144826623Y-77746683D01*
X144771598Y-77683272D01*
X144679023Y-77576588D01*
X144679021Y-77576586D01*
X144675523Y-77572555D01*
X144628220Y-77533769D01*
X144501373Y-77429760D01*
X144501367Y-77429756D01*
X144497245Y-77426376D01*
X144492609Y-77423737D01*
X144492606Y-77423735D01*
X144301529Y-77314968D01*
X144296886Y-77312325D01*
X144080175Y-77233663D01*
X144074926Y-77232714D01*
X144074923Y-77232713D01*
X143857392Y-77193377D01*
X143857385Y-77193376D01*
X143853308Y-77192639D01*
X143835586Y-77191803D01*
X143830644Y-77191570D01*
X143830637Y-77191570D01*
X143829156Y-77191500D01*
X143667110Y-77191500D01*
X143600191Y-77197178D01*
X143500591Y-77205629D01*
X143500587Y-77205630D01*
X143495280Y-77206080D01*
X143490125Y-77207418D01*
X143490119Y-77207419D01*
X143277297Y-77262657D01*
X143277293Y-77262658D01*
X143272128Y-77263999D01*
X143267262Y-77266191D01*
X143267259Y-77266192D01*
X143164721Y-77312382D01*
X143061925Y-77358688D01*
X142870681Y-77487441D01*
X142703865Y-77646576D01*
X142566246Y-77831542D01*
X142461760Y-78037051D01*
X142460178Y-78042145D01*
X142460177Y-78042148D01*
X142406338Y-78215537D01*
X142393393Y-78257227D01*
X142392692Y-78262516D01*
X142367698Y-78451099D01*
X142363102Y-78485774D01*
X142363302Y-78491103D01*
X142363302Y-78491105D01*
X142365345Y-78545534D01*
X142371751Y-78716158D01*
X142372846Y-78721377D01*
X142389518Y-78800835D01*
X142419093Y-78941791D01*
X142421051Y-78946750D01*
X142421052Y-78946752D01*
X142495859Y-79136173D01*
X142503776Y-79156221D01*
X142506543Y-79160781D01*
X142506547Y-79160789D01*
X142616439Y-79341885D01*
X142634678Y-79410498D01*
X142612927Y-79478081D01*
X142558090Y-79523175D01*
X142508720Y-79533250D01*
X139743770Y-79533250D01*
X139732536Y-79532720D01*
X139725031Y-79531042D01*
X139657321Y-79533170D01*
X139656738Y-79533188D01*
X139652781Y-79533250D01*
X139624767Y-79533250D01*
X139620842Y-79533746D01*
X139620841Y-79533746D01*
X139620746Y-79533758D01*
X139608901Y-79534691D01*
X139579080Y-79535628D01*
X139572468Y-79535836D01*
X139572467Y-79535836D01*
X139564545Y-79536085D01*
X139545002Y-79541763D01*
X139525638Y-79545773D01*
X139513310Y-79547330D01*
X139513308Y-79547330D01*
X139505451Y-79548323D01*
X139498087Y-79551239D01*
X139498082Y-79551240D01*
X139464194Y-79564657D01*
X139452965Y-79568502D01*
X139438134Y-79572811D01*
X139410357Y-79580881D01*
X139403530Y-79584919D01*
X139403527Y-79584920D01*
X139392844Y-79591238D01*
X139375086Y-79599938D01*
X139363535Y-79604511D01*
X139363529Y-79604515D01*
X139356162Y-79607431D01*
X139349751Y-79612089D01*
X139349749Y-79612090D01*
X139320262Y-79633514D01*
X139310340Y-79640031D01*
X139278982Y-79658576D01*
X139278978Y-79658579D01*
X139272152Y-79662616D01*
X139257768Y-79677000D01*
X139242734Y-79689841D01*
X139226263Y-79701808D01*
X139221210Y-79707916D01*
X139197973Y-79736005D01*
X139189983Y-79744785D01*
X137011283Y-81923484D01*
X136948971Y-81957510D01*
X136886328Y-81952396D01*
X136885806Y-81954431D01*
X136866089Y-81949369D01*
X136847387Y-81942966D01*
X136828708Y-81934883D01*
X136794872Y-81929524D01*
X136784873Y-81927940D01*
X136773260Y-81925535D01*
X136730282Y-81914500D01*
X136709935Y-81914500D01*
X136690224Y-81912949D01*
X136677950Y-81911005D01*
X136670121Y-81909765D01*
X136662229Y-81910511D01*
X136625944Y-81913941D01*
X136614086Y-81914500D01*
X130760027Y-81914500D01*
X130691906Y-81894498D01*
X130670936Y-81877599D01*
X129726428Y-80933090D01*
X129692404Y-80870780D01*
X129697469Y-80799964D01*
X129740016Y-80743129D01*
X129790620Y-80720483D01*
X129957494Y-80686835D01*
X129957493Y-80686835D01*
X129961591Y-80686009D01*
X130238994Y-80590492D01*
X130242736Y-80588618D01*
X130242741Y-80588616D01*
X130497583Y-80461000D01*
X130497585Y-80460999D01*
X130501327Y-80459125D01*
X130602744Y-80390202D01*
X130740523Y-80296568D01*
X130740526Y-80296566D01*
X130743982Y-80294217D01*
X130823330Y-80223272D01*
X130959578Y-80101452D01*
X130959579Y-80101451D01*
X130962695Y-80098665D01*
X131153623Y-79875905D01*
X131229377Y-79759254D01*
X131311134Y-79633360D01*
X131311137Y-79633355D01*
X131313413Y-79629850D01*
X131354151Y-79544057D01*
X131384848Y-79479409D01*
X131439257Y-79364823D01*
X131441658Y-79357347D01*
X131527666Y-79089460D01*
X131528944Y-79085480D01*
X131580899Y-78796730D01*
X131589429Y-78608895D01*
X131594019Y-78507815D01*
X131594019Y-78507810D01*
X131594208Y-78503645D01*
X131592645Y-78485774D01*
X133519352Y-78485774D01*
X133519552Y-78491103D01*
X133519552Y-78491105D01*
X133521595Y-78545534D01*
X133528001Y-78716158D01*
X133529096Y-78721377D01*
X133545768Y-78800835D01*
X133575343Y-78941791D01*
X133577301Y-78946750D01*
X133577302Y-78946752D01*
X133652109Y-79136173D01*
X133660026Y-79156221D01*
X133662793Y-79160780D01*
X133662794Y-79160783D01*
X133683255Y-79194501D01*
X133779627Y-79353317D01*
X133783124Y-79357347D01*
X133927022Y-79523175D01*
X133930727Y-79527445D01*
X133956190Y-79548323D01*
X134104877Y-79670240D01*
X134104883Y-79670244D01*
X134109005Y-79673624D01*
X134113641Y-79676263D01*
X134113644Y-79676265D01*
X134244984Y-79751028D01*
X134309364Y-79787675D01*
X134526075Y-79866337D01*
X134531324Y-79867286D01*
X134531327Y-79867287D01*
X134748858Y-79906623D01*
X134748865Y-79906624D01*
X134752942Y-79907361D01*
X134770664Y-79908197D01*
X134775606Y-79908430D01*
X134775613Y-79908430D01*
X134777094Y-79908500D01*
X134939140Y-79908500D01*
X135006059Y-79902822D01*
X135105659Y-79894371D01*
X135105663Y-79894370D01*
X135110970Y-79893920D01*
X135116125Y-79892582D01*
X135116131Y-79892581D01*
X135328953Y-79837343D01*
X135328957Y-79837342D01*
X135334122Y-79836001D01*
X135338988Y-79833809D01*
X135338991Y-79833808D01*
X135522756Y-79751028D01*
X135544325Y-79741312D01*
X135735569Y-79612559D01*
X135744006Y-79604511D01*
X135817390Y-79534505D01*
X135902385Y-79453424D01*
X136040004Y-79268458D01*
X136074943Y-79199739D01*
X136131011Y-79089460D01*
X136144490Y-79062949D01*
X136161879Y-79006950D01*
X136211274Y-78847871D01*
X136212857Y-78842773D01*
X136218415Y-78800835D01*
X136242448Y-78619511D01*
X136242448Y-78619506D01*
X136243148Y-78614226D01*
X136234499Y-78383842D01*
X136217594Y-78303270D01*
X136188252Y-78163428D01*
X136187157Y-78158209D01*
X136185198Y-78153248D01*
X136104435Y-77948744D01*
X136104434Y-77948742D01*
X136102474Y-77943779D01*
X136093586Y-77929131D01*
X135988031Y-77755183D01*
X135982873Y-77746683D01*
X135927848Y-77683272D01*
X135835273Y-77576588D01*
X135835271Y-77576586D01*
X135831773Y-77572555D01*
X135784470Y-77533769D01*
X135657623Y-77429760D01*
X135657617Y-77429756D01*
X135653495Y-77426376D01*
X135648859Y-77423737D01*
X135648856Y-77423735D01*
X135457779Y-77314968D01*
X135453136Y-77312325D01*
X135236425Y-77233663D01*
X135231176Y-77232714D01*
X135231173Y-77232713D01*
X135013642Y-77193377D01*
X135013635Y-77193376D01*
X135009558Y-77192639D01*
X134991836Y-77191803D01*
X134986894Y-77191570D01*
X134986887Y-77191570D01*
X134985406Y-77191500D01*
X134823360Y-77191500D01*
X134756441Y-77197178D01*
X134656841Y-77205629D01*
X134656837Y-77205630D01*
X134651530Y-77206080D01*
X134646375Y-77207418D01*
X134646369Y-77207419D01*
X134433547Y-77262657D01*
X134433543Y-77262658D01*
X134428378Y-77263999D01*
X134423512Y-77266191D01*
X134423509Y-77266192D01*
X134320971Y-77312382D01*
X134218175Y-77358688D01*
X134026931Y-77487441D01*
X133860115Y-77646576D01*
X133722496Y-77831542D01*
X133618010Y-78037051D01*
X133616428Y-78042145D01*
X133616427Y-78042148D01*
X133562588Y-78215537D01*
X133549643Y-78257227D01*
X133548942Y-78262516D01*
X133523948Y-78451099D01*
X133519352Y-78485774D01*
X131592645Y-78485774D01*
X131569001Y-78215537D01*
X131568637Y-78211375D01*
X131556159Y-78155550D01*
X131505549Y-77929131D01*
X131505547Y-77929124D01*
X131504637Y-77925053D01*
X131403331Y-77649712D01*
X131287364Y-77429760D01*
X131268452Y-77393891D01*
X131268451Y-77393890D01*
X131266499Y-77390187D01*
X131096545Y-77151039D01*
X130896456Y-76936469D01*
X130669746Y-76750248D01*
X130420399Y-76595646D01*
X130416582Y-76593930D01*
X130416579Y-76593929D01*
X130342541Y-76560655D01*
X130152794Y-76475380D01*
X130064844Y-76449161D01*
X129875632Y-76392753D01*
X129875624Y-76392751D01*
X129871635Y-76391562D01*
X129867519Y-76390910D01*
X129867514Y-76390909D01*
X129585328Y-76346216D01*
X129585323Y-76346216D01*
X129581860Y-76345667D01*
X129532764Y-76343437D01*
X129491518Y-76341564D01*
X129491499Y-76341564D01*
X129490099Y-76341500D01*
X129306830Y-76341500D01*
X129088508Y-76356001D01*
X128800909Y-76413991D01*
X128523506Y-76509508D01*
X128519764Y-76511382D01*
X128519759Y-76511384D01*
X128344717Y-76599039D01*
X128261173Y-76640875D01*
X128018518Y-76805783D01*
X127799805Y-77001335D01*
X127608877Y-77224095D01*
X127601481Y-77235484D01*
X127475317Y-77429760D01*
X127449087Y-77470150D01*
X127323243Y-77735177D01*
X127321964Y-77739160D01*
X127321963Y-77739163D01*
X127313515Y-77765475D01*
X127233556Y-78014520D01*
X127181601Y-78303270D01*
X127176812Y-78408741D01*
X127168933Y-78582249D01*
X127168292Y-78596355D01*
X127168655Y-78600503D01*
X127168655Y-78600507D01*
X127178561Y-78713727D01*
X127193863Y-78888625D01*
X127194773Y-78892697D01*
X127194774Y-78892702D01*
X127249837Y-79139039D01*
X127257863Y-79174947D01*
X127359169Y-79450288D01*
X127361116Y-79453981D01*
X127361117Y-79453983D01*
X127387079Y-79503224D01*
X127401156Y-79572811D01*
X127375377Y-79638962D01*
X127317927Y-79680675D01*
X127275622Y-79687989D01*
X124971122Y-79687989D01*
X124903001Y-79667987D01*
X124856508Y-79614331D01*
X124846404Y-79544057D01*
X124875898Y-79479477D01*
X124884151Y-79470818D01*
X124898529Y-79457102D01*
X124902385Y-79453424D01*
X125040004Y-79268458D01*
X125074943Y-79199739D01*
X125131011Y-79089460D01*
X125144490Y-79062949D01*
X125161879Y-79006950D01*
X125211274Y-78847871D01*
X125212857Y-78842773D01*
X125218415Y-78800835D01*
X125242448Y-78619511D01*
X125242448Y-78619506D01*
X125243148Y-78614226D01*
X125234499Y-78383842D01*
X125217594Y-78303270D01*
X125188252Y-78163428D01*
X125187157Y-78158209D01*
X125185198Y-78153248D01*
X125104435Y-77948744D01*
X125104434Y-77948742D01*
X125102474Y-77943779D01*
X125093586Y-77929131D01*
X124988031Y-77755183D01*
X124982873Y-77746683D01*
X124927848Y-77683272D01*
X124835273Y-77576588D01*
X124835271Y-77576586D01*
X124831773Y-77572555D01*
X124784470Y-77533769D01*
X124657623Y-77429760D01*
X124657617Y-77429756D01*
X124653495Y-77426376D01*
X124648859Y-77423737D01*
X124648856Y-77423735D01*
X124457779Y-77314968D01*
X124453136Y-77312325D01*
X124236425Y-77233663D01*
X124231176Y-77232714D01*
X124231173Y-77232713D01*
X124013642Y-77193377D01*
X124013635Y-77193376D01*
X124009558Y-77192639D01*
X123991836Y-77191803D01*
X123986894Y-77191570D01*
X123986887Y-77191570D01*
X123985406Y-77191500D01*
X123823360Y-77191500D01*
X123756441Y-77197178D01*
X123656841Y-77205629D01*
X123656837Y-77205630D01*
X123651530Y-77206080D01*
X123646375Y-77207418D01*
X123646369Y-77207419D01*
X123433547Y-77262657D01*
X123433543Y-77262658D01*
X123428378Y-77263999D01*
X123423512Y-77266191D01*
X123423509Y-77266192D01*
X123320971Y-77312382D01*
X123218175Y-77358688D01*
X123026931Y-77487441D01*
X122860115Y-77646576D01*
X122722496Y-77831542D01*
X122618010Y-78037051D01*
X122616428Y-78042145D01*
X122616427Y-78042148D01*
X122562588Y-78215537D01*
X122549643Y-78257227D01*
X122548942Y-78262516D01*
X122523948Y-78451099D01*
X122519352Y-78485774D01*
X122519552Y-78491103D01*
X122519552Y-78491105D01*
X122521595Y-78545534D01*
X122528001Y-78716158D01*
X122529096Y-78721377D01*
X122545768Y-78800835D01*
X122575343Y-78941791D01*
X122577301Y-78946750D01*
X122577302Y-78946752D01*
X122652109Y-79136173D01*
X122660026Y-79156221D01*
X122662793Y-79160780D01*
X122662794Y-79160783D01*
X122683255Y-79194501D01*
X122779627Y-79353317D01*
X122887892Y-79478081D01*
X122889044Y-79479409D01*
X122918583Y-79543968D01*
X122908529Y-79614249D01*
X122862074Y-79667938D01*
X122793878Y-79687989D01*
X120257329Y-79687989D01*
X120246090Y-79687459D01*
X120238578Y-79685780D01*
X120230653Y-79686029D01*
X120230652Y-79686029D01*
X120170267Y-79687927D01*
X120166309Y-79687989D01*
X120138314Y-79687989D01*
X120134380Y-79688486D01*
X120134378Y-79688486D01*
X120134291Y-79688497D01*
X120122457Y-79689429D01*
X120078092Y-79690824D01*
X120070479Y-79693036D01*
X120070478Y-79693036D01*
X120058549Y-79696502D01*
X120039185Y-79700512D01*
X120026857Y-79702069D01*
X120026855Y-79702069D01*
X120018998Y-79703062D01*
X120011634Y-79705978D01*
X120011629Y-79705979D01*
X119977741Y-79719396D01*
X119966512Y-79723241D01*
X119952538Y-79727301D01*
X119923904Y-79735620D01*
X119917078Y-79739657D01*
X119906388Y-79745979D01*
X119888638Y-79754676D01*
X119869709Y-79762170D01*
X119863295Y-79766830D01*
X119833811Y-79788251D01*
X119823891Y-79794767D01*
X119792526Y-79813316D01*
X119792523Y-79813318D01*
X119785699Y-79817354D01*
X119771311Y-79831742D01*
X119756277Y-79844583D01*
X119739810Y-79856547D01*
X119734757Y-79862655D01*
X119711525Y-79890738D01*
X119703535Y-79899518D01*
X117884208Y-81718845D01*
X117821896Y-81752871D01*
X117795113Y-81755750D01*
X117581743Y-81755750D01*
X117513622Y-81735748D01*
X117478530Y-81702021D01*
X117373107Y-81551461D01*
X117373105Y-81551458D01*
X117369948Y-81546950D01*
X117208050Y-81385052D01*
X117203542Y-81381895D01*
X117203539Y-81381893D01*
X117086332Y-81299824D01*
X117020499Y-81253727D01*
X117015517Y-81251404D01*
X117015512Y-81251401D01*
X116981293Y-81235445D01*
X116928008Y-81188528D01*
X116908547Y-81120251D01*
X116929089Y-81052291D01*
X116981293Y-81007055D01*
X117015512Y-80991099D01*
X117015517Y-80991096D01*
X117020499Y-80988773D01*
X117195014Y-80866576D01*
X117203539Y-80860607D01*
X117203542Y-80860605D01*
X117208050Y-80857448D01*
X117369948Y-80695550D01*
X117376051Y-80686835D01*
X117498116Y-80512507D01*
X117501273Y-80507999D01*
X117503596Y-80503017D01*
X117503599Y-80503012D01*
X117595711Y-80305475D01*
X117595711Y-80305474D01*
X117598034Y-80300493D01*
X117618726Y-80223272D01*
X117655869Y-80084652D01*
X117655869Y-80084650D01*
X117657293Y-80079337D01*
X117677248Y-79851250D01*
X117657293Y-79623163D01*
X117655250Y-79615539D01*
X117599457Y-79407317D01*
X117599456Y-79407315D01*
X117598034Y-79402007D01*
X117592117Y-79389318D01*
X117503599Y-79199488D01*
X117503596Y-79199483D01*
X117501273Y-79194501D01*
X117369948Y-79006950D01*
X117208050Y-78845052D01*
X117203542Y-78841895D01*
X117203539Y-78841893D01*
X117077670Y-78753759D01*
X117020499Y-78713727D01*
X117015517Y-78711404D01*
X117015512Y-78711401D01*
X116981293Y-78695445D01*
X116928008Y-78648528D01*
X116908547Y-78580251D01*
X116929089Y-78512291D01*
X116981293Y-78467055D01*
X117015512Y-78451099D01*
X117015517Y-78451096D01*
X117020499Y-78448773D01*
X117125361Y-78375348D01*
X117203539Y-78320607D01*
X117203542Y-78320605D01*
X117208050Y-78317448D01*
X117369948Y-78155550D01*
X117501273Y-77967999D01*
X117503596Y-77963017D01*
X117503599Y-77963012D01*
X117595711Y-77765475D01*
X117595711Y-77765474D01*
X117598034Y-77760493D01*
X117601735Y-77746683D01*
X117655869Y-77544652D01*
X117655869Y-77544650D01*
X117657293Y-77539337D01*
X117677248Y-77311250D01*
X117657293Y-77083163D01*
X117655869Y-77077848D01*
X117599457Y-76867317D01*
X117599456Y-76867315D01*
X117598034Y-76862007D01*
X117573116Y-76808569D01*
X117503599Y-76659488D01*
X117503596Y-76659483D01*
X117501273Y-76654501D01*
X117398792Y-76508143D01*
X117373107Y-76471461D01*
X117373105Y-76471458D01*
X117369948Y-76466950D01*
X117208050Y-76305052D01*
X117203542Y-76301895D01*
X117203539Y-76301893D01*
X117077670Y-76213759D01*
X117020499Y-76173727D01*
X117015517Y-76171404D01*
X117015512Y-76171401D01*
X116980701Y-76155169D01*
X116927416Y-76108252D01*
X116907955Y-76039975D01*
X116928497Y-75972015D01*
X116980701Y-75926779D01*
X117015261Y-75910664D01*
X117024756Y-75905181D01*
X117076798Y-75868741D01*
X117085174Y-75858262D01*
X117078106Y-75844816D01*
X116376562Y-75143272D01*
X116362618Y-75135658D01*
X116360785Y-75135789D01*
X116354170Y-75140040D01*
X115648673Y-75845537D01*
X115642243Y-75857312D01*
X115651539Y-75869327D01*
X115702744Y-75905181D01*
X115712239Y-75910664D01*
X115746799Y-75926779D01*
X115800084Y-75973696D01*
X115819545Y-76041973D01*
X115799003Y-76109933D01*
X115746799Y-76155169D01*
X115711988Y-76171401D01*
X115711983Y-76171404D01*
X115707001Y-76173727D01*
X115649830Y-76213759D01*
X115523961Y-76301893D01*
X115523958Y-76301895D01*
X115519450Y-76305052D01*
X115357552Y-76466950D01*
X115354395Y-76471458D01*
X115354393Y-76471461D01*
X115328708Y-76508143D01*
X115226227Y-76654501D01*
X115223904Y-76659483D01*
X115223901Y-76659488D01*
X115154384Y-76808569D01*
X115129466Y-76862007D01*
X115128044Y-76867315D01*
X115128043Y-76867317D01*
X115071631Y-77077848D01*
X115070207Y-77083163D01*
X115050252Y-77311250D01*
X115070207Y-77539337D01*
X115071631Y-77544650D01*
X115071631Y-77544652D01*
X115125766Y-77746683D01*
X115129466Y-77760493D01*
X115131789Y-77765474D01*
X115131789Y-77765475D01*
X115223901Y-77963012D01*
X115223904Y-77963017D01*
X115226227Y-77967999D01*
X115357552Y-78155550D01*
X115519450Y-78317448D01*
X115523958Y-78320605D01*
X115523961Y-78320607D01*
X115602139Y-78375348D01*
X115707001Y-78448773D01*
X115711983Y-78451096D01*
X115711988Y-78451099D01*
X115746207Y-78467055D01*
X115799492Y-78513972D01*
X115818953Y-78582249D01*
X115798411Y-78650209D01*
X115746207Y-78695445D01*
X115711988Y-78711401D01*
X115711983Y-78711404D01*
X115707001Y-78713727D01*
X115649830Y-78753759D01*
X115523961Y-78841893D01*
X115523958Y-78841895D01*
X115519450Y-78845052D01*
X115357552Y-79006950D01*
X115226227Y-79194501D01*
X115223904Y-79199483D01*
X115223901Y-79199488D01*
X115135383Y-79389318D01*
X115129466Y-79402007D01*
X115128044Y-79407315D01*
X115128043Y-79407317D01*
X115072250Y-79615539D01*
X115070207Y-79623163D01*
X115050252Y-79851250D01*
X115070207Y-80079337D01*
X115071631Y-80084650D01*
X115071631Y-80084652D01*
X115108775Y-80223272D01*
X115129466Y-80300493D01*
X115131789Y-80305474D01*
X115131789Y-80305475D01*
X115223901Y-80503012D01*
X115223904Y-80503017D01*
X115226227Y-80507999D01*
X115229384Y-80512507D01*
X115351450Y-80686835D01*
X115357552Y-80695550D01*
X115519450Y-80857448D01*
X115523958Y-80860605D01*
X115523961Y-80860607D01*
X115532486Y-80866576D01*
X115707001Y-80988773D01*
X115711983Y-80991096D01*
X115711988Y-80991099D01*
X115746207Y-81007055D01*
X115799492Y-81053972D01*
X115818953Y-81122249D01*
X115798411Y-81190209D01*
X115746207Y-81235445D01*
X115711988Y-81251401D01*
X115711983Y-81251404D01*
X115707001Y-81253727D01*
X115641168Y-81299824D01*
X115523961Y-81381893D01*
X115523958Y-81381895D01*
X115519450Y-81385052D01*
X115357552Y-81546950D01*
X115226227Y-81734501D01*
X115223904Y-81739483D01*
X115223901Y-81739488D01*
X115133366Y-81933644D01*
X115129466Y-81942007D01*
X115128044Y-81947315D01*
X115128043Y-81947317D01*
X115073882Y-82149448D01*
X115070207Y-82163163D01*
X115050252Y-82391250D01*
X115070207Y-82619337D01*
X115071631Y-82624650D01*
X115071631Y-82624652D01*
X115120113Y-82805586D01*
X115129466Y-82840493D01*
X115131789Y-82845474D01*
X115131789Y-82845475D01*
X115223901Y-83043012D01*
X115223904Y-83043017D01*
X115226227Y-83047999D01*
X115279713Y-83124385D01*
X115354007Y-83230487D01*
X115357552Y-83235550D01*
X115519450Y-83397448D01*
X115523958Y-83400605D01*
X115523961Y-83400607D01*
X115557861Y-83424344D01*
X115707001Y-83528773D01*
X115711983Y-83531096D01*
X115711988Y-83531099D01*
X115746207Y-83547055D01*
X115799492Y-83593972D01*
X115818953Y-83662249D01*
X115798411Y-83730209D01*
X115746207Y-83775445D01*
X115711988Y-83791401D01*
X115711983Y-83791404D01*
X115707001Y-83793727D01*
X115622261Y-83853063D01*
X115523961Y-83921893D01*
X115523958Y-83921895D01*
X115519450Y-83925052D01*
X115357552Y-84086950D01*
X115354395Y-84091458D01*
X115354393Y-84091461D01*
X115328974Y-84127763D01*
X115226227Y-84274501D01*
X115223904Y-84279483D01*
X115223901Y-84279488D01*
X115139489Y-84460512D01*
X115129466Y-84482007D01*
X115070207Y-84703163D01*
X115050252Y-84931250D01*
X115070207Y-85159337D01*
X115071631Y-85164650D01*
X115071631Y-85164652D01*
X115119216Y-85342238D01*
X115129466Y-85380493D01*
X115131789Y-85385474D01*
X115131789Y-85385475D01*
X115223901Y-85583012D01*
X115223904Y-85583017D01*
X115226227Y-85587999D01*
X115357552Y-85775550D01*
X115519450Y-85937448D01*
X115523958Y-85940605D01*
X115523961Y-85940607D01*
X115602139Y-85995348D01*
X115707001Y-86068773D01*
X115711983Y-86071096D01*
X115711988Y-86071099D01*
X115746207Y-86087055D01*
X115799492Y-86133972D01*
X115818953Y-86202249D01*
X115798411Y-86270209D01*
X115746207Y-86315445D01*
X115711988Y-86331401D01*
X115711983Y-86331404D01*
X115707001Y-86333727D01*
X115605990Y-86404456D01*
X115523961Y-86461893D01*
X115523958Y-86461895D01*
X115519450Y-86465052D01*
X115357552Y-86626950D01*
X115354395Y-86631458D01*
X115354393Y-86631461D01*
X115299652Y-86709639D01*
X115226227Y-86814501D01*
X115223904Y-86819483D01*
X115223901Y-86819488D01*
X115150644Y-86976590D01*
X115129466Y-87022007D01*
X115128044Y-87027315D01*
X115128043Y-87027317D01*
X115088672Y-87174252D01*
X115070207Y-87243163D01*
X115050252Y-87471250D01*
X115070207Y-87699337D01*
X115129466Y-87920493D01*
X115131789Y-87925474D01*
X115131789Y-87925475D01*
X115223901Y-88123012D01*
X115223904Y-88123017D01*
X115226227Y-88127999D01*
X115357552Y-88315550D01*
X115519450Y-88477448D01*
X115523958Y-88480605D01*
X115523961Y-88480607D01*
X115602139Y-88535348D01*
X115707001Y-88608773D01*
X115711983Y-88611096D01*
X115711988Y-88611099D01*
X115746207Y-88627055D01*
X115799492Y-88673972D01*
X115818953Y-88742249D01*
X115798411Y-88810209D01*
X115746207Y-88855445D01*
X115711988Y-88871401D01*
X115711983Y-88871404D01*
X115707001Y-88873727D01*
X115602139Y-88947152D01*
X115523961Y-89001893D01*
X115523958Y-89001895D01*
X115519450Y-89005052D01*
X115357552Y-89166950D01*
X115226227Y-89354501D01*
X115223904Y-89359483D01*
X115223901Y-89359488D01*
X115135380Y-89549325D01*
X115129466Y-89562007D01*
X115128044Y-89567315D01*
X115128043Y-89567317D01*
X115082445Y-89737490D01*
X115070207Y-89783163D01*
X115050252Y-90011250D01*
X115070207Y-90239337D01*
X115071631Y-90244650D01*
X115071631Y-90244652D01*
X115086612Y-90300559D01*
X115129466Y-90460493D01*
X115131789Y-90465474D01*
X115131789Y-90465475D01*
X115223901Y-90663012D01*
X115223904Y-90663017D01*
X115226227Y-90667999D01*
X115357552Y-90855550D01*
X115519450Y-91017448D01*
X115523958Y-91020605D01*
X115523961Y-91020607D01*
X115602139Y-91075348D01*
X115707001Y-91148773D01*
X115711983Y-91151096D01*
X115711988Y-91151099D01*
X115746207Y-91167055D01*
X115799492Y-91213972D01*
X115818953Y-91282249D01*
X115798411Y-91350209D01*
X115746207Y-91395445D01*
X115711988Y-91411401D01*
X115711983Y-91411404D01*
X115707001Y-91413727D01*
X115602139Y-91487152D01*
X115523961Y-91541893D01*
X115523958Y-91541895D01*
X115519450Y-91545052D01*
X115357552Y-91706950D01*
X115226227Y-91894501D01*
X115223904Y-91899483D01*
X115223901Y-91899488D01*
X115131789Y-92097025D01*
X115129466Y-92102007D01*
X115070207Y-92323163D01*
X115050252Y-92551250D01*
X115070207Y-92779337D01*
X115129466Y-93000493D01*
X115131789Y-93005474D01*
X115131789Y-93005475D01*
X115223901Y-93203012D01*
X115223904Y-93203017D01*
X115226227Y-93207999D01*
X115287306Y-93295229D01*
X115324165Y-93347868D01*
X115357552Y-93395550D01*
X115519450Y-93557448D01*
X115523958Y-93560605D01*
X115523961Y-93560607D01*
X115602139Y-93615348D01*
X115707001Y-93688773D01*
X115711983Y-93691096D01*
X115711988Y-93691099D01*
X115746207Y-93707055D01*
X115799492Y-93753972D01*
X115818953Y-93822249D01*
X115798411Y-93890209D01*
X115746207Y-93935445D01*
X115711988Y-93951401D01*
X115711983Y-93951404D01*
X115707001Y-93953727D01*
X115602139Y-94027152D01*
X115523961Y-94081893D01*
X115523958Y-94081895D01*
X115519450Y-94085052D01*
X115357552Y-94246950D01*
X115226227Y-94434501D01*
X115223904Y-94439483D01*
X115223901Y-94439488D01*
X115200940Y-94488729D01*
X115129466Y-94642007D01*
X115128044Y-94647315D01*
X115128043Y-94647317D01*
X115094250Y-94773434D01*
X115070207Y-94863163D01*
X115050252Y-95091250D01*
X115070207Y-95319337D01*
X115071631Y-95324650D01*
X115071631Y-95324652D01*
X115073926Y-95333215D01*
X115129466Y-95540493D01*
X115131789Y-95545474D01*
X115131789Y-95545475D01*
X115223901Y-95743012D01*
X115223904Y-95743017D01*
X115226227Y-95747999D01*
X115357552Y-95935550D01*
X115519450Y-96097448D01*
X115523958Y-96100605D01*
X115523961Y-96100607D01*
X115602139Y-96155348D01*
X115707001Y-96228773D01*
X115711983Y-96231096D01*
X115711988Y-96231099D01*
X115746207Y-96247055D01*
X115799492Y-96293972D01*
X115818953Y-96362249D01*
X115798411Y-96430209D01*
X115746207Y-96475445D01*
X115711988Y-96491401D01*
X115711983Y-96491404D01*
X115707001Y-96493727D01*
X115602139Y-96567152D01*
X115523961Y-96621893D01*
X115523958Y-96621895D01*
X115519450Y-96625052D01*
X115357552Y-96786950D01*
X115354395Y-96791458D01*
X115354393Y-96791461D01*
X115326369Y-96831484D01*
X115226227Y-96974501D01*
X115223904Y-96979483D01*
X115223901Y-96979488D01*
X115149521Y-97138999D01*
X115129466Y-97182007D01*
X115128044Y-97187315D01*
X115128043Y-97187317D01*
X115080132Y-97366122D01*
X115070207Y-97403163D01*
X115050252Y-97631250D01*
X115070207Y-97859337D01*
X115071631Y-97864650D01*
X115071631Y-97864652D01*
X115118195Y-98038428D01*
X115129466Y-98080493D01*
X115131789Y-98085474D01*
X115131789Y-98085475D01*
X115223901Y-98283012D01*
X115223904Y-98283017D01*
X115226227Y-98287999D01*
X115229384Y-98292507D01*
X115351695Y-98467185D01*
X115357552Y-98475550D01*
X115519450Y-98637448D01*
X115523958Y-98640605D01*
X115523961Y-98640607D01*
X115574272Y-98675835D01*
X115707001Y-98768773D01*
X115711983Y-98771096D01*
X115711988Y-98771099D01*
X115746207Y-98787055D01*
X115799492Y-98833972D01*
X115818953Y-98902249D01*
X115798411Y-98970209D01*
X115746207Y-99015445D01*
X115711988Y-99031401D01*
X115711983Y-99031404D01*
X115707001Y-99033727D01*
X115602139Y-99107152D01*
X115523961Y-99161893D01*
X115523958Y-99161895D01*
X115519450Y-99165052D01*
X115357552Y-99326950D01*
X115354395Y-99331458D01*
X115354393Y-99331461D01*
X115326369Y-99371484D01*
X115226227Y-99514501D01*
X115223904Y-99519483D01*
X115223901Y-99519488D01*
X115158365Y-99660032D01*
X115129466Y-99722007D01*
X115128044Y-99727315D01*
X115128043Y-99727317D01*
X115112989Y-99783500D01*
X115070207Y-99943163D01*
X115050252Y-100171250D01*
X102437248Y-100171250D01*
X102417293Y-99943163D01*
X102374511Y-99783500D01*
X102359457Y-99727317D01*
X102359456Y-99727315D01*
X102358034Y-99722007D01*
X102329135Y-99660032D01*
X102263599Y-99519488D01*
X102263596Y-99519483D01*
X102261273Y-99514501D01*
X102161131Y-99371484D01*
X102133107Y-99331461D01*
X102133105Y-99331458D01*
X102129948Y-99326950D01*
X101968050Y-99165052D01*
X101963542Y-99161895D01*
X101963539Y-99161893D01*
X101885361Y-99107152D01*
X101780499Y-99033727D01*
X101775517Y-99031404D01*
X101775512Y-99031401D01*
X101741293Y-99015445D01*
X101688008Y-98968528D01*
X101668547Y-98900251D01*
X101689089Y-98832291D01*
X101741293Y-98787055D01*
X101775512Y-98771099D01*
X101775517Y-98771096D01*
X101780499Y-98768773D01*
X101913228Y-98675835D01*
X101963539Y-98640607D01*
X101963542Y-98640605D01*
X101968050Y-98637448D01*
X102129948Y-98475550D01*
X102135806Y-98467185D01*
X102258116Y-98292507D01*
X102261273Y-98287999D01*
X102263596Y-98283017D01*
X102263599Y-98283012D01*
X102355711Y-98085475D01*
X102355711Y-98085474D01*
X102358034Y-98080493D01*
X102369306Y-98038428D01*
X102415869Y-97864652D01*
X102415869Y-97864650D01*
X102417293Y-97859337D01*
X102437248Y-97631250D01*
X102417293Y-97403163D01*
X102407368Y-97366122D01*
X102359457Y-97187317D01*
X102359456Y-97187315D01*
X102358034Y-97182007D01*
X102337979Y-97138999D01*
X102263599Y-96979488D01*
X102263596Y-96979483D01*
X102261273Y-96974501D01*
X102161131Y-96831484D01*
X102133107Y-96791461D01*
X102133105Y-96791458D01*
X102129948Y-96786950D01*
X101968050Y-96625052D01*
X101963542Y-96621895D01*
X101963539Y-96621893D01*
X101885361Y-96567152D01*
X101780499Y-96493727D01*
X101775517Y-96491404D01*
X101775512Y-96491401D01*
X101741293Y-96475445D01*
X101688008Y-96428528D01*
X101668547Y-96360251D01*
X101689089Y-96292291D01*
X101741293Y-96247055D01*
X101775512Y-96231099D01*
X101775517Y-96231096D01*
X101780499Y-96228773D01*
X101885361Y-96155348D01*
X101963539Y-96100607D01*
X101963542Y-96100605D01*
X101968050Y-96097448D01*
X102129948Y-95935550D01*
X102261273Y-95747999D01*
X102263596Y-95743017D01*
X102263599Y-95743012D01*
X102355711Y-95545475D01*
X102355711Y-95545474D01*
X102358034Y-95540493D01*
X102413575Y-95333215D01*
X102415869Y-95324652D01*
X102415869Y-95324650D01*
X102417293Y-95319337D01*
X102437248Y-95091250D01*
X102417293Y-94863163D01*
X102393250Y-94773434D01*
X102359457Y-94647317D01*
X102359456Y-94647315D01*
X102358034Y-94642007D01*
X102286560Y-94488729D01*
X102263599Y-94439488D01*
X102263596Y-94439483D01*
X102261273Y-94434501D01*
X102129948Y-94246950D01*
X101968050Y-94085052D01*
X101963542Y-94081895D01*
X101963539Y-94081893D01*
X101885361Y-94027152D01*
X101780499Y-93953727D01*
X101775517Y-93951404D01*
X101775512Y-93951401D01*
X101741293Y-93935445D01*
X101688008Y-93888528D01*
X101668547Y-93820251D01*
X101689089Y-93752291D01*
X101741293Y-93707055D01*
X101775512Y-93691099D01*
X101775517Y-93691096D01*
X101780499Y-93688773D01*
X101885361Y-93615348D01*
X101963539Y-93560607D01*
X101963542Y-93560605D01*
X101968050Y-93557448D01*
X102129948Y-93395550D01*
X102163336Y-93347868D01*
X102200194Y-93295229D01*
X102261273Y-93207999D01*
X102263596Y-93203017D01*
X102263599Y-93203012D01*
X102355711Y-93005475D01*
X102355711Y-93005474D01*
X102358034Y-93000493D01*
X102417293Y-92779337D01*
X102437248Y-92551250D01*
X102417293Y-92323163D01*
X102358034Y-92102007D01*
X102355711Y-92097025D01*
X102263599Y-91899488D01*
X102263596Y-91899483D01*
X102261273Y-91894501D01*
X102129948Y-91706950D01*
X101968050Y-91545052D01*
X101963542Y-91541895D01*
X101963539Y-91541893D01*
X101885361Y-91487152D01*
X101780499Y-91413727D01*
X101775517Y-91411404D01*
X101775512Y-91411401D01*
X101741293Y-91395445D01*
X101688008Y-91348528D01*
X101668547Y-91280251D01*
X101689089Y-91212291D01*
X101741293Y-91167055D01*
X101775512Y-91151099D01*
X101775517Y-91151096D01*
X101780499Y-91148773D01*
X101885361Y-91075348D01*
X101963539Y-91020607D01*
X101963542Y-91020605D01*
X101968050Y-91017448D01*
X102129948Y-90855550D01*
X102261273Y-90667999D01*
X102263596Y-90663017D01*
X102263599Y-90663012D01*
X102355711Y-90465475D01*
X102355711Y-90465474D01*
X102358034Y-90460493D01*
X102400889Y-90300559D01*
X102415869Y-90244652D01*
X102415869Y-90244650D01*
X102417293Y-90239337D01*
X102437248Y-90011250D01*
X102417293Y-89783163D01*
X102405055Y-89737490D01*
X102359457Y-89567317D01*
X102359456Y-89567315D01*
X102358034Y-89562007D01*
X102352120Y-89549325D01*
X102263599Y-89359488D01*
X102263596Y-89359483D01*
X102261273Y-89354501D01*
X102129948Y-89166950D01*
X101968050Y-89005052D01*
X101963542Y-89001895D01*
X101963539Y-89001893D01*
X101885361Y-88947152D01*
X101780499Y-88873727D01*
X101775517Y-88871404D01*
X101775512Y-88871401D01*
X101741293Y-88855445D01*
X101688008Y-88808528D01*
X101668547Y-88740251D01*
X101689089Y-88672291D01*
X101741293Y-88627055D01*
X101775512Y-88611099D01*
X101775517Y-88611096D01*
X101780499Y-88608773D01*
X101885361Y-88535348D01*
X101963539Y-88480607D01*
X101963542Y-88480605D01*
X101968050Y-88477448D01*
X102129948Y-88315550D01*
X102261273Y-88127999D01*
X102263596Y-88123017D01*
X102263599Y-88123012D01*
X102355711Y-87925475D01*
X102355711Y-87925474D01*
X102358034Y-87920493D01*
X102417293Y-87699337D01*
X102437248Y-87471250D01*
X102417293Y-87243163D01*
X102398828Y-87174252D01*
X102359457Y-87027317D01*
X102359456Y-87027315D01*
X102358034Y-87022007D01*
X102336856Y-86976590D01*
X102263599Y-86819488D01*
X102263596Y-86819483D01*
X102261273Y-86814501D01*
X102187848Y-86709639D01*
X102133107Y-86631461D01*
X102133105Y-86631458D01*
X102129948Y-86626950D01*
X101968050Y-86465052D01*
X101963542Y-86461895D01*
X101963539Y-86461893D01*
X101881510Y-86404456D01*
X101780499Y-86333727D01*
X101775517Y-86331404D01*
X101775512Y-86331401D01*
X101741293Y-86315445D01*
X101688008Y-86268528D01*
X101668547Y-86200251D01*
X101689089Y-86132291D01*
X101741293Y-86087055D01*
X101775512Y-86071099D01*
X101775517Y-86071096D01*
X101780499Y-86068773D01*
X101885361Y-85995348D01*
X101963539Y-85940607D01*
X101963542Y-85940605D01*
X101968050Y-85937448D01*
X102129948Y-85775550D01*
X102261273Y-85587999D01*
X102263596Y-85583017D01*
X102263599Y-85583012D01*
X102355711Y-85385475D01*
X102355711Y-85385474D01*
X102358034Y-85380493D01*
X102368285Y-85342238D01*
X102415869Y-85164652D01*
X102415869Y-85164650D01*
X102417293Y-85159337D01*
X102437248Y-84931250D01*
X102417293Y-84703163D01*
X102358034Y-84482007D01*
X102348011Y-84460512D01*
X102263599Y-84279488D01*
X102263596Y-84279483D01*
X102261273Y-84274501D01*
X102158526Y-84127763D01*
X102133107Y-84091461D01*
X102133105Y-84091458D01*
X102129948Y-84086950D01*
X101968050Y-83925052D01*
X101963542Y-83921895D01*
X101963539Y-83921893D01*
X101865239Y-83853063D01*
X101780499Y-83793727D01*
X101775517Y-83791404D01*
X101775512Y-83791401D01*
X101741293Y-83775445D01*
X101688008Y-83728528D01*
X101668547Y-83660251D01*
X101689089Y-83592291D01*
X101741293Y-83547055D01*
X101775512Y-83531099D01*
X101775517Y-83531096D01*
X101780499Y-83528773D01*
X101929639Y-83424344D01*
X101963539Y-83400607D01*
X101963542Y-83400605D01*
X101968050Y-83397448D01*
X102129948Y-83235550D01*
X102133494Y-83230487D01*
X102207787Y-83124385D01*
X102261273Y-83047999D01*
X102263596Y-83043017D01*
X102263599Y-83043012D01*
X102355711Y-82845475D01*
X102355711Y-82845474D01*
X102358034Y-82840493D01*
X102367388Y-82805586D01*
X102415869Y-82624652D01*
X102415869Y-82624650D01*
X102417293Y-82619337D01*
X102437248Y-82391250D01*
X102417293Y-82163163D01*
X102413618Y-82149448D01*
X102359457Y-81947317D01*
X102359456Y-81947315D01*
X102358034Y-81942007D01*
X102354134Y-81933644D01*
X102263599Y-81739488D01*
X102263596Y-81739483D01*
X102261273Y-81734501D01*
X102129948Y-81546950D01*
X101968050Y-81385052D01*
X101963542Y-81381895D01*
X101963539Y-81381893D01*
X101846332Y-81299824D01*
X101780499Y-81253727D01*
X101775517Y-81251404D01*
X101775512Y-81251401D01*
X101740701Y-81235169D01*
X101687416Y-81188252D01*
X101667955Y-81119975D01*
X101688497Y-81052015D01*
X101740701Y-81006779D01*
X101775261Y-80990664D01*
X101784756Y-80985181D01*
X101836798Y-80948741D01*
X101845174Y-80938262D01*
X101838106Y-80924816D01*
X101136562Y-80223272D01*
X101122618Y-80215658D01*
X101120785Y-80215789D01*
X101114170Y-80220040D01*
X100408673Y-80925537D01*
X100402243Y-80937312D01*
X100411539Y-80949327D01*
X100462744Y-80985181D01*
X100472239Y-80990664D01*
X100506799Y-81006779D01*
X100560084Y-81053696D01*
X100579545Y-81121973D01*
X100559003Y-81189933D01*
X100506799Y-81235169D01*
X100471988Y-81251401D01*
X100471983Y-81251404D01*
X100467001Y-81253727D01*
X100401168Y-81299824D01*
X100283961Y-81381893D01*
X100283958Y-81381895D01*
X100279450Y-81385052D01*
X100117552Y-81546950D01*
X99986227Y-81734501D01*
X99983904Y-81739483D01*
X99983901Y-81739488D01*
X99893366Y-81933644D01*
X99889466Y-81942007D01*
X99888044Y-81947315D01*
X99888043Y-81947317D01*
X99833882Y-82149448D01*
X99830207Y-82163163D01*
X99810252Y-82391250D01*
X99830207Y-82619337D01*
X99831631Y-82624650D01*
X99831631Y-82624652D01*
X99880113Y-82805586D01*
X99889466Y-82840493D01*
X99891789Y-82845474D01*
X99891789Y-82845475D01*
X99983901Y-83043012D01*
X99983904Y-83043017D01*
X99986227Y-83047999D01*
X100039713Y-83124385D01*
X100114007Y-83230487D01*
X100117552Y-83235550D01*
X100279450Y-83397448D01*
X100283958Y-83400605D01*
X100283961Y-83400607D01*
X100317861Y-83424344D01*
X100467001Y-83528773D01*
X100471983Y-83531096D01*
X100471988Y-83531099D01*
X100506207Y-83547055D01*
X100559492Y-83593972D01*
X100578953Y-83662249D01*
X100558411Y-83730209D01*
X100506207Y-83775445D01*
X100471988Y-83791401D01*
X100471983Y-83791404D01*
X100467001Y-83793727D01*
X100382261Y-83853063D01*
X100283961Y-83921893D01*
X100283958Y-83921895D01*
X100279450Y-83925052D01*
X100117552Y-84086950D01*
X100114395Y-84091458D01*
X100114393Y-84091461D01*
X100088974Y-84127763D01*
X99986227Y-84274501D01*
X99983904Y-84279483D01*
X99983901Y-84279488D01*
X99899489Y-84460512D01*
X99889466Y-84482007D01*
X99830207Y-84703163D01*
X99810252Y-84931250D01*
X99830207Y-85159337D01*
X99831631Y-85164650D01*
X99831631Y-85164652D01*
X99879216Y-85342238D01*
X99889466Y-85380493D01*
X99891789Y-85385474D01*
X99891789Y-85385475D01*
X99983901Y-85583012D01*
X99983904Y-85583017D01*
X99986227Y-85587999D01*
X100117552Y-85775550D01*
X100279450Y-85937448D01*
X100283958Y-85940605D01*
X100283961Y-85940607D01*
X100362139Y-85995348D01*
X100467001Y-86068773D01*
X100471983Y-86071096D01*
X100471988Y-86071099D01*
X100506207Y-86087055D01*
X100559492Y-86133972D01*
X100578953Y-86202249D01*
X100558411Y-86270209D01*
X100506207Y-86315445D01*
X100471988Y-86331401D01*
X100471983Y-86331404D01*
X100467001Y-86333727D01*
X100365990Y-86404456D01*
X100283961Y-86461893D01*
X100283958Y-86461895D01*
X100279450Y-86465052D01*
X100117552Y-86626950D01*
X100114395Y-86631458D01*
X100114393Y-86631461D01*
X100059652Y-86709639D01*
X99986227Y-86814501D01*
X99983904Y-86819483D01*
X99983901Y-86819488D01*
X99910644Y-86976590D01*
X99889466Y-87022007D01*
X99888044Y-87027315D01*
X99888043Y-87027317D01*
X99848672Y-87174252D01*
X99830207Y-87243163D01*
X99810252Y-87471250D01*
X99830207Y-87699337D01*
X99889466Y-87920493D01*
X99891789Y-87925474D01*
X99891789Y-87925475D01*
X99983901Y-88123012D01*
X99983904Y-88123017D01*
X99986227Y-88127999D01*
X100117552Y-88315550D01*
X100279450Y-88477448D01*
X100283958Y-88480605D01*
X100283961Y-88480607D01*
X100362139Y-88535348D01*
X100467001Y-88608773D01*
X100471983Y-88611096D01*
X100471988Y-88611099D01*
X100506207Y-88627055D01*
X100559492Y-88673972D01*
X100578953Y-88742249D01*
X100558411Y-88810209D01*
X100506207Y-88855445D01*
X100471988Y-88871401D01*
X100471983Y-88871404D01*
X100467001Y-88873727D01*
X100362139Y-88947152D01*
X100283961Y-89001893D01*
X100283958Y-89001895D01*
X100279450Y-89005052D01*
X100117552Y-89166950D01*
X99986227Y-89354501D01*
X99983904Y-89359483D01*
X99983901Y-89359488D01*
X99895380Y-89549325D01*
X99889466Y-89562007D01*
X99888044Y-89567315D01*
X99888043Y-89567317D01*
X99842445Y-89737490D01*
X99830207Y-89783163D01*
X99810252Y-90011250D01*
X99830207Y-90239337D01*
X99831631Y-90244650D01*
X99831631Y-90244652D01*
X99846612Y-90300559D01*
X99889466Y-90460493D01*
X99891789Y-90465474D01*
X99891789Y-90465475D01*
X99983901Y-90663012D01*
X99983904Y-90663017D01*
X99986227Y-90667999D01*
X100117552Y-90855550D01*
X100279450Y-91017448D01*
X100283958Y-91020605D01*
X100283961Y-91020607D01*
X100362139Y-91075348D01*
X100467001Y-91148773D01*
X100471983Y-91151096D01*
X100471988Y-91151099D01*
X100506207Y-91167055D01*
X100559492Y-91213972D01*
X100578953Y-91282249D01*
X100558411Y-91350209D01*
X100506207Y-91395445D01*
X100471988Y-91411401D01*
X100471983Y-91411404D01*
X100467001Y-91413727D01*
X100362139Y-91487152D01*
X100283961Y-91541893D01*
X100283958Y-91541895D01*
X100279450Y-91545052D01*
X100117552Y-91706950D01*
X99986227Y-91894501D01*
X99983904Y-91899483D01*
X99983901Y-91899488D01*
X99891789Y-92097025D01*
X99889466Y-92102007D01*
X99830207Y-92323163D01*
X99810252Y-92551250D01*
X99830207Y-92779337D01*
X99889466Y-93000493D01*
X99891789Y-93005474D01*
X99891789Y-93005475D01*
X99983901Y-93203012D01*
X99983904Y-93203017D01*
X99986227Y-93207999D01*
X100047306Y-93295229D01*
X100084165Y-93347868D01*
X100117552Y-93395550D01*
X100279450Y-93557448D01*
X100283958Y-93560605D01*
X100283961Y-93560607D01*
X100362139Y-93615348D01*
X100467001Y-93688773D01*
X100471983Y-93691096D01*
X100471988Y-93691099D01*
X100506207Y-93707055D01*
X100559492Y-93753972D01*
X100578953Y-93822249D01*
X100558411Y-93890209D01*
X100506207Y-93935445D01*
X100471988Y-93951401D01*
X100471983Y-93951404D01*
X100467001Y-93953727D01*
X100362139Y-94027152D01*
X100283961Y-94081893D01*
X100283958Y-94081895D01*
X100279450Y-94085052D01*
X100117552Y-94246950D01*
X99986227Y-94434501D01*
X99983904Y-94439483D01*
X99983901Y-94439488D01*
X99960940Y-94488729D01*
X99889466Y-94642007D01*
X99888044Y-94647315D01*
X99888043Y-94647317D01*
X99854250Y-94773434D01*
X99830207Y-94863163D01*
X99810252Y-95091250D01*
X99830207Y-95319337D01*
X99831631Y-95324650D01*
X99831631Y-95324652D01*
X99833926Y-95333215D01*
X99889466Y-95540493D01*
X99891789Y-95545474D01*
X99891789Y-95545475D01*
X99983901Y-95743012D01*
X99983904Y-95743017D01*
X99986227Y-95747999D01*
X100117552Y-95935550D01*
X100279450Y-96097448D01*
X100283958Y-96100605D01*
X100283961Y-96100607D01*
X100362139Y-96155348D01*
X100467001Y-96228773D01*
X100471983Y-96231096D01*
X100471988Y-96231099D01*
X100506207Y-96247055D01*
X100559492Y-96293972D01*
X100578953Y-96362249D01*
X100558411Y-96430209D01*
X100506207Y-96475445D01*
X100471988Y-96491401D01*
X100471983Y-96491404D01*
X100467001Y-96493727D01*
X100362139Y-96567152D01*
X100283961Y-96621893D01*
X100283958Y-96621895D01*
X100279450Y-96625052D01*
X100117552Y-96786950D01*
X100114395Y-96791458D01*
X100114393Y-96791461D01*
X100086369Y-96831484D01*
X99986227Y-96974501D01*
X99983904Y-96979483D01*
X99983901Y-96979488D01*
X99909521Y-97138999D01*
X99889466Y-97182007D01*
X99888044Y-97187315D01*
X99888043Y-97187317D01*
X99840132Y-97366122D01*
X99830207Y-97403163D01*
X99810252Y-97631250D01*
X99830207Y-97859337D01*
X99831631Y-97864650D01*
X99831631Y-97864652D01*
X99878195Y-98038428D01*
X99889466Y-98080493D01*
X99891789Y-98085474D01*
X99891789Y-98085475D01*
X99983901Y-98283012D01*
X99983904Y-98283017D01*
X99986227Y-98287999D01*
X99989384Y-98292507D01*
X100111695Y-98467185D01*
X100117552Y-98475550D01*
X100279450Y-98637448D01*
X100283958Y-98640605D01*
X100283961Y-98640607D01*
X100334272Y-98675835D01*
X100467001Y-98768773D01*
X100471983Y-98771096D01*
X100471988Y-98771099D01*
X100506207Y-98787055D01*
X100559492Y-98833972D01*
X100578953Y-98902249D01*
X100558411Y-98970209D01*
X100506207Y-99015445D01*
X100471988Y-99031401D01*
X100471983Y-99031404D01*
X100467001Y-99033727D01*
X100362139Y-99107152D01*
X100283961Y-99161893D01*
X100283958Y-99161895D01*
X100279450Y-99165052D01*
X100117552Y-99326950D01*
X100114395Y-99331458D01*
X100114393Y-99331461D01*
X100086369Y-99371484D01*
X99986227Y-99514501D01*
X99983904Y-99519483D01*
X99983901Y-99519488D01*
X99918365Y-99660032D01*
X99889466Y-99722007D01*
X99888044Y-99727315D01*
X99888043Y-99727317D01*
X99872989Y-99783500D01*
X99830207Y-99943163D01*
X99810252Y-100171250D01*
X97346000Y-100171250D01*
X97346000Y-79856725D01*
X99811233Y-79856725D01*
X99830222Y-80073769D01*
X99832125Y-80084562D01*
X99888514Y-80295011D01*
X99892260Y-80305303D01*
X99984336Y-80502761D01*
X99989819Y-80512256D01*
X100026259Y-80564298D01*
X100036738Y-80572674D01*
X100050184Y-80565606D01*
X100751728Y-79864062D01*
X100758106Y-79852382D01*
X101488158Y-79852382D01*
X101488289Y-79854215D01*
X101492540Y-79860830D01*
X102198037Y-80566327D01*
X102209812Y-80572757D01*
X102221827Y-80563461D01*
X102257681Y-80512256D01*
X102263164Y-80502761D01*
X102355240Y-80305303D01*
X102358986Y-80295011D01*
X102415375Y-80084562D01*
X102417278Y-80073769D01*
X102436267Y-79856725D01*
X102436267Y-79845775D01*
X102417278Y-79628731D01*
X102415375Y-79617938D01*
X102358986Y-79407489D01*
X102355240Y-79397197D01*
X102263164Y-79199739D01*
X102257681Y-79190244D01*
X102221241Y-79138202D01*
X102210762Y-79129826D01*
X102197316Y-79136894D01*
X101495772Y-79838438D01*
X101488158Y-79852382D01*
X100758106Y-79852382D01*
X100759342Y-79850118D01*
X100759211Y-79848285D01*
X100754960Y-79841670D01*
X100049463Y-79136173D01*
X100037688Y-79129743D01*
X100025673Y-79139039D01*
X99989819Y-79190244D01*
X99984336Y-79199739D01*
X99892260Y-79397197D01*
X99888514Y-79407489D01*
X99832125Y-79617938D01*
X99830222Y-79628731D01*
X99811233Y-79845775D01*
X99811233Y-79856725D01*
X97346000Y-79856725D01*
X97346000Y-78397312D01*
X100402243Y-78397312D01*
X100411539Y-78409327D01*
X100462744Y-78445181D01*
X100472239Y-78450664D01*
X100507391Y-78467055D01*
X100560676Y-78513972D01*
X100580137Y-78582249D01*
X100559595Y-78650209D01*
X100507391Y-78695445D01*
X100472239Y-78711836D01*
X100462744Y-78717319D01*
X100410702Y-78753759D01*
X100402326Y-78764238D01*
X100409394Y-78777684D01*
X101110938Y-79479228D01*
X101124882Y-79486842D01*
X101126715Y-79486711D01*
X101133330Y-79482460D01*
X101838827Y-78776963D01*
X101845257Y-78765188D01*
X101835961Y-78753173D01*
X101784756Y-78717319D01*
X101775261Y-78711836D01*
X101740109Y-78695445D01*
X101686824Y-78648528D01*
X101667363Y-78580251D01*
X101687905Y-78512291D01*
X101740109Y-78467055D01*
X101775261Y-78450664D01*
X101784756Y-78445181D01*
X101836798Y-78408741D01*
X101845174Y-78398262D01*
X101838106Y-78384816D01*
X101136562Y-77683272D01*
X101122618Y-77675658D01*
X101120785Y-77675789D01*
X101114170Y-77680040D01*
X100408673Y-78385537D01*
X100402243Y-78397312D01*
X97346000Y-78397312D01*
X97346000Y-77316725D01*
X99811233Y-77316725D01*
X99830222Y-77533769D01*
X99832125Y-77544562D01*
X99888514Y-77755011D01*
X99892260Y-77765303D01*
X99984336Y-77962761D01*
X99989819Y-77972256D01*
X100026259Y-78024298D01*
X100036738Y-78032674D01*
X100050184Y-78025606D01*
X100751728Y-77324062D01*
X100758106Y-77312382D01*
X101488158Y-77312382D01*
X101488289Y-77314215D01*
X101492540Y-77320830D01*
X102198037Y-78026327D01*
X102209812Y-78032757D01*
X102221827Y-78023461D01*
X102257681Y-77972256D01*
X102263164Y-77962761D01*
X102355240Y-77765303D01*
X102358986Y-77755011D01*
X102415375Y-77544562D01*
X102417278Y-77533769D01*
X102436267Y-77316725D01*
X102436267Y-77305775D01*
X102417278Y-77088731D01*
X102415375Y-77077938D01*
X102358986Y-76867489D01*
X102355240Y-76857197D01*
X102263164Y-76659739D01*
X102257681Y-76650244D01*
X102221241Y-76598202D01*
X102210762Y-76589826D01*
X102197316Y-76596894D01*
X101495772Y-77298438D01*
X101488158Y-77312382D01*
X100758106Y-77312382D01*
X100759342Y-77310118D01*
X100759211Y-77308285D01*
X100754960Y-77301670D01*
X100049463Y-76596173D01*
X100037688Y-76589743D01*
X100025673Y-76599039D01*
X99989819Y-76650244D01*
X99984336Y-76659739D01*
X99892260Y-76857197D01*
X99888514Y-76867489D01*
X99832125Y-77077938D01*
X99830222Y-77088731D01*
X99811233Y-77305775D01*
X99811233Y-77316725D01*
X97346000Y-77316725D01*
X97346000Y-73872000D01*
X97347746Y-73851095D01*
X97350270Y-73836094D01*
X97350270Y-73836091D01*
X97351076Y-73831302D01*
X97351229Y-73818750D01*
X97350540Y-73813940D01*
X97350539Y-73813922D01*
X97349251Y-73804931D01*
X97348176Y-73780004D01*
X97353190Y-73690721D01*
X97362369Y-73527258D01*
X97363951Y-73513221D01*
X97365769Y-73502525D01*
X97402803Y-73284558D01*
X97411670Y-73232374D01*
X97414814Y-73218599D01*
X97493677Y-72944859D01*
X97498344Y-72931522D01*
X97607361Y-72668332D01*
X97613492Y-72655602D01*
X97751286Y-72406282D01*
X97758803Y-72394318D01*
X97923649Y-72161988D01*
X97932459Y-72150940D01*
X98064522Y-72003163D01*
X98122285Y-71938526D01*
X98132276Y-71928535D01*
X98344690Y-71738709D01*
X98355738Y-71729899D01*
X98588068Y-71565053D01*
X98600032Y-71557536D01*
X98849352Y-71419742D01*
X98862082Y-71413611D01*
X99125272Y-71304594D01*
X99138609Y-71299927D01*
X99412349Y-71221064D01*
X99426124Y-71217920D01*
X99549848Y-71196898D01*
X99677515Y-71175206D01*
X99748022Y-71183515D01*
X99802846Y-71228624D01*
X99824579Y-71296213D01*
X99822000Y-71320933D01*
X99822005Y-71320934D01*
X99815250Y-71383116D01*
X99815250Y-73079384D01*
X99822005Y-73141566D01*
X99873135Y-73277955D01*
X99960489Y-73394511D01*
X100077045Y-73481865D01*
X100213434Y-73532995D01*
X100224224Y-73534167D01*
X100226356Y-73535053D01*
X100228972Y-73535675D01*
X100228871Y-73536098D01*
X100289785Y-73561405D01*
X100330213Y-73619767D01*
X100332672Y-73690721D01*
X100296379Y-73751740D01*
X100287719Y-73758739D01*
X100283957Y-73761896D01*
X100279450Y-73765052D01*
X100117552Y-73926950D01*
X99986227Y-74114501D01*
X99983904Y-74119483D01*
X99983901Y-74119488D01*
X99983784Y-74119739D01*
X99889466Y-74322007D01*
X99888044Y-74327315D01*
X99888043Y-74327317D01*
X99867390Y-74404396D01*
X99830207Y-74543163D01*
X99810252Y-74771250D01*
X99830207Y-74999337D01*
X99831631Y-75004650D01*
X99831631Y-75004652D01*
X99868775Y-75143272D01*
X99889466Y-75220493D01*
X99891789Y-75225474D01*
X99891789Y-75225475D01*
X99983901Y-75423012D01*
X99983904Y-75423017D01*
X99986227Y-75427999D01*
X100117552Y-75615550D01*
X100279450Y-75777448D01*
X100283958Y-75780605D01*
X100283961Y-75780607D01*
X100362139Y-75835348D01*
X100467001Y-75908773D01*
X100471983Y-75911096D01*
X100471988Y-75911099D01*
X100506799Y-75927331D01*
X100560084Y-75974248D01*
X100579545Y-76042525D01*
X100559003Y-76110485D01*
X100506799Y-76155721D01*
X100472239Y-76171836D01*
X100462744Y-76177319D01*
X100410702Y-76213759D01*
X100402326Y-76224238D01*
X100409394Y-76237684D01*
X101110938Y-76939228D01*
X101124882Y-76946842D01*
X101126715Y-76946711D01*
X101133330Y-76942460D01*
X101838827Y-76236963D01*
X101845257Y-76225188D01*
X101835961Y-76213173D01*
X101784756Y-76177319D01*
X101775261Y-76171836D01*
X101740701Y-76155721D01*
X101687416Y-76108804D01*
X101667955Y-76040527D01*
X101688497Y-75972567D01*
X101740701Y-75927331D01*
X101775512Y-75911099D01*
X101775517Y-75911096D01*
X101780499Y-75908773D01*
X101885361Y-75835348D01*
X101963539Y-75780607D01*
X101963542Y-75780605D01*
X101968050Y-75777448D01*
X102129948Y-75615550D01*
X102261273Y-75427999D01*
X102263596Y-75423017D01*
X102263599Y-75423012D01*
X102355711Y-75225475D01*
X102355711Y-75225474D01*
X102358034Y-75220493D01*
X102378726Y-75143272D01*
X102415869Y-75004652D01*
X102415869Y-75004650D01*
X102417293Y-74999337D01*
X102436769Y-74776725D01*
X115051233Y-74776725D01*
X115070222Y-74993769D01*
X115072125Y-75004562D01*
X115128514Y-75215011D01*
X115132260Y-75225303D01*
X115224336Y-75422761D01*
X115229819Y-75432256D01*
X115266259Y-75484298D01*
X115276738Y-75492674D01*
X115290184Y-75485606D01*
X115991728Y-74784062D01*
X115998106Y-74772382D01*
X116728158Y-74772382D01*
X116728289Y-74774215D01*
X116732540Y-74780830D01*
X117438037Y-75486327D01*
X117449812Y-75492757D01*
X117461827Y-75483461D01*
X117497681Y-75432256D01*
X117503164Y-75422761D01*
X117595240Y-75225303D01*
X117598986Y-75215011D01*
X117655375Y-75004562D01*
X117657278Y-74993769D01*
X117676267Y-74776725D01*
X117676267Y-74765775D01*
X117657278Y-74548731D01*
X117655375Y-74537938D01*
X117598986Y-74327489D01*
X117595240Y-74317197D01*
X117585171Y-74295604D01*
X133489037Y-74295604D01*
X133498817Y-74506899D01*
X133500221Y-74512724D01*
X133500221Y-74512725D01*
X133508899Y-74548731D01*
X133548375Y-74712534D01*
X133550857Y-74717992D01*
X133550858Y-74717996D01*
X133594303Y-74813546D01*
X133635924Y-74905087D01*
X133758304Y-75077611D01*
X133911100Y-75223881D01*
X134088798Y-75338620D01*
X134094364Y-75340863D01*
X134279418Y-75415442D01*
X134279421Y-75415443D01*
X134284987Y-75417686D01*
X134492587Y-75458228D01*
X134498149Y-75458500D01*
X134654096Y-75458500D01*
X134811816Y-75443452D01*
X135014784Y-75383908D01*
X135098361Y-75340863D01*
X135197499Y-75289804D01*
X135197502Y-75289802D01*
X135202830Y-75287058D01*
X135369170Y-75156396D01*
X135373102Y-75151865D01*
X135373105Y-75151862D01*
X135503871Y-75001167D01*
X135507802Y-74996637D01*
X135510802Y-74991451D01*
X135510805Y-74991447D01*
X135610717Y-74818742D01*
X135613723Y-74813546D01*
X135683111Y-74613729D01*
X135683972Y-74607792D01*
X135712602Y-74410336D01*
X135712602Y-74410333D01*
X135713463Y-74404396D01*
X135708427Y-74295604D01*
X153332787Y-74295604D01*
X153342567Y-74506899D01*
X153343971Y-74512724D01*
X153343971Y-74512725D01*
X153352649Y-74548731D01*
X153392125Y-74712534D01*
X153394607Y-74717992D01*
X153394608Y-74717996D01*
X153438053Y-74813546D01*
X153479674Y-74905087D01*
X153602054Y-75077611D01*
X153754850Y-75223881D01*
X153932548Y-75338620D01*
X153938114Y-75340863D01*
X154123168Y-75415442D01*
X154123171Y-75415443D01*
X154128737Y-75417686D01*
X154336337Y-75458228D01*
X154341899Y-75458500D01*
X154497846Y-75458500D01*
X154655566Y-75443452D01*
X154858534Y-75383908D01*
X154942111Y-75340863D01*
X155041249Y-75289804D01*
X155041252Y-75289802D01*
X155046580Y-75287058D01*
X155212920Y-75156396D01*
X155216852Y-75151865D01*
X155216855Y-75151862D01*
X155347621Y-75001167D01*
X155351552Y-74996637D01*
X155354552Y-74991451D01*
X155354555Y-74991447D01*
X155454467Y-74818742D01*
X155457473Y-74813546D01*
X155526861Y-74613729D01*
X155527722Y-74607792D01*
X155556352Y-74410336D01*
X155556352Y-74410333D01*
X155557213Y-74404396D01*
X155547433Y-74193101D01*
X155497875Y-73987466D01*
X155454525Y-73892122D01*
X155436359Y-73852170D01*
X155410326Y-73794913D01*
X155287946Y-73622389D01*
X155135150Y-73476119D01*
X154957452Y-73361380D01*
X154897354Y-73337160D01*
X154766832Y-73284558D01*
X154766829Y-73284557D01*
X154761263Y-73282314D01*
X154553663Y-73241772D01*
X154548101Y-73241500D01*
X154392154Y-73241500D01*
X154234434Y-73256548D01*
X154031466Y-73316092D01*
X154026139Y-73318836D01*
X154026138Y-73318836D01*
X153848751Y-73410196D01*
X153848748Y-73410198D01*
X153843420Y-73412942D01*
X153677080Y-73543604D01*
X153673148Y-73548135D01*
X153673145Y-73548138D01*
X153604474Y-73627275D01*
X153538448Y-73703363D01*
X153535448Y-73708549D01*
X153535445Y-73708553D01*
X153474488Y-73813922D01*
X153432527Y-73886454D01*
X153363139Y-74086271D01*
X153332787Y-74295604D01*
X135708427Y-74295604D01*
X135703683Y-74193101D01*
X135654125Y-73987466D01*
X135610775Y-73892122D01*
X135592609Y-73852170D01*
X135566576Y-73794913D01*
X135444196Y-73622389D01*
X135291400Y-73476119D01*
X135113702Y-73361380D01*
X135053604Y-73337160D01*
X134923082Y-73284558D01*
X134923079Y-73284557D01*
X134917513Y-73282314D01*
X134709913Y-73241772D01*
X134704351Y-73241500D01*
X134548404Y-73241500D01*
X134390684Y-73256548D01*
X134187716Y-73316092D01*
X134182389Y-73318836D01*
X134182388Y-73318836D01*
X134005001Y-73410196D01*
X134004998Y-73410198D01*
X133999670Y-73412942D01*
X133833330Y-73543604D01*
X133829398Y-73548135D01*
X133829395Y-73548138D01*
X133760724Y-73627275D01*
X133694698Y-73703363D01*
X133691698Y-73708549D01*
X133691695Y-73708553D01*
X133630738Y-73813922D01*
X133588777Y-73886454D01*
X133519389Y-74086271D01*
X133489037Y-74295604D01*
X117585171Y-74295604D01*
X117503164Y-74119739D01*
X117497681Y-74110244D01*
X117461241Y-74058202D01*
X117450762Y-74049826D01*
X117437316Y-74056894D01*
X116735772Y-74758438D01*
X116728158Y-74772382D01*
X115998106Y-74772382D01*
X115999342Y-74770118D01*
X115999211Y-74768285D01*
X115994960Y-74761670D01*
X115289463Y-74056173D01*
X115277688Y-74049743D01*
X115265673Y-74059039D01*
X115229819Y-74110244D01*
X115224336Y-74119739D01*
X115132260Y-74317197D01*
X115128514Y-74327489D01*
X115072125Y-74537938D01*
X115070222Y-74548731D01*
X115051233Y-74765775D01*
X115051233Y-74776725D01*
X102436769Y-74776725D01*
X102437248Y-74771250D01*
X102417293Y-74543163D01*
X102380110Y-74404396D01*
X102359457Y-74327317D01*
X102359456Y-74327315D01*
X102358034Y-74322007D01*
X102263716Y-74119739D01*
X102263599Y-74119488D01*
X102263596Y-74119483D01*
X102261273Y-74114501D01*
X102129948Y-73926950D01*
X101968050Y-73765052D01*
X101963539Y-73761893D01*
X101959326Y-73758358D01*
X101960277Y-73757224D01*
X101920279Y-73707179D01*
X101912974Y-73636560D01*
X101945008Y-73573201D01*
X102006212Y-73537220D01*
X102023267Y-73534168D01*
X102034066Y-73532995D01*
X102170455Y-73481865D01*
X102287011Y-73394511D01*
X102374365Y-73277955D01*
X102425495Y-73141566D01*
X102432250Y-73079384D01*
X102432250Y-71383116D01*
X102425495Y-71320934D01*
X102422723Y-71313539D01*
X102421262Y-71307395D01*
X102424965Y-71236495D01*
X102466411Y-71178852D01*
X102532442Y-71152767D01*
X102543845Y-71152250D01*
X115288062Y-71152250D01*
X115356183Y-71172252D01*
X115402676Y-71225908D01*
X115412780Y-71296182D01*
X115383286Y-71360762D01*
X115377157Y-71367345D01*
X115357552Y-71386950D01*
X115354395Y-71391458D01*
X115354393Y-71391461D01*
X115336989Y-71416317D01*
X115226227Y-71574501D01*
X115223904Y-71579483D01*
X115223901Y-71579488D01*
X115153764Y-71729899D01*
X115129466Y-71782007D01*
X115128044Y-71787315D01*
X115128043Y-71787317D01*
X115071631Y-71997848D01*
X115070207Y-72003163D01*
X115050252Y-72231250D01*
X115070207Y-72459337D01*
X115129466Y-72680493D01*
X115131789Y-72685474D01*
X115131789Y-72685475D01*
X115223901Y-72883012D01*
X115223904Y-72883017D01*
X115226227Y-72887999D01*
X115357552Y-73075550D01*
X115519450Y-73237448D01*
X115523958Y-73240605D01*
X115523961Y-73240607D01*
X115565292Y-73269547D01*
X115707001Y-73368773D01*
X115711983Y-73371096D01*
X115711988Y-73371099D01*
X115746799Y-73387331D01*
X115800084Y-73434248D01*
X115819545Y-73502525D01*
X115799003Y-73570485D01*
X115746799Y-73615721D01*
X115712239Y-73631836D01*
X115702744Y-73637319D01*
X115650702Y-73673759D01*
X115642326Y-73684238D01*
X115649394Y-73697684D01*
X116350938Y-74399228D01*
X116364882Y-74406842D01*
X116366715Y-74406711D01*
X116373330Y-74402460D01*
X117078827Y-73696963D01*
X117085257Y-73685188D01*
X117075961Y-73673173D01*
X117024756Y-73637319D01*
X117015261Y-73631836D01*
X116980701Y-73615721D01*
X116927416Y-73568804D01*
X116907955Y-73500527D01*
X116928497Y-73432567D01*
X116980701Y-73387331D01*
X117015512Y-73371099D01*
X117015517Y-73371096D01*
X117020499Y-73368773D01*
X117162208Y-73269547D01*
X117203539Y-73240607D01*
X117203542Y-73240605D01*
X117208050Y-73237448D01*
X117369948Y-73075550D01*
X117501273Y-72887999D01*
X117503596Y-72883017D01*
X117503599Y-72883012D01*
X117595711Y-72685475D01*
X117595711Y-72685474D01*
X117598034Y-72680493D01*
X117657293Y-72459337D01*
X117677248Y-72231250D01*
X117657293Y-72003163D01*
X117655869Y-71997848D01*
X117599457Y-71787317D01*
X117599456Y-71787315D01*
X117598034Y-71782007D01*
X117573736Y-71729899D01*
X117503599Y-71579488D01*
X117503596Y-71579483D01*
X117501273Y-71574501D01*
X117390511Y-71416317D01*
X117373107Y-71391461D01*
X117373105Y-71391458D01*
X117369948Y-71386950D01*
X117208050Y-71225052D01*
X117199557Y-71219105D01*
X117169803Y-71198270D01*
X117125475Y-71142812D01*
X117118167Y-71072193D01*
X117150199Y-71008833D01*
X117186344Y-70982054D01*
X117399036Y-70877159D01*
X117399045Y-70877154D01*
X117402739Y-70875332D01*
X117631185Y-70722682D01*
X117837754Y-70541520D01*
X118018911Y-70334948D01*
X118153812Y-70133053D01*
X118169261Y-70109932D01*
X118169262Y-70109930D01*
X118171556Y-70106497D01*
X118293078Y-69860078D01*
X118381399Y-69599906D01*
X118435007Y-69330432D01*
X118440701Y-69243605D01*
X118443929Y-69194371D01*
X118450850Y-69088825D01*
X118452326Y-69076165D01*
X118452756Y-69073612D01*
X118452757Y-69073605D01*
X118453562Y-69068818D01*
X118453715Y-69056266D01*
X118449758Y-69028628D01*
X118448486Y-69010770D01*
X118448486Y-68315750D01*
X118450232Y-68294845D01*
X118452756Y-68279844D01*
X118452756Y-68279841D01*
X118453562Y-68275052D01*
X118453715Y-68262500D01*
X118452528Y-68254209D01*
X118451734Y-68225371D01*
X118463918Y-68086109D01*
X118467732Y-68064482D01*
X118510706Y-67904104D01*
X118518217Y-67883466D01*
X118588388Y-67732983D01*
X118599365Y-67713970D01*
X118694606Y-67577951D01*
X118708717Y-67561134D01*
X118826124Y-67443726D01*
X118842949Y-67429608D01*
X118978960Y-67334372D01*
X118997980Y-67323391D01*
X119148459Y-67253220D01*
X119169097Y-67245708D01*
X119218648Y-67232430D01*
X119329479Y-67202732D01*
X119351102Y-67198919D01*
X119486823Y-67187044D01*
X119503363Y-67187601D01*
X119503368Y-67187200D01*
X119512344Y-67187310D01*
X119521215Y-67188691D01*
X119530116Y-67187527D01*
X119530120Y-67187527D01*
X119552774Y-67184564D01*
X119569112Y-67183500D01*
X158700633Y-67183500D01*
X158720018Y-67185000D01*
G37*
G04 #@! TD.AperFunction*
M02*
