M48
; DRILL file {KiCad (6.0.5)} date Thu Sep 29 17:00:36 2022
; FORMAT={-:-/ absolute / metric / decimal}
; #@! TF.CreationDate,2022-09-29T17:00:36+08:00
; #@! TF.GenerationSoftware,Kicad,Pcbnew,(6.0.5)
; #@! TF.FileFunction,Plated,1,2,PTH
FMAT,2
METRIC
; #@! TA.AperFunction,Plated,PTH,ViaDrill
T1C0.400
; #@! TA.AperFunction,Plated,PTH,ComponentDrill
T2C1.000
; #@! TA.AperFunction,Plated,PTH,ComponentDrill
T3C3.000
%
G90
G05
T1
X114.3Y-114.3
T2
X101.134Y-75.57
X101.134Y-78.11
X101.134Y-80.65
X101.134Y-83.19
X101.134Y-85.73
X101.134Y-88.27
X101.134Y-90.81
X101.134Y-93.35
X101.134Y-95.89
X101.134Y-98.43
X101.134Y-100.97
X101.134Y-103.51
X101.134Y-106.05
X101.134Y-108.59
X101.134Y-111.13
X116.374Y-75.57
X116.374Y-78.11
X116.374Y-80.65
X116.374Y-83.19
X116.374Y-85.73
X116.374Y-88.27
X116.374Y-90.81
X116.374Y-93.35
X116.374Y-95.89
X116.374Y-98.43
X116.374Y-100.97
X116.374Y-103.51
X116.374Y-106.05
X116.374Y-108.59
X116.374Y-111.13
T3
X124.381Y-82.3
X124.381Y-102.175
X129.381Y-84.5
X129.381Y-104.375
X144.169Y-102.175
X144.225Y-82.3
X149.169Y-104.375
X149.225Y-84.5
T0
M30
