G04 #@! TF.GenerationSoftware,KiCad,Pcbnew,(6.0.5)*
G04 #@! TF.CreationDate,2022-09-29T17:00:32+08:00*
G04 #@! TF.ProjectId,4k-keypad-arduino-nano,346b2d6b-6579-4706-9164-2d6172647569,rev?*
G04 #@! TF.SameCoordinates,Original*
G04 #@! TF.FileFunction,Legend,Bot*
G04 #@! TF.FilePolarity,Positive*
%FSLAX46Y46*%
G04 Gerber Fmt 4.6, Leading zero omitted, Abs format (unit mm)*
G04 Created by KiCad (PCBNEW (6.0.5)) date 2022-09-29 17:00:32*
%MOMM*%
%LPD*%
G01*
G04 APERTURE LIST*
G04 Aperture macros list*
%AMRoundRect*
0 Rectangle with rounded corners*
0 $1 Rounding radius*
0 $2 $3 $4 $5 $6 $7 $8 $9 X,Y pos of 4 corners*
0 Add a 4 corners polygon primitive as box body*
4,1,4,$2,$3,$4,$5,$6,$7,$8,$9,$2,$3,0*
0 Add four circle primitives for the rounded corners*
1,1,$1+$1,$2,$3*
1,1,$1+$1,$4,$5*
1,1,$1+$1,$6,$7*
1,1,$1+$1,$8,$9*
0 Add four rect primitives between the rounded corners*
20,1,$1+$1,$2,$3,$4,$5,0*
20,1,$1+$1,$4,$5,$6,$7,0*
20,1,$1+$1,$6,$7,$8,$9,0*
20,1,$1+$1,$8,$9,$2,$3,0*%
G04 Aperture macros list end*
%ADD10C,0.150000*%
%ADD11C,0.120000*%
%ADD12R,1.600000X1.600000*%
%ADD13O,1.600000X1.600000*%
%ADD14C,1.200000*%
%ADD15C,1.700000*%
%ADD16C,3.400000*%
%ADD17RoundRect,0.260000X1.065000X1.040000X-1.065000X1.040000X-1.065000X-1.040000X1.065000X-1.040000X0*%
%ADD18C,3.300000*%
%ADD19R,1.200000X0.900000*%
G04 APERTURE END LIST*
D10*
X125714583Y-106229761D02*
X125571726Y-106277380D01*
X125333630Y-106277380D01*
X125238392Y-106229761D01*
X125190773Y-106182142D01*
X125143154Y-106086904D01*
X125143154Y-105991666D01*
X125190773Y-105896428D01*
X125238392Y-105848809D01*
X125333630Y-105801190D01*
X125524107Y-105753571D01*
X125619345Y-105705952D01*
X125666964Y-105658333D01*
X125714583Y-105563095D01*
X125714583Y-105467857D01*
X125666964Y-105372619D01*
X125619345Y-105325000D01*
X125524107Y-105277380D01*
X125286011Y-105277380D01*
X125143154Y-105325000D01*
X124809821Y-105277380D02*
X124571726Y-106277380D01*
X124381250Y-105563095D01*
X124190773Y-106277380D01*
X123952678Y-105277380D01*
X123143154Y-105610714D02*
X123143154Y-106277380D01*
X123381250Y-105229761D02*
X123619345Y-105944047D01*
X123000297Y-105944047D01*
X145502083Y-106229761D02*
X145359226Y-106277380D01*
X145121130Y-106277380D01*
X145025892Y-106229761D01*
X144978273Y-106182142D01*
X144930654Y-106086904D01*
X144930654Y-105991666D01*
X144978273Y-105896428D01*
X145025892Y-105848809D01*
X145121130Y-105801190D01*
X145311607Y-105753571D01*
X145406845Y-105705952D01*
X145454464Y-105658333D01*
X145502083Y-105563095D01*
X145502083Y-105467857D01*
X145454464Y-105372619D01*
X145406845Y-105325000D01*
X145311607Y-105277380D01*
X145073511Y-105277380D01*
X144930654Y-105325000D01*
X144597321Y-105277380D02*
X144359226Y-106277380D01*
X144168750Y-105563095D01*
X143978273Y-106277380D01*
X143740178Y-105277380D01*
X142883035Y-105277380D02*
X143359226Y-105277380D01*
X143406845Y-105753571D01*
X143359226Y-105705952D01*
X143263988Y-105658333D01*
X143025892Y-105658333D01*
X142930654Y-105705952D01*
X142883035Y-105753571D01*
X142835416Y-105848809D01*
X142835416Y-106086904D01*
X142883035Y-106182142D01*
X142930654Y-106229761D01*
X143025892Y-106277380D01*
X143263988Y-106277380D01*
X143359226Y-106229761D01*
X143406845Y-106182142D01*
X145558333Y-86354761D02*
X145415476Y-86402380D01*
X145177380Y-86402380D01*
X145082142Y-86354761D01*
X145034523Y-86307142D01*
X144986904Y-86211904D01*
X144986904Y-86116666D01*
X145034523Y-86021428D01*
X145082142Y-85973809D01*
X145177380Y-85926190D01*
X145367857Y-85878571D01*
X145463095Y-85830952D01*
X145510714Y-85783333D01*
X145558333Y-85688095D01*
X145558333Y-85592857D01*
X145510714Y-85497619D01*
X145463095Y-85450000D01*
X145367857Y-85402380D01*
X145129761Y-85402380D01*
X144986904Y-85450000D01*
X144653571Y-85402380D02*
X144415476Y-86402380D01*
X144225000Y-85688095D01*
X144034523Y-86402380D01*
X143796428Y-85402380D01*
X143510714Y-85402380D02*
X142891666Y-85402380D01*
X143225000Y-85783333D01*
X143082142Y-85783333D01*
X142986904Y-85830952D01*
X142939285Y-85878571D01*
X142891666Y-85973809D01*
X142891666Y-86211904D01*
X142939285Y-86307142D01*
X142986904Y-86354761D01*
X143082142Y-86402380D01*
X143367857Y-86402380D01*
X143463095Y-86354761D01*
X143510714Y-86307142D01*
X125714583Y-86354761D02*
X125571726Y-86402380D01*
X125333630Y-86402380D01*
X125238392Y-86354761D01*
X125190773Y-86307142D01*
X125143154Y-86211904D01*
X125143154Y-86116666D01*
X125190773Y-86021428D01*
X125238392Y-85973809D01*
X125333630Y-85926190D01*
X125524107Y-85878571D01*
X125619345Y-85830952D01*
X125666964Y-85783333D01*
X125714583Y-85688095D01*
X125714583Y-85592857D01*
X125666964Y-85497619D01*
X125619345Y-85450000D01*
X125524107Y-85402380D01*
X125286011Y-85402380D01*
X125143154Y-85450000D01*
X124809821Y-85402380D02*
X124571726Y-86402380D01*
X124381250Y-85688095D01*
X124190773Y-86402380D01*
X123952678Y-85402380D01*
X123619345Y-85497619D02*
X123571726Y-85450000D01*
X123476488Y-85402380D01*
X123238392Y-85402380D01*
X123143154Y-85450000D01*
X123095535Y-85497619D01*
X123047916Y-85592857D01*
X123047916Y-85688095D01*
X123095535Y-85830952D01*
X123666964Y-86402380D01*
X123047916Y-86402380D01*
X155614880Y-103974404D02*
X154614880Y-103974404D01*
X154614880Y-104212500D01*
X154662500Y-104355357D01*
X154757738Y-104450595D01*
X154852976Y-104498214D01*
X155043452Y-104545833D01*
X155186309Y-104545833D01*
X155376785Y-104498214D01*
X155472023Y-104450595D01*
X155567261Y-104355357D01*
X155614880Y-104212500D01*
X155614880Y-103974404D01*
X154948214Y-105402976D02*
X155614880Y-105402976D01*
X154567261Y-105164880D02*
X155281547Y-104926785D01*
X155281547Y-105545833D01*
X135771130Y-103974404D02*
X134771130Y-103974404D01*
X134771130Y-104212500D01*
X134818750Y-104355357D01*
X134913988Y-104450595D01*
X135009226Y-104498214D01*
X135199702Y-104545833D01*
X135342559Y-104545833D01*
X135533035Y-104498214D01*
X135628273Y-104450595D01*
X135723511Y-104355357D01*
X135771130Y-104212500D01*
X135771130Y-103974404D01*
X134771130Y-104879166D02*
X134771130Y-105498214D01*
X135152083Y-105164880D01*
X135152083Y-105307738D01*
X135199702Y-105402976D01*
X135247321Y-105450595D01*
X135342559Y-105498214D01*
X135580654Y-105498214D01*
X135675892Y-105450595D01*
X135723511Y-105402976D01*
X135771130Y-105307738D01*
X135771130Y-105022023D01*
X135723511Y-104926785D01*
X135675892Y-104879166D01*
X155614880Y-84130654D02*
X154614880Y-84130654D01*
X154614880Y-84368750D01*
X154662500Y-84511607D01*
X154757738Y-84606845D01*
X154852976Y-84654464D01*
X155043452Y-84702083D01*
X155186309Y-84702083D01*
X155376785Y-84654464D01*
X155472023Y-84606845D01*
X155567261Y-84511607D01*
X155614880Y-84368750D01*
X155614880Y-84130654D01*
X154710119Y-85083035D02*
X154662500Y-85130654D01*
X154614880Y-85225892D01*
X154614880Y-85463988D01*
X154662500Y-85559226D01*
X154710119Y-85606845D01*
X154805357Y-85654464D01*
X154900595Y-85654464D01*
X155043452Y-85606845D01*
X155614880Y-85035416D01*
X155614880Y-85654464D01*
X135771130Y-84130654D02*
X134771130Y-84130654D01*
X134771130Y-84368750D01*
X134818750Y-84511607D01*
X134913988Y-84606845D01*
X135009226Y-84654464D01*
X135199702Y-84702083D01*
X135342559Y-84702083D01*
X135533035Y-84654464D01*
X135628273Y-84606845D01*
X135723511Y-84511607D01*
X135771130Y-84368750D01*
X135771130Y-84130654D01*
X135771130Y-85654464D02*
X135771130Y-85083035D01*
X135771130Y-85368750D02*
X134771130Y-85368750D01*
X134913988Y-85273511D01*
X135009226Y-85178273D01*
X135056845Y-85083035D01*
D11*
X131681250Y-105900000D02*
X130881250Y-106700000D01*
X121877250Y-99900000D02*
X122877250Y-99900000D01*
X121877250Y-99900000D02*
X121877250Y-100600000D01*
X130881250Y-102050000D02*
X129881250Y-102050000D01*
X130881250Y-102050000D02*
X131681250Y-102850000D01*
X130881250Y-106700000D02*
X129881250Y-106700000D01*
X122131250Y-103750000D02*
G75*
G03*
X122931250Y-104550000I800000J0D01*
G01*
X141918750Y-103750000D02*
G75*
G03*
X142718750Y-104550000I800000J0D01*
G01*
X150668750Y-106700000D02*
X149668750Y-106700000D01*
X150668750Y-102050000D02*
X151468750Y-102850000D01*
X150668750Y-102050000D02*
X149668750Y-102050000D01*
X141664750Y-99900000D02*
X141664750Y-100600000D01*
X141664750Y-99900000D02*
X142664750Y-99900000D01*
X151468750Y-105900000D02*
X150668750Y-106700000D01*
X151525000Y-86025000D02*
X150725000Y-86825000D01*
X141721000Y-80025000D02*
X142721000Y-80025000D01*
X141721000Y-80025000D02*
X141721000Y-80725000D01*
X150725000Y-82175000D02*
X149725000Y-82175000D01*
X150725000Y-82175000D02*
X151525000Y-82975000D01*
X150725000Y-86825000D02*
X149725000Y-86825000D01*
X141975000Y-83875000D02*
G75*
G03*
X142775000Y-84675000I800000J0D01*
G01*
X131681250Y-86025000D02*
X130881250Y-86825000D01*
X121877250Y-80025000D02*
X122877250Y-80025000D01*
X121877250Y-80025000D02*
X121877250Y-80725000D01*
X130881250Y-82175000D02*
X129881250Y-82175000D01*
X130881250Y-82175000D02*
X131681250Y-82975000D01*
X130881250Y-86825000D02*
X129881250Y-86825000D01*
X122131250Y-83875000D02*
G75*
G03*
X122931250Y-84675000I800000J0D01*
G01*
X156162500Y-102462500D02*
X156162500Y-106362500D01*
X156162500Y-102462500D02*
X158162500Y-102462500D01*
X158162500Y-102462500D02*
X158162500Y-106362500D01*
X136318750Y-102462500D02*
X136318750Y-106362500D01*
X136318750Y-102462500D02*
X138318750Y-102462500D01*
X138318750Y-102462500D02*
X138318750Y-106362500D01*
X156162500Y-82618750D02*
X156162500Y-86518750D01*
X156162500Y-82618750D02*
X158162500Y-82618750D01*
X158162500Y-82618750D02*
X158162500Y-86518750D01*
X136318750Y-82618750D02*
X136318750Y-86518750D01*
X136318750Y-82618750D02*
X138318750Y-82618750D01*
X138318750Y-82618750D02*
X138318750Y-86518750D01*
%LPC*%
D12*
X101133750Y-75569949D03*
D13*
X101133750Y-78109949D03*
X101133750Y-80649949D03*
X101133750Y-83189949D03*
X101133750Y-85729949D03*
X101133750Y-88269949D03*
X101133750Y-90809949D03*
X101133750Y-93349949D03*
X101133750Y-95889949D03*
X101133750Y-98429949D03*
X101133750Y-100969949D03*
X101133750Y-103509949D03*
X101133750Y-106049949D03*
X101133750Y-108589949D03*
X101133750Y-111129949D03*
X116373750Y-111129949D03*
X116373750Y-108589949D03*
X116373750Y-106049949D03*
X116373750Y-103509949D03*
X116373750Y-100969949D03*
X116373750Y-98429949D03*
X116373750Y-95889949D03*
X116373750Y-93349949D03*
X116373750Y-90809949D03*
X116373750Y-88269949D03*
X116373750Y-85729949D03*
X116373750Y-83189949D03*
X116373750Y-80649949D03*
X116373750Y-78109949D03*
X116373750Y-75569949D03*
D14*
X134601250Y-94225000D03*
D15*
X123881250Y-98425000D03*
X134881250Y-98425000D03*
D16*
X129381250Y-98425000D03*
D17*
X121136250Y-102175000D03*
D18*
X124381250Y-102175000D03*
D17*
X132626250Y-104375000D03*
D18*
X129381250Y-104375000D03*
X149168750Y-104375000D03*
D17*
X152413750Y-104375000D03*
D18*
X144168750Y-102175000D03*
D17*
X140923750Y-102175000D03*
D16*
X149168750Y-98425000D03*
D15*
X154668750Y-98425000D03*
X143668750Y-98425000D03*
D14*
X154388750Y-94225000D03*
X154445000Y-74350000D03*
D15*
X143725000Y-78550000D03*
X154725000Y-78550000D03*
D16*
X149225000Y-78550000D03*
D17*
X140980000Y-82300000D03*
D18*
X144225000Y-82300000D03*
D17*
X152470000Y-84500000D03*
D18*
X149225000Y-84500000D03*
D14*
X134601250Y-74350000D03*
D15*
X123881250Y-78550000D03*
X134881250Y-78550000D03*
D16*
X129381250Y-78550000D03*
D17*
X121136250Y-82300000D03*
D18*
X124381250Y-82300000D03*
D17*
X132626250Y-84500000D03*
D18*
X129381250Y-84500000D03*
D19*
X157162500Y-103062500D03*
X157162500Y-106362500D03*
X137318750Y-103062500D03*
X137318750Y-106362500D03*
X157162500Y-83218750D03*
X157162500Y-86518750D03*
X137318750Y-83218750D03*
X137318750Y-86518750D03*
M02*
