G04 #@! TF.GenerationSoftware,KiCad,Pcbnew,(6.0.5)*
G04 #@! TF.CreationDate,2022-09-29T17:00:32+08:00*
G04 #@! TF.ProjectId,4k-keypad-arduino-nano,346b2d6b-6579-4706-9164-2d6172647569,rev?*
G04 #@! TF.SameCoordinates,Original*
G04 #@! TF.FileFunction,Soldermask,Top*
G04 #@! TF.FilePolarity,Negative*
%FSLAX46Y46*%
G04 Gerber Fmt 4.6, Leading zero omitted, Abs format (unit mm)*
G04 Created by KiCad (PCBNEW (6.0.5)) date 2022-09-29 17:00:32*
%MOMM*%
%LPD*%
G01*
G04 APERTURE LIST*
G04 Aperture macros list*
%AMRoundRect*
0 Rectangle with rounded corners*
0 $1 Rounding radius*
0 $2 $3 $4 $5 $6 $7 $8 $9 X,Y pos of 4 corners*
0 Add a 4 corners polygon primitive as box body*
4,1,4,$2,$3,$4,$5,$6,$7,$8,$9,$2,$3,0*
0 Add four circle primitives for the rounded corners*
1,1,$1+$1,$2,$3*
1,1,$1+$1,$4,$5*
1,1,$1+$1,$6,$7*
1,1,$1+$1,$8,$9*
0 Add four rect primitives between the rounded corners*
20,1,$1+$1,$2,$3,$4,$5,0*
20,1,$1+$1,$4,$5,$6,$7,0*
20,1,$1+$1,$6,$7,$8,$9,0*
20,1,$1+$1,$8,$9,$2,$3,0*%
G04 Aperture macros list end*
%ADD10R,1.600000X1.600000*%
%ADD11O,1.600000X1.600000*%
%ADD12R,1.800000X1.100000*%
%ADD13C,1.200000*%
%ADD14C,1.700000*%
%ADD15C,3.400000*%
%ADD16RoundRect,0.250000X-0.450000X0.262500X-0.450000X-0.262500X0.450000X-0.262500X0.450000X0.262500X0*%
G04 APERTURE END LIST*
D10*
X101133750Y-75569949D03*
D11*
X101133750Y-78109949D03*
X101133750Y-80649949D03*
X101133750Y-83189949D03*
X101133750Y-85729949D03*
X101133750Y-88269949D03*
X101133750Y-90809949D03*
X101133750Y-93349949D03*
X101133750Y-95889949D03*
X101133750Y-98429949D03*
X101133750Y-100969949D03*
X101133750Y-103509949D03*
X101133750Y-106049949D03*
X101133750Y-108589949D03*
X101133750Y-111129949D03*
X116373750Y-111129949D03*
X116373750Y-108589949D03*
X116373750Y-106049949D03*
X116373750Y-103509949D03*
X116373750Y-100969949D03*
X116373750Y-98429949D03*
X116373750Y-95889949D03*
X116373750Y-93349949D03*
X116373750Y-90809949D03*
X116373750Y-88269949D03*
X116373750Y-85729949D03*
X116373750Y-83189949D03*
X116373750Y-80649949D03*
X116373750Y-78109949D03*
X116373750Y-75569949D03*
D12*
X124693750Y-109275000D03*
X130893750Y-112975000D03*
X124693750Y-112975000D03*
X130893750Y-109275000D03*
D13*
X134601250Y-94225000D03*
D14*
X123881250Y-98425000D03*
X134881250Y-98425000D03*
D15*
X129381250Y-98425000D03*
X149168750Y-98425000D03*
D14*
X154668750Y-98425000D03*
X143668750Y-98425000D03*
D13*
X154388750Y-94225000D03*
X154445000Y-74350000D03*
D14*
X143725000Y-78550000D03*
X154725000Y-78550000D03*
D15*
X149225000Y-78550000D03*
D13*
X134601250Y-74350000D03*
D14*
X123881250Y-78550000D03*
X134881250Y-78550000D03*
D15*
X129381250Y-78550000D03*
D16*
X120650000Y-111006250D03*
X120650000Y-112831250D03*
M02*
