G04 #@! TF.GenerationSoftware,KiCad,Pcbnew,(6.0.5)*
G04 #@! TF.CreationDate,2022-09-29T17:00:32+08:00*
G04 #@! TF.ProjectId,4k-keypad-arduino-nano,346b2d6b-6579-4706-9164-2d6172647569,rev?*
G04 #@! TF.SameCoordinates,Original*
G04 #@! TF.FileFunction,Legend,Top*
G04 #@! TF.FilePolarity,Positive*
%FSLAX46Y46*%
G04 Gerber Fmt 4.6, Leading zero omitted, Abs format (unit mm)*
G04 Created by KiCad (PCBNEW (6.0.5)) date 2022-09-29 17:00:32*
%MOMM*%
%LPD*%
G01*
G04 APERTURE LIST*
G04 Aperture macros list*
%AMRoundRect*
0 Rectangle with rounded corners*
0 $1 Rounding radius*
0 $2 $3 $4 $5 $6 $7 $8 $9 X,Y pos of 4 corners*
0 Add a 4 corners polygon primitive as box body*
4,1,4,$2,$3,$4,$5,$6,$7,$8,$9,$2,$3,0*
0 Add four circle primitives for the rounded corners*
1,1,$1+$1,$2,$3*
1,1,$1+$1,$4,$5*
1,1,$1+$1,$6,$7*
1,1,$1+$1,$8,$9*
0 Add four rect primitives between the rounded corners*
20,1,$1+$1,$2,$3,$4,$5,0*
20,1,$1+$1,$4,$5,$6,$7,0*
20,1,$1+$1,$6,$7,$8,$9,0*
20,1,$1+$1,$8,$9,$2,$3,0*%
G04 Aperture macros list end*
%ADD10C,0.125000*%
%ADD11C,0.150000*%
%ADD12C,0.120000*%
%ADD13R,1.600000X1.600000*%
%ADD14O,1.600000X1.600000*%
%ADD15R,1.800000X1.100000*%
%ADD16C,1.200000*%
%ADD17C,1.700000*%
%ADD18C,3.400000*%
%ADD19RoundRect,0.250000X-0.450000X0.262500X-0.450000X-0.262500X0.450000X-0.262500X0.450000X0.262500X0*%
G04 APERTURE END LIST*
D10*
X152836904Y-109027857D02*
X153027380Y-109027857D01*
X152908333Y-108861190D02*
X152908333Y-109289761D01*
X152932142Y-109337380D01*
X152979761Y-109361190D01*
X153027380Y-109361190D01*
X153194047Y-109361190D02*
X153194047Y-108861190D01*
X153408333Y-109361190D02*
X153408333Y-109099285D01*
X153384523Y-109051666D01*
X153336904Y-109027857D01*
X153265476Y-109027857D01*
X153217857Y-109051666D01*
X153194047Y-109075476D01*
X153836904Y-109337380D02*
X153789285Y-109361190D01*
X153694047Y-109361190D01*
X153646428Y-109337380D01*
X153622619Y-109289761D01*
X153622619Y-109099285D01*
X153646428Y-109051666D01*
X153694047Y-109027857D01*
X153789285Y-109027857D01*
X153836904Y-109051666D01*
X153860714Y-109099285D01*
X153860714Y-109146904D01*
X153622619Y-109194523D01*
X154075000Y-109361190D02*
X154075000Y-109027857D01*
X154075000Y-109123095D02*
X154098809Y-109075476D01*
X154122619Y-109051666D01*
X154170238Y-109027857D01*
X154217857Y-109027857D01*
X154575000Y-109337380D02*
X154527380Y-109361190D01*
X154432142Y-109361190D01*
X154384523Y-109337380D01*
X154360714Y-109289761D01*
X154360714Y-109099285D01*
X154384523Y-109051666D01*
X154432142Y-109027857D01*
X154527380Y-109027857D01*
X154575000Y-109051666D01*
X154598809Y-109099285D01*
X154598809Y-109146904D01*
X154360714Y-109194523D01*
X154836904Y-108861190D02*
X154789285Y-108956428D01*
X155027380Y-109337380D02*
X155075000Y-109361190D01*
X155170238Y-109361190D01*
X155217857Y-109337380D01*
X155241666Y-109289761D01*
X155241666Y-109265952D01*
X155217857Y-109218333D01*
X155170238Y-109194523D01*
X155098809Y-109194523D01*
X155051190Y-109170714D01*
X155027380Y-109123095D01*
X155027380Y-109099285D01*
X155051190Y-109051666D01*
X155098809Y-109027857D01*
X155170238Y-109027857D01*
X155217857Y-109051666D01*
X155836904Y-109027857D02*
X155836904Y-109361190D01*
X155836904Y-109075476D02*
X155860714Y-109051666D01*
X155908333Y-109027857D01*
X155979761Y-109027857D01*
X156027380Y-109051666D01*
X156051190Y-109099285D01*
X156051190Y-109361190D01*
X156360714Y-109361190D02*
X156313095Y-109337380D01*
X156289285Y-109313571D01*
X156265476Y-109265952D01*
X156265476Y-109123095D01*
X156289285Y-109075476D01*
X156313095Y-109051666D01*
X156360714Y-109027857D01*
X156432142Y-109027857D01*
X156479761Y-109051666D01*
X156503571Y-109075476D01*
X156527380Y-109123095D01*
X156527380Y-109265952D01*
X156503571Y-109313571D01*
X156479761Y-109337380D01*
X156432142Y-109361190D01*
X156360714Y-109361190D01*
X157075000Y-109027857D02*
X157170238Y-109361190D01*
X157265476Y-109123095D01*
X157360714Y-109361190D01*
X157455952Y-109027857D01*
X157860714Y-109361190D02*
X157860714Y-109099285D01*
X157836904Y-109051666D01*
X157789285Y-109027857D01*
X157694047Y-109027857D01*
X157646428Y-109051666D01*
X157860714Y-109337380D02*
X157813095Y-109361190D01*
X157694047Y-109361190D01*
X157646428Y-109337380D01*
X157622619Y-109289761D01*
X157622619Y-109242142D01*
X157646428Y-109194523D01*
X157694047Y-109170714D01*
X157813095Y-109170714D01*
X157860714Y-109146904D01*
X158051190Y-109027857D02*
X158170238Y-109361190D01*
X158289285Y-109027857D02*
X158170238Y-109361190D01*
X158122619Y-109480238D01*
X158098809Y-109504047D01*
X158051190Y-109527857D01*
X152563095Y-109832857D02*
X152753571Y-109832857D01*
X152634523Y-109666190D02*
X152634523Y-110094761D01*
X152658333Y-110142380D01*
X152705952Y-110166190D01*
X152753571Y-110166190D01*
X152920238Y-110166190D02*
X152920238Y-109666190D01*
X153134523Y-110166190D02*
X153134523Y-109904285D01*
X153110714Y-109856666D01*
X153063095Y-109832857D01*
X152991666Y-109832857D01*
X152944047Y-109856666D01*
X152920238Y-109880476D01*
X153372619Y-110166190D02*
X153372619Y-109832857D01*
X153372619Y-109666190D02*
X153348809Y-109690000D01*
X153372619Y-109713809D01*
X153396428Y-109690000D01*
X153372619Y-109666190D01*
X153372619Y-109713809D01*
X153586904Y-110142380D02*
X153634523Y-110166190D01*
X153729761Y-110166190D01*
X153777380Y-110142380D01*
X153801190Y-110094761D01*
X153801190Y-110070952D01*
X153777380Y-110023333D01*
X153729761Y-109999523D01*
X153658333Y-109999523D01*
X153610714Y-109975714D01*
X153586904Y-109928095D01*
X153586904Y-109904285D01*
X153610714Y-109856666D01*
X153658333Y-109832857D01*
X153729761Y-109832857D01*
X153777380Y-109856666D01*
X154325000Y-109832857D02*
X154515476Y-109832857D01*
X154396428Y-109666190D02*
X154396428Y-110094761D01*
X154420238Y-110142380D01*
X154467857Y-110166190D01*
X154515476Y-110166190D01*
X154682142Y-110166190D02*
X154682142Y-109666190D01*
X154896428Y-110166190D02*
X154896428Y-109904285D01*
X154872619Y-109856666D01*
X154825000Y-109832857D01*
X154753571Y-109832857D01*
X154705952Y-109856666D01*
X154682142Y-109880476D01*
X155134523Y-110166190D02*
X155134523Y-109832857D01*
X155134523Y-109666190D02*
X155110714Y-109690000D01*
X155134523Y-109713809D01*
X155158333Y-109690000D01*
X155134523Y-109666190D01*
X155134523Y-109713809D01*
X155372619Y-109832857D02*
X155372619Y-110166190D01*
X155372619Y-109880476D02*
X155396428Y-109856666D01*
X155444047Y-109832857D01*
X155515476Y-109832857D01*
X155563095Y-109856666D01*
X155586904Y-109904285D01*
X155586904Y-110166190D01*
X156039285Y-109832857D02*
X156039285Y-110237619D01*
X156015476Y-110285238D01*
X155991666Y-110309047D01*
X155944047Y-110332857D01*
X155872619Y-110332857D01*
X155825000Y-110309047D01*
X156039285Y-110142380D02*
X155991666Y-110166190D01*
X155896428Y-110166190D01*
X155848809Y-110142380D01*
X155825000Y-110118571D01*
X155801190Y-110070952D01*
X155801190Y-109928095D01*
X155825000Y-109880476D01*
X155848809Y-109856666D01*
X155896428Y-109832857D01*
X155991666Y-109832857D01*
X156039285Y-109856666D01*
X156610714Y-109832857D02*
X156705952Y-110166190D01*
X156801190Y-109928095D01*
X156896428Y-110166190D01*
X156991666Y-109832857D01*
X157253571Y-110166190D02*
X157205952Y-110142380D01*
X157182142Y-110118571D01*
X157158333Y-110070952D01*
X157158333Y-109928095D01*
X157182142Y-109880476D01*
X157205952Y-109856666D01*
X157253571Y-109832857D01*
X157325000Y-109832857D01*
X157372619Y-109856666D01*
X157396428Y-109880476D01*
X157420238Y-109928095D01*
X157420238Y-110070952D01*
X157396428Y-110118571D01*
X157372619Y-110142380D01*
X157325000Y-110166190D01*
X157253571Y-110166190D01*
X157634523Y-110166190D02*
X157634523Y-109832857D01*
X157634523Y-109928095D02*
X157658333Y-109880476D01*
X157682142Y-109856666D01*
X157729761Y-109832857D01*
X157777380Y-109832857D01*
X157944047Y-110166190D02*
X157944047Y-109666190D01*
X157991666Y-109975714D02*
X158134523Y-110166190D01*
X158134523Y-109832857D02*
X157944047Y-110023333D01*
X158325000Y-110142380D02*
X158372619Y-110166190D01*
X158467857Y-110166190D01*
X158515476Y-110142380D01*
X158539285Y-110094761D01*
X158539285Y-110070952D01*
X158515476Y-110023333D01*
X158467857Y-109999523D01*
X158396428Y-109999523D01*
X158348809Y-109975714D01*
X158325000Y-109928095D01*
X158325000Y-109904285D01*
X158348809Y-109856666D01*
X158396428Y-109832857D01*
X158467857Y-109832857D01*
X158515476Y-109856666D01*
D11*
X108039464Y-70656615D02*
X108515654Y-70656615D01*
X107944226Y-70942329D02*
X108277559Y-69942329D01*
X108610892Y-70942329D01*
X109468035Y-70942329D02*
X108896607Y-70942329D01*
X109182321Y-70942329D02*
X109182321Y-69942329D01*
X109087083Y-70085187D01*
X108991845Y-70180425D01*
X108896607Y-70228044D01*
X126460416Y-107465761D02*
X126603273Y-107513380D01*
X126841369Y-107513380D01*
X126936607Y-107465761D01*
X126984226Y-107418142D01*
X127031845Y-107322904D01*
X127031845Y-107227666D01*
X126984226Y-107132428D01*
X126936607Y-107084809D01*
X126841369Y-107037190D01*
X126650892Y-106989571D01*
X126555654Y-106941952D01*
X126508035Y-106894333D01*
X126460416Y-106799095D01*
X126460416Y-106703857D01*
X126508035Y-106608619D01*
X126555654Y-106561000D01*
X126650892Y-106513380D01*
X126888988Y-106513380D01*
X127031845Y-106561000D01*
X127365178Y-106513380D02*
X127603273Y-107513380D01*
X127793750Y-106799095D01*
X127984226Y-107513380D01*
X128222321Y-106513380D01*
X129127083Y-107513380D02*
X128555654Y-107513380D01*
X128841369Y-107513380D02*
X128841369Y-106513380D01*
X128746130Y-106656238D01*
X128650892Y-106751476D01*
X128555654Y-106799095D01*
X122752380Y-112085416D02*
X122276190Y-112418750D01*
X122752380Y-112656845D02*
X121752380Y-112656845D01*
X121752380Y-112275892D01*
X121800000Y-112180654D01*
X121847619Y-112133035D01*
X121942857Y-112085416D01*
X122085714Y-112085416D01*
X122180952Y-112133035D01*
X122228571Y-112180654D01*
X122276190Y-112275892D01*
X122276190Y-112656845D01*
X122752380Y-111133035D02*
X122752380Y-111704464D01*
X122752380Y-111418750D02*
X121752380Y-111418750D01*
X121895238Y-111513988D01*
X121990476Y-111609226D01*
X122038095Y-111704464D01*
D12*
X102403750Y-74299949D02*
X99733750Y-74299949D01*
X117773750Y-115069949D02*
X117773750Y-71629949D01*
X99733750Y-76839949D02*
X99733750Y-115069949D01*
X102403750Y-112399949D02*
X99733750Y-112399949D01*
X115103750Y-74299949D02*
X115103750Y-112399949D01*
X102403750Y-76839949D02*
X102403750Y-74299949D01*
X115103750Y-112399949D02*
X117773750Y-112399949D01*
X115103750Y-74299949D02*
X117773750Y-74299949D01*
X102403750Y-76839949D02*
X99733750Y-76839949D01*
X117773750Y-71629949D02*
X99733750Y-71629949D01*
X99733750Y-115069949D02*
X117773750Y-115069949D01*
X99733750Y-71629949D02*
X99733750Y-74299949D01*
X102403750Y-76839949D02*
X102403750Y-112399949D01*
D11*
X128793750Y-111125000D02*
G75*
G03*
X128793750Y-111125000I-1000000J0D01*
G01*
X130393750Y-108525000D02*
X130393750Y-113725000D01*
X125193750Y-108525000D02*
X130393750Y-108525000D01*
X125193750Y-113725000D02*
X125193750Y-108525000D01*
X130393750Y-113725000D02*
X125193750Y-113725000D01*
D12*
X121385000Y-111691686D02*
X121385000Y-112145814D01*
X119915000Y-111691686D02*
X119915000Y-112145814D01*
%LPC*%
D13*
X101133750Y-75569949D03*
D14*
X101133750Y-78109949D03*
X101133750Y-80649949D03*
X101133750Y-83189949D03*
X101133750Y-85729949D03*
X101133750Y-88269949D03*
X101133750Y-90809949D03*
X101133750Y-93349949D03*
X101133750Y-95889949D03*
X101133750Y-98429949D03*
X101133750Y-100969949D03*
X101133750Y-103509949D03*
X101133750Y-106049949D03*
X101133750Y-108589949D03*
X101133750Y-111129949D03*
X116373750Y-111129949D03*
X116373750Y-108589949D03*
X116373750Y-106049949D03*
X116373750Y-103509949D03*
X116373750Y-100969949D03*
X116373750Y-98429949D03*
X116373750Y-95889949D03*
X116373750Y-93349949D03*
X116373750Y-90809949D03*
X116373750Y-88269949D03*
X116373750Y-85729949D03*
X116373750Y-83189949D03*
X116373750Y-80649949D03*
X116373750Y-78109949D03*
X116373750Y-75569949D03*
D15*
X124693750Y-109275000D03*
X130893750Y-112975000D03*
X124693750Y-112975000D03*
X130893750Y-109275000D03*
D16*
X134601250Y-94225000D03*
D17*
X123881250Y-98425000D03*
X134881250Y-98425000D03*
D18*
X129381250Y-98425000D03*
X149168750Y-98425000D03*
D17*
X154668750Y-98425000D03*
X143668750Y-98425000D03*
D16*
X154388750Y-94225000D03*
X154445000Y-74350000D03*
D17*
X143725000Y-78550000D03*
X154725000Y-78550000D03*
D18*
X149225000Y-78550000D03*
D16*
X134601250Y-74350000D03*
D17*
X123881250Y-78550000D03*
X134881250Y-78550000D03*
D18*
X129381250Y-78550000D03*
D19*
X120650000Y-111006250D03*
X120650000Y-112831250D03*
M02*
